<svg width="17" height="17.023973" version="1.1"
  xmlns="http://www.w3.org/2000/svg" xmlns:svg="http://www.w3.org/2000/svg">


  <path
    d="M 8.5,1.4999823 L 1.5,4.9999823 V 6.9999823 L 3,6.3499823 V 15.499982 H 4.5 V 5.6999823 L 8.5,3.9999823 L 12.5,5.6999823 V 15.499982 H 14 V 6.3499823 L 15.5,6.9999823 V 4.9999823 Z M 8.473,6.5489823 A 0.70400071,0.70400071 0 1 0 8.471,7.9569823 A 0.70400071,0.70400071 0 0 0 8.473,6.5489823 Z M 6.549,7.6869823 A 0.199,0.199 0 0 0 6.307,7.8339823 L 5.814,9.8749823 A 0.2,0.2 0 0 0 5.963,10.116982 L 6.549,10.256982 A 0.198,0.198 0 0 0 6.791,10.110982 L 7.283,8.0719823 A 0.203,0.203 0 0 0 7.137,7.8279823 L 6.549,7.6879823 Z M 8.268,8.0639823 C 7.694,8.0499823 7.548,8.6519823 7.548,8.6519823 L 6.061,14.905982 A 0.49477268,0.49477268 0 0 0 7.021,15.145982 L 7.873,11.626982 L 8.682,15.124982 A 0.494,0.494 0 0 0 9.654,15.004982 A 0.644,0.644 0 0 0 9.646,14.895982 L 8.533,10.247982 L 8.627,9.8399823 L 8.699,10.161982 A 0.32,0.32 0 0 0 8.957,10.390982 L 10.102,10.683982 A 0.416,0.416 0 0 0 10.172,10.688982 A 0.335,0.335 0 0 0 10.51,10.353982 A 0.34,0.34 0 0 0 10.25,10.020982 L 9.258,9.7729823 L 8.986,8.6659823 C 8.856,8.0489823 8.268,8.0639823 8.268,8.0639823 Z M 11.33,8.7789823 C 11.248,8.7789823 11.187,8.8409823 11.17,8.9189823 L 9.988,15.325982 L 9.986,15.335982 C 9.986,15.425982 10.059,15.497982 10.148,15.497982 A 0.167,0.167 0 0 0 10.311,15.357982 L 11.49,8.9499823 V 8.9399823 A 0.16,0.16 0 0 0 11.33,8.7799823 Z"
  />
</svg>
