<svg height="17" width="17" version="1.1"
  xmlns="http://www.w3.org/2000/svg" xmlns:svg="http://www.w3.org/2000/svg">

  <path
    d="M 1.5,1.5 H 15.5 V 3.5 H 1.5 Z M 1.5,13.5 H 15.5 V 15.5 H 1.5 Z M 2,4.5 C 1.723,4.5 1.5,4.723 1.5,5 V 12.5 H 2.5 V 10.5 H 14.5 V 12.5 H 15.5 V 7 A 0.5,0.5 0 1 0 14.5,7 V 9.5 H 2.5 V 5 C 2.5,4.723 2.277,4.5 2,4.5 Z M 5,5.5 A 1.5,1.5 0 1 0 5,8.5 A 1.5,1.5 0 0 0 5,5.5 Z M 7.5,6.5 V 8.5 H 13.5 C 13.5,7.5 12.464,6.5 11.5,6.5 Z" />
  <path
    fill="#808080"
    d="M 1.5,1.5 H 15.5 V 3.5 H 1.5 Z M 1.5,13.5 H 15.5 V 15.5 H 1.5 Z" />
</svg>
