<svg xmlns="http://www.w3.org/2000/svg" width="14" height="14">
    <path d="M4.46 12H-.599c.033-.664.107-1.357.14-2.034.099-.909-.057-2.17.695-2.764.551-.332.864-1.134 1.205-1.627.494-.606.782-.897 1.169-1.524.287-.431.974-.747 1.34-1.162a2.427 2.449 0 011.654-.805 6.745 6.807 0 012.3.033c.472.27.937.614 1.513.581a3.241 3.27 0 011.628.693c.58.278.61.581.91 1.179.366.86.904 1.025.987 1.677-.046.668.288 1.204.629 1.76.374.51-.017 1.307.164 1.922.186.664.391 1.378.239 2.071H9.129c-.107-.68.534-1.345.625-2.034a6.556 6.616 0 00-.884-4.333c-.157-.573-.387-1.324-1.082-1.15-.609-.091-.934-.73-1.802.087-.76.262-1.534 1.876-1.957 2.395-.33.457-.239 1.735-.465 2.806-.148.714.933 1.586.896 2.229z" fill-rule="evenodd" stroke="#fff" stroke-width="3" stroke-linejoin="round" stroke-opacity=".5"/>
    <path d="M4.46 12H-.599c.033-.664.107-1.357.14-2.034.099-.909-.057-2.17.695-2.764.551-.332.864-1.134 1.205-1.627.494-.606.782-.897 1.169-1.524.287-.431.974-.747 1.34-1.162a2.427 2.449 0 011.654-.805 6.745 6.807 0 012.3.033c.472.27.937.614 1.513.581a3.241 3.27 0 011.628.693c.58.278.61.581.91 1.179.366.86.904 1.025.987 1.677-.046.668.288 1.204.629 1.76.374.51-.017 1.307.164 1.922.186.664.391 1.378.239 2.071H9.129c-.107-.68.534-1.345.625-2.034a6.556 6.616 0 00-.884-4.333c-.157-.573-.387-1.324-1.082-1.15-.609-.091-.934-.73-1.802.087-.76.262-1.534 1.876-1.957 2.395-.33.457-.239 1.735-.465 2.806-.148.714.933 1.586.896 2.229z" fill-rule="evenodd"/>
</svg>
