<svg width="16" height="17" version="1.1"
  xmlns="http://www.w3.org/2000/svg" xmlns:svg="http://www.w3.org/2000/svg">


  <path
    d="M 4,1.5 V 2.5 H 5 C 5.599,2.5 5.841,3.543 5.938,4.406 C 4.965,3.65 4.025,3.38 3.218,3.531 C 2.189,3.725 1.5,4.674 1.5,5.75 C 1.5,6.592 1.812,7.329 2.344,8.094 C 2.808,8.762 3.464,9.534 4.281,10.469 C 4.648,11.828 5.322,13.072 6,13.75 V 14.5 L 5,15 V 15.5 H 11 V 15 L 10,14.5 V 13.75 C 10.678,13.072 11.352,11.828 11.719,10.469 C 12.536,9.534 13.192,8.762 13.656,8.094 C 14.188,7.329 14.5,6.592 14.5,5.75 C 14.5,4.674 13.812,3.725 12.781,3.531 C 11.975,3.38 11.035,3.65 10.062,4.406 C 10.16,3.543 10.402,2.5 11,2.5 H 12 V 1.5 Z M 3.375,4.531 C 3.885,4.435 4.735,4.632 5.719,5.531 C 4.604,5.67 4,6.65 4,8.5 V 8.594 C 3.66,8.198 3.376,7.848 3.156,7.531 C 2.688,6.857 2.5,6.363 2.5,5.75 C 2.5,5.05 2.81,4.637 3.375,4.531 Z M 12.125,4.531 C 12.313,4.504 12.484,4.505 12.625,4.531 C 13.189,4.637 13.5,5.05 13.5,5.75 C 13.5,6.363 13.312,6.857 12.844,7.531 C 12.624,7.848 12.341,8.198 12,8.594 V 8.5 C 12,6.65 11.396,5.67 10.281,5.531 C 10.993,4.881 11.633,4.602 12.125,4.531 Z"
  />
</svg>
