<svg width="11" height="17" version="1.1"
  xmlns="http://www.w3.org/2000/svg" xmlns:svg="http://www.w3.org/2000/svg">

  <path
    d="M 2.5,1.5 L 3.5,3.5 H 4.5 L 3.5,5.5 L 4.5,7.5 L 3.5,9.5 L 4.5,11.5 L 3.5,13.5 H 7.5 L 6.5,11.5 L 7.5,9.5 L 6.5,7.5 L 7.5,5.5 L 6.5,3.5 H 7.5 L 8.5,1.5 Z M 5.5,4.5 A 1,1 0 0 1 6.5,5.5 A 1,1 0 0 1 5.5,6.5 A 1,1 0 0 1 4.5,5.5 A 1,1 0 0 1 5.5,4.5 Z M 5.5,8.5 A 1,1 0 0 1 6.5,9.5 A 1,1 0 0 1 5.5,10.5 A 1,1 0 0 1 4.5,9.5 A 1,1 0 0 1 5.5,8.5 Z M 1.5,14.5 V 15.5 H 9.5 V 14.5 Z"
  />
</svg>
