<svg xmlns="http://www.w3.org/2000/svg" width="14" height="14">
    <path d="M4 0l1 2h1L5 4l1 2-1 2 1 2-1 2h4l-1-2 1-2-1-2 1-2-1-2h1l1-2zm3 3a1 1 0 011 1 1 1 0 01-1 1 1 1 0 01-1-1 1 1 0 011-1zm0 4a1 1 0 011 1 1 1 0 01-1 1 1 1 0 01-1-1 1 1 0 011-1zm-4 6v1h8v-1z" fill="none" stroke="#fff" stroke-width="3" stroke-linecap="round" stroke-linejoin="round" stroke-opacity=".5" paint-order="markers stroke fill"/>
    <path d="M4 0l1 2h1L5 4l1 2-1 2 1 2-1 2h4l-1-2 1-2-1-2 1-2-1-2h1l1-2zm3 3a1 1 0 011 1 1 1 0 01-1 1 1 1 0 01-1-1 1 1 0 011-1zm0 4a1 1 0 011 1 1 1 0 01-1 1 1 1 0 01-1-1 1 1 0 011-1zm-4 6v1h8v-1z" paint-order="markers stroke fill"/>
</svg>
