<svg width="16.015985" height="15.999969" version="1.1"
  xmlns="http://www.w3.org/2000/svg" xmlns:svg="http://www.w3.org/2000/svg">

  <path
    d="M 7.338,1.4999843 C 5.738,1.6599843 4.319,2.3999843 3.279,3.4979843 C 4.399,4.4379843 5.179,5.7999843 5.339,7.3379843 H 7.338 Z M 8.66,1.4999843 V 7.3379843 H 10.658 C 10.818,5.7979843 11.6,4.4379843 12.718,3.4979843 A 6.519,6.519 0 0 0 8.66,1.4999843 Z M 13.52,4.5179843 A 4.614,4.614 0 0 0 11.979,7.3379843 H 14.498 A 6.26,6.26 0 0 0 13.52,4.5179843 Z M 2.479,4.5199843 C 1.959,5.3599843 1.599,6.2969843 1.5,7.3369843 H 4.02 A 4.597,4.597 0 0 0 2.479,4.5199843 Z M 1.5,8.6609843 C 1.6,9.7009843 1.94,10.640984 2.479,11.480984 A 4.586,4.586 0 0 0 4.04,8.6599843 H 1.5 Z M 5.34,8.6609843 C 5.18,10.200984 4.398,11.558984 3.28,12.499984 A 6.492,6.492 0 0 0 7.34,14.497984 V 8.6599843 H 5.34 Z M 8.66,8.6609843 V 14.499984 C 10.26,14.339984 11.68,13.599984 12.72,12.501984 C 11.6,11.558984 10.818,10.197984 10.658,8.6599843 H 8.66 Z M 11.979,8.6609843 A 4.491,4.491 0 0 0 13.537,11.480984 C 14.056,10.640984 14.417,9.7009843 14.516,8.6609843 Z"
  />
</svg>
