<svg width="17.031649" height="14.004435" version="1.1"
  xmlns="http://www.w3.org/2000/svg" xmlns:svg="http://www.w3.org/2000/svg">


  <path
    d="M 6.3546499,1.5044345 A 0.998,0.998 0 0 0 5.3526499,2.5024345 A 0.999,0.999 0 0 0 6.3546499,3.5034345 H 10.77665 A 1.002,1.002 0 1 0 10.77665,1.5004345 H 6.3506499 Z M 4.0676499,4.5174345 A 1.002,1.002 0 1 0 4.0676499,6.5204345 H 12.99165 A 1.002,1.002 0 1 0 12.99165,4.5174345 H 4.0716499 Z M 2.9346499,7.5034345 A 1.002,1.002 0 1 0 2.9346499,9.5064345 H 14.19665 A 1.002,1.002 0 1 0 14.19665,7.5034345 H 2.9376499 Z M 2.5336499,10.497434 A 1.002,1.002 0 1 0 2.5336499,12.500434 C 4.0336499,12.496434 5.2696499,12.500434 6.5696499,12.500434 A 1.965,2.63 0 0 1 6.5666499,12.300434 A 1.965,2.63 0 0 1 7.0996499,10.497434 Z M 9.9606499,10.497434 A 1.965,2.63 0 0 1 10.49665,12.300434 A 1.965,2.63 0 0 1 10.48565,12.504434 H 14.52965 A 1.002,1.002 0 1 0 14.52965,10.500434 H 9.9566499 Z"
    fill="#030c25"
  />
</svg>
