<svg xmlns="http://www.w3.org/2000/svg" width="16" height="16">
    <path d="M5.823 2.004a.998.998 0 00-1.002.998.999.999 0 001.002 1.001h4.422a1.002 1.002 0 100-2.003H5.819zM3.536 5.017a1.002 1.002 0 100 2.003h8.924a1.002 1.002 0 100-2.003H3.54zM2.403 8.003a1.002 1.002 0 100 2.003h11.262a1.002 1.002 0 100-2.003H2.406zm-.401 2.994a1.002 1.002 0 100 2.003h11.996a1.002 1.002 0 100-2.003z" opacity=".5" fill="#030c25" stroke="#fdfdfd" stroke-width="3" stroke-linecap="round" stroke-linejoin="round"/>
    <path d="M5.823 2.004a.998.998 0 00-1.002.998.999.999 0 001.002 1.001h4.422a1.002 1.002 0 100-2.003H5.819zM3.536 5.017a1.002 1.002 0 100 2.003h8.924a1.002 1.002 0 100-2.003H3.54zM2.403 8.003a1.002 1.002 0 100 2.003h11.262a1.002 1.002 0 100-2.003H2.406zm-.401 2.994a1.002 1.002 0 100 2.003c1.5-.004 2.736 0 4.036 0a1.965 2.63 0 01-.003-.2 1.965 2.63 0 01.533-1.803zm7.427 0a1.965 2.63 0 01.536 1.803 1.965 2.63 0 01-.011.204h4.044a1.002 1.002 0 100-2.004H9.425z" fill="#030c25"/>
</svg>
