<svg width="17" height="13.49989" version="1.1"
  xmlns="http://www.w3.org/2000/svg" xmlns:svg="http://www.w3.org/2000/svg">


  <path
    d="M 9.5,1.4998901 V 2.3748901 L 10.75,3.1558901 V 4.2498901 H 6.5 V 3.4998901 H 7 C 8,3.4998901 8,2.4998901 7,2.4998901 H 5 C 4,2.4998901 4,3.4998901 5,3.4998901 H 5.5 V 4.2498901 L 4.562,5.9998901 H 4.5 C 2.888,5.9998901 1.5,7.3878901 1.5,8.9998901 C 1.5,10.61189 2.888,11.99989 4.5,11.99989 C 6.112,11.99989 7.5,10.61189 7.5,8.9998901 A 2.9,2.9 0 0 0 7.312,7.9998901 H 7.75 C 8.5,7.9998901 8.673,7.5458901 8.938,7.2808901 L 10.718,5.2498901 L 11.25,6.2808901 C 10.227,6.7658901 9.5,7.8248901 9.5,8.9998901 C 9.5,10.61189 10.888,11.99989 12.5,11.99989 C 14.112,11.99989 15.5,10.61189 15.5,8.9998901 C 15.5,7.3878901 14.112,5.9998901 12.5,5.9998901 C 12.469,5.9998901 12.438,5.9988901 12.406,5.9998901 L 11.5,4.2498901 V 2.6558901 Z M 6.281,5.2498901 H 9.406 L 7.844,6.9998901 H 6.719 C 6.7,6.9998901 6.675,7.0018901 6.656,6.9998901 A 3.028,3.028 0 0 0 5.75,6.3118901 C 5.738,6.2938901 5.73,6.2688901 5.719,6.2498901 Z M 4.5,6.9998901 C 5.506,6.9998901 6.5,7.9938901 6.5,8.9998901 C 6.5,10.00589 5.506,10.99989 4.5,10.99989 C 3.494,10.99989 2.5,10.00589 2.5,8.9998901 C 2.5,7.9938901 3.494,6.9998901 4.5,6.9998901 Z M 12.5,6.9998901 C 13.506,6.9998901 14.5,7.9938901 14.5,8.9998901 C 14.5,10.00589 13.506,10.99989 12.5,10.99989 C 11.494,10.99989 10.5,10.00589 10.5,8.9998901 C 10.5,7.9938901 11.494,6.9998901 12.5,6.9998901 Z"
  />
</svg>
