<svg width="17" height="16.784" version="1.1"
  xmlns="http://www.w3.org/2000/svg" xmlns:svg="http://www.w3.org/2000/svg">


  <path
    d="M 4.5709997,1.5 V 3.407 H 7.2309997 V 1.5 Z M 9.7809997,1.5 V 3.407 H 12.446 V 1.5 Z M 9.7809997,4.004 V 9.269 C 9.7809997,9.521 9.9839997,9.725 10.237,9.725 H 10.692 V 14.828 C 10.692,15.072 10.892,15.271 11.136,15.271 H 15.048 C 15.292,15.271 15.492,15.071 15.492,14.828 V 11.652 L 15.5,11.188 L 13.805,4.004 Z M 3.1989997,4.012 L 1.4999997,11.196 L 1.5079997,11.665 V 14.84 C 1.5079997,15.084 1.7079997,15.284 1.9519997,15.284 H 5.8639997 C 6.1119997,15.284 6.3119997,15.084 6.3119997,14.84 V 9.742 H 6.7639997 A 0.459,0.459 0 0 0 7.2189997,9.282 V 4.012 Z M 7.8079997,4.012 V 8.908 H 9.1879997 V 4.012 Z"
  />
</svg>
