<svg
   width="12.6306"
   height="13.0011"
   xmlns="http://www.w3.org/2000/svg">
  <path
     d="m 9.9216063,2.167 c 0,1.006 -0.335,1.857 -0.693,2.77 -0.414,1.052 -0.86,2.185 -0.86,3.73 0,2.166 0.687,4.333 1.409,4.333 h 1.4439997 c 0.723,0 1.409,-2.166 1.409,-4.333 0,-1.545 -0.446,-2.678 -0.86,-3.73 -0.358,-0.912 -0.693,-1.764 -0.693,-2.77 0,-0.722 0.144,-0.723 0.144,-1.445 A 0.743,0.743 0 0 0 10.499606,0 0.743,0.743 0 0 0 9.7776063,0.722 c 0,0.723 0.144,0.723 0.144,1.445 z m -2.552,6.5 c 0,-1.234 0.254,-2.236 0.55,-3.091 a 4.5,4.5 0 1 0 -0.17,6.038 c -0.237,-0.865 -0.38,-1.91 -0.38,-2.947 z m -3.13,-2.546 a 0.62,0.62 0 1 1 -1.24,0 0.62,0.62 0 0 1 1.24,0 z m -1,2 a 0.62,0.62 0 1 1 -1.24,0 0.62,0.62 0 0 1 1.24,0 z m 2,0 a 0.62,0.62 0 1 1 -1.24,0 0.62,0.62 0 0 1 1.24,0 z" />
</svg>
