<svg width="14.991576" height="12.989938" version="1.1"
  xmlns="http://www.w3.org/2000/svg" xmlns:svg="http://www.w3.org/2000/svg">

  <path
    d="M 7.4957881,1.499938 L 7.1417881,1.852938 L 1.4997881,7.497938 H 4.2597881 V 11.489938 H 10.731788 V 7.497938 H 13.491788 Z M 7.4957881,2.913938 L 11.077788,6.497938 H 9.7317881 V 10.489938 H 5.2597881 V 6.497938 H 3.9137881 Z M 7.6057881,4.918938 C 7.3397881,4.918938 6.9207881,4.900938 6.6307881,5.034938 L 6.3767881,5.151938 L 6.4767881,5.413938 L 6.6967881,5.993938 L 6.9917881,5.853938 C 7.2017881,5.751938 7.5057881,5.807938 7.5847881,5.807938 C 7.7047881,5.807938 7.7567881,5.832938 7.7907881,5.861938 V 5.863938 H 7.7917881 C 7.8197881,5.886938 7.8327881,5.903938 7.8327881,5.998938 C 7.8327881,6.048938 7.8227881,6.085938 7.7997881,6.129938 A 0.603,0.603 0 0 1 7.6617881,6.289938 L 7.6597881,6.291938 L 7.3627881,6.559938 C 7.1327881,6.765938 7.0147881,7.072938 7.0147881,7.399938 V 7.829938 H 7.9187881 V 7.402938 C 7.9187881,7.338938 7.9287881,7.296938 7.9327881,7.282938 A 0.165,0.165 0 0 1 7.9597881,7.229938 C 7.9497881,7.243938 8.0427881,7.145938 8.1827881,7.027938 L 8.1847881,7.025938 C 8.5517881,6.715938 8.7887881,6.373938 8.7887881,5.985938 C 8.7887881,5.672938 8.6787881,5.373938 8.4527881,5.182938 C 8.2297881,4.994938 7.9337881,4.918938 7.6067881,4.918938 Z M 7.5067881,8.422938 A 0.6,0.6 0 0 0 7.0947881,8.594938 A 0.605,0.605 0 0 0 6.9307881,9.006938 C 6.9307881,9.153938 6.9897881,9.310938 7.0887881,9.420938 L 7.0907881,9.422938 H 7.0927881 A 0.59,0.59 0 0 0 7.5067881,9.606938 A 0.592,0.592 0 0 0 7.9227881,9.422938 A 0.607,0.607 0 0 0 7.9187881,8.594938 A 0.597,0.597 0 0 0 7.5067881,8.422938 Z"
  />
</svg>
