<svg
   width="14"
   height="14"
   xmlns="http://www.w3.org/2000/svg">
  <path
     d="M 3,0 V 1.0292969 C 2.5793307,1.0585054 2.1790365,1.1157392 1.8183594,1.2304688 1.3344976,1.3843825 0.9648186,1.6115635 0.7128906,1.9101562 0.4609626,2.2056708 0.3359375,2.5235457 0.3359375,2.8652344 c 0,0.3109059 0.1026989,0.5932844 0.3066406,0.8457031 C 0.8505187,3.9602778 1.1641043,4.1685854 1.5839844,4.3378906 1.8637112,4.4522018 2.3594057,4.5750388 3,4.703125 V 7.1484375 C 2.768869,7.1153663 2.55059,7.0658663 2.3457031,6.9980469 1.9458174,6.8626027 1.6489765,6.6861825 1.4570312,6.4707031 1.269085,6.2521455 1.1496415,5.975329 1.0976562,5.6367188 L 0,5.7089844 C 0.0159954,6.161491 0.1765556,6.5695292 0.4804687,6.9296875 0.7883808,7.2867675 1.2102468,7.5538819 1.7460938,7.7324219 2.1019935,7.8501265 2.5328678,7.9149717 3,7.9550781 V 9 H 4 V 7.9804688 C 4.5238972,7.9592342 5.0119609,7.8870736 5.4414062,7.7363281 5.9452622,7.557788 6.3297328,7.3112031 6.5976562,6.9941406 6.8655797,6.6739999 7,6.3328145 7,5.9726562 7,5.6094197 6.8786959,5.2887636 6.6347656,5.0117188 6.3908352,4.7315956 6.0118538,4.5019307 5.5,4.3203125 5.2139993,4.2202397 4.679568,4.1030685 4,3.9765625 V 1.8378906 c 0.4092004,0.045257 0.7646065,0.1247338 1.0078125,0.2792969 0.3479006,0.2185576 0.5532984,0.5428227 0.6132813,0.9707031 L 6.7363281,3.0214844 C 6.7163339,2.6243868 6.572611,2.2690623 6.3046875,1.9550781 6.036764,1.641094 5.6522008,1.404211 5.1523438,1.2441406 4.8099838,1.1314964 4.4167049,1.0719796 4,1.0371094 V 0 Z M 10.597656,0 8,1.5 10.597656,3 V 1.9980469 c 0.786268,0.053358 1.397168,0.7060647 1.398438,1.4941406 C 11.995686,3.6653757 11.96529,3.8371851 11.90625,4 h 1.035156 c 0.03552,-0.1669599 0.05384,-0.3371185 0.05469,-0.5078125 C 12.995104,2.1516977 11.93704,1.0505504 10.597656,0.9960938 Z M 3,1.828125 V 3.7714844 C 2.4149492,3.6469524 1.9688676,3.5254575 1.7988281,3.40625 1.5708932,3.2492579 1.4570313,3.0478713 1.4570312,2.8046875 1.4570312,2.5245644 1.6175914,2.2868533 1.9375,2.0898438 2.1764557,1.9422331 2.5542911,1.8668391 3,1.828125 Z M 4,4.9140625 C 4.2946808,4.9748308 4.7181531,5.0535208 4.8457031,5.0917969 5.213598,5.1995366 5.4787176,5.3321171 5.6386719,5.4921875 5.7986262,5.6491796 5.8789063,5.834474 5.8789062,6.046875 5.8789063,6.2561978 5.794905,6.4503663 5.6269531,6.6289062 5.4629998,6.804368 5.2109966,6.9433388 4.8710938,7.0449219 4.6137933,7.1218185 4.3168777,7.1590471 4,7.1777344 Z M 12.070312,5 C 11.272664,5 10.542827,5.1731994 9.880859,5.5214844 8.807732,6.0834897 8.2982708,6.7650052 7.8886719,8 H 7.171875 L 7,9 h 0.8085938 c 2.362e-4,0.338752 -0.015931,0.659675 0.011719,1 H 7.171875 L 7,11 h 0.9433594 c 0.094567,0.42744 0.1028037,0.49413 0.234375,0.794922 C 8.831479,13.283049 10.192337,14 12.050781,14 c 0.620852,0 1.189175,-0.114198 1.703125,-0.34375 v -1.222656 c -0.431717,0.387863 -1.031911,0.580078 -1.800781,0.580078 -0.550955,0 -1.064276,-0.135116 -1.537109,-0.408203 C 9.758159,12.225522 9.344562,11.906332 9.171875,11 h 3.667969 l 0.173828,-1 H 9.041016 c -0.0028,-0.333144 -0.01264,-0.666796 0,-1 h 4.138672 L 13.345703,8 H 9.140625 c 0.04112,-0.3245382 0.09983,-0.3996073 0.330078,-0.7597656 0.226138,-0.348285 0.556349,-0.5834638 0.835938,-0.7734375 0.468722,-0.3205805 1.047532,-0.4804688 1.738281,-0.4804688 0.637298,0 1.207369,0.1998732 1.708984,0.5996094 L 14,5.4804688 C 13.477827,5.1598881 12.83507,5 12.070312,5 Z M 1.0585938,9.998047 c -0.03552,0.166959 -0.053837,0.337118 -0.054688,0.507812 9.901e-4,1.34049 1.0590536,2.441637 2.3984376,2.496094 V 14 L 6,12.5 3.4023438,11 v 1 C 2.6160757,11.94664 2.0051762,11.293935 2.0039062,10.505859 2.0043144,10.332671 2.034711,10.160861 2.09375,9.998047 Z" />
</svg>
