<svg height="17" width="14" version="1.0" id="svg1" xmlns="http://www.w3.org/2000/svg"
  xmlns:svg="http://www.w3.org/2000/svg">
  <path
    d="M 7.0000003,1.7061958 C 5.757965,1.7165032 4.0727138,2.0669528 3.3707834,2.3607122 C 2.6575153,2.657564 2.1844077,2.9523541 2.0359822,3.6955138 L 1.5,7.812268 V 13.48337 H 2.4225075 V 14.370833 C 2.4225075,15.455164 4.0067468,15.455164 4.0067468,14.370833 V 13.48337 H 9.9911934 V 14.370833 C 9.9911934,15.455164 11.578523,15.455164 11.578523,14.370833 V 13.48337 H 12.5 V 7.812268 L 11.964018,3.6955138 C 11.815592,2.9533848 11.342485,2.657564 10.629216,2.3607122 C 9.9272861,2.0679839 8.2420352,1.7144416 7.0000003,1.7061958 Z M 4.7375375,2.7451763 H 9.2624635 C 9.7077399,2.7451763 9.7077399,3.4130924 9.2624635,3.4130924 H 4.7375375 C 4.2922603,3.4130924 4.2922603,2.7451763 4.7375375,2.7451763 Z M 3.5357009,4.0871929 H 10.462238 C 10.933283,4.0871929 11.058002,4.3294156 11.114693,4.6912035 L 11.530078,7.6772416 C 11.568216,7.9627553 11.485757,8.2441458 11.090985,8.2441458 H 2.9079836 C 2.5132121,8.2441458 2.4307536,7.9627553 2.4688907,7.6772416 L 2.8842766,4.6912035 C 2.9409672,4.3294156 3.0636244,4.0871929 3.5336395,4.0871929 Z M 3.2161733,10.183989 A 0.76068217,0.76068217 0 1 1 3.2161733,11.705351 A 0.76068217,0.76068217 0 0 1 3.2161733,10.183989 Z M 10.784858,10.183989 A 0.76068217,0.76068217 0 1 1 10.784858,11.705351 A 0.76068217,0.76068217 0 0 1 10.784858,10.183989 Z"
  />
</svg>
