<svg xmlns="http://www.w3.org/2000/svg" height="14" width="14" version="1.0">
    <path d="M7 .462c-1.205.01-2.84.35-3.521.635-.692.288-1.151.574-1.295 1.295l-.52 3.994v5.502h.895v.861c0 1.052 1.537 1.052 1.537 0v-.861h5.806v.861c0 1.052 1.54 1.052 1.54 0v-.861h.894V6.386l-.52-3.994c-.144-.72-.603-1.007-1.295-1.295C9.84.813 8.205.47 7 .462z" fill="#fff" stroke="#fff" stroke-width="3" stroke-linejoin="round" stroke-linecap="round" opacity=".5"/>
    <path d="M7 .462c-1.205.01-2.84.35-3.521.635-.692.288-1.151.574-1.295 1.295l-.52 3.994v5.502h.895v.861c0 1.052 1.537 1.052 1.537 0v-.861h5.806v.861c0 1.052 1.54 1.052 1.54 0v-.861h.894V6.386l-.52-3.994c-.144-.72-.603-1.007-1.295-1.295C9.84.813 8.205.47 7 .462zM4.805 1.47h4.39c.432 0 .432.648 0 .648h-4.39c-.432 0-.432-.648 0-.648zM3.639 2.772h6.72c.457 0 .578.235.633.586l.403 2.897c.037.277-.043.55-.426.55H3.03c-.383 0-.463-.273-.426-.55l.403-2.897c.055-.351.174-.586.63-.586zm-.31 5.915a.738.738 0 110 1.476.738.738 0 010-1.476zm7.343 0a.738.738 0 110 1.476.738.738 0 010-1.476z"/>
</svg>
