<svg xmlns="http://www.w3.org/2000/svg" width="50" height="50">
    <path d="M9.072 2.001a4.954 4.95 0 00-5.06 4.992v2.011H2L2.011 11H6.01l.064-3.928c.038-2.045 1.299-3.06 2.934-3.071 1.638-.011 2.937 1.102 2.956 3.003L12.002 11H16V9h-2.001V7.004c0-3.026-1.861-5.018-4.927-5.003z" color="#000" opacity=".5" fill="none" stroke="#fafafa" stroke-width="3" stroke-linecap="round" stroke-linejoin="round"/>
    <path d="M9.072 2.001a4.954 4.95 0 00-5.06 4.992v2.011H2L2.011 11H6.01l.064-3.928c.038-2.045 1.299-3.06 2.934-3.071 1.638-.011 2.937 1.102 2.956 3.003L12.002 11H16V9h-2.001V7.004c0-3.026-1.861-5.018-4.927-5.003z" color="#000" fill-rule="evenodd"/>
</svg>
