<svg width="16.988464" height="15.533949" version="1.1" xmlns="http://www.w3.org/2000/svg"
  xmlns:svg="http://www.w3.org/2000/svg">
  <path
    d="M 11.796762,6.1449472 L 9.4937624,8.7909472 V 11.988947 H 6.8977624 V 11.773947 L 5.3827624,13.515947 L 14.872762,13.533947 Z"
    fill="#808080" />
  <path
    d="M 5.7417624,1.4999472 L 1.4997624,5.3599472 H 1.9897624 V 11.988947 H 4.5857624 V 8.2739472 H 6.8977624 V 11.013947 L 4.6457624,13.601947 A 0.25,0.25 0 0 0 4.8337624,14.015947 L 15.247762,14.033947 A 0.25,0.25 0 0 0 15.479762,13.687947 L 12.104762,5.5799472 A 0.25,0.25 0 0 0 11.684762,5.5119472 L 9.4947624,8.0299472 V 5.3599472 H 9.9847624 Z M 11.796762,6.1449472 L 14.872762,13.533947 L 5.3827624,13.515947 L 6.8977624,11.773947 V 11.988947 H 9.4937624 V 8.7909472 Z"
    fill="#000000"
  />
</svg>
