<svg xmlns="http://www.w3.org/2000/svg" width="14" height="14">
    <path d="M6 0C5 0 4 .766 3 3c1-.667 1.47-1 3-1 2 .022 2.762.976 4 1 1.558 0 2-1 3-3-1 1-1 1-3 1S8 0 6 0zM2 4v9.004L1 14h4l-1-1.004V4z" paint-order="stroke fill markers" fill="none" stroke="#ededed" opacity=".5" stroke-linecap="round" stroke-linejoin="round" stroke-width="3"/>
    <path d="M6 0C5 0 4 .766 3 3c1-.667 1.47-1 3-1 2 .022 2.762.976 4 1 1.558 0 2-1 3-3-1 1-1 1-3 1S8 0 6 0zM2 4v9.004L1 14h4l-1-1.004V4H2z" fill-rule="evenodd" paint-order="stroke fill markers"/>
</svg>
