<?xml version="1.0" encoding="UTF-8" standalone="no"?>
<svg fill="#000000" height="20" width="14" version="1.2" id="svg1" xmlns="http://www.w3.org/2000/svg" xmlns:svg="http://www.w3.org/2000/svg">
  <defs id="defs1" />
  <path d="M 9.5032534,1.5 L 9.5,3.5 H 7.5 V 4.5 H 9.5 L 9.5032534,6.5 L 7.5160645,9.0555558 V 11.5 H 3.5416866 L 1.5,13.5 V 18.5 H 12.5 V 9.0555558 L 10.496846,6.5 L 10.5,4.5 H 12.5 V 3.5 H 10.5 L 10.496846,1.5 Z M 4.5,14.2 V 16.5 H 3.5 V 14.2 C 3.5,13.255555 4.5,13.255525 4.5,14.2 Z M 7.5,14.2 V 16.5 H 6.5 V 14.2 C 6.5,13.255555 7.5,13.255525 7.5,14.2 Z M 10.5,14.2 V 16.5 H 9.5 V 14.2 C 9.5,13.255555 10.5,13.255525 10.5,14.2 Z M 10.5,10.2 V 11.472222 H 9.5 V 10.2 C 9.5,9.2555559 10.5,9.2555245 10.5,10.2 Z" id="path1" />
</svg>
