<svg height="16" width="17" version="1.1"
  xmlns="http://www.w3.org/2000/svg" xmlns:svg="http://www.w3.org/2000/svg">


  <path
    d="M 2.5,1.5 C 1.946,1.5 1.5,1.946 1.5,2.5 V 13.5 C 1.5,14.054 1.946,14.5 2.5,14.5 H 14.5 C 15.054,14.5 15.5,14.054 15.5,13.5 V 2.5 C 15.5,1.946 15.054,1.5 14.5,1.5 Z M 2.75,2.5 H 3.25 A 0.25,0.25 0 0 1 3.5,2.75 V 3.25 A 0.25,0.25 0 0 1 3.25,3.5 H 2.75 A 0.25,0.25 0 0 1 2.5,3.25 V 2.75 A 0.25,0.25 0 0 1 2.75,2.5 Z M 5.5,2.5 H 11.5 V 7.5 H 5.5 Z M 13.75,2.5 H 14.25 A 0.25,0.25 0 0 1 14.5,2.75 V 3.25 A 0.25,0.25 0 0 1 14.25,3.5 H 13.75 A 0.25,0.25 0 0 1 13.5,3.25 V 2.75 A 0.25,0.25 0 0 1 13.75,2.5 Z M 2.75,4.5 H 3.25 A 0.25,0.25 0 0 1 3.5,4.75 V 5.25 A 0.25,0.25 0 0 1 3.25,5.5 H 2.75 A 0.25,0.25 0 0 1 2.5,5.25 V 4.75 A 0.25,0.25 0 0 1 2.75,4.5 Z M 13.75,4.5 H 14.25 A 0.25,0.25 0 0 1 14.5,4.75 V 5.25 A 0.25,0.25 0 0 1 14.25,5.5 H 13.75 A 0.25,0.25 0 0 1 13.5,5.25 V 4.75 A 0.25,0.25 0 0 1 13.75,4.5 Z M 2.75,6.5 H 3.25 A 0.25,0.25 0 0 1 3.5,6.75 V 7.25 A 0.25,0.25 0 0 1 3.25,7.5 H 2.75 A 0.25,0.25 0 0 1 2.5,7.25 V 6.75 A 0.25,0.25 0 0 1 2.75,6.5 Z M 13.75,6.5 H 14.25 A 0.25,0.25 0 0 1 14.5,6.75 V 7.25 A 0.25,0.25 0 0 1 14.25,7.5 H 13.75 A 0.25,0.25 0 0 1 13.5,7.25 V 6.75 A 0.25,0.25 0 0 1 13.75,6.5 Z M 2.75,8.5 H 3.25 A 0.25,0.25 0 0 1 3.5,8.75 V 9.25 A 0.25,0.25 0 0 1 3.25,9.5 H 2.75 A 0.25,0.25 0 0 1 2.5,9.25 V 8.75 A 0.25,0.25 0 0 1 2.75,8.5 Z M 5.5,8.5 H 11.5 V 13.5 H 5.5 Z M 13.75,8.5 H 14.25 A 0.25,0.25 0 0 1 14.5,8.75 V 9.25 A 0.25,0.25 0 0 1 14.25,9.5 H 13.75 A 0.25,0.25 0 0 1 13.5,9.25 V 8.75 A 0.25,0.25 0 0 1 13.75,8.5 Z M 2.75,10.5 H 3.25 A 0.25,0.25 0 0 1 3.5,10.75 V 11.25 A 0.25,0.25 0 0 1 3.25,11.5 H 2.75 A 0.25,0.25 0 0 1 2.5,11.25 V 10.75 A 0.25,0.25 0 0 1 2.75,10.5 Z M 13.75,10.5 H 14.25 A 0.25,0.25 0 0 1 14.5,10.75 V 11.25 A 0.25,0.25 0 0 1 14.25,11.5 H 13.75 A 0.25,0.25 0 0 1 13.5,11.25 V 10.75 A 0.25,0.25 0 0 1 13.75,10.5 Z M 2.75,12.5 H 3.25 A 0.25,0.25 0 0 1 3.5,12.75 V 13.25 A 0.25,0.25 0 0 1 3.25,13.5 H 2.75 A 0.25,0.25 0 0 1 2.5,13.25 V 12.75 A 0.25,0.25 0 0 1 2.75,12.5 Z M 13.75,12.5 H 14.25 A 0.25,0.25 0 0 1 14.5,12.75 V 13.25 A 0.25,0.25 0 0 1 14.25,13.5 H 13.75 A 0.25,0.25 0 0 1 13.5,13.25 V 12.75 A 0.25,0.25 0 0 1 13.75,12.5 Z"
  />
</svg>
