<svg version="1.1" id="Layer_1" x="0" y="0" width="15.061291" height="19"
  xmlns="http://www.w3.org/2000/svg" xmlns:svg="http://www.w3.org/2000/svg">

  <path
    d="M 6.9052904,5.484 C 7.5612904,5.484 8.0892904,4.956 8.0892904,4.316 C 8.0892904,3.66 7.5612904,3.132 6.9052904,3.132 C 6.2492904,3.132 5.7212904,3.66 5.7212904,4.316 C 5.7212904,4.956 6.2492904,5.484 6.9052904,5.484 Z M 9.0812904,8.572 V 9.068 C 12.31329,7.452 13.56129,1.964 13.56129,1.5 H 13.12929 C 12.95329,2.652 11.56129,7.244 9.0812904,8.572 Z M 8.0892904,17.5 H 8.5852904 V 12.204 L 8.0892904,12.444 Z M 3.9132904,8.124 L 5.6252904,7.452 V 9.82 H 8.5852904 V 7.068 L 11.22529,2.828 A 0.655,0.655 0 0 0 11.01729,1.916 C 10.71329,1.724 10.29729,1.804 10.12129,2.108 L 7.8812904,5.724 H 6.5212904 A 0.725,0.725 0 0 0 6.2652904,5.772 L 3.9292904,6.684 L 2.7132904,4.86 A 0.65,0.65 0 0 0 1.8012904,4.668 A 0.685,0.685 0 0 0 1.5932904,5.596 L 3.0972904,7.884 C 3.2732904,8.124 3.6092904,8.252 3.9132904,8.124 Z M 11.08129,9.676 C 10.96929,9.26 10.47329,8.94 10.07329,9.132 L 8.5852904,9.82 V 10.316 H 5.6252904 L 3.3052904,15.628 C 3.1292904,16.028 3.3212904,16.54 3.7372904,16.764 C 4.1532904,17.004 4.6332904,16.86 4.7932904,16.46 L 6.6812904,12.108 C 6.8412904,12.156 7.0332904,12.172 7.2092904,12.172 C 7.3852904,12.172 7.5452904,12.14 7.6892904,12.092 L 9.8172904,11.1 L 10.28129,12.972 A 0.773,0.773 0 0 0 11.22529,13.532 A 0.773,0.773 0 0 0 11.78529,12.588 Z"
    fill="#000000" fill-opacity="1" stroke-width="1" />
</svg>
