<svg version="1.1" id="Layer_1" x="0" y="0" xml:space="preserve" width="16" height="16"
	xmlns="http://www.w3.org/2000/svg">
  <path d="M7.378 3.984c.656 0 1.184-.528 1.184-1.168 0-.656-.528-1.184-1.184-1.184-.656 0-1.184.528-1.184 1.184 0 .64.528 1.168 1.184 1.168Zm2.176 3.088v.496C12.786 5.952 14.034.464 14.034 0h-.432c-.176 1.152-1.568 5.744-4.048 7.072ZM8.562 16h.496v-5.296l-.496.24ZM4.386 6.624l1.712-.672V8.32h2.96V5.568l2.64-4.24a.655.655 0 0 0-.208-.912c-.304-.192-.72-.112-.896.192l-2.24 3.616h-1.36a.725.725 0 0 0-.256.048l-2.336.912L3.186 3.36a.65.65 0 0 0-.912-.192.685.685 0 0 0-.208.928L3.57 6.384c.176.24.512.368.816.24Zm7.168 1.552c-.112-.416-.608-.736-1.008-.544l-1.488.688v.496h-2.96l-2.32 5.312c-.176.4.016.912.432 1.136.416.24.896.096 1.056-.304l1.888-4.352c.16.048.352.064.528.064.176 0 .336-.032.48-.08L10.29 9.6l.464 1.872a.773.773 0 0 0 .944.56.773.773 0 0 0 .56-.944Z" id="path3990" fill="none" fill-opacity="1" stroke-width="3" stroke="#fff" stroke-opacity=".5" stroke-dasharray="none" stroke-linecap="round" stroke-linejoin="round"/>
  <path d="M7.378 3.984c.656 0 1.184-.528 1.184-1.168 0-.656-.528-1.184-1.184-1.184-.656 0-1.184.528-1.184 1.184 0 .64.528 1.168 1.184 1.168Zm2.176 3.088v.496C12.786 5.952 14.034.464 14.034 0h-.432c-.176 1.152-1.568 5.744-4.048 7.072ZM8.562 16h.496v-5.296l-.496.24ZM4.386 6.624l1.712-.672V8.32h2.96V5.568l2.64-4.24a.655.655 0 0 0-.208-.912c-.304-.192-.72-.112-.896.192l-2.24 3.616h-1.36a.725.725 0 0 0-.256.048l-2.336.912L3.186 3.36a.65.65 0 0 0-.912-.192.685.685 0 0 0-.208.928L3.57 6.384c.176.24.512.368.816.24Zm7.168 1.552c-.112-.416-.608-.736-1.008-.544l-1.488.688v.496h-2.96l-2.32 5.312c-.176.4.016.912.432 1.136.416.24.896.096 1.056-.304l1.888-4.352c.16.048.352.064.528.064.176 0 .336-.032.48-.08L10.29 9.6l.464 1.872a.773.773 0 0 0 .944.56.773.773 0 0 0 .56-.944Z" id="path4" fill="#000" fill-opacity="1" stroke-width="1"/>
</svg>
