<svg height="15" width="17" version="1.1"
  xmlns="http://www.w3.org/2000/svg" xmlns:svg="http://www.w3.org/2000/svg">


  <path
    d="M 12.974,3 C 12.974,3.828 12.314,4.5 11.5,4.5 C 10.686,4.5 10.026,3.828 10.026,3 C 10.026,2.172 10.686,1.5 11.5,1.5 C 12.314,1.5 12.974,2.172 12.974,3 Z M 4.5,6.5 H 6.5 V 9.5 H 4.5 Z M 6.974,3 C 6.974,3.828 6.314,4.5 5.5,4.5 C 4.686,4.5 4.026,3.828 4.026,3 C 4.026,2.172 4.686,1.5 5.5,1.5 C 6.314,1.5 6.974,2.172 6.974,3 Z M 1.5,5.5 H 8.5 V 6.5 H 1.5 Z M 2.5,13.5 L 4.5,9.5 H 5.5 L 3.5,13.5 Z M 8.5,13.5 L 6.5,9.5 H 5.5 L 7.5,13.5 Z M 10.5,6.5 H 12.5 V 9.5 H 10.5 Z M 8.5,5.5 H 15.5 V 6.5 H 8.5 Z M 8.5,13.5 L 10.5,9.5 H 11.5 L 9.5,13.5 Z M 14.5,13.5 L 12.5,9.5 H 11.5 L 13.5,13.5 Z"
    fill-rule="evenodd"
  />
</svg>
