<?xml version="1.0" encoding="UTF-8" standalone="no"?>
<svg height="13" width="15.999903" version="1.1" id="svg1" xmlns="http://www.w3.org/2000/svg"
  xmlns:svg="http://www.w3.org/2000/svg">
  <path id="path2"
    d="M 9.967097,1.5011814 C 9.945467,1.5023866 9.9239381,1.5049964 9.9026466,1.5089945 C 9.7724833,1.5348948 9.6579567,1.6114893 9.5843008,1.7219016 L 7.7328175,4.4994597 H 2.0006407 C 1.6592359,4.4993039 1.4180738,4.8337952 1.5260516,5.1577137 L 3.5259661,11.158177 C 3.5940955,11.362412 3.7852794,11.500113 4.0005552,11.5 H 12.000213 C 12.215489,11.500113 12.406673,11.362412 12.474802,11.158177 L 14.474716,5.1577137 C 14.582694,4.8337952 14.341532,4.499304 14.000127,4.4994597 H 8.933938 L 10.416297,2.276632 C 10.569457,2.0468538 10.507375,1.7364073 10.277631,1.583219 C 10.185958,1.5224607 10.076813,1.4936265 9.967097,1.5011814 Z M 2.6939705,5.4995369 L 4.5000107,5.4998071 V 6.5001158 L 3.043677,6.4998456 Z M 4.9999893,5.4998071 H 6.5000107 V 6.5001158 H 4.9999893 Z M 6.9999893,5.4998071 H 8.5000107 V 6.5001158 H 6.9999893 Z M 8.9999893,5.4998071 H 10.500011 V 6.5001158 H 8.9999893 Z M 10.99999,5.4998071 L 13.306798,5.4995369 L 12.957091,6.4998456 L 10.99999,6.5001158 Z M 3.2116386,6.9998842 L 4.5000107,7.0001544 V 8.5001159 L 3.7116172,8.4998455 Z M 4.9999893,7.0001544 H 6.5000107 V 8.5001159 H 4.9999893 Z M 6.9999893,7.0001544 H 8.5000107 V 8.5001159 H 6.9999893 Z M 8.9999893,7.0001544 H 10.500011 V 8.5001159 H 8.9999893 Z M 10.99999,7.0001544 L 12.789129,6.9998842 L 12.28915,8.4998455 L 10.99999,8.5001159 Z M 3.8795787,8.9998842 L 4.5000107,9.0001545 V 10.500193 L 4.3618678,10.499923 Z M 4.9999893,9.0001545 H 6.5000107 V 10.500193 H 4.9999893 Z M 6.9999893,9.0001545 H 8.5000107 V 10.500193 H 6.9999893 Z M 8.9999893,9.0001545 H 10.500011 V 10.500193 H 8.9999893 Z M 10.99999,9.0001545 L 12.12119,8.9998842 L 11.6389,10.499923 L 10.99999,10.500193 Z" />
</svg>
