<svg xmlns="http://www.w3.org/2000/svg" height="14" width="14">
    <path d="M8.38 1.691A.474.474 0 007.9 2L5.922 5H0l2 7h9l2-7H7.127L8.83 2.4c.167-.387-.135-.688-.45-.709zM1.25 6H3v1H1.55zM3.5 6H5v1H3.5zm2 0h2v1h-2zM8 6h1.5v1H8zm2 0h1.75l-.3 1H10zM1.7 7.5H3V9h-.85zm1.8 0H5V9H3.5zm2 0h2V9h-2zm2.5 0h1.5V9H8zm2 0h1.3L10.85 9H10zm-7.7 2H3V11h-.25zm1.2 0H5V11H3.5zm2 0h2V11h-2zm2.5 0h1.5V11H8zm2 0h.7l-.45 1.5H10z" stroke="#fff" stroke-width="3" stroke-linecap="round" stroke-linejoin="round" stroke-opacity=".5"/>
    <path d="M8.38 1.691A.474.474 0 007.9 2L5.922 5H0l2 7h9l2-7H7.127L8.83 2.4c.167-.387-.135-.688-.45-.709zM1.25 6H3v1H1.55l-.3-1zM3.5 6H5v1H3.5V6zm2 0h2v1h-2V6zM8 6h1.5v1H8V6zm2 0h1.75l-.3 1H10V6zM1.7 7.5H3V9h-.85L1.7 7.5zm1.8 0H5V9H3.5V7.5zm2 0h2V9h-2V7.5zm2.5 0h1.5V9H8V7.5zm2 0h1.3L10.85 9H10V7.5zm-7.7 2H3V11h-.25L2.3 9.5zm1.2 0H5V11H3.5V9.5zm2 0h2V11h-2V9.5zm2.5 0h1.5V11H8V9.5zm2 0h.7l-.45 1.5H10V9.5z"/>
</svg>
