<svg version="1.0" width="20.206938" height="13.000218" id="svg11"
  xmlns="http://www.w3.org/2000/svg" xmlns:svg="http://www.w3.org/2000/svg">


  <path
    d="M 8.93,1.8442186 A 0.644,0.644 0 0 0 8.343,1.5002186 L 6.5,1.5032186 V 11.500219 H 11.5 Z"
  />
  <path fill="#0064ff"
    d="M 1.5,2.5002186 H 5.5 V 3.5002186 H 1.5 Z" />
  <path fill="#0064ff"
    d="M 1.5,4.5002186 H 5.5 V 5.5002186 H 1.5 Z" />
  <path fill="#0064ff"
    d="M 1.5,6.5002186 H 5.5 V 7.5002186 H 1.5 Z" />
  <path fill="#0064ff"
    d="M 1.5,8.5002186 H 5.5 V 9.5002186 H 1.5 Z" />
  <path fill="#0064ff"
    d="M 1.5,10.500219 H 5.5 V 11.500219 H 1.5 Z" />
  <path
    fill="#0064ff"
    d="M 14.248,9.0002186 C 13.651,9.0002186 13.175,9.3672186 12.646,9.8962186 L 12.293,10.250219 L 13,10.957219 L 13.354,10.604219 C 13.824,10.133219 14.096,10.000219 14.248,10.000219 C 14.4,10.000219 14.673,10.133219 15.143,10.604219 C 15.673,11.133219 16.151,11.500219 16.748,11.500219 C 17.345,11.500219 17.823,11.133219 18.354,10.604219 L 18.707,10.250219 L 18,9.5432186 L 17.646,9.8962186 C 17.175,10.367219 16.901,10.500219 16.748,10.500219 C 16.595,10.500219 16.321,10.367219 15.85,9.8962186 C 15.32,9.3672186 14.845,9.0002186 14.248,9.0002186 Z M 13.248,6.0002186 C 12.651,6.0002186 12.175,6.3672186 11.646,6.8962186 L 11.293,7.2502186 L 12,7.9572186 L 12.354,7.6042186 C 12.824,7.1332186 13.096,7.0002186 13.248,7.0002186 C 13.4,7.0002186 13.673,7.1332186 14.143,7.6042186 C 14.673,8.1332186 15.151,8.5002186 15.748,8.5002186 C 16.345,8.5002186 16.823,8.1332186 17.354,7.6042186 L 17.707,7.2502186 L 17,6.5432186 L 16.646,6.8962186 C 16.175,7.3672186 15.901,7.5002186 15.748,7.5002186 C 15.595,7.5002186 15.321,7.3672186 14.85,6.8962186 C 14.32,6.3672186 13.845,6.0002186 13.248,6.0002186 Z"
  />
</svg>
