<svg width="28" height="28" viewBox="0 0 28 28" version="1.1"
  xmlns:xlink="http://www.w3.org/1999/xlink" xmlns="http://www.w3.org/2000/svg"
  xmlns:svg="http://www.w3.org/2000/svg">
  <path
    d="M 4.9960362,3.707296 C 3.0112992,3.707296 2.6143492,5.505726 2.6143492,6.444386 V 6.444386 A 4.8816541,4.8502478 0 0 0 1.2647272,7.146402 A 1.5877893,1.5775742 0 0 0 0.94717625,9.339235 A 1.635422,1.6249004 0 0 0 3.1700772,9.654753 A 3.1755768,3.1551466 0 0 1 4.9960362,9.110486 A 3.1755768,3.1551466 0 0 1 6.8219862,9.654753 A 1.5877893,1.5775742 0 0 0 9.0448932,9.41811 A 1.5314201,1.5215676 0 0 0 8.8654732,7.272613 C 8.8464142,7.256042 8.8265652,7.24027 8.8067222,7.225286 L 8.7273352,7.146402 A 7.1386951,7.092768 0 0 0 7.3777142,6.444386 V 6.444386 C 7.3777142,5.513617 6.9807682,3.707296 4.9960362,3.707296 Z M 0.69312425,2.366359 A 1.2543521,1.2462822 0 0 0 0.08977025,3.94393 A 1.2067188,1.1989553 0 0 0 1.3679352,5.048237 A 1.2543521,1.2462822 0 0 0 1.9712972,3.470657 A 1.2067188,1.1989553 0 0 0 0.69312425,2.366359 Z M 9.3068792,2.366359 A 1.2543521,1.2462822 0 0 1 9.9102282,3.94393 A 1.2067188,1.1989553 0 0 1 8.6320662,5.048237 A 1.2543521,1.2462822 0 0 1 8.0287062,3.470657 A 1.2067188,1.1989553 0 0 1 9.3068792,2.366359 Z M 3.0748102,0 C 2.5349562,0.070991 2.2809152,0.741458 2.4714462,1.475035 A 1.4051921,1.3961517 0 0 0 3.7496192,2.681873 C 4.2894652,2.610881 4.5435132,1.940412 4.3529732,1.206845 A 1.4051921,1.3961517 0 0 0 3.0748102,0 Z M 6.9251902,0 C 7.4650462,0.070991 7.7190842,0.741458 7.5285552,1.475035 A 1.4051921,1.3961517 0 0 1 6.2424442,2.681873 C 5.7025952,2.618768 5.4485512,1.940412 5.6390862,1.206845 A 1.4043966,1.3953614 0 0 1 6.9251902,0 Z"
    id="use470" style="opacity:0.666;fill:#b0d6a9;" />
  <use x="0" y="0" xlink:href="#use470" id="use1" transform="translate(14,14)" />
</svg>
