<svg xmlns="http://www.w3.org/2000/svg" width="16" height="16">
  <circle cx="11.5" cy="10.5" fill="none" stroke="#fff" stroke-width="3" stroke-linejoin="round" stroke-opacity=".5" r="2.5"/>
  <path d="M7 1.65a3.3 3.3 0 00-3.27 3.33 3.36 3.36 0 00.17 1.09c-1.71 1.08-.7 2.92-.31 4.18.39 1.3-1.01 2.06-2.09 3.08 3.23-.58 3.77-2.18 3.68-2.92-.18-.91-.83-1.52.12-2.6.55.19 1.08.5 1.7.5a3.23 3.23 0 001.86-.6 3.33 3.33 0 001.42-2.73A3.3 3.3 0 007 1.65z" opacity=".5" fill="#0064ff" stroke="#fdfdfd" stroke-width="3" stroke-linecap="round" stroke-linejoin="round"/>
  <path d="M7 1.65a3.3 3.3 0 00-3.27 3.33 3.36 3.36 0 00.17 1.09c-1.71 1.08-.7 2.92-.31 4.18.39 1.3-1.01 2.06-2.09 3.08 3.23-.58 3.77-2.18 3.68-2.92-.18-.91-.83-1.52.12-2.6.55.19 1.08.5 1.7.5a3.23 3.23 0 001.86-.6 3.33 3.33 0 001.42-2.73A3.3 3.3 0 007 1.65z" fill="#0064ff"/>
  <circle cx="11.5" cy="10.5" fill="#0f0" r="2.5"/>
</svg>
