<svg xmlns="http://www.w3.org/2000/svg" width="128" height="128">
    <path d="M0 0v1.055h.281C.27.69.245.36.227 0H0zm1.102 0a9.29 9.29 0 00-.227 1.055h1C1.902.692 1.945.34 1.99 0h-.888zm1.841 0c-.098.17-.201.331-.283.52-.074.17-.138.35-.191.535h.937A5.65 5.65 0 013.662.1c.014-.037.03-.065.043-.1h-.762zm120.973 0a5.5 5.5 0 01.303 1.055h.937A4.721 4.721 0 00124.697 0h-.781zm1.717 0c.046.341.09.692.117 1.055h1A9.25 9.25 0 00126.521 0h-.888zm1.765 0c-.018.361-.043.69-.054 1.055H128V0h-.602zm-101 5.707c-.125 0-.25.188-.25.563 0 .63-.162 2.484-.218 4.25h.937c-.056-1.766-.219-3.62-.219-4.25 0-.375-.125-.563-.25-.563zm-2.687.5c-.125 0-.188.188-.063.563.208.622.565 2.12.688 3.75h1c-.239-1.635-.98-3.127-1.188-3.75-.125-.375-.312-.563-.437-.563zm5.375 0c-.125 0-.313.188-.438.563-.208.623-.948 2.115-1.187 3.75h1c.123-1.63.48-3.128.687-3.75.125-.375.063-.563-.062-.563zm32.27.305c-.126 0-.25.187-.25.562 0 .63-.163 2.484-.22 4.25h.938c-.056-1.766-.219-3.62-.219-4.25 0-.375-.125-.562-.25-.562zm-2.688.5c-.125 0-.188.187-.063.562.208.623.565 2.12.688 3.75h1c-.239-1.634-.98-3.126-1.188-3.75-.125-.375-.312-.562-.437-.562zm5.375 0c-.125 0-.313.187-.438.562-.208.624-.948 2.116-1.187 3.75h1c.123-1.63.48-3.127.687-3.75.125-.375.063-.562-.062-.562zm-57.49.465c-.125 0-.25.187-.25.562 0 .63-.163 2.484-.219 4.25h.937c-.056-1.766-.218-3.62-.218-4.25 0-.375-.125-.562-.25-.562zm15.158.199c-.164-.024-.25.156-.063.344.205.204.907 1.092 1.157 2.5h.937c-.425-1.483-1.638-2.545-1.844-2.75a.331.331 0 00-.187-.094zm9.375 0a.338.338 0 00-.188.094c-.205.205-1.418 1.267-1.843 2.75h.937c.25-1.408.952-2.296 1.156-2.5.188-.188.102-.368-.062-.344zm-27.22.3c-.126 0-.188.188-.063.563.207.622.564 2.12.687 3.75h1c-.238-1.634-.98-3.126-1.187-3.75-.125-.375-.313-.562-.438-.562zm5.374 0c-.125 0-.312.188-.437.563-.208.624-.95 2.116-1.188 3.75h1c.123-1.63.48-3.128.688-3.75.125-.375.062-.562-.063-.562zm47.428.504c-.164-.024-.25.157-.063.344.205.205.907 1.093 1.157 2.5h.937c-.425-1.483-1.638-2.544-1.844-2.75a.331.331 0 00-.187-.094zm9.375 0a.338.338 0 00-.188.094c-.205.206-1.418 1.267-1.843 2.75h.937c.25-1.407.952-2.295 1.156-2.5.188-.187.102-.367-.062-.344zm50.4.791c-.125 0-.25.188-.25.563 0 .63-.162 2.484-.218 4.25h.937c-.056-1.766-.219-3.62-.219-4.25 0-.375-.125-.563-.25-.563zM1.865 9.445c-.164-.024-.25.157-.062.344.204.205.906 1.093 1.156 2.5h.937c-.425-1.483-1.637-2.544-1.843-2.75a.331.331 0 00-.188-.094zm9.375 0a.338.338 0 00-.187.094c-.206.206-1.419 1.267-1.844 2.75h.937c.25-1.407.952-2.295 1.157-2.5.187-.187.101-.365-.063-.342v-.002zm102.516.326c-.125 0-.188.188-.063.563.208.622.565 2.12.688 3.75h1c-.239-1.634-.98-3.126-1.188-3.75-.125-.375-.312-.563-.437-.563zm5.375 0c-.125 0-.313.188-.438.563-.208.624-.949 2.116-1.187 3.75h1c.123-1.63.48-3.128.687-3.75.125-.375.063-.563-.062-.563zm-75.098 1.16c-.125 0-.25.188-.25.563 0 .63-.162 2.484-.219 4.25h.938c-.057-1.766-.219-3.62-.219-4.25 0-.375-.125-.562-.25-.562zm54.057.094c-.125 0-.25.188-.25.563 0 .63-.162 2.484-.219 4.25h.938c-.057-1.766-.22-3.62-.22-4.25 0-.375-.124-.563-.25-.563zm13.666.215c-.164-.024-.25.156-.063.344.205.205.907 1.092 1.157 2.5h.937c-.425-1.483-1.638-2.544-1.844-2.75a.331.331 0 00-.187-.094zm9.375 0a.343.343 0 00-.188.096c-.206.206-1.418 1.267-1.843 2.75h.937c.25-1.408.952-2.295 1.156-2.5.188-.188.102-.367-.062-.344v-.002zm-38.465.131c-.125 0-.25.188-.25.563 0 .63-.162 2.484-.219 4.25h.938c-.057-1.766-.219-3.62-.219-4.25 0-.375-.125-.563-.25-.563zm-41.32.06c-.125 0-.188.188-.063.563.208.623.564 2.12.688 3.75h1c-.239-1.634-.98-3.126-1.188-3.75-.125-.375-.312-.562-.437-.562zm5.375 0c-.125 0-.313.188-.438.563-.208.624-.949 2.116-1.187 3.75h1c.123-1.63.48-3.127.687-3.75.125-.375.063-.562-.062-.562zm48.681.094c-.125 0-.187.188-.062.563.207.622.564 2.12.687 3.75h1c-.238-1.635-.98-3.126-1.187-3.75-.125-.375-.313-.563-.438-.563zm5.375 0c-.125 0-.312.188-.437.563-.208.624-.95 2.115-1.188 3.75h1c.124-1.63.48-3.128.688-3.75.125-.375.062-.563-.063-.563zm-20.798.346c-.125 0-.188.188-.063.563.207.622.564 2.12.688 3.75h1c-.239-1.635-.98-3.127-1.188-3.75-.125-.375-.312-.563-.437-.563zm5.375 0c-.125 0-.313.188-.438.563-.208.623-.949 2.115-1.187 3.75h1c.123-1.63.48-3.128.687-3.75.125-.375.063-.563-.062-.563zm-46.008 1.03c-.164-.025-.25.156-.063.343.205.205.907 1.093 1.156 2.5h.938c-.425-1.483-1.638-2.544-1.844-2.75a.331.331 0 00-.187-.094zm9.375 0a.338.338 0 00-.188.093c-.206.206-1.418 1.267-1.844 2.75h.938c.25-1.407.952-2.295 1.156-2.5.188-.187.102-.365-.062-.342V12.9zm44.681.093c-.164-.024-.25.156-.062.344.204.204.906 1.092 1.156 2.5h.938c-.426-1.483-1.638-2.544-1.844-2.75a.331.331 0 00-.188-.094zm9.375 0a.343.343 0 00-.187.096c-.206.206-1.419 1.267-1.844 2.75h.938c.25-1.408.951-2.296 1.156-2.5.187-.188.101-.367-.063-.344v-.002zm-24.798.346c-.165-.024-.25.156-.063.344.205.204.906 1.092 1.156 2.5h.938c-.425-1.483-1.638-2.545-1.844-2.75a.331.331 0 00-.187-.094zm9.375 0a.338.338 0 00-.188.094c-.206.205-1.419 1.267-1.844 2.75h.938c.25-1.408.951-2.296 1.156-2.5.188-.188.102-.368-.062-.344zm4.865 9.398c-.125 0-.25.188-.25.563 0 .63-.163 2.484-.219 4.25h.938c-.057-1.766-.22-3.62-.22-4.25 0-.375-.124-.563-.25-.563zm-2.688.5c-.125 0-.187.188-.062.563.207.622.564 2.12.687 3.75h1c-.238-1.635-.98-3.126-1.187-3.75-.125-.375-.313-.563-.438-.563zm5.375 0c-.125 0-.312.188-.437.563-.208.624-.95 2.115-1.188 3.75h1c.123-1.63.48-3.128.688-3.75.125-.375.062-.563-.063-.563zm-39.722.264c-.125 0-.25.187-.25.562 0 .63-.163 2.485-.22 4.25h.938c-.056-1.765-.218-3.62-.218-4.25 0-.375-.125-.562-.25-.562zm-2.688.5c-.125 0-.187.187-.062.562.207.623.564 2.12.687 3.75h1c-.238-1.634-.98-3.126-1.187-3.75-.125-.375-.313-.562-.438-.562zm5.375 0c-.125 0-.312.187-.437.562-.208.624-.95 2.116-1.188 3.75h1c.123-1.63.48-3.127.688-3.75.125-.375.062-.562-.063-.562zm-21.566.303c-.125 0-.25.187-.25.562 0 .63-.163 2.484-.22 4.25h.938c-.056-1.766-.218-3.62-.218-4.25 0-.375-.125-.562-.25-.562zm-17.354.123c-.125 0-.25.187-.25.562 0 .63-.162 2.484-.219 4.25h.938c-.057-1.766-.219-3.62-.219-4.25 0-.375-.125-.562-.25-.562zm89.502.068c-.125 0-.25.188-.25.563 0 .63-.162 2.484-.219 4.25h.938c-.057-1.766-.219-3.62-.219-4.25 0-.375-.125-.563-.25-.563zm-20.922.21v.001c-.164-.024-.25.156-.062.344.204.204.906 1.092 1.156 2.5h.938c-.426-1.483-1.638-2.544-1.844-2.75a.336.336 0 00-.188-.096zm9.375.001a.338.338 0 00-.187.094c-.206.206-1.419 1.267-1.844 2.75h.938c.25-1.408.951-2.296 1.156-2.5.187-.188.101-.367-.063-.344zm-63.289.098c-.125 0-.187.187-.062.562.207.623.564 2.12.687 3.75h1c-.238-1.634-.98-3.126-1.187-3.75-.125-.375-.313-.562-.438-.562zm5.375 0c-.125 0-.312.187-.437.562-.208.624-.95 2.116-1.188 3.75h1c.123-1.63.48-3.127.688-3.75.125-.375.062-.562-.063-.562zm-22.728.123c-.125 0-.188.187-.063.562.208.623.564 2.12.688 3.75h1c-.239-1.634-.98-3.126-1.188-3.75-.125-.375-.312-.562-.437-.562zm5.375 0c-.125 0-.313.187-.438.562-.208.624-.949 2.116-1.187 3.75h1c.123-1.63.48-3.127.687-3.75.125-.375.063-.562-.062-.562zm84.127.068c-.125 0-.188.188-.063.563.208.622.564 2.12.688 3.75h1c-.239-1.635-.98-3.127-1.188-3.75-.125-.375-.312-.563-.437-.563zm5.375 0c-.125 0-.313.188-.438.563-.208.623-.949 2.115-1.187 3.75h1c.123-1.63.48-3.128.687-3.75.125-.375.063-.563-.062-.563zm-37.522.016c-.125 0-.25.187-.25.562 0 .63-.162 2.484-.219 4.25h.938c-.057-1.766-.219-3.62-.219-4.25 0-.375-.125-.562-.25-.562zm-23.123.459c-.164-.024-.25.156-.062.343.204.205.906 1.093 1.156 2.5h.937c-.425-1.482-1.637-2.544-1.843-2.75a.331.331 0 00-.188-.093zm9.375 0a.343.343 0 00-.187.095c-.206.206-1.419 1.268-1.844 2.75h.937c.25-1.407.952-2.295 1.157-2.5.187-.187.101-.367-.063-.343v-.002zm11.06.04c-.124 0-.187.188-.062.563.208.623.564 2.12.688 3.75h1c-.239-1.634-.98-3.126-1.188-3.75-.125-.375-.312-.562-.437-.562zm5.376 0c-.125 0-.313.188-.438.563-.208.624-.949 2.116-1.187 3.75h1c.123-1.63.48-3.127.687-3.75.125-.375.063-.562-.062-.562zm-44.69.762c-.164-.024-.25.157-.062.344.204.205.906 1.093 1.156 2.5h.937c-.425-1.483-1.637-2.544-1.843-2.75a.331.331 0 00-.188-.094zm9.375 0a.343.343 0 00-.187.096c-.206.206-1.419 1.267-1.844 2.75h.937c.25-1.407.952-2.295 1.157-2.5.187-.187.101-.367-.063-.344v-.002zm-26.728.123c-.164-.024-.25.157-.063.344.205.205.906 1.093 1.156 2.5h.938c-.425-1.483-1.638-2.544-1.844-2.75a.331.331 0 00-.187-.094zm9.375 0a.338.338 0 00-.188.094c-.206.206-1.418 1.267-1.844 2.75h.938c.25-1.407.952-2.295 1.156-2.5.188-.187.102-.367-.062-.344zm80.127.069c-.164-.024-.25.156-.063.344.205.204.906 1.092 1.156 2.5h.938c-.425-1.483-1.638-2.545-1.844-2.75a.331.331 0 00-.187-.094zm9.375 0a.338.338 0 00-.188.094c-.206.205-1.418 1.267-1.844 2.75h.938c.25-1.408.952-2.296 1.156-2.5.188-.188.102-.368-.062-.344zm-111.678.242c-.125 0-.25.188-.25.563 0 .63-.162 2.484-.219 4.25h.938c-.057-1.766-.22-3.62-.22-4.25 0-.375-.124-.563-.25-.563zm67.469.273c-.164-.024-.25.157-.063.344.205.205.906 1.093 1.156 2.5h.938c-.425-1.483-1.638-2.544-1.844-2.75a.331.331 0 00-.187-.094zm9.375 0a.338.338 0 00-.188.094c-.206.206-1.418 1.267-1.844 2.75h.938c.25-1.407.952-2.295 1.156-2.5.188-.187.102-.367-.062-.344zm-74.157.227c-.125 0-.312.188-.437.563-.208.623-.949 2.115-1.188 3.75h1c.124-1.63.48-3.128.688-3.75.125-.375.062-.563-.063-.563zm122.625 0c-.125 0-.187.188-.062.563.207.622.564 2.12.687 3.75h.6v-1.625c-.3-.935-.652-1.722-.787-2.125-.125-.375-.313-.563-.438-.563zM6.15 28.676a.338.338 0 00-.187.094c-.206.205-1.419 1.267-1.844 2.75h.938c.25-1.408.951-2.296 1.156-2.5.187-.188.101-.368-.063-.344zm118.625 0c-.164-.024-.25.156-.062.344.205.204.906 1.092 1.156 2.5h.938c-.425-1.483-1.638-2.545-1.844-2.75a.331.331 0 00-.188-.094zM0 29.895v1.625h.4a10.02 10.02 0 00-.4-1.625zm118.77 8.18c-.125 0-.25.187-.25.562 0 .63-.163 2.484-.22 4.25h.938c-.056-1.766-.218-3.62-.218-4.25 0-.375-.125-.563-.25-.563zm-2.688.5c-.125 0-.187.187-.062.562.207.622.564 2.12.687 3.75h1c-.239-1.635-.98-3.126-1.187-3.75-.125-.375-.313-.563-.438-.563zm5.375 0c-.125 0-.312.187-.437.562-.208.624-.95 2.115-1.188 3.75h1c.123-1.63.48-3.128.688-3.75.125-.375.062-.563-.063-.563zm-57.152 1.142c-.125 0-.25.187-.25.562 0 .63-.163 2.484-.22 4.25h.938c-.056-1.766-.218-3.62-.218-4.25 0-.375-.125-.562-.25-.562zm49.777.324v.002c-.164-.024-.25.156-.062.344.204.204.906 1.092 1.156 2.5h.937c-.425-1.483-1.638-2.544-1.843-2.75a.336.336 0 00-.188-.096zm9.375.002a.338.338 0 00-.187.094c-.206.206-1.42 1.267-1.844 2.75h.937c.25-1.408.952-2.296 1.157-2.5.187-.188.101-.368-.063-.344zm-61.84.174c-.125 0-.187.187-.062.562.207.623.564 2.12.687 3.75h1c-.238-1.634-.98-3.126-1.187-3.75-.125-.375-.313-.562-.438-.562zm5.375 0c-.125 0-.312.187-.437.562-.208.624-.95 2.116-1.188 3.75h1c.123-1.63.48-3.127.688-3.75.125-.375.062-.562-.063-.562zm-42.967.28c-.125 0-.25.187-.25.562 0 .63-.162 2.484-.218 4.25h.937c-.056-1.766-.219-3.62-.219-4.25 0-.375-.125-.563-.25-.563zm-2.687.5c-.125 0-.188.187-.063.562.208.622.565 2.12.688 3.75h1c-.239-1.635-.98-3.127-1.188-3.75-.125-.375-.312-.563-.437-.563zm5.375 0c-.125 0-.313.187-.438.562-.208.623-.949 2.115-1.187 3.75h1c.123-1.63.48-3.128.687-3.75.125-.375.063-.563-.062-.563zm18.474.519c-.124 0-.25.187-.25.562 0 .63-.162 2.484-.218 4.25h.937c-.056-1.766-.218-3.62-.218-4.25 0-.375-.126-.562-.25-.562zm14.43.17c-.164-.024-.25.156-.062.343.204.205.906 1.093 1.156 2.5h.937c-.425-1.483-1.637-2.544-1.843-2.75a.331.331 0 00-.188-.093zm9.375 0a.338.338 0 00-.187.093c-.206.206-1.419 1.267-1.844 2.75h.937c.25-1.407.952-2.295 1.157-2.5.187-.187.101-.367-.063-.343zm-26.492.33c-.125 0-.188.187-.063.562.208.623.565 2.12.688 3.75h1c-.239-1.634-.98-3.126-1.188-3.75-.124-.375-.312-.562-.437-.562zm5.375 0c-.125 0-.313.187-.438.562-.207.624-.948 2.116-1.187 3.75h1c.123-1.63.48-3.127.688-3.75.124-.375.062-.562-.063-.562zm-28.537.447v.002c-.164-.024-.25.156-.063.344.205.204.907 1.092 1.157 2.5h.937c-.425-1.483-1.638-2.545-1.844-2.75a.336.336 0 00-.187-.096zm9.375.002a.338.338 0 00-.188.094c-.206.205-1.418 1.267-1.843 2.75h.937c.25-1.408.952-2.296 1.156-2.5.188-.188.102-.368-.062-.344zm71.213 0c-.125 0-.25.187-.25.562 0 .63-.163 2.484-.219 4.25h.938c-.057-1.766-.22-3.62-.22-4.25 0-.375-.124-.562-.25-.562zm-18.182.398c-.125 0-.25.188-.25.563 0 .63-.162 2.484-.219 4.25h.938c-.057-1.766-.219-3.62-.219-4.25 0-.375-.125-.563-.25-.563zm15.494.102c-.125 0-.187.187-.062.562.207.623.564 2.12.687 3.75h1c-.238-1.634-.98-3.126-1.187-3.75-.125-.375-.313-.562-.438-.562zm5.375 0c-.125 0-.312.187-.437.562-.208.624-.95 2.116-1.188 3.75h1c.123-1.63.48-3.127.688-3.75.125-.375.062-.562-.063-.562zm-23.556.398c-.125 0-.188.188-.063.563.208.622.564 2.12.688 3.75h1c-.239-1.635-.98-3.126-1.188-3.75-.125-.375-.312-.563-.437-.563zm5.375 0c-.125 0-.313.188-.438.563-.208.624-.949 2.115-1.187 3.75h1c.123-1.63.48-3.128.687-3.75.125-.375.063-.563-.062-.563zm-43.932.121c-.164-.024-.25.157-.063.344.205.205.907 1.093 1.157 2.5h.937c-.425-1.483-1.638-2.544-1.843-2.75a.331.331 0 00-.188-.094zm9.375 0a.338.338 0 00-.188.094c-.205.206-1.418 1.267-1.843 2.75h.937c.25-1.407.952-2.295 1.157-2.5.187-.187.101-.367-.063-.344zm-43.08.182c-.125 0-.25.188-.25.563 0 .63-.162 2.484-.219 4.25h.938c-.057-1.766-.22-3.62-.22-4.25 0-.375-.124-.563-.25-.563zm-2.688.5c-.125 0-.187.188-.062.563.207.622.564 2.12.687 3.75h1c-.238-1.635-.98-3.127-1.187-3.75-.125-.375-.313-.563-.438-.563zm5.375 0c-.125 0-.312.188-.437.563-.208.623-.949 2.115-1.188 3.75h1c.124-1.63.48-3.128.688-3.75.125-.375.062-.563-.063-.563zm85.756.268c-.164-.024-.25.156-.062.343.204.205.906 1.093 1.156 2.5h.938c-.426-1.482-1.638-2.544-1.844-2.75a.331.331 0 00-.188-.093zm9.375 0a.343.343 0 00-.187.095c-.206.206-1.419 1.267-1.844 2.75h.938c.25-1.407.951-2.295 1.156-2.5.187-.187.101-.367-.063-.343v-.002zm-27.556.398c-.164-.024-.25.156-.063.344.205.204.906 1.092 1.156 2.5h.938c-.425-1.483-1.638-2.544-1.844-2.75a.331.331 0 00-.187-.094zm9.375 0a.338.338 0 00-.188.094c-.206.206-1.418 1.267-1.844 2.75h.938c.25-1.408.952-2.296 1.156-2.5.188-.188.102-.367-.062-.344zm-84.325.803c-.164-.024-.25.156-.062.344.205.204.906 1.092 1.156 2.5h.938c-.425-1.483-1.638-2.545-1.844-2.75a.331.331 0 00-.188-.094zm9.375 0a.338.338 0 00-.187.094c-.206.205-1.419 1.267-1.844 2.75h.938c.25-1.408.951-2.296 1.156-2.5.187-.188.101-.368-.063-.344zm40.57 7.842c-.124 0-.25.187-.25.562 0 .63-.162 2.484-.218 4.25h.937c-.056-1.766-.218-3.62-.218-4.25 0-.375-.125-.562-.25-.562zm-2.687.5c-.125 0-.187.187-.062.562.207.622.564 2.12.687 3.75h1c-.238-1.634-.98-3.126-1.187-3.75-.125-.375-.313-.562-.438-.562zm5.375 0c-.125 0-.312.187-.437.562-.208.624-.95 2.116-1.188 3.75h1c.123-1.63.48-3.128.688-3.75.125-.375.062-.562-.063-.562zm-7.375 1.466v.002c-.164-.024-.25.157-.062.344.204.205.906 1.093 1.156 2.5h.937c-.425-1.483-1.637-2.544-1.843-2.75a.336.336 0 00-.188-.096zm9.375.002a.338.338 0 00-.187.094c-.206.206-1.419 1.267-1.844 2.75h.937c.25-1.407.952-2.295 1.157-2.5.187-.187.101-.367-.063-.344zm69.114.354c-.125 0-.25.187-.25.562 0 .63-.163 2.484-.22 4.25h.938c-.056-1.766-.218-3.62-.218-4.25 0-.375-.125-.562-.25-.562zm-125.313.5c-.125 0-.312.187-.437.562-.019.056-.078.197-.104.266v2.723c.158-1.317.43-2.466.604-2.989.125-.375.062-.562-.063-.562zm122.625 0c-.125 0-.187.187-.062.562.207.623.564 2.12.687 3.75h1c-.239-1.634-.98-3.126-1.187-3.75-.125-.375-.313-.562-.438-.562zm-35.945.666c-.125 0-.25.187-.25.562 0 .63-.163 2.484-.219 4.25h.937c-.056-1.766-.218-3.62-.218-4.25 0-.375-.125-.562-.25-.562zm40.779.162c-.268.704-.867 1.995-1.084 3.484h1c.02-.261.054-.51.084-.761v-2.723zm-43.467.338c-.125 0-.187.187-.062.562.207.623.564 2.12.687 3.75h1c-.238-1.634-.98-3.126-1.187-3.75-.125-.375-.313-.562-.438-.562zm5.375 0c-.125 0-.312.187-.437.562-.208.624-.95 2.116-1.188 3.75h1c.123-1.63.48-3.127.688-3.75.125-.375.062-.562-.063-.562zm-70.797.097c-.125 0-.25.188-.25.563 0 .63-.162 2.484-.218 4.25h.937c-.056-1.766-.219-3.62-.219-4.25 0-.375-.125-.563-.25-.563zm-16.57.206a.343.343 0 00-.187.095c-.206.206-1.42 1.267-1.844 2.75h.937c.25-1.407.952-2.295 1.157-2.5.187-.187.101-.367-.063-.343v-.002zm118.625 0c-.164-.024-.25.156-.062.343.204.205.906 1.093 1.156 2.5h.937c-.425-1.482-1.638-2.544-1.843-2.75a.331.331 0 00-.188-.093zm-104.742.294c-.125 0-.188.188-.063.563.208.622.565 2.12.688 3.75h1c-.239-1.634-.98-3.126-1.188-3.75-.125-.375-.312-.563-.437-.563zm5.375 0c-.125 0-.313.188-.438.563-.208.624-.949 2.116-1.187 3.75h1c.123-1.63.48-3.128.687-3.75.125-.375.063-.563-.062-.563zm85.1.428c-.126 0-.25.188-.25.563 0 .63-.163 2.484-.22 4.25h.938c-.056-1.766-.219-3.62-.219-4.25 0-.375-.125-.563-.25-.563zm-71.893.123c-.125 0-.25.188-.25.563 0 .63-.162 2.484-.219 4.25h.938c-.057-1.766-.22-3.62-.22-4.25 0-.375-.124-.563-.25-.563zm47.527.32c-.164-.023-.25.157-.062.344.204.205.906 1.093 1.156 2.5h.937c-.425-1.482-1.637-2.544-1.843-2.75a.331.331 0 00-.188-.093zm9.375 0a.338.338 0 00-.187.094c-.206.206-1.419 1.268-1.844 2.75h.937c.25-1.407.952-2.295 1.157-2.5.187-.187.101-.365-.063-.341v-.002zm12.303.057c-.125 0-.188.188-.063.563.208.622.565 2.12.688 3.75h1c-.239-1.635-.98-3.126-1.188-3.75-.125-.375-.312-.563-.437-.563zm5.375 0c-.125 0-.313.188-.438.563-.208.624-.948 2.115-1.187 3.75h1c.123-1.63.48-3.128.687-3.75.125-.375.063-.563-.062-.563zm-77.268.123c-.125 0-.187.188-.062.563.207.622.564 2.12.687 3.75h1c-.238-1.635-.98-3.126-1.187-3.75-.125-.375-.313-.563-.438-.563zm5.375 0c-.125 0-.312.188-.437.563-.208.624-.95 2.115-1.188 3.75h1c.124-1.63.48-3.128.688-3.75.125-.375.062-.563-.063-.563zm-23.27.418c-.163-.024-.25.157-.062.344.205.205.907 1.093 1.157 2.5h.937c-.425-1.483-1.638-2.544-1.844-2.75a.331.331 0 00-.187-.094zm9.376 0a.343.343 0 00-.188.096c-.206.206-1.418 1.267-1.843 2.75h.937c.25-1.408.952-2.295 1.156-2.5.188-.188.102-.367-.062-.344v-.002zm49.582.196c-.125 0-.25.187-.25.562 0 .63-.162 2.484-.219 4.25h.938c-.057-1.766-.22-3.62-.22-4.25 0-.375-.124-.562-.25-.562zm-2.688.5c-.125 0-.187.187-.062.562.207.622.564 2.12.687 3.75h1c-.238-1.634-.98-3.126-1.187-3.75-.125-.375-.313-.562-.438-.562zm5.375 0c-.125 0-.312.187-.437.562-.208.624-.95 2.116-1.188 3.75h1c.124-1.63.48-3.128.688-3.75.125-.375.062-.562-.063-.562zm26.143.232c-.164-.024-.25.156-.063.344.205.204.907 1.092 1.157 2.5h.937c-.425-1.483-1.638-2.544-1.844-2.75a.331.331 0 00-.187-.094zm9.375 0a.338.338 0 00-.188.094c-.205.206-1.418 1.267-1.843 2.75h.937c.25-1.408.952-2.296 1.156-2.5.188-.188.102-.368-.062-.344zm-81.268.123c-.164-.024-.25.156-.062.344.204.204.906 1.092 1.156 2.5h.938c-.426-1.483-1.638-2.544-1.844-2.75a.331.331 0 00-.188-.094zm9.375 0a.343.343 0 00-.187.096c-.206.206-1.419 1.267-1.844 2.75h.938c.25-1.408.951-2.296 1.156-2.5.187-.188.101-.368-.063-.344v-.002zm29 1.111v.002c-.164-.024-.25.157-.062.344.204.205.906 1.093 1.156 2.5h.938c-.426-1.483-1.638-2.544-1.844-2.75a.336.336 0 00-.188-.096zm9.375.002a.338.338 0 00-.187.094c-.206.206-1.419 1.267-1.844 2.75h.938c.25-1.407.951-2.295 1.156-2.5.187-.187.101-.367-.063-.344zm41.63 8.172c-.126 0-.25.188-.25.563 0 .63-.163 2.484-.22 4.25h.938c-.056-1.766-.219-3.62-.219-4.25 0-.375-.125-.563-.25-.563zm-2.688.5c-.125 0-.188.188-.063.563.208.622.565 2.12.688 3.75h1c-.239-1.635-.98-3.126-1.188-3.75-.125-.375-.312-.563-.437-.563zm5.375 0c-.125 0-.313.188-.438.563-.208.624-.949 2.115-1.187 3.75h1c.123-1.63.48-3.128.687-3.75.125-.375.063-.563-.062-.563zm-43.895.742c-.125 0-.25.188-.25.563 0 .63-.162 2.484-.219 4.25h.938c-.056-1.766-.219-3.62-.219-4.25 0-.375-.125-.563-.25-.563zm-2.687.5c-.125 0-.188.188-.063.563.208.622.565 2.12.688 3.75h1c-.239-1.635-.98-3.126-1.188-3.75-.125-.375-.312-.563-.437-.563zm5.375 0c-.125 0-.313.188-.438.563-.208.624-.949 2.115-1.187 3.75h1c.123-1.63.48-3.128.687-3.75.125-.375.063-.563-.062-.563zm33.832.227c-.164-.024-.25.156-.063.344.205.204.907 1.092 1.157 2.5h.937c-.425-1.483-1.638-2.544-1.844-2.75a.331.331 0 00-.187-.094zm9.375 0a.338.338 0 00-.188.094c-.206.206-1.418 1.267-1.843 2.75h.937c.25-1.408.952-2.296 1.156-2.5.188-.188.102-.368-.062-.344zm-60.617 1.016c-.125 0-.25.187-.25.562 0 .63-.163 2.484-.22 4.25h.938c-.056-1.766-.218-3.62-.218-4.25 0-.375-.125-.562-.25-.562zm10.035.226c-.164-.024-.25.156-.063.344.205.204.907 1.092 1.156 2.5h.938c-.425-1.483-1.638-2.544-1.844-2.75a.331.331 0 00-.187-.094zm9.375 0a.338.338 0 00-.188.094c-.206.206-1.418 1.267-1.844 2.75h.938c.25-1.408.952-2.296 1.156-2.5.188-.188.102-.367-.062-.344zm-22.098.274c-.125 0-.187.187-.062.562.207.622.564 2.12.687 3.75h1c-.238-1.634-.98-3.126-1.187-3.75-.125-.375-.313-.562-.438-.562zm5.375 0c-.125 0-.312.187-.437.562-.208.624-.95 2.116-1.188 3.75h1c.123-1.63.48-3.128.688-3.75.125-.375.062-.562-.063-.562zm-59.924.343c-.125 0-.25.188-.25.563 0 .63-.162 2.484-.218 4.25H7c-.056-1.766-.219-3.62-.219-4.25 0-.375-.125-.563-.25-.563zm19.766.041c-.125 0-.25.188-.25.563 0 .63-.162 2.484-.219 4.25h.938c-.057-1.766-.22-3.62-.22-4.25 0-.375-.124-.563-.25-.563zm-22.453.46c-.125 0-.188.187-.063.562.208.622.565 2.12.688 3.75h1c-.239-1.635-.98-3.126-1.188-3.75-.125-.375-.312-.563-.437-.563zm5.375 0c-.125 0-.313.187-.438.562-.208.624-.949 2.115-1.187 3.75h1c.123-1.63.48-3.128.687-3.75.125-.375.063-.563-.062-.563zm14.39.04c-.125 0-.187.188-.062.563.207.622.564 2.12.687 3.75h1c-.238-1.635-.98-3.126-1.187-3.75-.125-.375-.313-.563-.438-.563zm5.375 0c-.125 0-.312.188-.437.563-.208.624-.95 2.115-1.188 3.75h1c.124-1.63.48-3.128.688-3.75.125-.375.062-.563-.063-.563zm30.096.584c-.164-.024-.25.157-.062.344.204.205.906 1.093 1.156 2.5h.937c-.425-1.483-1.638-2.544-1.843-2.75a.331.331 0 00-.188-.094zm9.375 0a.338.338 0 00-.187.094c-.206.206-1.419 1.267-1.844 2.75h.937c.25-1.407.952-2.295 1.157-2.5.187-.187.101-.367-.063-.344zm-21.883.034c-.125 0-.25.187-.25.562 0 .63-.162 2.484-.218 4.25h.937c-.056-1.766-.219-3.62-.219-4.25 0-.375-.125-.562-.25-.562zm-2.687.5c-.125 0-.188.187-.063.562.208.622.565 2.12.688 3.75h1c-.239-1.634-.98-3.126-1.188-3.75-.125-.375-.312-.562-.437-.562zm5.375 0c-.125 0-.313.187-.438.562-.208.624-.949 2.116-1.187 3.75h1c.123-1.63.48-3.128.687-3.75.125-.375.063-.562-.062-.562zm-47.416.31c-.164-.024-.25.156-.063.344.205.204.907 1.092 1.157 2.5h.937c-.425-1.483-1.638-2.544-1.844-2.75a.331.331 0 00-.187-.094zm9.375 0a.338.338 0 00-.188.094c-.206.206-1.418 1.267-1.844 2.75h.938c.25-1.408.952-2.296 1.156-2.5.188-.188.102-.367-.062-.344zm10.39.041c-.164-.024-.25.156-.062.344.205.204.906 1.092 1.156 2.5h.938c-.426-1.483-1.638-2.544-1.844-2.75a.331.331 0 00-.188-.094zm9.375 0a.338.338 0 00-.187.094c-.206.206-1.419 1.267-1.844 2.75h.938c.25-1.408.951-2.296 1.156-2.5.187-.188.101-.367-.063-.344zm70.2.27c-.125 0-.25.187-.25.562 0 .63-.163 2.484-.22 4.25h.938c-.056-1.766-.218-3.62-.218-4.25 0-.375-.125-.562-.25-.562zm-2.688.5c-.125 0-.187.187-.062.562.207.623.564 2.12.687 3.75h1c-.238-1.634-.98-3.126-1.187-3.75-.125-.375-.313-.562-.438-.562zm5.375 0c-.125 0-.312.187-.437.562-.208.624-.95 2.116-1.188 3.75h1c.123-1.63.48-3.127.688-3.75.125-.375.062-.562-.063-.562zm-61.986.347c-.164-.024-.25.157-.063.344.205.205.907 1.093 1.157 2.5h.937c-.425-1.483-1.638-2.544-1.844-2.75a.331.331 0 00-.187-.094zm9.375 0a.343.343 0 00-.188.096c-.206.206-1.418 1.267-1.843 2.75h.937c.25-1.408.952-2.295 1.156-2.5.188-.188.102-.367-.062-.344v-.002zm45.236 1.121c-.164-.024-.25.157-.062.344.204.205.906 1.093 1.156 2.5h.937c-.425-1.483-1.637-2.544-1.843-2.75a.331.331 0 00-.188-.094zm9.375 0a.338.338 0 00-.187.094c-.206.206-1.419 1.267-1.844 2.75h.937c.25-1.407.952-2.295 1.157-2.5.187-.187.101-.367-.063-.344zm-87.057 9.248c-.125 0-.25.188-.25.563 0 .63-.162 2.484-.218 4.25h.937c-.056-1.766-.219-3.62-.219-4.25 0-.375-.125-.563-.25-.563zm-2.687.5c-.125 0-.188.188-.063.563.208.622.565 2.12.688 3.75h1c-.239-1.634-.98-3.126-1.188-3.75-.125-.375-.312-.563-.437-.563zm5.375 0c-.125 0-.313.188-.438.563-.208.624-.948 2.116-1.187 3.75h1c.123-1.63.48-3.128.687-3.75.125-.375.063-.563-.062-.563zm86.23.32c-.125 0-.25.188-.25.563 0 .63-.162 2.484-.218 4.25h.937c-.056-1.766-.219-3.62-.219-4.25 0-.375-.125-.562-.25-.562zm-20.246.05c-.125 0-.25.187-.25.562 0 .63-.162 2.484-.218 4.25h.937c-.056-1.766-.219-3.62-.219-4.25 0-.375-.125-.562-.25-.562zm17.559.45c-.125 0-.188.188-.063.563.208.623.565 2.12.688 3.75h1c-.239-1.634-.98-3.126-1.188-3.75-.125-.375-.312-.562-.437-.562zm5.375 0c-.125 0-.313.188-.438.563-.208.624-.949 2.116-1.187 3.75h1c.123-1.63.48-3.127.687-3.75.125-.375.063-.562-.062-.562zm-25.621.05c-.125 0-.188.187-.063.562.208.622.565 2.12.688 3.75h1c-.239-1.634-.98-3.126-1.188-3.75-.125-.375-.312-.562-.437-.562zm5.375 0c-.125 0-.313.187-.438.562-.208.624-.949 2.116-1.187 3.75h1c.123-1.63.48-3.128.687-3.75.125-.375.063-.562-.062-.562zm-76.047.6c-.164-.025-.25.155-.063.343.205.205.907 1.092 1.157 2.5h.937c-.425-1.483-1.638-2.544-1.844-2.75a.331.331 0 00-.187-.094zm9.375 0a.338.338 0 00-.188.093c-.205.206-1.418 1.267-1.843 2.75h.937c.25-1.408.952-2.295 1.156-2.5.188-.188.102-.367-.062-.344zm32.547.587c-.125 0-.25.188-.25.563 0 .63-.162 2.484-.219 4.25h.938c-.057-1.766-.22-3.62-.22-4.25 0-.375-.124-.563-.25-.563zm-20.393.143c-.125 0-.25.187-.25.562 0 .63-.162 2.484-.218 4.25h.937c-.056-1.766-.219-3.62-.219-4.25 0-.375-.125-.562-.25-.562zm67.389.09c-.164-.025-.25.156-.063.343.205.205.907 1.093 1.157 2.5h.937c-.425-1.483-1.638-2.544-1.844-2.75a.331.331 0 00-.187-.094zm9.375 0a.338.338 0 00-.188.093c-.205.206-1.418 1.267-1.843 2.75h.937c.25-1.407.952-2.295 1.156-2.5.188-.187.102-.367-.062-.344zm-29.621.048c-.164-.024-.25.157-.063.344.205.205.907 1.093 1.157 2.5h.937c-.425-1.483-1.638-2.544-1.844-2.75a.331.331 0 00-.187-.094zm9.375 0a.338.338 0 00-.188.094c-.206.206-1.418 1.267-1.843 2.75h.937c.25-1.407.952-2.295 1.156-2.5.188-.187.102-.367-.062-.344zm-38.813.219c-.125 0-.187.188-.062.563.207.622.564 2.12.687 3.75h1c-.238-1.635-.98-3.127-1.187-3.75-.125-.375-.313-.563-.438-.563zm5.375 0c-.125 0-.312.188-.437.563-.208.623-.95 2.115-1.188 3.75h1c.124-1.63.48-3.128.688-3.75.125-.375.062-.563-.063-.563zm-25.767.143c-.125 0-.188.187-.063.562.208.623.565 2.12.688 3.75h1c-.239-1.634-.98-3.126-1.188-3.75-.125-.375-.312-.562-.437-.562zm5.375 0c-.125 0-.313.187-.438.562-.208.624-.949 2.116-1.187 3.75h1c.123-1.63.48-3.127.687-3.75.125-.375.063-.562-.062-.562zm35.488.843c-.125 0-.25.188-.25.563 0 .63-.162 2.484-.219 4.25h.938c-.057-1.766-.219-3.62-.219-4.25 0-.375-.125-.563-.25-.563zm-22.47.483c-.165-.024-.25.156-.063.344.204.204.906 1.092 1.156 2.5h.938c-.426-1.483-1.638-2.545-1.844-2.75a.331.331 0 00-.188-.094zm9.374 0a.338.338 0 00-.187.094c-.206.205-1.419 1.267-1.844 2.75h.938c.25-1.408.951-2.296 1.156-2.5.187-.188.101-.368-.063-.344zm10.409.017c-.125 0-.188.188-.063.563.207.622.564 2.12.688 3.75h1c-.239-1.635-.98-3.126-1.188-3.75-.125-.375-.312-.563-.437-.563zm5.375 0c-.125 0-.313.188-.438.563-.208.624-.949 2.115-1.187 3.75h1c.123-1.63.48-3.128.687-3.75.125-.375.063-.563-.062-.563zm-45.551.125c-.164-.024-.25.157-.063.344.205.205.907 1.093 1.157 2.5H33c-.425-1.483-1.638-2.544-1.844-2.75a.331.331 0 00-.187-.094zm9.375 0a.338.338 0 00-.188.094c-.206.206-1.418 1.267-1.843 2.75h.937c.25-1.407.952-2.295 1.156-2.5.188-.187.102-.367-.062-.344zm85.771.125c-.125 0-.25.188-.25.563 0 .63-.162 2.484-.219 4.25h.938c-.056-1.766-.219-3.62-.219-4.25 0-.375-.125-.563-.25-.563zm-125.312.5c-.125 0-.313.188-.438.563-.065.196-.227.595-.365.94v2.81h.178c.123-1.63.48-3.128.687-3.75.125-.375.063-.563-.062-.563zm122.625 0c-.125 0-.188.188-.063.563.208.622.565 2.12.688 3.75h1c-.239-1.635-.98-3.126-1.188-3.75-.125-.375-.312-.563-.437-.563zm-54.283.72c-.165-.025-.25.155-.063.343.205.204.906 1.092 1.156 2.5h.938c-.425-1.483-1.638-2.544-1.844-2.75a.331.331 0 00-.187-.094zm9.375 0a.338.338 0 00-.188.093c-.206.206-1.419 1.267-1.844 2.75h.938c.25-1.408.951-2.296 1.156-2.5.188-.188.102-.367-.062-.344zm42.908.747v.002c-.164-.024-.25.156-.063.344.205.204.907 1.092 1.156 2.5h.938c-.425-1.483-1.638-2.544-1.844-2.75a.336.336 0 00-.187-.096zm-118.625.002a.338.338 0 00-.188.094c-.206.206-1.418 1.267-1.844 2.75h.938c.25-1.408.952-2.296 1.156-2.5.188-.188.102-.367-.062-.344zM128 93.986c-.302.753-.659 1.69-.822 2.81H128v-2.81zm-67.922 7.985c-.125 0-.25.187-.25.562 0 .63-.162 2.484-.219 4.25h.938c-.057-1.766-.219-3.62-.219-4.25 0-.375-.125-.562-.25-.562zm-2.687.5c-.125 0-.188.187-.063.562.208.623.564 2.12.688 3.75h1c-.239-1.634-.98-3.126-1.188-3.75-.125-.375-.312-.562-.437-.562zm5.375 0c-.125 0-.313.187-.438.562-.208.624-.949 2.116-1.187 3.75h1c.123-1.63.48-3.127.687-3.75.125-.375.063-.562-.062-.562zm-37.71.293c-.124 0-.25.187-.25.562 0 .63-.162 2.484-.218 4.25h.937c-.056-1.766-.218-3.62-.218-4.25 0-.375-.125-.562-.25-.562zm-2.687.5c-.125 0-.187.187-.062.562.207.623.564 2.12.687 3.75h1c-.238-1.634-.98-3.126-1.187-3.75-.125-.375-.313-.562-.438-.562zm5.375 0c-.125 0-.312.187-.437.562-.208.624-.95 2.116-1.188 3.75h1c.123-1.63.48-3.127.688-3.75.125-.375.062-.562-.063-.562zm70.188.394c-.125 0-.25.188-.25.563 0 .63-.163 2.484-.22 4.25h.938c-.056-1.766-.218-3.62-.218-4.25 0-.375-.125-.563-.25-.563zm-16.12.266c-.124 0-.25.187-.25.562 0 .63-.162 2.484-.218 4.25h.937c-.056-1.766-.219-3.62-.219-4.25 0-.375-.124-.562-.25-.562zm-26.421.013v.002c-.164-.024-.25.157-.063.344.205.205.906 1.093 1.156 2.5h.938c-.425-1.483-1.638-2.544-1.844-2.75a.336.336 0 00-.187-.096zm9.375.002a.338.338 0 00-.188.094c-.206.206-1.418 1.267-1.844 2.75h.938c.25-1.407.951-2.295 1.156-2.5.188-.187.102-.367-.062-.344zm30.478.22c-.125 0-.187.187-.062.562.207.622.564 2.12.687 3.75h1c-.238-1.635-.98-3.126-1.187-3.75-.125-.375-.313-.563-.438-.563zm5.375 0c-.125 0-.312.187-.437.562-.208.624-.95 2.115-1.188 3.75h1c.123-1.63.48-3.128.688-3.75.125-.375.062-.563-.063-.563zm-21.494.265c-.125 0-.188.187-.063.562.208.623.565 2.12.688 3.75h1c-.239-1.634-.98-3.126-1.188-3.75-.124-.375-.312-.562-.437-.562zm5.375 0c-.125 0-.313.187-.438.562-.207.624-.948 2.116-1.187 3.75h1c.123-1.63.48-3.127.688-3.75.124-.375.062-.562-.063-.562zm33.24.303c-.125 0-.25.187-.25.562 0 .63-.162 2.484-.219 4.25h.938c-.056-1.766-.219-3.62-.219-4.25 0-.375-.125-.562-.25-.562zm-97.37.003v.002c-.165-.024-.25.157-.063.344.204.205.906 1.093 1.156 2.5h.937c-.425-1.483-1.637-2.544-1.843-2.75a.336.336 0 00-.188-.096zm9.374.002a.338.338 0 00-.187.094c-.206.206-1.419 1.267-1.844 2.75h.937c.25-1.407.952-2.295 1.157-2.5.187-.187.101-.367-.063-.344zm85.309.495c-.125 0-.188.187-.063.562.208.622.565 2.12.688 3.75h1c-.239-1.634-.98-3.126-1.188-3.75-.125-.375-.312-.562-.437-.562zm5.375 0c-.125 0-.313.187-.438.562-.208.624-.949 2.116-1.187 3.75h1c.123-1.63.48-3.128.687-3.75.125-.375.063-.562-.062-.562zm-73.96.171c-.124 0-.25.188-.25.563 0 .63-.162 2.484-.218 4.25h.938c-.057-1.766-.22-3.62-.22-4.25 0-.375-.124-.563-.25-.563zm46.776.229c-.164-.024-.25.156-.062.344.204.204.906 1.092 1.156 2.5h.937c-.425-1.483-1.637-2.544-1.843-2.75a.331.331 0 00-.188-.094zm9.375 0a.343.343 0 00-.187.096c-.206.206-1.419 1.267-1.844 2.75h.937c.25-1.408.952-2.296 1.157-2.5.187-.188.101-.368-.063-.344v-.002zm-25.494.264v.002c-.164-.024-.25.156-.063.343.205.205.907 1.093 1.157 2.5h.937c-.425-1.482-1.638-2.544-1.844-2.75a.336.336 0 00-.187-.095zm9.375.002a.338.338 0 00-.188.093c-.205.206-1.418 1.268-1.843 2.75h.937c.25-1.407.952-2.295 1.156-2.5.188-.187.102-.367-.062-.343zm-42.719.005c-.125 0-.187.188-.062.563.207.622.564 2.12.687 3.75h1c-.238-1.634-.98-3.126-1.187-3.75-.125-.375-.313-.563-.438-.563zm5.375 0c-.125 0-.312.188-.437.563-.208.624-.95 2.116-1.188 3.75h1c.123-1.63.48-3.128.688-3.75.125-.375.062-.563-.063-.563zm-39.902.504c-.125 0-.25.188-.25.563 0 .63-.162 2.484-.219 4.25h.938c-.057-1.766-.22-3.62-.22-4.25 0-.375-.124-.563-.25-.563zm103.799.291v.002c-.164-.024-.25.157-.063.344.205.205.907 1.093 1.156 2.5h.938c-.425-1.483-1.638-2.544-1.844-2.75a.336.336 0 00-.187-.096zm9.375.002a.338.338 0 00-.188.094c-.206.206-1.418 1.267-1.844 2.75h.938c.25-1.407.952-2.295 1.156-2.5.188-.187.102-.367-.062-.344zm-115.862.207c-.125 0-.187.188-.062.563.207.622.564 2.12.687 3.75h1c-.238-1.635-.98-3.126-1.187-3.75-.125-.375-.313-.563-.438-.563zm5.375 0c-.125 0-.312.188-.437.563-.208.624-.949 2.115-1.188 3.75h1c.124-1.63.48-3.128.688-3.75.125-.375.062-.563-.063-.563zm29.84.465c-.164-.024-.25.156-.062.344.204.205.906 1.092 1.156 2.5h.938c-.426-1.483-1.638-2.544-1.844-2.75a.331.331 0 00-.188-.094zm9.375 0a.338.338 0 00-.187.094c-.206.206-1.419 1.267-1.844 2.75h.938c.25-1.408.951-2.295 1.156-2.5.187-.188.101-.367-.063-.344zm-46.59 1.002v.002c-.164-.024-.25.156-.062.344.205.204.906 1.092 1.156 2.5h.938c-.425-1.483-1.638-2.544-1.844-2.75a.336.336 0 00-.188-.096zm9.375.002a.338.338 0 00-.187.094c-.206.206-1.419 1.267-1.844 2.75h.938c.25-1.408.951-2.296 1.156-2.5.187-.188.101-.367-.063-.344zm73.63 10.252c-.126 0-.25.188-.25.563 0 .63-.163 2.484-.22 4.25h.938c-.056-1.766-.219-3.62-.219-4.25 0-.375-.125-.563-.25-.563zm-68.42.107c-.126 0-.25.188-.25.563 0 .63-.163 2.484-.22 4.25h.938c-.056-1.766-.219-3.62-.219-4.25 0-.375-.125-.563-.25-.563zm65.732.393c-.125 0-.188.188-.063.563.208.622.565 2.12.688 3.75h1c-.239-1.635-.98-3.127-1.188-3.75-.125-.375-.312-.563-.437-.563zm5.375 0c-.125 0-.313.188-.438.563-.208.623-.949 2.115-1.187 3.75h1c.123-1.63.48-3.128.687-3.75.125-.375.063-.563-.062-.563zm-73.795.107c-.125 0-.188.188-.063.563.208.622.565 2.12.688 3.75h1c-.239-1.634-.98-3.126-1.188-3.75-.125-.375-.312-.563-.437-.563zm5.375 0c-.125 0-.313.188-.438.563-.208.624-.949 2.116-1.187 3.75h1c.123-1.63.48-3.128.687-3.75.125-.375.063-.563-.062-.563zm13.951 1.122c-.125 0-.25.187-.25.562 0 .63-.162 2.484-.219 4.25h.938c-.057-1.766-.219-3.62-.219-4.25 0-.375-.125-.562-.25-.562zm47.094.24c-.164-.024-.25.156-.063.344.205.204.907 1.092 1.157 2.5h.937c-.425-1.483-1.638-2.545-1.844-2.75a.331.331 0 00-.187-.094zm9.375 0a.338.338 0 00-.188.094c-.206.205-1.418 1.267-1.843 2.75h.937c.25-1.408.952-2.296 1.156-2.5.188-.188.102-.368-.062-.344zm-77.795.107c-.164-.024-.25.156-.063.344.205.205.907 1.092 1.157 2.5h.937c-.425-1.483-1.638-2.544-1.844-2.75a.331.331 0 00-.187-.094zm9.375 0a.338.338 0 00-.188.094c-.206.206-1.418 1.267-1.843 2.75h.937c.25-1.408.952-2.295 1.156-2.5.188-.188.102-.367-.062-.344zm9.264.153c-.125 0-.188.187-.063.562.208.622.564 2.12.688 3.75h1c-.239-1.634-.98-3.126-1.188-3.75-.125-.375-.312-.562-.437-.562zm5.375 0c-.125 0-.313.187-.438.562-.208.624-.949 2.116-1.187 3.75h1c.123-1.63.48-3.128.687-3.75.125-.375.063-.562-.062-.562zm69.564.304c-.125 0-.25.188-.25.563 0 .63-.162 2.484-.219 4.25h.938c-.057-1.766-.219-3.62-.219-4.25 0-.375-.125-.563-.25-.563zm-2.687.5c-.125 0-.188.188-.063.563.207.622.564 2.12.688 3.75h1c-.239-1.635-.98-3.126-1.188-3.75-.125-.375-.312-.563-.437-.563zm5.375 0c-.125 0-.313.188-.438.563-.208.624-.949 2.115-1.187 3.75h1c.123-1.63.48-3.128.687-3.75.125-.375.063-.563-.062-.563zm-38.436.487c-.125 0-.25.187-.25.562 0 .63-.162 2.484-.219 4.25h.938c-.057-1.766-.219-3.62-.219-4.25 0-.375-.125-.562-.25-.562zm-41.191.177c-.165-.024-.25.157-.063.344.205.205.906 1.093 1.156 2.5h.938c-.425-1.483-1.638-2.544-1.844-2.75a.331.331 0 00-.187-.094zm9.375 0a.343.343 0 00-.188.096c-.206.206-1.419 1.267-1.844 2.75h.938c.25-1.407.951-2.295 1.156-2.5.188-.187.102-.367-.062-.344v-.002zm11.73.174c-.125 0-.25.188-.25.563 0 .63-.162 2.484-.219 4.25h.938c-.057-1.766-.219-3.62-.219-4.25 0-.375-.125-.563-.25-.563zm17.398.149c-.125 0-.187.187-.062.562.207.622.564 2.12.687 3.75h1c-.238-1.634-.98-3.126-1.187-3.75-.125-.375-.313-.562-.438-.562zm5.375 0c-.125 0-.312.187-.437.562-.208.624-.949 2.116-1.188 3.75h1c.124-1.63.48-3.128.688-3.75.125-.375.062-.562-.063-.562zm-25.46.351c-.125 0-.188.188-.063.563.207.622.564 2.12.688 3.75h1c-.239-1.635-.98-3.126-1.188-3.75-.125-.375-.312-.563-.437-.563zm5.375 0c-.125 0-.313.188-.438.563-.208.624-.949 2.115-1.187 3.75h1c.123-1.63.48-3.128.687-3.75.125-.375.063-.563-.062-.563zm48.459.131c-.165-.024-.25.156-.063.344.205.204.906 1.092 1.156 2.5h.938c-.425-1.483-1.638-2.544-1.844-2.75a.331.331 0 00-.187-.094zm9.375 0a.338.338 0 00-.188.094c-.206.206-1.419 1.267-1.844 2.75h.938c.25-1.408.951-2.296 1.156-2.5.188-.188.102-.367-.062-.344zm-45.124.986c-.164-.024-.25.157-.062.344.205.205.906 1.093 1.156 2.5h.938c-.425-1.483-1.638-2.544-1.844-2.75a.331.331 0 00-.188-.094zm9.375 0a.338.338 0 00-.187.094c-.206.206-1.419 1.267-1.844 2.75h.938c.25-1.407.951-2.295 1.156-2.5.187-.187.102-.367-.063-.344zm50.832.131c-.124 0-.25.188-.25.563 0 .5-.093 1.81-.164 3.195H128v-3.568c-.048-.122-.116-.19-.188-.19zM0 124.432V128h.227c-.07-1.385-.165-2.696-.165-3.195a1 1 0 00-.062-.373zm47.52.03c-.165-.023-.25.157-.063.345.205.204.906 1.092 1.156 2.5h.938c-.425-1.483-1.638-2.544-1.844-2.75a.331.331 0 00-.187-.094zm9.375 0a.343.343 0 00-.188.097c-.206.205-1.419 1.267-1.844 2.75h.938c.25-1.408.951-2.296 1.156-2.5.188-.188.102-.368-.062-.344v-.002zm-54.395.28c-.125 0-.313.188-.438.563-.161.485-.639 1.5-.958 2.695h.888c.162-1.193.41-2.211.57-2.695.126-.375.063-.563-.062-.563zm122.625 0c-.125 0-.188.188-.063.563.162.484.409 1.502.57 2.695h.89c-.32-1.194-.798-2.21-.96-2.695-.124-.375-.312-.563-.437-.563zM4.5 126.211a.338.338 0 00-.188.094c-.152.152-.856.78-1.384 1.695h.781c.308-.788.707-1.299.853-1.445.188-.188.102-.368-.062-.344zm118.625 0c-.164-.024-.25.156-.063.344.147.146.546.657.854 1.445h.781c-.528-.916-1.232-1.543-1.385-1.695a.331.331 0 00-.187-.094z" fill="#b0be93"/>
</svg>
