<svg width="13" height="16.999775" version="1.1"
  xmlns="http://www.w3.org/2000/svg" xmlns:svg="http://www.w3.org/2000/svg">


  <path
    d="M 6.5,1.4998949 C 2.924,2.7408949 1.5,6.4998949 1.5,9.4998949 C 1.5,12.499895 3.245,14.759895 5.5,15.499895 C 3.5,12.240895 3.5,9.4998949 6.5,7.4998949 C 5.995,8.8528949 6.5,11.499895 7.5,12.499895 C 7.931,12.099895 8.5,11.074895 8.5,10.499895 C 10.5,12.499895 9.063,14.132895 8.5,15.499895 C 9.588,14.939895 11.5,13.499895 11.5,10.499895 C 11.5,7.4998949 9.5,6.4998949 9.5,3.4998949 C 8.116,4.0998949 7.5,5.4998949 7.5,6.4998949 C 6.548,5.9428949 5.5,3.7458949 6.5,1.4998949 Z"
  />
</svg>
