<svg width="15.010384" height="17.007788" version="1.1"
  xmlns="http://www.w3.org/2000/svg" xmlns:svg="http://www.w3.org/2000/svg">


  <path
    d="M 6.3654746,1.4997339 C 7.9994746,4.8527339 -0.5715254,7.0497339 6.8814746,11.642734 L 7.2034746,11.525734 C 5.3484746,8.8397339 12.878475,5.6917339 6.3654746,1.4997339 Z M 9.7544746,4.9357339 C 10.804475,8.0237339 7.2184746,8.9077339 8.3444746,11.109734 L 10.034475,10.495734 C 10.711475,8.8427339 12.447475,7.5097339 9.7544746,4.9357339 Z M 1.9794746,10.509734 A 0.5,0.5 0 0 0 1.8344746,11.482734 L 6.0494746,13.015734 L 1.8364746,14.546734 A 0.49441784,0.49441784 0 0 0 2.1724746,15.476734 L 7.4944746,13.540734 L 12.834475,15.482734 A 0.50074045,0.50074045 0 0 0 13.174475,14.540734 L 8.9594746,13.007734 L 13.172475,11.476734 A 0.494,0.494 0 0 0 13.014475,10.515734 A 0.494,0.494 0 0 0 12.836475,10.546734 L 7.5144746,12.482734 L 2.1744746,10.540734 A 0.5,0.5 0 0 0 1.9794746,10.509734 Z"
  />
</svg>
