<svg width="5.7539725" height="9.7250004" version="1.1"
  xmlns="http://www.w3.org/2000/svg" xmlns:svg="http://www.w3.org/2000/svg">

  <path
    d="M 0.99997248,1.422 Q 1.9329725,1 2.6709725,1 Q 3.6679725,1 4.2109725,1.448 Q 4.7539725,1.897 4.7539725,2.772 Q 4.7539725,3.679 3.5779725,4.654 Q 3.0669725,5.076 2.9509725,5.219 Q 2.8409725,5.356 2.7709725,5.556 Q 2.7029725,5.756 2.7029725,6.057 V 6.347 H 1.9809725 V 6.047 Q 1.9809725,5.129 2.5659725,4.617 L 3.2619725,4.006 Q 3.5989725,3.721 3.7579725,3.431 Q 3.9159725,3.136 3.9159725,2.803 Q 3.9159725,2.255 3.5679725,1.965 Q 3.2199725,1.67 2.6179725,1.67 Q 2.0749725,1.67 1.2479725,2.06 Z M 2.4339725,7.375 Q 2.7139725,7.375 2.9039725,7.565 Q 3.0939725,7.755 3.0939725,8.035 Q 3.0939725,8.319 2.8979725,8.525 Q 2.7079725,8.725 2.4339725,8.725 Q 2.1649725,8.725 1.9749725,8.525 Q 1.7849725,8.319 1.7849725,8.035 Q 1.7849725,7.75 1.9699725,7.565 Q 2.1599725,7.375 2.4339725,7.375 Z"
    fill="#ff0000"
    style="stroke:#ffffff;stroke-width:2;stroke-linejoin:round;stroke-opacity:0.5;paint-order:stroke fill markers" />
</svg>
