<svg xmlns="http://www.w3.org/2000/svg" width="14" height="14">
    <path d="M9.852 7.33c-.57 2.026-1.328 3.883-2.549 3.931-1.51.06-2.15-1.145-2.48-4.19-.33-3.044-.552-5.38 2.48-5.397 2.515-.015 3.73 1.456 2.55 5.656z" opacity=".33" fill="#fff2f2"/>
    <path d="M5.675 3.075q.933-.422 1.671-.422.997 0 1.54.448.543.449.543 1.324 0 .907-1.176 1.882-.511.422-.627.565-.11.137-.18.337-.068.2-.068.501V8h-.722v-.3q0-.918.585-1.43l.696-.611q.337-.285.496-.575.158-.295.158-.628 0-.548-.348-.838-.348-.295-.95-.295-.543 0-1.37.39zm1.434 5.953q.28 0 .47.19.19.19.19.47 0 .284-.196.49-.19.2-.464.2-.269 0-.459-.2-.19-.206-.19-.49 0-.285.185-.47.19-.19.464-.19z" color="#000" fill="red"/>
</svg>
