<svg width="16.479126" height="13.115113" version="1.1" id="svg2" xmlns="http://www.w3.org/2000/svg"
  xmlns:svg="http://www.w3.org/2000/svg">
  <path
    d="M 4.8881377,1.6387986 L 2.8801058,3.6394481 C 2.7466964,3.772367 2.7398388,3.8667701 2.7398388,3.9938066 C 2.7398388,4.1208431 2.7790958,4.247155 2.8801058,4.3481652 L 4.8807553,6.3488148 C 5.0762093,6.5451314 5.3940185,6.5451314 5.5894725,6.3488148 C 5.785789,6.1533608 5.785789,5.8355516 5.5894725,5.6400977 L 4.4378071,4.4884322 H 12.03437 L 10.882704,5.6400977 C 10.686388,5.8355516 10.686388,6.1533608 10.882704,6.3488148 C 11.078158,6.5451314 11.395967,6.5451314 11.591421,6.3488148 L 13.592071,4.3481652 C 13.788359,4.1526999 13.788359,3.8349137 13.592071,3.6394481 L 11.591421,1.6387986 C 11.393929,1.4445027 11.076107,1.4478133 10.882704,1.646181 C 10.69128,1.8407732 10.69128,2.1529235 10.882704,2.3475157 L 12.026987,3.4917987 H 4.4451894 L 5.5894725,2.3475157 C 5.7808968,2.1529235 5.7808968,1.8407732 5.5894725,1.646181 C 5.3969014,1.4526933 5.0847388,1.4494074 4.8881377,1.6387986 Z"
  />
  <path fill="#0064ff"
    d="M 3.2367928,8.371612 C 2.882591,8.371612 2.5756613,8.5497037 2.3213664,8.7850304 C 2.0670715,9.0203566 1.8358445,9.324075 1.5757369,9.7152215 A 0.50003872,0.50003872 0 0 0 1.7160038,10.409174 A 0.50003872,0.50003872 0 0 0 2.4099561,10.268907 C 2.6487854,9.9097581 2.8494624,9.6557161 3.0005537,9.5158951 C 3.1516451,9.3760737 3.2167919,9.3682453 3.2367928,9.3682456 C 3.2567937,9.3682456 3.3219405,9.3760737 3.4730319,9.5158951 C 3.6241232,9.6557161 3.8321826,9.9097581 4.0710119,10.268907 C 4.3320678,10.659998 4.5617425,10.97128 4.8166414,11.206481 C 5.0715407,11.441682 5.385197,11.6199 5.7394505,11.6199 C 6.0937036,11.6199 6.3999776,11.441682 6.6548769,11.206481 C 6.9097758,10.97128 7.1468332,10.659998 7.4078887,10.268907 C 7.64766,9.9097025 7.8468182,9.6558419 7.9984863,9.5158951 C 8.1501548,9.3759478 8.2212137,9.3682453 8.2421082,9.3682456 C 8.2630023,9.3682456 8.3266787,9.3759478 8.4783472,9.5158951 C 8.6300153,9.6558419 8.8365559,9.9097025 9.0763273,10.268907 C 9.3364348,10.660053 9.5675586,10.971127 9.8219567,11.206481 C 10.076355,11.441834 10.383156,11.6199 10.737383,11.6199 C 11.09161,11.6199 11.398013,11.441655 11.652809,11.206481 C 11.907605,10.971307 12.144765,10.659998 12.405821,10.268907 C 12.645592,9.9097025 12.852148,9.6558688 13.003801,9.5158951 C 13.155454,9.375921 13.219592,9.3682456 13.24004,9.3682456 C 13.260488,9.3682456 13.325173,9.3761005 13.476279,9.5158951 C 13.627386,9.6556892 13.83543,9.9097581 14.074259,10.268907 A 0.50003872,0.50003872 0 0 0 14.768212,10.409174 A 0.50003872,0.50003872 0 0 0 14.901096,9.7152215 C 14.640989,9.324075 14.409864,9.0203834 14.155467,8.7850304 C 13.901068,8.5496769 13.594267,8.371612 13.24004,8.371612 C 12.885813,8.371612 12.57941,8.5498565 12.324614,8.7850304 C 12.069818,9.0202039 11.832658,9.3241305 11.571602,9.7152215 C 11.331831,10.074426 11.132657,10.32826 10.981004,10.468234 C 10.829351,10.608207 10.757831,10.615883 10.737383,10.615883 C 10.716935,10.615883 10.65225,10.608028 10.501144,10.468234 C 10.350038,10.328439 10.149376,10.07437 9.9105463,9.7152215 C 9.6494908,9.3241305 9.4124335,9.0202307 9.1575345,8.7850304 C 8.9026352,8.54983 8.5963613,8.371612 8.2421082,8.371612 C 7.8878546,8.371612 7.5741983,8.54983 7.319299,8.7850304 C 7.0644001,9.0202307 6.8347251,9.3241305 6.5736696,9.7152215 C 6.3338983,10.074426 6.1273577,10.328286 5.9756896,10.468234 C 5.8240211,10.608181 5.7603446,10.615883 5.7394505,10.615883 C 5.718556,10.615883 5.6474972,10.608181 5.4958287,10.468234 C 5.3441606,10.328286 5.1450023,10.074426 4.905231,9.7152215 C 4.6451235,9.324075 4.4065141,9.0203566 4.1522192,8.7850304 C 3.8979243,8.5497037 3.5909946,8.371612 3.2367928,8.371612 Z"
  />
</svg>
