<svg xmlns="http://www.w3.org/2000/svg" width="14" height="14">
  <path d="M2.66 3.07l-1.03.15.32 2.18-1.67.54.33 1 1.74-.57L3.77 7.8v2.73h6.46V7.79l1.39-1.41 1.74.56.32-.99-1.66-.54.32-2.18-1.03-.16-.37 2.51-.79.8H3.83l-.8-.8z" fill="none" stroke="#fff" stroke-width="3" stroke-linecap="round" stroke-linejoin="round" stroke-opacity=".84" paint-order="markers stroke fill"/>
  <path d="M2.66 3.07l-1.03.15.32 2.18-1.67.54.33 1 1.74-.57L3.77 7.8v2.73h6.46V7.79l1.39-1.41 1.74.56.32-.99-1.66-.54.32-2.18-1.03-.16-.37 2.51-.79.8H3.83l-.8-.8z" paint-order="markers stroke fill"/>
</svg>
