<svg height="16.985001" width="16.999781" version="1.1"
  xmlns="http://www.w3.org/2000/svg" xmlns:svg="http://www.w3.org/2000/svg">


  <path
    d="M 1.4998735,12.485 H 15.499874 C 14.499874,14.485 10.499874,15.485 8.4998735,15.485 C 6.4998735,15.485 2.8008735,14.485 1.4998735,12.485 Z M 10.499874,1.545 C 9.4998735,1.545 8.8248735,2.581 8.4878735,3.36 C 8.1508735,2.543 7.4998735,1.5 6.4998735,1.5 C 4.9998735,1.5 4.4998735,3.425 4.4998735,4.425 C 4.4998735,5.425 5.4998735,5.1 5.4998735,4.455 C 6.4998735,2.455 7.4998735,2.842 7.7418735,6.003 V 6.353 A 2.837,2.837 0 0 0 6.4998735,6.043 C 5.0328735,6.043 3.7498735,7.076 3.7498735,9.043 V 10.043 C 3.7498735,11.043 5.2498735,11.043 5.2498735,10.043 V 9.043 C 5.2498735,8.077 5.9328735,7.543 6.4998735,7.543 C 7.0498735,7.543 7.7018735,8.079 7.7418735,8.961 V 11.485 C 8.4998735,10.907 8.4998735,10.891 9.2268735,11.485 L 9.2498735,9.043 V 8.918 C 9.2908735,8.038 9.9428735,7.502 10.491874,7.502 C 11.058874,7.502 11.741874,8.036 11.741874,9.002 V 10.002 C 11.741874,11.002 13.241874,11.002 13.241874,10.002 V 9.002 C 13.241874,7.035 11.958874,6.002 10.491874,6.002 C 10.061874,6.002 9.6328735,6.123 9.2498735,6.312 C 9.2498735,6.222 9.2328735,6.132 9.2498735,6.043 C 9.4998735,3.299 10.499874,2.485 11.499874,4.485 C 11.499874,5.013 12.499874,5.409 12.499874,4.409 C 12.499874,3.409 11.999874,1.545 10.499874,1.545 Z"
    fill="#0064ff" fill-rule="evenodd"
  />
</svg>
