<svg xmlns="http://www.w3.org/2000/svg" width="14" height="14">
  <path d="M3.4 12.94c-.74-.17-1.17-1.03-.67-1.65.51-.54-.19-.94-.28-1.47.1-.47-.04-1.76.74-1.44.32.46-.27 1.12.04 1.57.24.62.92.8 1.43 1.14.52.28 1.18.12 1.58-.32.23-.37 1.07-.47.8.15-.44.43-.95.98-1.63.95-.76-.22-.85.67-1.36.98a.81.81 0 01-.66.09zm4.19-2.38l3.06-.68c.04-.22-1.43-1.9-2.3-2.75-1.77-1.66-4-2.92-6.42-3.32.13 1.35.54 2.7.84 3.94l-.38.12c-.22-.95-.8-3.2-1.03-4.15-.61-.52-.33-1.47.04-2.05.47-.72 1.38-.7 2.12-.56 2.62.39 5 1.76 6.96 3.5 1.12 1.02 2.17 2.28 2.49 3.8.2.76-.46 1.33-1.03 1.69-.62.36-.5.05-1.19.23l-3.1.55-.07-.32zm-3 .06c-.84-.07-.95-1.41-.13-1.62.74-.26 1.41.7.93 1.3a.86.86 0 01-.8.32z" fill="none" opacity=".5" stroke="#fff" stroke-width="3" stroke-linejoin="round"/>
  <path d="M3.4 12.94c-.74-.17-1.17-1.03-.67-1.65.5-.54-.19-.94-.28-1.47.1-.47-.04-1.76.74-1.44.31.46-.28 1.12.03 1.57.25.62.92.8 1.44 1.14.52.28 1.18.12 1.57-.32.23-.37 1.08-.47.81.15-.45.43-.96.98-1.64.95-.75-.22-.84.67-1.36.98a.81.81 0 01-.65.09zm4.18-2.38l3.07-.68c.04-.22-1.43-1.9-2.3-2.75-1.78-1.66-4-2.92-6.42-3.32.13 1.35.53 2.7.83 3.94l-.37.12-1.03-4.15c-.61-.52-.34-1.47.04-2.05.46-.72 1.37-.7 2.12-.56 2.62.39 5 1.76 6.96 3.5 1.12 1.02 2.17 2.28 2.48 3.8.2.76-.46 1.33-1.02 1.69-.63.36-.51.05-1.2.23l-3.1.55-.06-.32zm-3 .06c-.83-.07-.95-1.41-.12-1.62.74-.26 1.4.7.92 1.3a.86.86 0 01-.8.32z"/>
</svg>
