<svg width="14.984307" height="14.941623" version="1.1"
  xmlns="http://www.w3.org/2000/svg" xmlns:svg="http://www.w3.org/2000/svg">


  <path
    d="M 3.8966246,13.410377 C 3.1566246,13.240377 2.7266246,12.380377 3.2266246,11.760377 C 3.7266246,11.220377 3.0366246,10.820377 2.9466246,10.290377 C 3.0466246,9.8203768 2.9066246,8.5303768 3.6866246,8.8503768 C 3.9966246,9.3103768 3.4066246,9.9703768 3.7166246,10.420377 C 3.9666246,11.040377 4.6366246,11.220377 5.1566246,11.560377 C 5.6766246,11.840377 6.3366246,11.680377 6.7266246,11.240377 C 6.9566246,10.870377 7.8066246,10.770377 7.5366246,11.390377 C 7.0866246,11.820377 6.5766246,12.370377 5.8966246,12.340377 C 5.1466246,12.120377 5.0566246,13.010377 4.5366246,13.320377 A 0.81,0.81 0 0 1 3.8866246,13.410377 Z M 8.0766246,11.030377 L 11.146625,10.350377 C 11.186625,10.130377 9.7166246,8.4503768 8.8466246,7.6003768 C 7.0666246,5.9403768 4.8466246,4.6803768 2.4266246,4.2803768 C 2.5566246,5.6303768 2.9566246,6.9803768 3.2566246,8.2203768 L 2.8866246,8.3403768 L 1.8566246,4.1903768 C 1.2466246,3.6703768 1.5166246,2.7203768 1.8966246,2.1403768 C 2.3566246,1.4203768 3.2666246,1.4403768 4.0166246,1.5803768 C 6.6366246,1.9703768 9.0166246,3.3403768 10.976625,5.0803768 C 12.096625,6.1003768 13.146625,7.3603768 13.456625,8.8803768 C 13.656625,9.6403768 12.996625,10.210377 12.436625,10.570377 C 11.806625,10.930377 11.926625,10.620377 11.236625,10.800377 L 8.1366246,11.350377 Z M 5.0766246,11.090377 C 4.2466246,11.020377 4.1266246,9.6803768 4.9566246,9.4703768 C 5.6966246,9.2103768 6.3566246,10.170377 5.8766246,10.770377 A 0.86,0.86 0 0 1 5.0766246,11.090377 Z"
  />
</svg>
