<svg width="15" height="16.999935" version="1.1"
  xmlns="http://www.w3.org/2000/svg" xmlns:svg="http://www.w3.org/2000/svg">


  <path
    d="M 11.281,1.4999351 L 10.656,2.2189351 L 11.844,3.3129351 L 11.969,3.4379351 L 11.719,3.7179351 C 11.319,4.1189351 11.606,4.6369351 11.75,4.7809351 L 12.5,5.5309351 V 11.499935 C 12.5,12.499935 12.108,12.499935 12,12.499935 C 11.892,12.499935 11.5,12.499935 11.5,11.499935 V 7.4999351 C 11.5,6.2199351 10.5,5.4999351 9.5,5.4999351 V 3.4999351 C 9.5,2.9489351 9.075,2.4999351 8.5,2.4999351 H 2.5 C 1.9,2.4999351 1.5,2.9249351 1.5,3.4999351 V 15.499935 H 9.5 V 6.4999351 C 9.5,6.4999351 10.5,6.4999351 10.5,7.4999351 V 11.499935 C 10.5,13.499935 11.74,13.499935 12,13.499935 C 12.276,13.499935 13.5,13.499935 13.5,11.499935 V 4.4999351 C 13.5,3.4999351 13.214,3.2899351 12.875,2.9689351 Z M 2.5,4.4999351 H 8.5 V 7.4999351 H 2.5 Z"
  />
</svg>
