<svg xmlns="http://www.w3.org/2000/svg" width="300" height="300">
    <path d="M16.474 78.31a1.68 1.68 0 00-1.323.643 1.688 1.688 0 00-.986-.61 2.339 2.339 0 00-2.311-2.007.362.362 0 000 .724c.78 0 1.432.558 1.58 1.296-.374.09-.7.304-.93.597a1.683 1.683 0 00-3.01 1.042c0 .846.627 1.549 1.44 1.668a1.688 1.688 0 001.317 2.283 1.688 1.688 0 001.562 2.318 1.688 1.688 0 001.564-2.315 1.688 1.688 0 001.342-2.286 1.688 1.688 0 001.441-1.668c0-.93-.756-1.686-1.686-1.686zm-2.647.724a.96.96 0 01.556 1.745 1.696 1.696 0 00-.15.087.956.956 0 01-.811 0 1.708 1.708 0 00-.15-.087.96.96 0 01.555-1.745zm-3.609.961a.963.963 0 011.923 0 .96.96 0 01-.406.784 1.696 1.696 0 00-.15.087.963.963 0 01-1.367-.87zm1.324 2.284c0-.324.16-.61.406-.784a2.02 2.02 0 00.15-.087.954.954 0 01.81 0c.049.031.099.06.15.087a.96.96 0 11-1.516.784zm2.272 3.26a.963.963 0 010-1.923.963.963 0 010 1.923zm1.337-2.299a.96.96 0 01-.556-1.745c.052-.027.102-.056.15-.087a.955.955 0 01.81 0c.05.031.1.06.151.087a.96.96 0 01-.555 1.745zm1.323-2.283a.954.954 0 01-.405-.091 1.685 1.685 0 00-.15-.087.96.96 0 01.555-1.745.963.963 0 010 1.923zM34.4 78.31a1.68 1.68 0 00-1.323.643 1.688 1.688 0 00-.985-.61 2.339 2.339 0 00-2.312-2.007.362.362 0 000 .724c.78 0 1.433.558 1.58 1.296-.374.09-.7.304-.93.597a1.683 1.683 0 00-3.01 1.042c0 .846.627 1.549 1.44 1.668a1.688 1.688 0 001.317 2.283 1.688 1.688 0 001.562 2.318 1.688 1.688 0 001.565-2.315 1.688 1.688 0 001.342-2.286 1.688 1.688 0 001.44-1.668c0-.93-.756-1.686-1.686-1.686zm-2.647.724a.96.96 0 01.556 1.745 1.696 1.696 0 00-.15.087.956.956 0 01-.811 0 1.708 1.708 0 00-.15-.087.96.96 0 01.555-1.745zm-3.609.961a.963.963 0 011.923 0 .96.96 0 01-.406.784 1.696 1.696 0 00-.15.087.963.963 0 01-1.367-.87zm1.324 2.284c0-.324.16-.61.406-.784.052-.027.102-.056.15-.087a.954.954 0 01.81 0c.049.031.099.06.15.087a.96.96 0 11-1.516.784zm2.272 3.26a.963.963 0 010-1.923.963.963 0 010 1.923zm1.337-2.299a.96.96 0 01-.556-1.745c.052-.027.102-.056.15-.087a.955.955 0 01.81 0c.05.031.1.06.151.087a.96.96 0 01-.555 1.745zm1.323-2.283a.954.954 0 01-.405-.091 1.685 1.685 0 00-.15-.087.96.96 0 01.555-1.745.963.963 0 010 1.923zm-9.115 12.565c-.536 0-1.014.252-1.323.644a1.688 1.688 0 00-.986-.61 2.339 2.339 0 00-2.311-2.007.362.362 0 000 .724c.78 0 1.432.558 1.58 1.296-.374.09-.7.304-.93.597a1.683 1.683 0 00-3.01 1.042c0 .846.627 1.549 1.44 1.668a1.688 1.688 0 001.317 2.283 1.688 1.688 0 001.562 2.318 1.688 1.688 0 001.564-2.315 1.688 1.688 0 001.342-2.286 1.688 1.688 0 001.441-1.668c0-.93-.756-1.686-1.686-1.686zm-2.647.725a.96.96 0 01.556 1.745 1.696 1.696 0 00-.15.087.956.956 0 01-.811 0 1.708 1.708 0 00-.15-.087.96.96 0 01.555-1.745zm-3.61.961a.963.963 0 011.924 0 .96.96 0 01-.406.784 1.696 1.696 0 00-.15.087.963.963 0 01-1.367-.87zm1.324 2.284c0-.324.161-.61.407-.784a2.02 2.02 0 00.15-.087.954.954 0 01.81 0c.049.031.099.06.15.087a.96.96 0 11-1.517.784zm2.273 3.26a.963.963 0 010-1.923.963.963 0 010 1.923zm1.337-2.299a.96.96 0 01-.556-1.745c.052-.027.102-.056.15-.087a.955.955 0 01.81 0c.05.031.1.06.151.087a.96.96 0 01-.555 1.745zm1.323-2.283a.954.954 0 01-.405-.091 1.685 1.685 0 00-.15-.087.96.96 0 01.555-1.745.963.963 0 010 1.923zm18.747-2.648c-.537 0-1.015.252-1.324.644a1.688 1.688 0 00-.985-.61 2.339 2.339 0 00-2.312-2.007.362.362 0 000 .724c.78 0 1.433.558 1.58 1.296-.374.09-.7.304-.93.597a1.683 1.683 0 00-3.01 1.042c0 .846.627 1.549 1.44 1.668a1.688 1.688 0 001.317 2.283 1.688 1.688 0 001.562 2.318 1.688 1.688 0 001.565-2.315 1.688 1.688 0 001.342-2.286 1.688 1.688 0 001.44-1.668c0-.93-.756-1.686-1.685-1.686zm-2.648.725a.96.96 0 01.556 1.745 1.696 1.696 0 00-.15.087.956.956 0 01-.81 0 1.708 1.708 0 00-.151-.087.96.96 0 01.555-1.745zm-3.608.961a.963.963 0 011.923 0 .96.96 0 01-.407.784 1.696 1.696 0 00-.15.087.963.963 0 01-1.367-.87zm1.323 2.284a.96.96 0 01.406-.784c.052-.027.102-.056.15-.087a.954.954 0 01.81 0c.05.031.1.06.151.087a.96.96 0 11-1.517.784zm2.272 3.26a.963.963 0 010-1.923.963.963 0 010 1.923zm1.337-2.299a.96.96 0 01-.556-1.745c.052-.027.103-.056.151-.087a.955.955 0 01.81 0c.049.031.099.06.15.087a.96.96 0 01-.555 1.745zm1.324-2.283a.954.954 0 01-.405-.091 1.685 1.685 0 00-.15-.087.96.96 0 01.555-1.745.963.963 0 010 1.923z"/>
    <path fill="none" d="M9.463 73.57h36.315v31.838H9.463z"/>
</svg>
