<?xml version="1.0" encoding="UTF-8" standalone="no"?>
<svg width="37" height="32" version="1.1" id="svg1" xmlns:xlink="http://www.w3.org/1999/xlink" xmlns="http://www.w3.org/2000/svg" xmlns:svg="http://www.w3.org/2000/svg">
  <defs id="defs1" />
  <path id="path1" style="opacity:0.2" d="M 7.011,4.74 A 1.68,1.68 0 0 0 5.688,5.383 A 1.688,1.688 0 0 0 4.702,4.773 A 2.339,2.339 0 0 0 2.391,2.766 A 0.362,0.362 0 0 0 2.391,3.49 C 3.171,3.49 3.823,4.048 3.971,4.786 C 3.597,4.876 3.271,5.09 3.041,5.383 A 1.683,1.683 0 0 0 0.031,6.425 C 0.031,7.271 0.658,7.974 1.471,8.093 A 1.688,1.688 0 0 0 2.788,10.376 A 1.688,1.688 0 0 0 4.35,12.694 A 1.688,1.688 0 0 0 5.914,10.379 A 1.688,1.688 0 0 0 7.256,8.093 A 1.688,1.688 0 0 0 8.697,6.425 C 8.697,5.495 7.941,4.739 7.011,4.739 Z M 4.364,5.464 A 0.96,0.96 0 0 1 4.92,7.209 A 1.696,1.696 0 0 0 4.77,7.296 A 0.956,0.956 0 0 1 3.959,7.296 A 1.708,1.708 0 0 0 3.809,7.209 A 0.96,0.96 0 0 1 4.364,5.464 Z M 0.755,6.425 A 0.963,0.963 0 0 1 2.678,6.425 A 0.96,0.96 0 0 1 2.272,7.209 A 1.696,1.696 0 0 0 2.122,7.296 A 0.963,0.963 0 0 1 0.755,6.426 Z M 2.079,8.709 C 2.079,8.385 2.239,8.099 2.485,7.925 A 2.02,2.02 0 0 0 2.635,7.838 A 0.954,0.954 0 0 1 3.445,7.838 C 3.494,7.869 3.544,7.898 3.595,7.925 A 0.96,0.96 0 1 1 2.079,8.709 Z M 4.351,11.969 A 0.963,0.963 0 0 1 4.351,10.046 A 0.963,0.963 0 0 1 4.351,11.969 Z M 5.688,9.67 A 0.96,0.96 0 0 1 5.132,7.925 C 5.184,7.898 5.234,7.869 5.282,7.838 A 0.955,0.955 0 0 1 6.092,7.838 C 6.142,7.869 6.192,7.898 6.243,7.925 A 0.96,0.96 0 0 1 5.688,9.67 Z M 7.011,7.387 A 0.954,0.954 0 0 1 6.606,7.296 A 1.685,1.685 0 0 0 6.456,7.209 A 0.96,0.96 0 0 1 7.011,5.464 A 0.963,0.963 0 0 1 7.011,7.387 Z" />
  <use x="0" y="0" xlink:href="#path1" id="use28" transform="translate(17.926)" />
  <use x="0" y="0" xlink:href="#path1" id="use29" transform="translate(8.811,15.213)" />
  <use x="0" y="0" xlink:href="#path1" id="use30" transform="translate(27.557,15.213)" />
</svg>
