<?xml version="1.0" encoding="UTF-8" standalone="no"?>
<svg height="16" width="17" version="1.1" id="svg2" xmlns="http://www.w3.org/2000/svg" xmlns:svg="http://www.w3.org/2000/svg">
  <defs id="defs2" />
  <path d="M 8.5,1.5 L 2.5,5.5031976 H 4.5 V 13.503194 H 7.5 V 8.5031977 H 9.5 V 13.503194 H 12.5 V 5.5031976 H 14.5 Z" fill="#808080" id="path1" />
  <path d="M 2,6.5 C 1.723,6.5 1.5,6.723 1.5,7 V 14.5 H 2.5 V 12.5 H 14.5 V 14.5 H 15.5 V 9 A 0.5,0.5 0 1 0 14.5,9 V 11.5 H 2.5 V 7 C 2.5,6.723 2.277,6.5 2,6.5 Z M 5,7.5 A 1.5000001,1.5000001 0 1 0 5,10.5 A 1.5000001,1.5000001 0 0 0 5,7.5 Z M 7.5,8.5 V 10.5 H 13.5 C 13.5,9.5 12.464,8.5 11.5,8.5 Z" id="path2" />
</svg>
