<?xml version="1.0" encoding="UTF-8" standalone="no"?>
<!-- Generator: Adobe Illustrator 13.0.2, SVG Export Plug-In . SVG Version: 6.00 Build 14948)  -->

<svg version="1.1" id="Layer_1" x="0px" y="0px" width="14" height="14" viewBox="-0.258 -0.548 14 14" xml:space="preserve" sodipodi:docname="horse_riding.svg" inkscape:version="1.1.1 (3bf5ae0d25, 2021-09-20)" xmlns:inkscape="http://www.inkscape.org/namespaces/inkscape" xmlns:sodipodi="http://sodipodi.sourceforge.net/DTD/sodipodi-0.dtd" xmlns="http://www.w3.org/2000/svg" xmlns:svg="http://www.w3.org/2000/svg"><defs id="defs904">
	
	
	
	
</defs><sodipodi:namedview id="namedview902" pagecolor="#ffffff" bordercolor="#666666" borderopacity="1.0" inkscape:pageshadow="2" inkscape:pageopacity="0.0" inkscape:pagecheckerboard="true" showgrid="false" inkscape:zoom="38.326253" inkscape:cx="8.3232765" inkscape:cy="8.1014964" inkscape:window-width="1883" inkscape:window-height="1062" inkscape:window-x="0" inkscape:window-y="0" inkscape:window-maximized="1" inkscape:current-layer="Layer_1" />
<path id="path1240" style="fill:none;stroke-width:3;stroke:#fefefe;stroke-opacity:1;stroke-miterlimit:4;stroke-dasharray:none;stroke-linecap:round;stroke-linejoin:round;opacity:0.5" d="M 5.1901711,-0.495357 C 4.6534401,-0.495357 4.2175521,-0.059435 4.2175521,0.481556 C 4.2175521,1.018288 4.6534391,1.453907 5.1901711,1.453907 C 5.7302001,1.453907 6.1670841,1.018288 6.1670841,0.481556 C 6.1670841,-0.059572 5.7300621,-0.495357 5.1901711,-0.495357 Z M 11.564799,0.739204 L 7.5991751,4.84224 H 6.1499081 V 4.003812 L 7.3812481,4.292592 C 7.6357351,4.349481 7.8879631,4.191629 7.9448521,3.93618 C 8.0017411,3.684991 7.8407021,3.433785 7.5895131,3.375797 L 6.1499081,3.007575 V 2.67156 C 6.1499081,2.131531 5.7140971,1.69572 5.1740681,1.69572 C 4.6330771,1.69572 4.1971541,2.131531 4.1971541,2.67156 V 4.84224 H 1.1751641 C 0.38284614,4.84224 -0.25799986,5.486308 -0.25799986,6.278625 V 8.655155 H 0.76185414 V 6.303048 L 1.2921791,5.491727 V 8.317261 L 0.75863414,9.152468 V 12.755239 C 0.75863414,13.110586 1.0506261,13.399357 1.4059731,13.399357 C 1.7613211,13.399357 2.0500921,13.110586 2.0500921,12.755239 V 9.635557 L 2.6877691,8.631806 V 9.702116 L 4.1134191,13.064148 C 4.2916421,13.372225 4.6835241,13.482816 4.9958621,13.305692 C 5.3039391,13.130766 5.4156301,12.738808 5.2374061,12.426471 L 4.0157281,9.51398 L 4.5997291,8.514791 H 7.8643371 V 12.755239 C 7.8643371,13.110586 8.1531081,13.399357 8.5084561,13.399357 C 8.8638031,13.399357 9.1557951,13.110586 9.1557951,12.755239 V 8.609261 L 10.635121,5.587271 C 10.783389,5.626983 10.939987,5.650609 11.101034,5.650609 C 11.916987,5.650609 12.604004,5.090192 12.791845,4.330166 L 12.949654,4.359151 C 13.221318,4.409582 13.509994,4.285078 13.654965,4.02743 C 13.838548,3.705336 13.721558,3.288875 13.399464,3.104193 L 11.446711,1.806294 Z M 11.400549,4.063662 L 12.433286,4.26146 C 12.278698,4.856179 11.742061,5.291919 11.101034,5.291782 C 10.997975,5.291782 10.897071,5.281038 10.799372,5.258502 Z" /><path id="path895" style="fill:#231f20;stroke-width:0.999999" d="M 5.1901711,-0.495357 C 4.6534401,-0.495357 4.2175521,-0.059435 4.2175521,0.481556 C 4.2175521,1.018288 4.6534391,1.453907 5.1901711,1.453907 C 5.7302001,1.453907 6.1670841,1.018288 6.1670841,0.481556 C 6.1670841,-0.059572 5.7300621,-0.495357 5.1901711,-0.495357 Z M 11.564799,0.739204 L 7.5991751,4.84224 H 6.1499081 V 4.003812 L 7.3812481,4.292592 C 7.6357351,4.349481 7.8879631,4.191629 7.9448521,3.93618 C 8.0017411,3.684991 7.8407021,3.433785 7.5895131,3.375797 L 6.1499081,3.007575 V 2.67156 C 6.1499081,2.131531 5.7140971,1.69572 5.1740681,1.69572 C 4.6330771,1.69572 4.1971541,2.131531 4.1971541,2.67156 V 4.84224 H 1.1751641 C 0.38284614,4.84224 -0.25799986,5.486308 -0.25799986,6.278625 V 8.655155 H 0.76185414 V 6.303048 L 1.2921791,5.491727 V 8.317261 L 0.75863414,9.152468 V 12.755239 C 0.75863414,13.110586 1.0506261,13.399357 1.4059731,13.399357 C 1.7613211,13.399357 2.0500921,13.110586 2.0500921,12.755239 V 9.635557 L 2.6877691,8.631806 V 9.702116 L 4.1134191,13.064148 C 4.2916421,13.372225 4.6835241,13.482816 4.9958621,13.305692 C 5.3039391,13.130766 5.4156301,12.738808 5.2374061,12.426471 L 4.0157281,9.51398 L 4.5997291,8.514791 H 7.8643371 V 12.755239 C 7.8643371,13.110586 8.1531081,13.399357 8.5084561,13.399357 C 8.8638031,13.399357 9.1557951,13.110586 9.1557951,12.755239 V 8.609261 L 10.635121,5.587271 C 10.783389,5.626983 10.939987,5.650609 11.101034,5.650609 C 11.916987,5.650609 12.604004,5.090192 12.791845,4.330166 L 12.949654,4.359151 C 13.221318,4.409582 13.509994,4.285078 13.654965,4.02743 C 13.838548,3.705336 13.721558,3.288875 13.399464,3.104193 L 11.446711,1.806294 Z M 11.400549,4.063662 L 12.433286,4.26146 C 12.278698,4.856179 11.742061,5.291919 11.101034,5.291782 C 10.997975,5.291782 10.897071,5.281038 10.799372,5.258502 Z" />
</svg>
