<svg version="1.1" width="17" height="17" xmlns="http://www.w3.org/2000/svg"
  xmlns:svg="http://www.w3.org/2000/svg">
  <path
    d="M 6.9481711,1.552643 C 6.4114401,1.552643 5.9755521,1.988565 5.9755521,2.529556 C 5.9755521,3.066288 6.4114391,3.501907 6.9481711,3.501907 C 7.4882001,3.501907 7.9250841,3.066288 7.9250841,2.529556 C 7.9250841,1.988428 7.4880621,1.552643 6.9481711,1.552643 Z M 13.322799,2.787204 L 9.3571751,6.89024 H 7.9079081 V 6.051812 L 9.1392481,6.340592 C 9.3937351,6.397481 9.6459631,6.239629 9.7028521,5.98418 C 9.7597411,5.732991 9.5987021,5.481785 9.3475131,5.423797 L 7.9079081,5.055575 V 4.71956 C 7.9079081,4.179531 7.4720971,3.74372 6.9320681,3.74372 C 6.3910771,3.74372 5.9551541,4.179531 5.9551541,4.71956 V 6.89024 H 2.9331641 C 2.1408461,6.89024 1.5000001,7.534308 1.5000001,8.326625 V 10.703155 H 2.5198541 V 8.351048 L 3.0501791,7.539727 V 10.365261 L 2.5166341,11.200468 V 14.803239 C 2.5166341,15.158586 2.8086261,15.447357 3.1639731,15.447357 C 3.5193211,15.447357 3.8080921,15.158586 3.8080921,14.803239 V 11.683557 L 4.4457691,10.679806 V 11.750116 L 5.8714191,15.112148 C 6.0496421,15.420225 6.4415241,15.530816 6.7538621,15.353692 C 7.0619391,15.178766 7.1736301,14.786808 6.9954061,14.474471 L 5.7737281,11.56198 L 6.3577291,10.562791 H 9.6223371 V 14.803239 C 9.6223371,15.158586 9.9111081,15.447357 10.266456,15.447357 C 10.621803,15.447357 10.913795,15.158586 10.913795,14.803239 V 10.657261 L 12.393121,7.635271 C 12.541389,7.674983 12.697987,7.698609 12.859034,7.698609 C 13.674987,7.698609 14.362004,7.138192 14.549845,6.378166 L 14.707654,6.407151 C 14.979318,6.457582 15.267994,6.333078 15.412965,6.07543 C 15.596548,5.753336 15.479558,5.336875 15.157464,5.152193 L 13.204711,3.854294 Z M 13.158549,6.111662 L 14.191286,6.30946 C 14.036698,6.904179 13.500061,7.339919 12.859034,7.339782 C 12.755975,7.339782 12.655071,7.329038 12.557372,7.306502 Z"
  />
</svg>
