<svg xmlns="http://www.w3.org/2000/svg" height="14" width="14">
    <path d="M.5 0C.223 0 0 .223 0 .5V14h1v-2h12v2h1V2.5a.499.499 0 10-1 0V5H1V.5C1 .223.777 0 .5 0zm3 1a1.5 1.5 0 100 3 1.5 1.5 0 000-3zM6 2v2h6c0-1-1.036-2-2-2zM1 6h12v5H1zm2.5 1a1.5 1.5 0 100 3 1.5 1.5 0 000-3zM6 8v2l6 .014C12 9 10.964 8 10 8z" stroke="#fff" stroke-width="3" stroke-linecap="round" stroke-linejoin="round" stroke-opacity=".5" fill="none"/>
    <path d="M.5 0C.223 0 0 .223 0 .5V14h1v-2h12v2h1V2.5a.499.499 0 10-1 0V5H1V.5C1 .223.777 0 .5 0zm3 1a1.5 1.5 0 100 3 1.5 1.5 0 000-3zM6 2v2h6c0-1-1.036-2-2-2H6zM1 6h12v5H1V6zm2.5 1a1.5 1.5 0 100 3 1.5 1.5 0 000-3zM6 8v2l6 .014C12 9 10.964 8 10 8H6z"/>
</svg>
