<svg height="17" width="17" version="1.1"
  xmlns="http://www.w3.org/2000/svg" xmlns:svg="http://www.w3.org/2000/svg">
  <path
    d="M 2,1.5 C 1.723,1.5 1.5,1.723 1.5,2 V 15.5 H 2.5 V 13.5 H 14.5 V 15.5 H 15.5 V 4 A 0.5,0.5 0 1 0 14.5,4 V 6.5 H 2.5 V 2 C 2.5,1.723 2.277,1.5 2,1.5 Z M 5,2.5 A 1.5,1.5 0 1 0 5,5.5 A 1.5,1.5 0 0 0 5,2.5 Z M 7.5,3.5 V 5.5 H 13.5 C 13.5,4.5 12.464,3.5 11.5,3.5 Z M 2.5,7.5 H 14.5 V 12.5 H 2.5 Z M 5,8.5 A 1.5,1.5 0 1 0 5,11.5 A 1.5,1.5 0 0 0 5,8.5 Z M 7.5,9.5 V 11.5 L 13.5,11.514 C 13.5,10.5 12.464,9.5 11.5,9.5 Z"
  />
</svg>
