<?xml version="1.0" encoding="UTF-8" standalone="no"?>
<svg width="14" height="14" version="1.1" id="svg1685" sodipodi:docname="hot_spring.svg" inkscape:version="1.1.1 (3bf5ae0d25, 2021-09-20)" xmlns:inkscape="http://www.inkscape.org/namespaces/inkscape" xmlns:sodipodi="http://sodipodi.sourceforge.net/DTD/sodipodi-0.dtd" xmlns="http://www.w3.org/2000/svg" xmlns:svg="http://www.w3.org/2000/svg">
  <defs id="defs1689" />
  <sodipodi:namedview id="namedview1687" pagecolor="#ffffff" bordercolor="#666666" borderopacity="1.0" inkscape:pageshadow="2" inkscape:pageopacity="0.0" inkscape:pagecheckerboard="0" showgrid="false" inkscape:zoom="23.28125" inkscape:cx="0.17181208" inkscape:cy="5.9919463" inkscape:window-width="1883" inkscape:window-height="1062" inkscape:window-x="0" inkscape:window-y="0" inkscape:window-maximized="1" inkscape:current-layer="svg1685" />
  <path d="M 8.1150057,1.1620049 A 3.2998186,3.2998186 0 0 0 4.8378663,4.4882824 A 3.3640762,3.3640762 0 0 0 5.0192996,5.5768824 C 3.2994629,7.629347 4.3124656,8.498715 4.6980114,9.7649681 C 5.0911169,11.050121 3.6887886,11.821213 2.6115282,12.841775 C 5.8433093,12.255897 6.3800495,10.751512 6.2893328,9.9237221 C 6.1910565,9.0052163 5.4577634,8.4004386 6.4102884,7.326958 C 6.9659279,7.5046115 7.4913286,7.8107803 8.1112258,7.8107803 A 3.2355609,3.2355609 0 0 0 9.9746972,7.2249017 A 3.3338373,3.3338373 0 0 0 11.388365,4.4845027 A 3.2998186,3.2998186 0 0 0 8.1150057,1.158225 Z" fill="#e11919" id="path1683" />
</svg>
