<?xml version="1.0" encoding="UTF-8" standalone="no"?>
<svg width="14" height="14" version="1.1" id="svg1" xmlns="http://www.w3.org/2000/svg" xmlns:svg="http://www.w3.org/2000/svg">
  <defs id="defs1" />
  <path d="M 8.1150056,1.1620048 A 3.2998186,3.2998186 0 0 0 4.8378662,4.4882824 A 3.3640762,3.3640762 0 0 0 5.0192995,5.5768824 C 3.2994628,7.6293469 4.3124655,8.4987151 4.6980113,9.7649681 C 5.0911168,11.050121 3.6887885,11.821213 2.6115281,12.841775 C 5.8433092,12.255897 6.3800494,10.751512 6.2893327,9.923722 C 6.1910564,9.0052161 5.4577633,8.4004386 6.4102883,7.3269581 C 6.9659278,7.5046114 7.4913285,7.8107803 8.1112257,7.8107803 A 3.2355609,3.2355609 0 0 0 9.9746969,7.2249018 A 3.3338373,3.3338373 0 0 0 11.388365,4.4845026 A 3.2998186,3.2998186 0 0 0 8.1150056,1.1582249 Z" fill="#e11919" id="path1" />
</svg>
