<svg xmlns="http://www.w3.org/2000/svg" width="16" height="16">
  <path d="M7.0031739 1.5037938a3.2998186 3.2998186 0 00-3.2771394 3.3262776 3.3640762 3.3640762 0 00.1814333 1.0886c-1.7198367 2.0524645-.706834 2.9218325-.3212882 4.1880856.3931055 1.285153-1.0092228 2.056245-2.0864832 3.076807 3.2317811-.585878 3.7685213-2.090263 3.6778046-2.918053-.0982763-.9185058-.8315694-1.5232835.1209556-2.596764.5556395.1776534 1.0810402.4838222 1.7009374.4838222a3.2355609 3.2355609 0 001.8634714-.5858785 3.3338373 3.3338373 0 001.4136676-2.7403991 3.2998186 3.2998186 0 00-3.2733591-3.3262777z" opacity=".5" fill="none" stroke="#fdfdfd" stroke-width="3" stroke-linecap="round" stroke-linejoin="round"/>
  <path d="M7.0031739 1.5037938a3.2998186 3.2998186 0 00-3.2771394 3.3262776 3.3640762 3.3640762 0 00.1814333 1.0886c-1.7198367 2.0524645-.706834 2.9218325-.3212882 4.1880856.3931055 1.285153-1.0092228 2.056245-2.0864832 3.076807 3.2317811-.585878 3.7685213-2.090263 3.6778046-2.918053-.0982763-.9185058-.8315694-1.5232835.1209556-2.596764.5556395.1776534 1.0810402.4838222 1.7009374.4838222a3.2355609 3.2355609 0 001.8634714-.5858785 3.3338373 3.3338373 0 001.4136676-2.7403991 3.2998186 3.2998186 0 00-3.2733591-3.3262777z" fill="#e11919"/>
</svg>
