<svg xmlns="http://www.w3.org/2000/svg" width="32" height="32" version="1.0">
    <path d="M3.252-.627a.333.333 0 00-.205.098L.703 1.814a.333.333 0 000 .471.333.333 0 00.47 0L3.519-.059a.333.333 0 000-.47.333.333 0 00-.217-.098.333.333 0 00-.049 0zm3.281 0a.333.333 0 00-.205.098L4.922.877a.333.333 0 000 .47.333.333 0 00.47 0L6.8-.058a.333.333 0 000-.47.333.333 0 00-.217-.098.333.333 0 00-.049 0zm4.219 0a.333.333 0 00-.205.098L8.672 1.346a.333.333 0 000 .47.333.333 0 00.47 0l1.876-1.875a.333.333 0 000-.47.333.333 0 00-.217-.098.333.333 0 00-.049 0zm3.75 0a.333.333 0 00-.205.098L12.89.877a.333.333 0 000 .47.333.333 0 00.47 0l1.407-1.406a.333.333 0 000-.47.333.333 0 00-.217-.098.333.333 0 00-.049 0zM4 3a1 1 0 00-.707.293l-3 3A1 1 0 001 8h1.063v7.938h1.874V8H11v8h2V8h1a1 1 0 00.707-1.707l-3-3A1 1 0 0011 3H4z" color="#000" fill="#000305" stroke="#fff" stroke-width="3" stroke-linejoin="round" stroke-opacity=".5"/>
    <path d="M3.252-.627a.333.333 0 00-.205.098L.703 1.814a.333.333 0 000 .471.333.333 0 00.47 0L3.519-.059a.333.333 0 000-.47.333.333 0 00-.217-.098.333.333 0 00-.049 0zm3.281 0a.333.333 0 00-.205.098L4.922.877a.333.333 0 000 .47.333.333 0 00.47 0L6.8-.058a.333.333 0 000-.47.333.333 0 00-.217-.098.333.333 0 00-.049 0zm4.219 0a.333.333 0 00-.205.098L8.672 1.346a.333.333 0 000 .47.333.333 0 00.47 0l1.876-1.875a.333.333 0 000-.47.333.333 0 00-.217-.098.333.333 0 00-.049 0zm3.75 0a.333.333 0 00-.205.098L12.89.877a.333.333 0 000 .47.333.333 0 00.47 0l1.407-1.406a.333.333 0 000-.47.333.333 0 00-.217-.098.333.333 0 00-.049 0zM4 3a1 1 0 00-.707.293l-3 3A1 1 0 001 8h1.063v7.938h1.874V8H11v8h2V8h1a1 1 0 00.707-1.707l-3-3A1 1 0 0011 3H4z" color="#000" fill="#000305"/>
</svg>
