<?xml version="1.0" encoding="UTF-8" standalone="no"?>
<svg width="14" height="14" version="1.0" id="svg4733" sodipodi:docname="lean_to.svg" inkscape:version="1.1.1 (3bf5ae0d25, 2021-09-20)" xmlns:inkscape="http://www.inkscape.org/namespaces/inkscape" xmlns:sodipodi="http://sodipodi.sourceforge.net/DTD/sodipodi-0.dtd" xmlns="http://www.w3.org/2000/svg" xmlns:svg="http://www.w3.org/2000/svg">
  <defs id="defs4737" />
  <sodipodi:namedview id="namedview4735" pagecolor="#ffffff" bordercolor="#666666" borderopacity="1.0" inkscape:pageshadow="2" inkscape:pageopacity="0.0" inkscape:pagecheckerboard="0" showgrid="false" inkscape:zoom="23.28125" inkscape:cx="15.978523" inkscape:cy="16" inkscape:window-width="1883" inkscape:window-height="1062" inkscape:window-x="0" inkscape:window-y="0" inkscape:window-maximized="1" inkscape:current-layer="svg4733" />
  <path d="M 3.4233612,7.5961419e-4 A 0.2803721,0.2803721 0 0 0 3.2507598,0.08327153 L 1.2772096,2.0559798 A 0.2803721,0.2803721 0 0 0 1.2772096,2.4525421 A 0.2803721,0.2803721 0 0 0 1.67293,2.4525421 L 3.6481641,0.47899191 A 0.2803721,0.2803721 0 0 0 3.6481641,0.08327153 A 0.2803721,0.2803721 0 0 0 3.4654592,7.5961419e-4 A 0.2803721,0.2803721 0 0 0 3.4242032,7.5961419e-4 Z M 6.1858263,7.5961419e-4 A 0.2803721,0.2803721 0 0 0 6.0132249,0.08327153 L 4.8294316,1.2670649 A 0.2803721,0.2803721 0 0 0 4.8294316,1.6627853 A 0.2803721,0.2803721 0 0 0 5.2251519,1.6627853 L 6.4106292,0.47983387 A 0.2803721,0.2803721 0 0 0 6.4106292,0.08411348 A 0.2803721,0.2803721 0 0 0 6.2279242,0.00160157 A 0.2803721,0.2803721 0 0 0 6.1866683,0.00160157 Z M 9.7380483,7.5961419e-4 A 0.2803721,0.2803721 0 0 0 9.5654468,0.08327153 L 7.9867751,1.6619433 A 0.2803721,0.2803721 0 0 0 7.9867751,2.0576637 A 0.2803721,0.2803721 0 0 0 8.3824954,2.0576637 L 9.9620092,0.47899191 A 0.2803721,0.2803721 0 0 0 9.9620092,0.08327153 A 0.2803721,0.2803721 0 0 0 9.7793042,7.5961419e-4 A 0.2803721,0.2803721 0 0 0 9.7380483,7.5961419e-4 Z M 12.895392,7.5961419e-4 A 0.2803721,0.2803721 0 0 0 12.72279,0.08327153 L 11.538155,1.2670649 A 0.2803721,0.2803721 0 0 0 11.538155,1.6627853 A 0.2803721,0.2803721 0 0 0 11.933875,1.6627853 L 13.118511,0.47899191 A 0.2803721,0.2803721 0 0 0 13.118511,0.08327153 A 0.2803721,0.2803721 0 0 0 12.935806,7.5961419e-4 A 0.2803721,0.2803721 0 0 0 12.89455,7.5961419e-4 Z M 4.053146,3.0545423 A 0.84195827,0.84195827 0 0 0 3.4578815,3.3012361 L 0.93200676,5.8271109 A 0.84195827,0.84195827 0 0 0 1.5272713,7.2643337 H 2.4222729 V 13.947798 H 4.0001027 V 7.2643337 H 9.9468539 V 14 H 11.63077 V 7.2643337 H 12.472729 A 0.84195827,0.84195827 0 0 0 13.067993,5.8271109 L 10.542118,3.3012361 A 0.84195827,0.84195827 0 0 0 9.9468539,3.0545423 Z" color="#000000" fill="#000305" id="path4731" style="stroke-width:1" />
</svg>
