<svg width="16.51318" height="18" version="1.0" id="svg43359"
  xmlns="http://www.w3.org/2000/svg" xmlns:svg="http://www.w3.org/2000/svg">

  <path
    d="M 4.4244773,1.5008141 A 0.30039869,0.30039869 0 0 0 4.2395471,1.5892198 L 2.125029,3.7028358 A 0.30039869,0.30039869 0 0 0 2.125029,4.127724 A 0.30039869,0.30039869 0 0 0 2.5490152,4.127724 L 4.6653375,2.0132059 A 0.30039869,0.30039869 0 0 0 4.6653375,1.5892198 A 0.30039869,0.30039869 0 0 0 4.4695822,1.5008141 A 0.30039869,0.30039869 0 0 0 4.4253793,1.5008141 Z M 7.3842613,1.5008141 A 0.30039869,0.30039869 0 0 0 7.1993312,1.5892198 L 5.9309812,2.8575698 A 0.30039869,0.30039869 0 0 0 5.9309812,3.2815559 A 0.30039869,0.30039869 0 0 0 6.3549673,3.2815559 L 7.6251216,2.014108 A 0.30039869,0.30039869 0 0 0 7.6251216,1.5901219 A 0.30039869,0.30039869 0 0 0 7.4293663,1.5017162 A 0.30039869,0.30039869 0 0 0 7.3851634,1.5017162 Z M 11.190213,1.5008141 A 0.30039869,0.30039869 0 0 0 11.005283,1.5892198 L 9.3138493,3.2806538 A 0.30039869,0.30039869 0 0 0 9.3138493,3.70464 A 0.30039869,0.30039869 0 0 0 9.7378355,3.70464 L 11.430171,2.0132059 A 0.30039869,0.30039869 0 0 0 11.430171,1.5892198 A 0.30039869,0.30039869 0 0 0 11.234416,1.5008141 A 0.30039869,0.30039869 0 0 0 11.190213,1.5008141 Z M 14.573082,1.5008141 A 0.30039869,0.30039869 0 0 0 14.388151,1.5892198 L 13.118899,2.8575698 A 0.30039869,0.30039869 0 0 0 13.118899,3.2815559 A 0.30039869,0.30039869 0 0 0 13.542886,3.2815559 L 14.812138,2.0132059 A 0.30039869,0.30039869 0 0 0 14.812138,1.5892198 A 0.30039869,0.30039869 0 0 0 14.616382,1.5008141 A 0.30039869,0.30039869 0 0 0 14.57218,1.5008141 Z M 5.0992467,4.7727242 A 0.90209817,0.90209817 0 0 0 4.4614633,5.037039 L 1.7551687,7.7433335 A 0.90209817,0.90209817 0 0 0 2.3929521,9.2832151 H 3.3518825 V 16.44407 H 5.0424145 V 9.2832151 H 11.413933 V 16.5 H 13.21813 V 9.2832151 H 14.120228 A 0.90209817,0.90209817 0 0 0 14.758012,7.7433335 L 12.051717,5.037039 A 0.90209817,0.90209817 0 0 0 11.413933,4.7727242 Z"
  />
</svg>
