<svg xmlns="http://www.w3.org/2000/svg" width="14" height="14">
    <path d="M7 1.46L1.814 3.536l.372.93 1.957-.783 2.261 2.744-2.783 3.248.758.652L7.05 7.21l2.562 3.11.774-.637L7.71 6.437l2.309-2.69 1.794.718.372-.93zm0 1.08l2.037.814-1.973 2.3-1.947-2.361z" color="#000" opacity=".5" fill="none" stroke="#fff" stroke-width="3" stroke-linecap="round" stroke-linejoin="round"/>
    <path d="M7 1.46L1.814 3.536l.372.93 1.957-.783 2.261 2.744-2.783 3.248.758.652L7.05 7.21l2.562 3.11.774-.637L7.71 6.437l2.309-2.69 1.794.718.372-.93L7 1.461zm0 1.08l2.037.814-1.973 2.3-1.947-2.361L7 2.539z" color="#000" fill-rule="evenodd"/>
</svg>
