<svg height="15.002" width="17" version="1.1"
  xmlns="http://www.w3.org/2000/svg" xmlns:svg="http://www.w3.org/2000/svg">

  <path
    d="M 5.969,1.5 C 5.934,1.502 5.9,1.518 5.865,1.527 C 5.842,1.534 5.817,1.535 5.795,1.545 C 5.789,1.548 5.782,1.548 5.775,1.551 L 1.77,3.553 V 3.563 A 0.494,0.494 0 0 0 1.5,4 V 13 C 1.5,13.007 1.504,13.013 1.504,13.02 C 1.504,13.049 1.515,13.076 1.521,13.105 C 1.529,13.141 1.534,13.177 1.549,13.209 C 1.551,13.214 1.55,13.219 1.553,13.225 C 1.558,13.235 1.569,13.237 1.574,13.246 A 0.488,0.488 0 0 0 1.727,13.41 C 1.744,13.422 1.759,13.434 1.777,13.443 A 0.492,0.492 0 0 0 2,13.5 C 2.006,13.5 2.01,13.496 2.016,13.496 C 2.021,13.496 2.026,13.5 2.031,13.5 C 2.065,13.498 2.097,13.483 2.131,13.475 C 2.156,13.468 2.182,13.465 2.205,13.455 C 2.211,13.452 2.218,13.452 2.225,13.449 L 5.98,11.572 L 10.795,13.457 A 0.499,0.499 0 0 0 11,13.502 L 11.012,13.5 C 11.016,13.5 11.019,13.496 11.023,13.496 H 11.025 L 11.031,13.498 C 11.044,13.498 11.056,13.49 11.068,13.488 A 0.495,0.495 0 0 0 11.215,13.449 C 11.218,13.448 11.222,13.449 11.225,13.447 L 15.23,11.445 V 11.439 A 0.494,0.494 0 0 0 15.5,11.002 V 2.002 C 15.5,1.995 15.496,1.989 15.496,1.982 C 15.496,1.951 15.484,1.92 15.476,1.889 C 15.469,1.856 15.465,1.823 15.451,1.793 C 15.449,1.787 15.451,1.781 15.447,1.775 C 15.441,1.763 15.427,1.758 15.42,1.746 A 0.486,0.486 0 0 0 15.281,1.6 C 15.259,1.584 15.241,1.568 15.217,1.557 A 0.491,0.491 0 0 0 15,1.502 L 14.988,1.504 C 14.981,1.504 14.976,1.5 14.968,1.5 C 14.925,1.503 14.881,1.52 14.838,1.535 C 14.825,1.54 14.811,1.54 14.798,1.545 C 14.791,1.548 14.783,1.547 14.775,1.551 L 11.015,3.43 L 6.249,1.564 L 6.247,1.562 L 6.241,1.561 L 6.21,1.549 A 0.495,0.495 0 0 0 6,1.5 L 5.984,1.502 C 5.984,1.502 5.984,1.504 5.982,1.504 C 5.978,1.504 5.974,1.5 5.97,1.5 Z M 6.5,2.736 L 10.5,4.303 V 12.268 L 6.5,10.7 Z M 5.5,2.806 V 10.696 L 2.5,12.193 V 4.305 L 5.5,2.807 Z M 14.5,2.806 V 10.693 L 11.5,12.191 V 4.305 L 14.5,2.807 Z"
  />
</svg>
