<?xml version="1.0" encoding="UTF-8" standalone="no"?>
<svg version="1.0" width="14" height="14" id="svg75" sodipodi:docname="mine.svg" inkscape:version="1.1.1 (3bf5ae0d25, 2021-09-20)" xmlns:inkscape="http://www.inkscape.org/namespaces/inkscape" xmlns:sodipodi="http://sodipodi.sourceforge.net/DTD/sodipodi-0.dtd" xmlns="http://www.w3.org/2000/svg" xmlns:svg="http://www.w3.org/2000/svg">
  <defs id="defs79" />
  <sodipodi:namedview id="namedview77" pagecolor="#ffffff" bordercolor="#666666" borderopacity="1.0" inkscape:pageshadow="2" inkscape:pageopacity="0.0" inkscape:pagecheckerboard="0" showgrid="false" inkscape:zoom="16.326852" inkscape:cx="10.841037" inkscape:cy="19.079" inkscape:window-width="1883" inkscape:window-height="1062" inkscape:window-x="0" inkscape:window-y="0" inkscape:window-maximized="1" inkscape:current-layer="svg75" fit-margin-top="0" fit-margin-left="0" fit-margin-right="0" fit-margin-bottom="0" />
  <path d="M 4.9746886,0.68114344 A 0.27481529,0.27481529 0 0 0 4.8029291,0.72694599 C 3.8525262,1.391083 2.8677714,2.0323187 2.0089736,2.8796657 C 1.2074291,3.7041116 0.68069974,4.7117676 0.05091469,5.5705654 A 0.27481529,0.27481529 0 0 0 0.10816788,5.9484364 L 1.5394975,7.001895 A 0.27481529,0.27481529 0 0 0 1.9173686,6.9331912 L 3.3601488,4.860626 L 6.1770055,7.7003839 L 3.1425867,10.963815 L 1.8830166,12.292088 A 0.27481529,0.27481529 0 0 0 1.905918,12.669959 L 2.5471535,13.253942 C 2.66166,13.368448 2.8334194,13.345547 2.9364752,13.242492 L 7.0587045,8.5935336 L 11.570254,13.116534 A 0.27481529,0.27481529 0 0 0 11.948125,13.116534 L 12.56646,12.4982 A 0.27481529,0.27481529 0 0 0 12.56646,12.108879 A 10113.889,10113.889 0 0 1 7.9060516,7.6431307 L 10.459544,4.8033728 L 11.318342,5.5705654 L 13.608468,6.7728823 C 13.883283,6.9217406 14.135197,6.5667708 13.917635,6.3492087 L 13.883283,6.2690543 A 8.198656,8.198656 0 0 1 13.734425,5.9713378 L 13.333652,5.0781881 A 50.543111,50.543111 0 0 0 12.909979,4.1621371 A 7.9925445,7.9925445 0 0 0 12.74967,3.8186179 A 1.9122563,1.9122563 0 0 0 12.680966,3.7041116 L 12.58936,3.5896052 A 85.627863,85.627863 0 0 1 11.959576,3.0170734 L 12.234391,2.7537088 A 0.27481529,0.27481529 0 0 0 12.211489,2.3529364 L 11.84507,2.0437693 A 0.27481529,0.27481529 0 0 0 11.478649,2.0437693 L 11.192384,2.3300352 A 32.038882,32.038882 0 0 1 9.6236471,0.80710046 A 0.27481529,0.27481529 0 0 0 9.2457762,0.78419918 L 7.8487985,2.0094174 A 0.27481529,0.27481529 0 0 0 7.8487985,2.4101896 L 9.5434927,4.0934333 L 7.0243526,6.8072342 L 4.1387921,4.0590813 L 6.1884561,2.5704986 A 0.27481529,0.27481529 0 0 0 6.2457093,2.1926275 L 5.1693494,0.78419918 A 0.27481529,0.27481529 0 0 0 4.9632379,0.66969281 Z" color="#000000" id="path73" style="stroke-width:1" />
</svg>
