<svg xmlns="http://www.w3.org/2000/svg" version="1.0" width="580" height="580">
  <path d="M543.6 520.05a.24.24 0 00-.15.04c-.83.58-1.69 1.14-2.44 1.88h0c-.7.72-1.16 1.6-1.71 2.35a.24.24 0 00.05.33l1.25.92a.24.24 0 00.33-.06l1.26-1.81 2.46 2.48-2.65 2.85-1.1 1.16a.24.24 0 00.02.33l.56.51c.1.1.25.08.34-.01l3.6-4.06 3.94 3.95a.24.24 0 00.33 0l.54-.54a.24.24 0 000-.34 7070.3 7070.3 0 01-4.07-3.9l2.23-2.48.75.67 2 1.05c.24.13.46-.18.27-.37h0l-.03-.07a7.16 7.16 0 01-.13-.26l-.35-.78a44.14 44.14 0 00-.37-.8 6.98 6.98 0 00-.14-.3 1.67 1.67 0 00-.06-.1l-.08-.1h0a74.78 74.78 0 01-.55-.5l.24-.23a.24.24 0 00-.02-.35l-.32-.27a.24.24 0 00-.32 0l-.25.25a27.98 27.98 0 01-1.37-1.33.24.24 0 00-.33-.02l-1.22 1.07a.24.24 0 000 .35l1.48 1.47-2.2 2.37-2.52-2.4 1.79-1.3a.24.24 0 00.05-.33l-.94-1.23a.24.24 0 00-.18-.1z" color="#000" opacity=".5" fill="none" stroke="#fff" stroke-width="3" stroke-linecap="round" stroke-linejoin="round"/>
  <path d="M543.6 520.05a.24.24 0 00-.15.04c-.83.58-1.69 1.14-2.44 1.88-.7.72-1.16 1.6-1.71 2.35a.24.24 0 00.05.33l1.25.92a.24.24 0 00.33-.06l1.26-1.81 2.46 2.48-2.65 2.85-1.1 1.16a.24.24 0 00.02.33l.56.51c.1.1.25.08.34-.01l3.6-4.06 3.94 3.95a.24.24 0 00.33 0l.54-.54a.24.24 0 000-.34 8832.6 8832.6 0 01-4.07-3.9l2.23-2.48.75.67 2 1.05c.24.13.46-.18.27-.37l-.03-.07a7.16 7.16 0 01-.13-.26l-.35-.78a44.14 44.14 0 00-.37-.8 6.98 6.98 0 00-.14-.3 1.67 1.67 0 00-.06-.1l-.08-.1a74.78 74.78 0 01-.55-.5l.24-.23a.24.24 0 00-.02-.35l-.32-.27a.24.24 0 00-.32 0l-.25.25a27.98 27.98 0 01-1.37-1.33.24.24 0 00-.33-.02l-1.22 1.07a.24.24 0 000 .35l1.48 1.47-2.2 2.37-2.52-2.4 1.79-1.3a.24.24 0 00.05-.33l-.94-1.23a.24.24 0 00-.18-.1z" color="#000"/>
</svg>
