<svg width="20.761051" height="20.501944" version="1.1"
  xmlns="http://www.w3.org/2000/svg" xmlns:svg="http://www.w3.org/2000/svg">

  <path
    d="M 3.4692719,17.912944 L 4.6982719,9.8369438 L 5.6612719,9.2599438 L 6.6042719,9.8519438 C 6.6042719,9.8519438 7.6732719,18.010944 7.5722719,17.961944 C 7.4722719,17.912944 3.4892719,17.985944 3.4692719,17.912944 Z"
    fill="#808080" />
  <path
    d="M 2.8192719,6.3799438 A 0.227,0.227 0 0 0 2.6782719,6.4419438 L 1.5582719,7.4889438 A 0.227,0.227 0 0 0 1.5662719,7.8289438 L 4.8642719,10.647944 L 1.5662719,13.470944 A 0.227,0.227 0 0 0 1.5582719,13.809944 L 2.6782719,14.856944 C 2.7782719,14.949944 2.9372719,14.934944 3.0162719,14.823944 L 5.6562719,11.225944 L 8.2952719,14.823944 C 8.3752719,14.932944 8.5322719,14.947944 8.6312719,14.856944 L 9.7512719,13.809944 A 0.227,0.227 0 0 0 9.7422719,13.469944 L 6.4452719,10.647944 L 9.7422719,7.8279438 A 0.227,0.227 0 0 0 9.7512719,7.4889438 L 8.6312719,6.4419438 A 0.227,0.227 0 0 0 8.4672719,6.3809438 A 0.227,0.227 0 0 0 8.2952719,6.4749438 L 5.6552719,10.072944 L 3.0162719,6.4749438 A 0.227,0.227 0 0 0 2.8192719,6.3809438 Z M 5.6562719,10.511944 L 5.7972719,10.647944 L 5.6532719,10.786944 L 5.5112719,10.650944 Z M 13.951272,5.7259438 C 13.951272,5.3669438 13.821272,5.0649438 13.562272,4.8189438 A 1.3,1.3 0 0 0 12.635272,4.4489438 C 12.277272,4.4489438 11.971272,4.5729438 11.719272,4.8189438 A 1.217,1.217 0 0 0 11.339272,5.7259438 C 11.339272,6.0839438 11.466272,6.3859438 11.719272,6.6329438 C 11.971272,6.8789438 12.277272,7.0019438 12.635272,7.0019438 A 1.3,1.3 0 0 0 13.562272,6.6319438 C 13.822272,6.3869438 13.951272,6.0839438 13.951272,5.7259438 Z M 10.523272,18.999944 C 10.802272,18.999944 11.028272,18.866944 11.200272,18.600944 L 14.947272,12.960944 L 15.147272,13.737944 L 14.589272,17.962944 A 0.773,0.773 0 0 0 15.227272,18.840944 A 0.746,0.746 0 0 0 15.815272,18.710944 A 0.706,0.706 0 0 0 16.124272,18.202944 L 16.702272,13.877944 C 16.715272,13.730944 16.702272,13.577944 16.662272,13.417944 L 15.386272,8.3359438 L 18.715272,7.7379438 A 0.606,0.606 0 0 0 19.134272,7.4689438 A 0.654,0.654 0 0 0 19.253272,6.9809438 A 0.752,0.752 0 0 0 18.954272,6.5419438 L 11.300272,1.4999438 L 10.602272,2.5169438 C 10.429272,2.7569438 10.469272,2.9619438 10.722272,3.1349438 C 10.961272,3.2809438 11.167272,3.2409438 11.339272,3.0149438 L 11.739272,2.4169438 L 17.957272,6.5039438 L 12.875272,7.4199438 A 0.73,0.73 0 0 0 12.426272,7.7099438 A 0.524,0.524 0 0 0 12.336272,8.1979438 L 13.433272,12.482944 L 9.8452719,17.844944 A 0.765,0.765 0 0 0 9.9752719,18.771944 C 10.127272,18.924944 10.310272,19.001944 10.523272,19.001944 Z"
  />
</svg>
