<svg width="17" height="17" version="1.1"
  xmlns="http://www.w3.org/2000/svg" xmlns:svg="http://www.w3.org/2000/svg">


  <path
    d="M 2,1.5 C 1.723,1.5 1.5,1.723 1.5,2 V 7.5 H 2.5 V 6.5 H 14.5 V 7.5 H 15.5 V 3 A 0.5,0.5 0 1 0 14.5,3 V 5.5 H 2.5 V 2 C 2.5,1.723 2.277,1.5 2,1.5 Z M 5,1.5 A 1.5,1.5 0 1 0 5,4.5 A 1.5,1.5 0 0 0 5,1.5 Z M 7.5,2.5 V 4.5 H 13.5 C 13.5,3.5 12.464,2.5 11.5,2.5 Z M 5.5,7.5 L 4.5,10.5 C 4.027,10.5 3.5,10.884 3.5,11.5 V 14.5 H 4.5 C 4.5,14.5 4.5,15.5 5.5,15.5 C 6.5,15.5 6.5,14.5 6.5,14.5 H 10.5 C 10.5,14.5 10.5,15.5 11.5,15.5 C 12.5,15.5 12.5,14.5 12.5,14.5 H 13.5 V 11.5 C 13.5,10.98 13.045,10.5 12.5,10.5 L 11.5,7.5 Z M 6.5,8.5 H 10.5 L 11.125,10.5 H 5.875 Z M 5.5,11.75 A 0.75,0.75 0 1 1 5.5,13.25 A 0.75,0.75 0 0 1 5.5,11.75 Z M 11.5,11.75 A 0.75,0.75 0 1 1 11.5,13.25 A 0.75,0.75 0 0 1 11.5,11.75 Z"
  />
</svg>
