<svg xmlns="http://www.w3.org/2000/svg" width="66.188" height="69.188">
    <circle cx="20.045" cy="49.985" r="5.497" fill="#fff" stroke="#fe0000" stroke-linecap="round" stroke-linejoin="round"/>
    <path d="M23.585 49.15c-.07 0-.138.003-.206.01l-.54-2.249a.244.244 0 00-.238-.187h-.84a.244.244 0 000 .489h.648l.182.76H18.95l-.184-.662h.678a.244.244 0 000-.488h-1a.244.244 0 00-.235.31l.295 1.06-.988 1.25a2.053 2.053 0 00-1.056-.294c-1.141 0-2.07.928-2.07 2.07a2.07 2.07 0 002.07 2.068 2.071 2.071 0 002.058-1.869h1.068s0 0 0 0a.242.242 0 00.065-.009c.006-.001.012-.004.017-.006l.013-.005a.241.241 0 00.067-.042l.004-.003 2.986-2.77.164.685a2.07 2.07 0 00-1.385 1.95 2.07 2.07 0 002.069 2.069 2.07 2.07 0 002.068-2.069c0-1.14-.928-2.069-2.069-2.069zm-4.92-.375l.6 2.154h-.76a2.063 2.063 0 00-.601-1.19zm-1.066 1.35c.209.219.356.496.413.804h-1.048zm-1.14 2.673c-.871 0-1.58-.709-1.58-1.58a1.582 1.582 0 012.332-1.39l-.943 1.194a.244.244 0 00.191.396h1.567a1.582 1.582 0 01-1.567 1.38zm3.255-2.076l-.628-2.26h3.064zm3.871 2.076c-.871 0-1.58-.708-1.58-1.58 0-.67.42-1.244 1.012-1.473l.33 1.38a.244.244 0 00.476-.114l-.329-1.369a1.582 1.582 0 011.671 1.576 1.58 1.58 0 01-1.58 1.58z" stroke="#000" stroke-width=".1"/>
</svg>
