<?xml version="1.0" encoding="UTF-8" standalone="no"?>
<svg width="14" height="14" version="1.1" id="svg1402" sodipodi:docname="not_drinking_spring.svg" inkscape:version="1.1.1 (3bf5ae0d25, 2021-09-20)" xmlns:inkscape="http://www.inkscape.org/namespaces/inkscape" xmlns:sodipodi="http://sodipodi.sourceforge.net/DTD/sodipodi-0.dtd" xmlns="http://www.w3.org/2000/svg" xmlns:svg="http://www.w3.org/2000/svg">
  <defs id="defs1406" />
  <sodipodi:namedview id="namedview1404" pagecolor="#ffffff" bordercolor="#666666" borderopacity="1.0" inkscape:pageshadow="2" inkscape:pageopacity="0.0" inkscape:pagecheckerboard="0" showgrid="false" inkscape:zoom="11.640625" inkscape:cx="-17.35302" inkscape:cy="1.8469799" inkscape:window-width="1883" inkscape:window-height="1062" inkscape:window-x="0" inkscape:window-y="0" inkscape:window-maximized="1" inkscape:current-layer="svg1402" />
  <path d="M 6.25,1.16 A 3.3,3.3 0 0 0 2.98,4.49 A 3.36,3.36 0 0 0 3.15,5.58 C 1.44,6.66 2.45,8.5 2.84,9.76 C 3.23,11.06 1.83,11.82 0.75,12.84 C 3.98,12.26 4.52,10.66 4.43,9.92 C 4.25,9.01 3.6,8.4 4.55,7.32 C 5.1,7.51 5.63,7.82 6.25,7.82 A 3.23,3.23 0 0 0 8.11,7.22 A 3.33,3.33 0 0 0 9.53,4.49 A 3.3,3.3 0 0 0 6.25,1.16 Z" fill="#0064ff" id="path1398" />
  <circle cx="10.75" cy="10.01" fill="#ff0000" r="2.5" id="circle1400" />
</svg>
