<?xml version="1.0" encoding="UTF-8" standalone="no"?>
<svg version="1.0" width="14.759" height="15.349" viewBox="0 0 14.759 15.349" preserveAspectRatio="xMidYMid" id="svg2" xmlns="http://www.w3.org/2000/svg" xmlns:svg="http://www.w3.org/2000/svg">
  <defs id="defs2" />
  <g id="g66" fill="#ff0000" style="stroke:#ffffff;stroke-opacity:0.5;stroke-width:3;stroke-dasharray:none;stroke-linejoin:round;stroke-linecap:round;paint-order:stroke markers fill">
    <path id="path66" d="M 3.7265652,11.723408 C 3.7183727,11.238876 3.5493917,10.772374 3.3248559,10.348338 C 3.0828006,9.925948 2.7808136,9.638816 2.4699994,9.26366 C 2.3250454,9.0887 2.2009225,8.9497624 1.9897715,8.7781856 C 1.8446231,8.6602416 1.6592408,8.5079048 1.5,8.4153416 C 1.5690455,8.674404 1.773174,8.912396 1.9254298,9.1421864 C 2.1888235,9.5467784 2.5406356,9.8767249 2.7949797,10.345546 C 3.011526,10.744695 3.1575304,11.196182 3.145923,11.654676 C 3.1052033,11.749741 3.2017911,11.719262 3.26012,11.723408 Z M 11.616381,12.327613 C 11.781081,11.91476 12.052135,11.555606 12.286341,11.17662 C 12.694862,10.515561 13.048258,9.7972495 13.210449,9.0257168 C 13.278099,8.7039116 13.273773,8.3708856 13.200509,8.0507834 C 13.02113,8.5230853 12.90896,8.9134123 12.83888,9.0914492 C 12.602929,9.6908796 12.152101,10.558659 11.717571,11.317442 C 11.446001,11.791662 11.332421,11.513918 11.144722,12.035003 C 11.143702,12.134782 10.971792,12.346573 11.156963,12.311123 Z M 12.480084,6.6806723 C 12.461206,6.3191533 12.289402,5.9914974 12.125414,5.6767747 C 12.006046,5.4603941 11.851534,5.266205 11.699606,5.072231 C 11.601246,4.964884 11.488315,4.8719689 11.384983,4.7694611 C 11.516824,5.1579456 11.745018,5.4826436 11.833978,5.6409682 C 12.008546,5.9516481 12.123193,6.1933018 12.106373,6.591425 C 12.087528,6.6446584 12.085541,6.6827467 12.148895,6.6700126 Z M 5.9746506,4.3204914 C 5.9488595,4.0877154 5.9121695,3.8559494 5.8707561,3.6255515 C 5.7613722,3.1192941 5.6058278,2.573541 5.4273202,2.2570897 C 5.289827,2.013347 5.0978383,1.6950838 4.9073745,1.5 C 5.0409527,1.9662726 5.1807416,2.2474282 5.306965,2.5909181 C 5.4459211,2.9690571 5.4637528,3.3319471 5.5088033,3.7326654 C 5.5271302,3.8956808 5.5637453,4.057281 5.5560365,4.2220219 C 5.5429595,4.297825 5.5860793,4.3374409 5.655635,4.3204914 Z M 10.49644,4.6965694 C 10.609959,4.3687357 10.758005,4.0535438 10.906412,3.7399754 C 11.057221,3.4213311 11.277164,3.0715845 11.394038,2.8015082 C 11.253945,2.8757234 10.993956,3.090587 10.889616,3.2176 C 10.728021,3.4143071 10.64566,3.5058672 10.519654,3.7256729 C 10.348219,4.0247272 10.243025,4.3554217 10.127099,4.6788217 Z M 5.834856,9.8764984 C 5.9318166,9.3707807 6.169471,8.7047872 6.3583094,8.4249835 C 6.5471478,8.1451798 6.7739371,7.7420338 6.9363699,7.3981299 C 6.3051852,7.8834813 6.0820799,8.2367158 5.7436671,8.7352104 C 5.5888842,9.0952476 5.5371135,9.4874235 5.4568339,9.8685176 Z M 7.6754088,12.61022 C 7.648246,11.464502 8.001119,10.356394 8.3855726,9.291368 C 8.7832198,8.3759272 9.5011398,7.6477939 9.9181902,6.7426721 C 10.247705,6.1239185 10.417713,5.4324618 10.56094,4.7511714 C 10.657078,4.1926003 10.530148,3.6320027 10.513314,3.0721322 C 10.464459,2.649632 10.431844,2.2274568 10.244185,1.827505 C 10.037991,1.3880494 10.103307,2.1065097 10.114033,2.2491423 C 10.155863,2.8054338 10.193326,3.3627235 10.194596,3.9184341 C 10.118389,4.5843502 9.9889382,5.253406 9.6723062,5.8519584 C 9.4009286,6.409528 9.1422558,6.9795114 8.7340862,7.4538234 C 8.2296695,8.0774855 7.7107286,8.7111255 7.4529858,9.4878376 C 7.1246014,10.477429 6.8344618,11.511299 6.9486373,12.562346 Z M 4.5835948,7.5959497 C 4.7101472,7.0358976 4.9729841,6.4781958 4.8943596,5.896964 C 4.8442717,5.5266892 4.6716049,5.17375 4.4322219,4.8828715 C 4.1768919,4.5726155 3.9114711,4.2696293 3.7108453,3.9178665 C 3.5493089,3.6346402 3.3837712,3.3512883 3.2587011,3.050821 C 3.1509754,2.7920217 3.0721041,2.5874479 3.0652213,2.3083769 C 3.0607411,2.1267212 3.0640656,1.9642476 3.0245517,1.6562204 C 2.9129979,1.9705943 2.8747915,2.176785 2.8699146,2.3733596 C 2.8606881,2.7452569 2.9097042,3.0628167 3.0116186,3.4214282 C 3.0933388,3.7089813 3.1226942,3.850838 3.2679045,4.159723 C 3.4389092,4.5234769 3.7254012,4.8187426 3.9332512,5.16129 C 4.122151,5.4726066 4.2167032,5.8393826 4.1862932,6.2118317 C 4.1483032,6.6771174 4.0351492,7.1323743 3.8740712,7.5672059 Z M 7.9974526,13.655211 C 7.8379087,12.670017 7.2809337,11.802832 6.5837677,11.108316 C 5.4719068,10.000681 4.13462,9.0763968 3.3378121,7.690858 C 2.7885557,6.7829196 2.2838368,5.7996344 2.118771,4.7418181 C 2.061844,4.3770042 2.018147,4.1914532 2.0062523,3.7192355 C 2.0017704,3.5413064 1.9672518,3.2536141 1.8916326,3.0737506 C 1.7982614,3.3000075 1.752697,3.6141056 1.7407792,3.753774 C 1.7051306,4.1715491 1.7380444,4.4041481 1.8325899,4.962334 C 2.046018,6.2223894 2.5647649,7.4317842 3.2872988,8.4856624 C 4.3255899,9.9567944 6.0463944,10.871264 6.8243216,12.539284 C 6.9928253,12.888727 7.0460477,13.331817 7.158616,13.664494 Z M 10.045852,10.826572 C 10.111409,10.322954 9.862271,9.8516408 9.6612326,9.40704 C 9.2886174,8.707036 8.796647,8.0782592 8.2486555,7.5073959 C 7.8930118,7.1423421 7.5248116,6.7695836 7.3320466,6.2879292 C 7.1275074,5.8320254 6.9771094,5.3536118 6.8288155,4.8776461 C 6.7552378,4.5723674 6.7362245,4.2579189 6.7076396,3.9462205 C 6.5698867,4.1496326 6.6118157,4.4832066 6.5951776,4.7380608 C 6.5936862,5.3384119 6.6401104,5.9608888 6.9271824,6.5008826 C 7.2224885,7.1050585 7.6520508,7.6263724 8.0751149,8.1439874 C 8.5178678,8.7369736 8.8242855,9.4215587 9.0795854,10.116266 C 9.16003,10.335168 9.2162142,10.577661 9.194319,10.873447 Z M 4.0921533,13.689158 C 4.0105578,12.357233 3.7225315,11.018522 3.9610915,9.6834632 C 4.1070577,8.8665889 4.3169677,8.0230272 4.8822592,7.3834953 C 5.4171126,6.778399 6.1325835,6.3756088 6.8602863,6.0572083 C 7.1430382,5.8889472 7.6188274,5.8307648 7.7594703,5.5611406 C 7.459619,5.5582678 7.1598106,5.6640289 6.8734477,5.7501876 C 6.0734994,6.0036912 5.2688203,6.297225 4.578916,6.7870028 C 3.8947904,7.2726781 3.3741446,7.9918662 3.1787246,8.812932 C 3.0104542,9.5199274 2.8932389,10.243359 2.8596688,10.969809 C 2.8245668,11.872766 3.0546807,12.77398 2.924402,13.674635 Z M 9.7780942,13.787939 C 10.110384,13.242703 9.9543622,12.577366 10.005677,11.973389 C 10.003584,10.847886 10.522342,9.8028423 11.193035,8.9205472 C 11.801881,8.1196106 12.405415,7.2969095 12.754815,6.3388574 C 12.95803,5.7816425 13.070031,5.1809197 13.040303,4.5907841 C 13.013118,4.0511438 12.939886,3.5386175 12.772422,3.0268556 C 12.694771,2.7895598 12.63033,2.5808649 12.492463,2.2382207 C 12.416897,2.6513979 12.382125,2.9527529 12.45877,3.2877934 C 12.585017,3.8396649 12.696741,4.4035654 12.580924,4.9691862 C 12.409922,5.804317 12.040153,6.5877214 11.539736,7.2791079 C 10.850559,8.2312893 9.9552086,9.029109 9.450443,10.113719 C 9.1440353,10.77211 8.9918334,11.492962 9.0735358,12.212402 C 9.1026198,12.722886 9.049715,13.235335 8.9852862,13.738702 Z M 11.317884,13.84898 C 11.644589,12.821769 11.826653,11.748228 11.913444,10.674633 C 11.956938,9.808516 11.773372,8.9475352 11.427629,8.1551597 C 10.988807,7.1033694 10.340723,6.1394593 9.494707,5.3668448 C 8.8926606,4.817033 8.2437363,4.5713 7.801917,3.6755058 C 7.5820575,3.2297379 7.3696706,2.7855235 7.1630616,2.3077278 C 7.0277165,2.789668 7.1977804,3.3125402 7.3916524,3.7601214 C 7.6508232,4.3584541 8.2462276,4.9298839 8.7198928,5.3483739 C 9.7614599,6.2686134 10.532356,7.2667534 10.951583,8.5973896 C 11.322019,9.6860728 11.315591,10.863444 11.090323,11.981651 C 10.954564,12.578106 10.822322,13.198824 10.497302,13.724608 C 10.385627,13.85545 10.773034,13.782096 10.888586,13.81997 Z M 4.984264,13.795908 C 5.7680556,13.132137 5.9120387,12.049191 5.980057,11.085596 C 6.0238372,9.894976 5.840475,8.7110432 5.8100244,7.521889 C 5.7869826,7.1128841 5.786317,6.8370751 5.7999108,6.4943792 C 5.7665993,5.3642331 6.0492598,4.2035048 6.1946301,3.0879454 C 6.2594663,2.5903979 6.4479924,2.1693038 6.435512,1.6608642 C 6.1473562,2.1235628 6.0500785,2.5268648 5.9565072,2.9779851 C 5.8731365,3.3799267 5.735848,3.6766817 5.6406344,3.9890176 C 5.3970943,4.7879199 5.3123198,5.6265057 5.1593255,6.4462236 C 5.0264853,7.5985623 4.9945684,8.7610296 5.0868784,9.9178296 C 5.1293786,10.88525 5.1437739,11.898862 4.7658084,12.808509 C 4.656699,13.149755 4.2512288,13.523038 4.1642306,13.72314 Z" style="stroke:#ffffff;stroke-opacity:0.5;stroke-width:3;stroke-dasharray:none;stroke-linejoin:round;stroke-linecap:round;paint-order:stroke markers fill" />
  </g>
</svg>
