<svg height="17" width="17" version="1.1"
  xmlns="http://www.w3.org/2000/svg" xmlns:svg="http://www.w3.org/2000/svg">

  <path
    d="M 8.5,1.5 A 7,7 0 0 0 1.5,8.5 A 7,7 0 0 0 8.5,15.5 A 7,7 0 0 0 15.5,8.5 A 7,7 0 0 0 8.5,1.5 Z M 8.5,3 A 5.5,5.5 0 0 1 14,8.5 A 5.5,5.5 0 0 1 8.5,14 A 5.5,5.5 0 0 1 3,8.5 A 5.5,5.5 0 0 1 8.5,3 Z M 8.5,4.37 A 1.04,1.04 0 0 0 7.46,5.41 A 1.04,1.04 0 0 0 8.5,6.45 A 1.04,1.04 0 0 0 9.54,5.41 A 1.04,1.04 0 0 0 8.5,4.37 Z M 9.188,7.135 L 7.127,7.822 V 8.508 H 7.76 L 7.813,11.943 H 7.127 V 12.631 H 9.873 V 11.943 H 9.188 Z"
  />
</svg>
