<svg xmlns="http://www.w3.org/2000/svg" width="512" height="512">
    <path d="M20.911 20.03c-1.062.01-1.961.338-2.567.825-.808.65-1.136 1.74-1.46 3.534 1.218-1.016 2.376-.982 3.216-.41a2.34 2.34 0 00.51-.307c.807-.65 1.277-2.19 1.413-3.539a5.655 5.655 0 00-1.112-.102z" fill-opacity=".135" stroke="#000" stroke-width=".8" stroke-linecap="round" stroke-linejoin="round"/>
    <path d="M12.3 26.583c.144-2.267 2.433-4.258 4.584-2.194 2.374-1.98 4.523.023 4.523 2.241 0 2.219-2.062 5.394-4.862 3.023-3.002 2.32-4.389-.829-4.245-3.07zM31.578 1.745c-1.062.01-1.961.338-2.567.825-.809.649-1.136 1.74-1.46 3.533 1.218-1.016 2.376-.982 3.215-.41a2.34 2.34 0 00.51-.307c.808-.649 1.278-2.19 1.413-3.538a5.655 5.655 0 00-1.111-.103z" fill-opacity=".135" stroke="#000" stroke-width=".8" stroke-linecap="round" stroke-linejoin="round"/>
    <path d="M22.966 8.298c.145-2.268 2.434-4.259 4.585-2.195 2.374-1.98 4.523.023 4.523 2.242 0 2.218-2.063 5.393-4.862 3.022-3.002 2.32-4.39-.828-4.246-3.07zM42.244 20.03c-1.061.01-1.96.338-2.567.825-.808.65-1.136 1.74-1.46 3.534 1.218-1.016 2.376-.982 3.216-.41a2.34 2.34 0 00.51-.307c.808-.65 1.277-2.19 1.413-3.539a5.655 5.655 0 00-1.112-.102z" fill-opacity=".135" stroke="#000" stroke-width=".8" stroke-linecap="round" stroke-linejoin="round"/>
    <path d="M33.633 26.583c.145-2.267 2.434-4.258 4.584-2.194 2.375-1.98 4.524.023 4.524 2.241 0 2.219-2.063 5.394-4.863 3.023-3.001 2.32-4.388-.829-4.245-3.07zM10.244 1.745c-1.061.01-1.96.338-2.567.825-.808.649-1.136 1.74-1.46 3.533 1.218-1.016 2.376-.982 3.216-.41a2.34 2.34 0 00.51-.307c.808-.649 1.277-2.19 1.413-3.538a5.655 5.655 0 00-1.112-.103z" fill-opacity=".135" stroke="#000" stroke-width=".8" stroke-linecap="round" stroke-linejoin="round"/>
    <path d="M1.633 8.298c.145-2.268 2.434-4.259 4.584-2.195 2.375-1.98 4.524.023 4.524 2.242 0 2.218-2.063 5.393-4.863 3.022-3.001 2.32-4.388-.828-4.245-3.07z" fill-opacity=".135" stroke="#000" stroke-width=".8" stroke-linecap="round" stroke-linejoin="round"/>
    <path fill="none" d="M0 0h44v36H0z"/>
</svg>
