<?xml version="1.0" encoding="UTF-8" standalone="no"?>
<svg width="44" height="36" version="1.1" id="svg14" xmlns:xlink="http://www.w3.org/1999/xlink" xmlns="http://www.w3.org/2000/svg" xmlns:svg="http://www.w3.org/2000/svg">
  <defs id="defs6" />
  <g id="g7" style="opacity:0.2">
    <path d="M 1.633,8.298 C 1.778,6.03 4.067,4.039 6.217,6.103 C 8.592,4.123 10.741,6.126 10.741,8.345 C 10.741,10.563 8.678,13.738 5.878,11.367 C 2.877,13.687 1.49,10.539 1.633,8.297 Z" fill-opacity="0.135" stroke="#000000" stroke-width="0.8" stroke-linecap="round" stroke-linejoin="round" id="path5" style="opacity:1;stroke-width:0.8;stroke-dasharray:none" />
    <path d="M 10.243981,1.7449996 C 9.1819811,1.7549996 8.2829811,2.0829996 7.6769811,2.5699996 C 6.8689811,3.2199996 6.5409811,4.3099996 6.2169811,6.1039996 C 7.4349811,5.0879996 8.5929811,5.1219996 9.4329811,5.6939996 A 2.34,2.34 0 0 0 9.9429811,5.3869996 C 10.749981,4.7369996 11.219981,3.1969996 11.355981,1.8479996 A 5.655,5.655 0 0 0 10.243981,1.7459996 Z" fill-opacity="0.135" stroke="#000000" stroke-width="0.8" stroke-linecap="round" stroke-linejoin="round" id="path7" style="opacity:1" />
  </g>
  <use x="0" y="0" xlink:href="#g7" id="use7" transform="translate(21.334)" style="opacity:1" />
  <use x="0" y="0" xlink:href="#g7" id="use9" transform="translate(32,18.286)" style="opacity:1" />
  <use x="0" y="0" xlink:href="#g7" id="use10" transform="translate(10.667,18.286)" style="opacity:1" />
</svg>
