<svg xmlns="http://www.w3.org/2000/svg" width="50" height="50">
  <path d="M4 2v1h2.28L5.15 6H2v1h2.78l-1.25 3.33.93.35 1.38-3.67h4.31l1.38 3.67.97-.35L11.22 7H14V6h-3.15L9.73 3H12V2zm3.35 1h1.3l1.13 3H6.21z" color="#000" opacity=".5" fill="none" stroke="#fff" stroke-width="3" stroke-linecap="round" stroke-linejoin="round"/>
  <path d="M4 2v1h2.28L5.15 6H2v1h2.78l-1.25 3.33.93.35 1.38-3.67h4.31l1.38 3.67.97-.35L11.22 7H14V6h-3.15L9.73 3H12V2zm3.35 1h1.3l1.13 3H6.21z" color="#000" fill-rule="evenodd"/>
</svg>
