<svg width="19.999866" height="13.002158" version="1.1"
  xmlns="http://www.w3.org/2000/svg" xmlns:svg="http://www.w3.org/2000/svg">

  <path
    fill="#bfbfbf"
    d="M 4.4999336,3.5021585 H 18.499934 L 15.499934,11.502159 H 1.4999336 Z" />
  <path
    d="M 10.810934,1.5001585 A 0.5,0.5 0 0 0 10.751934,1.5021585 H 6.3699336 V 2.5021585 H 8.3679336 L 7.6539336,4.5021585 H 5.3839336 V 5.5021585 H 7.2959336 L 6.4619336,7.8321585 C 6.2369336,8.4601585 7.1789336,8.7981585 7.4039336,8.1701585 L 8.3589336,5.5021585 H 11.506934 L 12.456934,8.1681585 C 12.679934,8.7971585 13.622934,8.4631585 13.399934,7.8341585 L 12.569934,5.5021585 H 14.483934 V 4.5021585 H 12.209934 L 11.499934,2.5021585 H 13.492934 V 1.5021585 H 10.825934 A 0.501,0.501 0 0 0 10.810934,1.5001585 Z M 9.4299336,2.5021585 H 10.439934 L 11.149934,4.5021585 H 8.7159336 Z"
  />
</svg>
