<svg xmlns="http://www.w3.org/2000/svg" width="32" height="32" version="1.0">
    <path d="M7.422 1.032a.75.75 0 00-.434.15L1.053 5.65a.75.75 0 00.9 1.2l5.483-4.125 5.353 4.12a.75.75 0 00.914-1.189L7.896 1.19a.75.75 0 00-.474-.157zm.959 6.964a.5.5 0 00-.059.002H3.94v1h1.998l-.714 2h-2.27v1h1.912l-.834 2.33a.5.5 0 10.942.338l.955-2.668h3.148l.95 2.666a.5.5 0 10.943-.334l-.83-2.332h1.914v-1H9.78l-.71-2h1.993v-1H8.396a.5.5 0 00-.015-.002zM7 8.998h1.01l.71 2H6.286z" color="#000" fill="#fff" fill-opacity=".5" stroke="#fff" stroke-width="3" stroke-linecap="round" stroke-linejoin="round" stroke-opacity=".5"/>
    <path d="M7.422 1.032a.75.75 0 00-.434.15L1.053 5.65a.75.75 0 00.9 1.2l5.483-4.125 5.353 4.12a.75.75 0 00.914-1.189L7.896 1.19a.75.75 0 00-.474-.157zm.959 6.964a.5.5 0 00-.059.002H3.94v1h1.998l-.714 2h-2.27v1h1.912l-.834 2.33a.5.5 0 10.942.338l.955-2.668h3.148l.95 2.666a.5.5 0 10.943-.334l-.83-2.332h1.914v-1H9.78l-.71-2h1.993v-1H8.396a.5.5 0 00-.015-.002zM7 8.998h1.01l.71 2H6.286z" color="#000"/>
</svg>
