<?xml version="1.0" encoding="UTF-8" standalone="no"?>
<svg width="14" height="14" version="1.0" id="svg451" sodipodi:docname="picnic_shelter.svg" viewBox="-0.3 0 14 14" inkscape:version="1.1.1 (3bf5ae0d25, 2021-09-20)" xmlns:inkscape="http://www.inkscape.org/namespaces/inkscape" xmlns:sodipodi="http://sodipodi.sourceforge.net/DTD/sodipodi-0.dtd" xmlns="http://www.w3.org/2000/svg" xmlns:svg="http://www.w3.org/2000/svg">
  <defs id="defs455" />
  <sodipodi:namedview id="namedview453" pagecolor="#ffffff" bordercolor="#666666" borderopacity="1.0" inkscape:pageshadow="2" inkscape:pageopacity="0.0" inkscape:pagecheckerboard="true" showgrid="false" fit-margin-top="0" fit-margin-left="0" fit-margin-right="0" fit-margin-bottom="0" viewbox-x="-0.3" inkscape:zoom="23.28125" inkscape:cx="9.2348993" inkscape:cy="14.969128" inkscape:window-width="1883" inkscape:window-height="1062" inkscape:window-x="0" inkscape:window-y="0" inkscape:window-maximized="1" inkscape:current-layer="svg451" />
  <path d="M 6.669,0 A 0.75,0.75 0 0 0 6.235,0.15 L 0.3,4.618 A 0.75,0.75 0 0 0 1.2,5.818 L 6.683,1.693 L 12.036001,5.813 A 0.75,0.75 0 0 0 12.950001,4.624 L 7.143,0.158 A 0.75,0.75 0 0 0 6.669,0.001 Z M 7.628,6.964 A 0.5,0.5 0 0 0 7.569,6.966 H 3.187 V 7.966 H 5.185 L 4.471,9.9660003 H 2.201 V 10.966 H 4.113 L 3.279,13.296 A 0.50040184,0.50040184 0 1 0 4.221,13.634 L 5.176,10.966 H 8.324 L 9.2740005,13.632 A 0.50020145,0.50020145 0 1 0 10.217001,13.298 L 9.3870005,10.966 H 11.301001 V 9.9660003 H 9.0270005 L 8.317,7.966 H 10.310001 V 6.966 H 7.643 A 0.5,0.5 0 0 0 7.628,6.964 Z M 6.247,7.966 H 7.257 L 7.967,9.9660003 H 5.533 Z" color="#000000" id="path449" />
</svg>
