<svg width="16.254665" height="16.970552" version="1.0"
  xmlns="http://www.w3.org/2000/svg" xmlns:svg="http://www.w3.org/2000/svg">

  <path
    d="M 8.1810876,1.4999967 A 0.75,0.75 0 0 0 7.7470876,1.6499967 L 1.8120875,6.1179967 A 0.75000001,0.75000001 0 0 0 2.7120876,7.3179967 L 8.1950876,3.1929967 L 13.548087,7.3129967 A 0.75,0.75 0 0 0 14.462087,6.1239967 L 8.6550876,1.6579967 A 0.75,0.75 0 0 0 8.1810876,1.5009967 Z M 9.1400876,8.4639967 A 0.5,0.5 0 0 0 9.0810876,8.4659967 H 4.6990876 V 9.4659967 H 6.6970876 L 5.9830876,11.465997 H 3.7130876 V 12.465997 H 5.6250876 L 4.7910876,14.795997 A 0.50040184,0.50040184 0 1 0 5.7330876,15.133997 L 6.6880876,12.465997 H 9.8360876 L 10.786088,15.131997 A 0.50020121,0.50020121 0 1 0 11.729087,14.797997 L 10.899088,12.465997 H 12.813087 V 11.465997 H 10.539088 L 9.8290876,9.4659967 H 11.822087 V 8.4659967 H 9.1550876 A 0.5,0.5 0 0 0 9.1400876,8.4639967 Z M 7.7590876,9.4659967 H 8.7690876 L 9.4790876,11.465997 H 7.0450876 Z"
  />
</svg>
