<svg xmlns="http://www.w3.org/2000/svg" width="64" height="64">
    <path fill="none" d="M0 0h64v64H0z"/>
    <path d="M4.97.084a.397.397 0 00-.302.18L1.891 4.502a.397.397 0 00.332.615h2.38v2.43A.397.397 0 005 7.943a.397.397 0 00.396-.396v-2.43H7.78a.397.397 0 00.332-.615L5.332.264a.397.397 0 00-.309-.18.397.397 0 00-.052 0zm21.333 0a.397.397 0 00-.301.18l-2.777 4.238a.397.397 0 00.332.615h2.38v2.43a.397.397 0 00.397.396.397.397 0 00.396-.396v-2.43h2.381a.397.397 0 00.332-.615L26.666.264a.397.397 0 00-.31-.18.397.397 0 00-.053 0zm21.334 0a.397.397 0 00-.301.18l-2.78 4.238a.397.397 0 00.333.615h2.38v2.43a.397.397 0 00.399.396.397.397 0 00.396-.396v-2.43h2.381a.397.397 0 00.332-.615L48 .264a.397.397 0 00-.31-.18.397.397 0 00-.053 0zM5 1.205l2.043 3.117H2.957L5 1.205zm21.334 0l2.043 3.117h-4.086l2.043-3.117zm21.334 0l2.043 3.117h-4.086l2.043-3.117zM15.637 8.084a.397.397 0 00-.301.18l-2.78 4.238a.397.397 0 00.333.615h2.38v2.43a.397.397 0 00.399.396.397.397 0 00.396-.396v-2.43h2.381a.397.397 0 00.332-.615L16 8.264a.397.397 0 00-.31-.18.397.397 0 00-.053 0zm21.334 0a.397.397 0 00-.303.18l-2.777 4.238a.397.397 0 00.332.615h2.38v2.43a.397.397 0 00.397.396.397.397 0 00.396-.396v-2.43h2.383a.397.397 0 00.332-.615l-2.779-4.238a.397.397 0 00-.309-.18.397.397 0 00-.052 0zm21.332 0a.397.397 0 00-.301.18l-2.777 4.238a.397.397 0 00.332.615h2.38v2.43a.397.397 0 00.397.396.397.397 0 00.396-.396v-2.43h2.381a.397.397 0 00.332-.615l-2.777-4.238a.397.397 0 00-.31-.18.397.397 0 00-.053 0zM15.668 9.205l2.043 3.117h-4.086l2.043-3.117zm21.332 0l2.043 3.117h-4.086L37 9.205zm21.334 0l2.043 3.117h-4.086l2.043-3.117zM4.971 16.084a.397.397 0 00-.303.18l-2.777 4.238a.397.397 0 00.332.615h2.38v2.43a.397.397 0 00.397.396.397.397 0 00.396-.396v-2.43H7.78a.397.397 0 00.332-.615l-2.779-4.238a.397.397 0 00-.309-.18.397.397 0 00-.052 0zm21.332 0a.397.397 0 00-.301.18l-2.777 4.238a.397.397 0 00.332.615h2.38v2.43a.397.397 0 00.397.396.397.397 0 00.396-.396v-2.43h2.381a.397.397 0 00.332-.615l-2.777-4.238a.397.397 0 00-.31-.18.397.397 0 00-.053 0zm21.334 0a.397.397 0 00-.301.18l-2.78 4.238a.397.397 0 00.333.615h2.38v2.43a.397.397 0 00.399.396.397.397 0 00.396-.396v-2.43h2.381a.397.397 0 00.332-.615L48 16.264a.397.397 0 00-.31-.18.397.397 0 00-.053 0zM5 17.205l2.043 3.117H2.957L5 17.205zm21.334 0l2.043 3.117h-4.086l2.043-3.117zm21.334 0l2.043 3.117h-4.086l2.043-3.117zm-32.031 6.879a.397.397 0 00-.301.18l-2.78 4.238a.397.397 0 00.333.615h2.38v2.43a.397.397 0 00.399.396.397.397 0 00.396-.396v-2.43h2.381a.397.397 0 00.332-.615L16 24.264a.397.397 0 00-.31-.18.397.397 0 00-.053 0zm21.334 0a.397.397 0 00-.303.18l-2.777 4.238a.397.397 0 00.332.615h2.38v2.43a.397.397 0 00.397.396.397.397 0 00.396-.396v-2.43h2.383a.397.397 0 00.332-.615l-2.779-4.238a.397.397 0 00-.309-.18.397.397 0 00-.052 0zm21.332 0a.397.397 0 00-.301.18l-2.777 4.238a.397.397 0 00.332.615h2.38v2.43a.397.397 0 00.397.396.397.397 0 00.396-.396v-2.43h2.381a.397.397 0 00.332-.615l-2.777-4.238a.397.397 0 00-.31-.18.397.397 0 00-.053 0zm-42.635 1.121l2.043 3.117h-4.086l2.043-3.117zm21.332 0l2.043 3.117h-4.086L37 25.205zm21.334 0l2.043 3.117h-4.086l2.043-3.117zM4.971 32.084a.397.397 0 00-.303.18l-2.777 4.238a.397.397 0 00.332.615h2.38v2.43a.397.397 0 00.397.396.397.397 0 00.396-.396v-2.43H7.78a.397.397 0 00.332-.615l-2.779-4.238a.397.397 0 00-.309-.18.397.397 0 00-.052 0zm21.332 0a.397.397 0 00-.301.18l-2.777 4.238a.397.397 0 00.332.615h2.38v2.43a.397.397 0 00.397.396.397.397 0 00.396-.396v-2.43h2.381a.397.397 0 00.332-.615l-2.777-4.238a.397.397 0 00-.31-.18.397.397 0 00-.053 0zm21.334 0a.397.397 0 00-.301.18l-2.78 4.238a.397.397 0 00.333.615h2.38v2.43a.397.397 0 00.399.396.397.397 0 00.396-.396v-2.43h2.381a.397.397 0 00.332-.615L48 32.264a.397.397 0 00-.31-.18.397.397 0 00-.053 0zM5 33.205l2.043 3.117H2.957L5 33.205zm21.334 0l2.043 3.117h-4.086l2.043-3.117zm21.334 0l2.043 3.117h-4.086l2.043-3.117zm-32.031 6.879a.397.397 0 00-.301.18l-2.78 4.238a.397.397 0 00.333.615h2.38v2.43a.397.397 0 00.399.396.397.397 0 00.396-.396v-2.43h2.381a.397.397 0 00.332-.615L16 40.264a.397.397 0 00-.31-.18.397.397 0 00-.053 0zm21.334 0a.397.397 0 00-.303.18l-2.777 4.238a.397.397 0 00.332.615h2.38v2.43a.397.397 0 00.397.396.397.397 0 00.396-.396v-2.43h2.383a.397.397 0 00.332-.615l-2.779-4.238a.397.397 0 00-.309-.18.397.397 0 00-.052 0zm21.332 0a.397.397 0 00-.301.18l-2.777 4.238a.397.397 0 00.332.615h2.38v2.43a.397.397 0 00.397.396.397.397 0 00.396-.396v-2.43h2.381a.397.397 0 00.332-.615l-2.777-4.238a.397.397 0 00-.31-.18.397.397 0 00-.053 0zm-42.635 1.121l2.043 3.117h-4.086l2.043-3.117zm21.332 0l2.043 3.117h-4.086L37 41.205zm21.334 0l2.043 3.117h-4.086l2.043-3.117zM4.971 48.084a.397.397 0 00-.303.18l-2.777 4.238a.397.397 0 00.332.615h2.38v2.43a.397.397 0 00.397.396.397.397 0 00.396-.396v-2.43H7.78a.397.397 0 00.332-.615l-2.779-4.238a.397.397 0 00-.309-.18.397.397 0 00-.052 0zm21.332 0a.397.397 0 00-.301.18l-2.777 4.238a.397.397 0 00.332.615h2.38v2.43a.397.397 0 00.397.396.397.397 0 00.396-.396v-2.43h2.381a.397.397 0 00.332-.615l-2.777-4.238a.397.397 0 00-.31-.18.397.397 0 00-.053 0zm21.334 0a.397.397 0 00-.301.18l-2.78 4.238a.397.397 0 00.333.615h2.38v2.43a.397.397 0 00.399.396.397.397 0 00.396-.396v-2.43h2.381a.397.397 0 00.332-.615L48 48.264a.397.397 0 00-.31-.18.397.397 0 00-.053 0zM5 49.205l2.043 3.117H2.957L5 49.205zm21.334 0l2.043 3.117h-4.086l2.043-3.117zm21.334 0l2.043 3.117h-4.086l2.043-3.117zm-32.031 6.879a.397.397 0 00-.301.18l-2.78 4.238a.397.397 0 00.333.615h2.38v2.43a.397.397 0 00.399.396.397.397 0 00.396-.396v-2.43h2.381a.397.397 0 00.332-.615L16 56.264a.397.397 0 00-.31-.18.397.397 0 00-.053 0zm21.334 0a.397.397 0 00-.303.18l-2.777 4.238a.397.397 0 00.332.615h2.38v2.43a.397.397 0 00.397.396.397.397 0 00.396-.396v-2.43h2.383a.397.397 0 00.332-.615l-2.779-4.238a.397.397 0 00-.309-.18.397.397 0 00-.052 0zm21.332 0a.397.397 0 00-.301.18l-2.777 4.238a.397.397 0 00.332.615h2.38v2.43a.397.397 0 00.397.396.397.397 0 00.396-.396v-2.43h2.381a.397.397 0 00.332-.615l-2.777-4.238a.397.397 0 00-.31-.18.397.397 0 00-.053 0zm-42.635 1.121l2.043 3.117h-4.086l2.043-3.117zm21.332 0l2.043 3.117h-4.086L37 57.205zm21.334 0l2.043 3.117h-4.086l2.043-3.117z" color="#000" fill-rule="evenodd"/>
</svg>
