<svg width="17" height="16.003464" version="1.1"
  xmlns="http://www.w3.org/2000/svg" xmlns:svg="http://www.w3.org/2000/svg">


  <path
    d="M 4.906,1.5034635 C 4.153,1.5504635 3.5,2.2484635 3.5,3.0034635 C 3.5,3.7884635 4.215,4.5034635 5,4.5034635 C 5.785,4.5034635 6.5,3.7874635 6.5,3.0034635 C 6.502,2.1854635 5.722,1.4524635 4.906,1.5034635 Z M 12.906,4.5034635 C 12.153,4.5504635 11.5,5.2484635 11.5,6.0034635 C 11.5,6.7884635 12.215,7.5034635 13,7.5034635 C 13.785,7.5034635 14.5,6.7874635 14.5,6.0034635 C 14.502,5.1854635 13.722,4.4524635 12.906,4.5034635 Z M 4.5,5.0034635 C 3.029,5.0034635 2.634,6.8764635 2.531,7.8784635 L 1.5,7.5034635 V 8.5034635 L 7.469,10.628463 L 6.5,14.503463 H 10.5 L 9.562,11.378463 L 15.5,13.503463 V 12.503463 L 14.562,12.159463 C 14.727,11.298463 15.25,8.0034635 13.5,8.0034635 C 11.862,8.0034635 11.585,10.248463 11.531,11.097463 L 5.594,8.9724635 C 5.785,7.8414635 6.114,5.0034635 4.5,5.0034635 Z"
  />
</svg>
