<?xml version="1.0" encoding="UTF-8" standalone="no"?>
<svg width="14" height="14" version="1.0" id="svg4883" sodipodi:docname="public_transport.svg" inkscape:version="1.1.1 (3bf5ae0d25, 2021-09-20)" xmlns:inkscape="http://www.inkscape.org/namespaces/inkscape" xmlns:sodipodi="http://sodipodi.sourceforge.net/DTD/sodipodi-0.dtd" xmlns="http://www.w3.org/2000/svg" xmlns:svg="http://www.w3.org/2000/svg">
  <defs id="defs4887" />
  <sodipodi:namedview id="namedview4885" pagecolor="#ffffff" bordercolor="#666666" borderopacity="1.0" inkscape:pageshadow="2" inkscape:pageopacity="0.0" inkscape:pagecheckerboard="0" showgrid="false" inkscape:zoom="23.28125" inkscape:cx="15.978523" inkscape:cy="16" inkscape:window-width="1883" inkscape:window-height="1062" inkscape:window-x="0" inkscape:window-y="0" inkscape:window-maximized="1" inkscape:current-layer="svg4883" />
  <path d="M 3.0627461,0 A 0.87494532,0.87494532 0 0 0 2.1878008,0.87494532 V 13.999125 H 3.9376914 V 1.7498906 H 11.812199 V 0 Z M 7.8766952,3.0553091 C 7.5205924,3.0553091 7.2126117,3.1804262 6.953628,3.4315355 A 1.2494219,1.2494219 0 0 0 6.5660271,4.3659771 C 6.5660271,4.7220799 6.694644,5.0300606 6.953628,5.2890445 A 1.2599213,1.2599213 0 0 0 7.8766952,5.6766452 A 1.2599213,1.2599213 0 0 0 8.7997626,5.2890445 A 1.2599213,1.2599213 0 0 0 9.1873634,4.3659771 C 9.1873634,3.9941254 9.0587464,3.6826449 8.7997626,3.4315355 A 1.2809199,1.2809199 0 0 0 7.8766952,3.0553091 Z M 6.3630398,6.1386164 C 5.9474407,6.1386164 5.5930879,6.2471096 5.2999812,6.4667209 C 5.0059996,6.6854572 4.8590089,6.9558153 4.8590089,7.2760453 V 10.07587 C 4.8590089,10.332229 5.0164989,10.461721 5.3314792,10.461721 C 5.6324604,10.461721 5.7812011,10.332229 5.7812011,10.07587 V 7.3407912 H 6.3411661 V 13.517905 C 6.3411661,13.83901 6.5546528,14 6.9842509,14 C 7.4138491,14 7.6290857,13.83901 7.6290857,13.51878 V 9.6130242 H 8.1873009 V 13.517905 C 8.1873009,13.83901 8.4025373,14 8.8321356,14 C 9.2757328,14 9.4979689,13.83901 9.4979689,13.51878 V 7.3407912 H 10.035185 V 10.074995 C 10.035185,10.341854 10.185676,10.476595 10.485782,10.476595 C 10.786763,10.476595 10.937254,10.341854 10.937254,10.07412 V 7.2917943 C 10.937254,6.9829386 10.797263,6.7108306 10.518155,6.48072 C 10.239048,6.2506094 9.8776952,6.1377414 9.433223,6.1377414 H 6.3621648 Z" color="#000000" id="path4881" style="stroke-width:1" />
</svg>
