<svg xmlns="http://www.w3.org/2000/svg" width="32" height="32" version="1.0">
    <path d="M1 0a1 1 0 00-1 1v15h2V2h9V0H1zm5.502 3.492c-.407 0-.759.143-1.055.43a1.428 1.428 0 00-.443 1.068c0 .407.147.759.443 1.055a1.44 1.44 0 001.055.443 1.44 1.44 0 001.055-.443A1.44 1.44 0 008 4.99c0-.425-.147-.781-.443-1.068a1.464 1.464 0 00-1.055-.43zm-1.73 3.524c-.475 0-.88.124-1.215.375-.336.25-.504.559-.504.925v3.2c0 .293.18.441.54.441.344 0 .514-.148.514-.441V8.39h.64v7.06c0 .367.244.551.735.551s.737-.184.737-.55v-4.464h.638v4.463c0 .367.246.551.737.551.507 0 .761-.184.761-.55V8.39h.614v3.125c0 .305.172.459.515.459.344 0 .516-.154.516-.46v-3.18c0-.353-.16-.664-.479-.927-.319-.263-.732-.392-1.24-.392h-3.51z" color="#000" fill="#fff" fill-opacity=".5" stroke="#fff" stroke-width="3" stroke-linecap="round" stroke-linejoin="round" stroke-opacity=".5"/>
    <path d="M1 0a1 1 0 00-1 1v15h2V2h9V0H1zm5.502 3.492c-.407 0-.759.143-1.055.43a1.428 1.428 0 00-.443 1.068c0 .407.147.759.443 1.055a1.44 1.44 0 001.055.443 1.44 1.44 0 001.055-.443A1.44 1.44 0 008 4.99c0-.425-.147-.781-.443-1.068a1.464 1.464 0 00-1.055-.43zm-1.73 3.524c-.475 0-.88.124-1.215.375-.336.25-.504.559-.504.925v3.2c0 .293.18.441.54.441.344 0 .514-.148.514-.441V8.39h.64v7.06c0 .367.244.551.735.551s.737-.184.737-.55v-4.464h.638v4.463c0 .367.246.551.737.551.507 0 .761-.184.761-.55V8.39h.614v3.125c0 .305.172.459.515.459.344 0 .516-.154.516-.46v-3.18c0-.353-.16-.664-.479-.927-.319-.263-.732-.392-1.24-.392h-3.51z" color="#000"/>
</svg>
