<svg version="1.0" width="64" height="64"
  xmlns="http://www.w3.org/2000/svg" xmlns:svg="http://www.w3.org/2000/svg">
  <path
    d="M17.886 13.098c-.832.205-1.971-.198-2.576.568-.204.912.76 1.896 1.683 1.608.954.03 2.084.38 2.9-.283-.119-.879-1.047-1.346-1.69-1.83a.656.656 0 00-.317-.063z"
    fill="none" stroke="#d6cfcf" stroke-width=".959" stroke-linecap="round"
    stroke-linejoin="round" stroke-miterlimit="4" stroke-dasharray="none" stroke-opacity="1"
    style="stroke:#e7e7e7;stroke-opacity:1" />
  <path
    d="M23.514 33.807c-.833.205-1.972-.198-2.576.568-.204.912.759 1.896 1.683 1.608.953.03 2.084.38 2.9-.282-.12-.88-1.048-1.347-1.69-1.832a.656.656 0 00-.317-.062z"
    fill="none" stroke="#d6cfcf" stroke-width=".959" stroke-linecap="round" stroke-linejoin="round"
    stroke-miterlimit="4" stroke-dasharray="none" stroke-opacity="1"
    style="stroke:#e7e7e7;stroke-opacity:1" />
  <path
    d="M35.069 24.127c-.766.184-1.728-.193-2.341.438-.12.843.791 1.548 1.586 1.287.833.024 1.83.344 2.545-.179-.26-.75-1.046-1.204-1.693-1.56-.033.001-.064-.03-.097.013z"
    fill="none" stroke="#d6cfcf" stroke-width=".959" stroke-linecap="round"
    stroke-linejoin="round" stroke-miterlimit="4" stroke-dasharray="none" stroke-opacity="1"
    style="stroke:#e7e7e7;stroke-opacity:1" />
  <path
    d="M19.852 23.838c-.307-.033-.386.196-.107.313.574.245 1.227-.037 1.827.155.478.12.222-.121-.027-.268-.492-.353-1.123-.11-1.693-.2z"
    fill="none" stroke="#d6cfcf" stroke-width=".959" stroke-linecap="round"
    stroke-linejoin="round" stroke-miterlimit="4" stroke-dasharray="none" stroke-opacity="1"
    style="stroke:#e7e7e7;stroke-opacity:1" />
  <path
    d="M39.041 35.9c-.985.167-2.377-.18-2.958.878-.352 1.223.977 2.521 2.2 2.186 1.049.08 2.479.403 3.185-.605.082-1.194-1.165-1.876-2.04-2.414a1.073 1.073 0 00-.387-.045z"
    fill="none" stroke="#d6cfcf" stroke-width=".959" stroke-linecap="round"
    stroke-linejoin="round" stroke-miterlimit="4" stroke-dasharray="none" stroke-opacity="1"
    style="stroke:#e7e7e7;stroke-opacity:1" />
  <path
    d="M30.776 32.1c-.307-.034-.386.195-.107.313.574.244 1.228-.038 1.827.155.478.12.222-.122-.027-.269-.492-.353-1.123-.108-1.693-.2z"
    fill="none" stroke="#d6cfcf" stroke-width=".959" stroke-linecap="round" stroke-linejoin="round"
    stroke-miterlimit="4" stroke-dasharray="none" stroke-opacity="1"
    style="stroke:#e7e7e7;stroke-opacity:1" />
  <path
    d="M12.231 28.348c-.572.134-1.338-.197-1.793.227.126.63.892.72 1.414.592.508.008 1.252.247 1.638.017-.315-.37-.769-.77-1.259-.837z"
    fill="none" stroke="#d6cfcf" stroke-width=".959" stroke-linecap="round"
    stroke-linejoin="round" stroke-miterlimit="4" stroke-dasharray="none" stroke-opacity="1"
    style="stroke:#e7e7e7;stroke-opacity:1" />
  <path
    d="M13.886 44.43c-.572.135-1.338-.196-1.793.227.126.631.892.721 1.414.593.508.008 1.252.246 1.638.016-.315-.37-.769-.769-1.259-.836z"
    fill="none" stroke="#d6cfcf" stroke-width=".959" stroke-linecap="round" stroke-linejoin="round"
    stroke-miterlimit="4" stroke-dasharray="none" stroke-opacity="1"
    style="stroke:#e7e7e7;stroke-opacity:1" />
  <path
    d="M8.948 56.169c-.832.205-1.971-.199-2.576.568-.204.912.76 1.895 1.683 1.607.954.03 2.084.38 2.9-.282-.119-.88-1.047-1.347-1.69-1.831a.656.656 0 00-.317-.062z"
    fill="none" stroke="#d6cfcf" stroke-width=".959" stroke-linecap="round"
    stroke-linejoin="round" stroke-miterlimit="4" stroke-dasharray="none" stroke-opacity="1"
    style="stroke:#e7e7e7;stroke-opacity:1" />
  <path
    d="M20.403 54.24c-.306-.033-.386.197-.107.314.575.244 1.228-.037 1.828.155.477.12.222-.122-.028-.269-.491-.353-1.122-.108-1.693-.2z"
    fill="none" stroke="#d6cfcf" stroke-width=".959" stroke-linecap="round"
    stroke-linejoin="round" stroke-miterlimit="4" stroke-dasharray="none" stroke-opacity="1"
    style="stroke:#e7e7e7;stroke-opacity:1" />
  <path
    d="M9.58 37.015c-.767.184-1.73-.193-2.342.438-.12.844.792 1.548 1.586 1.287.834.024 1.831.344 2.545-.179-.26-.75-1.046-1.204-1.693-1.56-.033.002-.064-.029-.097.014z"
    fill="none" stroke="#d6cfcf" stroke-width=".959" stroke-linecap="round" stroke-linejoin="round"
    stroke-miterlimit="4" stroke-dasharray="none" stroke-opacity="1"
    style="stroke:#e7e7e7;stroke-opacity:1" />
  <path
    d="M51.541 31.053c-.832.205-1.971-.198-2.575.568-.205.912.758 1.896 1.682 1.608.954.03 2.084.38 2.9-.282-.119-.88-1.047-1.347-1.69-1.832a.657.657 0 00-.317-.062z"
    fill="none" stroke="#d6cfcf" stroke-width=".959" stroke-linecap="round" stroke-linejoin="round"
    stroke-miterlimit="4" stroke-dasharray="none" stroke-opacity="1"
    style="stroke:#e7e7e7;stroke-opacity:1" />
  <path
    d="M5.166 16.733c-.986.167-2.378-.18-2.96.878-.35 1.223.978 2.521 2.2 2.186 1.05.08 2.48.403 3.186-.605.082-1.194-1.165-1.876-2.04-2.414a1.071 1.071 0 00-.386-.045z"
    fill="none" stroke="#d6cfcf" stroke-width=".959" stroke-linecap="round" stroke-linejoin="round"
    stroke-miterlimit="4" stroke-dasharray="none" stroke-opacity="1"
    style="stroke:#e7e7e7;stroke-opacity:1" />
  <path
    d="M57.469 55.618c-.986.167-2.377-.18-2.959.878-.351 1.223.978 2.521 2.2 2.186 1.05.08 2.48.403 3.186-.605.082-1.195-1.166-1.876-2.04-2.414a1.074 1.074 0 00-.387-.045z"
    fill="none" stroke="#d6cfcf" stroke-width=".959" stroke-linecap="round" stroke-linejoin="round"
    stroke-miterlimit="4" stroke-dasharray="none" stroke-opacity="1"
    style="stroke:#e7e7e7;stroke-opacity:1" />
  <path
    d="M54.831 50.606c-.306-.034-.386.195-.107.313.575.244 1.228-.037 1.828.155.477.12.221-.121-.028-.268-.492-.353-1.123-.11-1.693-.2z"
    fill="none" stroke="#d6cfcf" stroke-width=".959" stroke-linecap="round"
    stroke-linejoin="round" stroke-miterlimit="4" stroke-dasharray="none" stroke-opacity="1"
    style="stroke:#e7e7e7;stroke-opacity:1" />
  <path
    d="M43.9 56.657c-.572.135-1.338-.196-1.793.228.126.63.892.72 1.414.592.508.008 1.252.247 1.638.017-.315-.37-.77-.77-1.259-.837z"
    fill="none" stroke="#d6cfcf" stroke-width=".959" stroke-linecap="round" stroke-linejoin="round"
    stroke-miterlimit="4" stroke-dasharray="none" stroke-opacity="1"
    style="stroke:#e7e7e7;stroke-opacity:1" />
  <path
    d="M45 46.048c-.766.184-1.728-.193-2.341.437-.12.844.791 1.549 1.586 1.288.833.024 1.83.344 2.545-.18-.26-.75-1.046-1.203-1.693-1.559-.033.001-.064-.03-.097.013z"
    fill="none" stroke="#d6cfcf" stroke-width=".959" stroke-linecap="round" stroke-linejoin="round"
    stroke-miterlimit="4" stroke-dasharray="none" stroke-opacity="1"
    style="stroke:#e7e7e7;stroke-opacity:1" />
  <path
    d="M31.348 49.67c-.832.204-1.971-.199-2.576.568-.204.912.76 1.895 1.683 1.607.954.03 2.084.38 2.9-.282-.119-.88-1.047-1.347-1.69-1.832a.656.656 0 00-.317-.062z"
    fill="none" stroke="#d6cfcf" stroke-width=".959" stroke-linecap="round"
    stroke-linejoin="round" stroke-miterlimit="4" stroke-dasharray="none" stroke-opacity="1"
    style="stroke:#e7e7e7;stroke-opacity:1" />
  <path
    d="M55.072 14.75c-.832.205-1.971-.198-2.575.568-.205.912.759 1.896 1.682 1.608.954.03 2.084.38 2.9-.282-.119-.88-1.047-1.347-1.69-1.832a.656.656 0 00-.317-.062z"
    fill="none" stroke="#d6cfcf" stroke-width=".959" stroke-linecap="round"
    stroke-linejoin="round" stroke-miterlimit="4" stroke-dasharray="none" stroke-opacity="1"
    style="stroke:#e7e7e7;stroke-opacity:1" />
  <path
    d="M50.417 9.849c-.306-.034-.386.195-.107.313.575.244 1.228-.038 1.828.155.477.12.221-.122-.028-.269-.491-.353-1.123-.109-1.693-.2z"
    fill="none" stroke="#d6cfcf" stroke-width=".959" stroke-linecap="round" stroke-linejoin="round"
    stroke-miterlimit="4" stroke-dasharray="none" stroke-opacity="1"
    style="stroke:#e7e7e7;stroke-opacity:1" />
  <path
    d="M42.797 19.205c-.573.134-1.339-.196-1.794.227.127.63.893.72 1.414.592.508.008 1.252.247 1.638.017-.315-.37-.769-.77-1.258-.837z"
    fill="none" stroke="#d6cfcf" stroke-width=".959" stroke-linecap="round" stroke-linejoin="round"
    stroke-miterlimit="4" stroke-dasharray="none" stroke-opacity="1"
    style="stroke:#e7e7e7;stroke-opacity:1" />
  <path
    d="M26.683 2.413c-.986.167-2.378-.18-2.959.878-.351 1.223.978 2.521 2.2 2.186 1.05.08 2.479.403 3.186-.605.081-1.194-1.166-1.876-2.041-2.414a1.068 1.068 0 00-.386-.045z"
    fill="none" stroke="#d6cfcf" stroke-width=".959" stroke-linecap="round" stroke-linejoin="round"
    stroke-miterlimit="4" stroke-dasharray="none" stroke-opacity="1"
    style="stroke:#e7e7e7;stroke-opacity:1" />
  <path
    d="M29.893 8.086c-.306-.033-.386.196-.107.313.575.244 1.228-.037 1.828.155.477.12.221-.121-.028-.268-.492-.354-1.123-.11-1.693-.2z"
    fill="none" stroke="#d6cfcf" stroke-width=".959" stroke-linecap="round" stroke-linejoin="round"
    stroke-miterlimit="4" stroke-dasharray="none" stroke-opacity="1"
    style="stroke:#e7e7e7;stroke-opacity:1" />
  <path
    d="M18.08 5.546c-.573.134-1.34-.197-1.794.227.126.63.893.72 1.414.592.508.008 1.252.247 1.638.017-.315-.37-.769-.77-1.259-.837z"
    fill="none" stroke="#d6cfcf" stroke-width=".959" stroke-linecap="round"
    stroke-linejoin="round" stroke-miterlimit="4" stroke-dasharray="none" stroke-opacity="1"
    style="stroke:#e7e7e7;stroke-opacity:1" />
  <path
    d="M61.114 18.874c-.573.135-1.339-.196-1.793.228.126.63.892.72 1.413.592.508.008 1.253.246 1.638.017-.314-.37-.768-.77-1.258-.837z"
    fill="none" stroke="#d6cfcf" stroke-width=".959" stroke-linecap="round" stroke-linejoin="round"
    stroke-miterlimit="4" stroke-dasharray="none" stroke-opacity="1"
    style="stroke:#e7e7e7;stroke-opacity:1" />
  <path
    d="M5.299 4.98c-.833.204-1.972-.2-2.576.567-.204.912.759 1.896 1.683 1.608.953.03 2.084.38 2.9-.283-.12-.879-1.048-1.346-1.69-1.83a.656.656 0 00-.317-.063z"
    id="path3772-3" fill="none" stroke="#d6cfcf" stroke-width=".959" stroke-linecap="round"
    stroke-linejoin="round" stroke-miterlimit="4" stroke-dasharray="none" stroke-opacity="1"
    style="stroke:#e7e7e7;stroke-opacity:1" />
  <path
    d="M43.295.913c-.986.167-2.377-.18-2.959.878-.351 1.223.978 2.521 2.2 2.186 1.05.08 2.48.403 3.186-.605.081-1.194-1.166-1.876-2.04-2.414a1.073 1.073 0 00-.387-.045z"
    id="path3736-6" fill="none" stroke="#d6cfcf" stroke-width=".959" stroke-linecap="round"
    stroke-linejoin="round" stroke-miterlimit="4" stroke-dasharray="none" stroke-opacity="1"
    style="stroke:#e7e7e7;stroke-opacity:1" />
  <path id="path3782-7"
    d="M60.642 40.124c-.306-.034-.386.195-.107.313.575.244 1.228-.038 1.828.155.477.12.221-.122-.028-.269-.492-.353-1.123-.109-1.693-.2z"
    fill="none" stroke="#d6cfcf" stroke-width=".959" stroke-linecap="round" stroke-linejoin="round"
    stroke-miterlimit="4" stroke-dasharray="none" stroke-opacity="1"
    style="stroke:#e7e7e7;stroke-opacity:1" />
  <path id="path3782-5"
    d="M61.142 1.624c-.306-.034-.386.195-.107.313.575.244 1.228-.038 1.828.155.477.12.221-.122-.028-.269-.492-.353-1.123-.109-1.693-.2z"
    fill="none" stroke="#d6cfcf" stroke-width=".959" stroke-linecap="round" stroke-linejoin="round"
    stroke-miterlimit="4" stroke-dasharray="none" stroke-opacity="1"
    style="stroke:#e7e7e7;stroke-opacity:1" />
</svg>
