<?xml version="1.0" encoding="UTF-8" standalone="no"?>
<svg width="14" height="14" version="1.1" id="svg443" sodipodi:docname="refitted_spring.svg" inkscape:version="1.1.1 (3bf5ae0d25, 2021-09-20)" xmlns:inkscape="http://www.inkscape.org/namespaces/inkscape" xmlns:sodipodi="http://sodipodi.sourceforge.net/DTD/sodipodi-0.dtd" xmlns="http://www.w3.org/2000/svg" xmlns:svg="http://www.w3.org/2000/svg">
  <defs id="defs447" />
  <sodipodi:namedview id="namedview445" pagecolor="#ffffff" bordercolor="#666666" borderopacity="1.0" inkscape:pageshadow="2" inkscape:pageopacity="0.0" inkscape:pagecheckerboard="0" showgrid="false" inkscape:zoom="37.25" inkscape:cx="9.9865772" inkscape:cy="10" inkscape:window-width="1883" inkscape:window-height="1062" inkscape:window-x="0" inkscape:window-y="0" inkscape:window-maximized="1" inkscape:current-layer="svg443" />
  <path d="M 7.0179578,3.487879 A 2.9630684,2.9675488 0 0 0 4.0728474,6.4913981 A 3.0169424,3.0215043 0 0 0 4.2344693,7.4715885 C 2.6900822,9.3150658 3.6059397,10.097419 3.9471415,11.302424 C 4.3063013,12.381533 3.049242,13.100939 2.0615525,14.000196 C 4.9797259,13.550567 5.4556127,12.111756 5.3837807,11.374365 C 5.2939907,10.547048 4.6385241,10.007494 5.4915286,9.0362961 C 5.9943524,9.1981624 6.4612601,9.4769321 7.0179578,9.4769321 A 2.9002154,2.9135934 0 0 0 8.6970299,8.9463703 A 2.9900054,2.9945265 0 0 0 9.9630682,6.4824056 A 2.9630684,2.9675488 0 0 0 7.0179578,3.4968716 Z" fill="#0064ff" id="path439" style="stroke-width:1" />
  <path d="M 2.0615525,4.6928837 L 6.9999998,0.64622629 L 11.938448,4.6928837" fill="none" stroke="#000000" id="path441" style="stroke-width:1" />
</svg>
