<?xml version="1.0" encoding="UTF-8" standalone="no"?>
<svg width="14" height="14" version="1.1" id="svg770" sodipodi:docname="refitted_drinking_spring.svg" inkscape:version="1.1.1 (3bf5ae0d25, 2021-09-20)" xmlns:inkscape="http://www.inkscape.org/namespaces/inkscape" xmlns:sodipodi="http://sodipodi.sourceforge.net/DTD/sodipodi-0.dtd" xmlns="http://www.w3.org/2000/svg" xmlns:svg="http://www.w3.org/2000/svg">
  <defs id="defs774" />
  <sodipodi:namedview id="namedview772" pagecolor="#ffffff" bordercolor="#666666" borderopacity="1.0" inkscape:pageshadow="2" inkscape:pageopacity="0.0" inkscape:pagecheckerboard="0" showgrid="false" inkscape:zoom="37.25" inkscape:cx="9.9865772" inkscape:cy="10" inkscape:window-width="1883" inkscape:window-height="1062" inkscape:window-x="0" inkscape:window-y="0" inkscape:window-maximized="1" inkscape:current-layer="svg770" />
  <path d="M 6.7063866,3.4680516 A 2.981453,2.9755638 0 0 0 3.743003,6.470666 A 3.0356613,3.0296649 0 0 0 3.9056277,7.4535037 C 2.3516582,9.3019595 3.2641636,10.086427 3.6165171,11.231569 C 3.9688707,12.385727 2.7040118,13.080025 1.7192288,13.999745 C 4.6464736,13.476767 5.1343478,12.115221 5.0530354,11.375838 C 4.9626883,10.546287 4.3031548,9.9962585 5.1614519,9.0314545 C 5.6583607,9.1937575 6.1372001,9.4642635 6.6973519,9.4822975 A 2.9272448,2.9214626 0 0 0 8.3778073,8.9412855 A 3.0085572,3.0026143 0 0 0 9.6607358,6.470666 A 2.981453,2.9755638 0 0 0 6.6973519,3.4680516 Z" fill="#0064ff" id="path764" style="stroke-width:1" />
  <path d="M 1.7372982,4.7033614 L 6.7063866,0.64577453 L 11.675475,4.7033614" fill="none" stroke="#000000" id="path766" style="stroke-width:1" />
  <ellipse cx="10.32027" cy="11.466006" fill="#00ff00" id="circle768" style="stroke-width:1" rx="2.2586765" ry="2.254215" />
</svg>
