<svg xmlns="http://www.w3.org/2000/svg" width="20" height="20">
  <path d="M3 7l5.5-4.5L14 7" fill="none" stroke="#fff" stroke-width="3" stroke-linecap="round" stroke-linejoin="round" stroke-opacity=".5"/>
  <path d="M8.52 5.66A3.3 3.3 0 005.24 9a3.36 3.36 0 00.18 1.09c-1.72 2.05-.7 2.92-.32 4.26.4 1.2-1 2-2.1 3 3.25-.5 3.78-2.1 3.7-2.92-.1-.92-.83-1.52.12-2.6.56.18 1.08.49 1.7.49a3.23 3.24 0 001.87-.59 3.33 3.33 0 001.41-2.74 3.3 3.3 0 00-3.28-3.32z" opacity=".5" fill="#0064ff" stroke="#fdfdfd" stroke-width="3" stroke-linecap="round" stroke-linejoin="round"/>
  <path d="M8.52 5.66A3.3 3.3 0 005.24 9a3.36 3.36 0 00.18 1.09c-1.72 2.05-.7 2.92-.32 4.26.4 1.2-1 2-2.1 3 3.25-.5 3.78-2.1 3.7-2.92-.1-.92-.83-1.52.12-2.6.56.18 1.08.49 1.7.49a3.23 3.24 0 001.87-.59 3.33 3.33 0 001.41-2.74 3.3 3.3 0 00-3.28-3.32z" fill="#0064ff"/>
  <path d="M3 7l5.5-4.5L14 7" fill="none" stroke="#000"/>
</svg>
