<svg height="17" width="15" version="1.1"
  xmlns="http://www.w3.org/2000/svg" xmlns:svg="http://www.w3.org/2000/svg">


  <path
    d="M 2,1.5 C 1.75,1.5 1.5,1.75 1.5,2.25 V 8.5 C 1.5,9.5 3.25,9.5 3.25,10.5 L 2.75,15.5 H 5.25 L 4.75,10.5 C 4.75,9.5 6.5,9.5 6.5,8.5 V 2.25 C 6.5,1.25 5.5,1.25 5.5,2.25 V 7.5 C 5.5,8.063 4.5,8.063 4.5,7.5 V 2.25 C 4.5,1.25 3.5,1.25 3.5,2.25 V 7.5 C 3.5,8.027 2.5,8.027 2.5,7.5 V 2.25 C 2.5,1.75 2.25,1.5 2,1.5 Z M 10.5,1.5 C 9.5,1.5 7.5,3.5 7.5,6.5 C 7.5,9.5 9.75,10.5 9.75,10.5 L 9.25,15.5 H 11.75 L 11.25,10.5 C 11.25,10.5 13.5,9.5 13.5,6.5 C 13.5,3.5 11.5,1.5 10.5,1.5 Z"
  />
</svg>
