<svg xmlns="http://www.w3.org/2000/svg" width="64" height="64">
    <path d="M14.545 63.906l-.275.026-.036.068h.57zm24.672-.023l-.233.117h.588l-.006-.041zm-15.847-.166l-.35.174-.055.109h.78l-.026-.209zm23.915-.082l-.326.273.027.092h.657l-.082-.14zm9.502-.614l-.275.026-.15.3.025.376.375.1.275-.1.174-.25-.148-.35zm-15.828-.025l-.35.174-.125.25.176.226.35.25.199-.175.15-.225-.05-.426zM29.61 62.98l-.301.375.1.5.474.145h.125l.326-.445-.176-.524zm23.03-.322l-.3.375.101.5.575.176.35-.475-.175-.525zm-14.859-.028l-.299.1-.175.375.25.325.35-.024.25-.2-.024-.425zm-32.193-.015l-.324.276.074.25-.049.324.299.201.326-.15.125-.375-.176-.301zm17.203-.041l-.3.475.349.424.576-.174-.05-.576zm35.589-.043l-.298.475.35.426.574-.176-.049-.574zm-31.878-.099l-.35.173-.125.25.174.227.352.25.199-.176.15-.224-.05-.426zm-7.592-.252l-.3.375.1.5.575.175.35-.474-.174-.526zm14.881-.012l-.3.475.349.423.576-.173-.05-.577zM64 62.08l-.031.063.023.375.008.002zm-47.863-.068l-.3.101-.175.375.25.325.35-.026.25-.2-.026-.425zm15.049-.028l-.3.375.1.5.575.176.35-.476-.175-.524zM8.98 61.977l-.275.025-.148.299.023.375.375.1.275-.1.176-.25-.15-.35zm5.188-.155l-.324.276.074.25-.049.324.299.2.326-.15.125-.374-.176-.301zM.393 61.818l-.276.024L0 62.08v.44l.367.097.276-.1.175-.25-.15-.349zm42.707-.246l-.35.176-.125.25.176.225.35.25.199-.174.15-.227-.049-.424zm6.822-.056l-.326.273.076.25-.05.326.3.2.324-.15.125-.376-.176-.299zm11.881-.012l-.324.275.074.25-.05.325.3.2.326-.15.125-.375-.176-.3zm-51.603-.1l-.302.475.35.424.576-.174-.05-.576zM47.533 61l-.324.275.074.25-.049.325.3.2.325-.15.125-.375-.175-.3zm-25.021-.705l-.35.174-.125.25.176.226.35.25.199-.175.15-.225-.049-.426zm2.181-.219l-.3.375.1.5.575.176.35-.475-.176-.525zm38.594-.586l-.273.026-.15.298.025.375.375.1.273-.1.176-.25-.15-.35zm-27.238-.027l-.326.275.076.25-.051.325.3.2.325-.15.125-.375-.176-.3zm3.154-.016l-.35.176-.124.25.175.225.35.25.2-.176.15-.225-.051-.426zm10.641-.029l-.35.176-.125.25.176.224.35.25.199-.173.15-.227-.05-.424zm9.818-.152l-.324.275.074.25-.05.326.3.2.324-.151.125-.375-.173-.299zm-2.568-.168l-.35.175-.125.25.176.225.35.25.199-.176.15-.224-.05-.424zm-23.75-.02l-.276.026-.15.3.025.375.375.1.276-.1.176-.25-.15-.351zm7.599-.125l-.324.276.074.25-.05.324.3.199.325-.148.125-.375-.174-.301zm-35.045-.148l-.275.025-.15.3.025.376.375.1.09-.034.326.399.576-.176-.05-.574-.569-.149-.072-.168zm12.006-.123l-.299.375.1.5.574.175.35-.476-.174-.524zm12.209-.198l-.326.274.076.25-.05.326.3.2.325-.151.125-.375-.176-.299zm16.827-.086l-.3.1-.175.375.25.324.35-.023.25-.201-.026-.424zm5.205-.027l-.301.375.101.5.575.176.35-.475-.175-.525zm-8.105-.096l-.276.026-.15.3.025.376.375.1.275-.1.174-.25-.15-.352zm-32.483-.011l-.276.023-.15.3.025.376.375.1.276-.1.173-.25-.15-.35zm.951-.026l-.301.475.35.426.576-.176-.051-.574zM1.154 57.89l-.3.475.351.426.574-.176-.05-.574zm19.912-.01l-.326.276.076.25-.05.324.3.202.325-.15.125-.376-.176-.3zm34.984-.64l-.298.375.1.5.574.176.351-.475-.175-.525zm-43.823-.033l-.301.475.351.423.575-.173-.051-.577zm4.978-.014l-.275.026-.15.3.025.376.375.1.275-.1.174-.25-.149-.352zm14.185-.134l-.349.173-.125.25.176.227.35.25.199-.176.15-.224-.049-.426zm-6.658-.032l-.35.176-.124.25.174.225.35.25.2-.176.15-.225-.05-.425zm17.828-.023l-.324.275.075.25-.05.325.3.2.326-.15.125-.375-.176-.3zm-32.019-.248l-.3.101-.175.375.25.325.35-.026.25-.199-.025-.426zm-8.967-.16l-.3.474.349.426.576-.176-.05-.574zm26.352-.406l-.301.1-.174.374.25.324.35-.025.25-.2-.026-.425zm-21.697-.112l-.301.375.1.5.576.176.35-.477-.177-.523zm48.078-.148l-.3.474.35.426.575-.176-.05-.574zm6.23-.1l-.275.024-.15.3.025.375.375.1.275-.1.174-.25-.148-.35zm-16.879-.078l-.324.275.074.25-.049.325.3.2.325-.15.125-.375-.175-.3zm-24.788-.195l-.3.476.35.424.574-.174-.049-.576zm27.53-.106l-.35.176-.124.25.176.225.35.25.198-.176.15-.225-.048-.426zm4.348-.383l-.299.477.35.424.574-.174-.049-.576zm-13.783-.06l-.352.176-.125.25.176.224.35.25.2-.176.15-.224-.05-.424zm-15.248-.018l-.276.024-.15.3.025.375.375.1.276-.1.174-.25-.149-.35zm41.42-.117l-.325.275.075.25-.05.327.3.199.326-.15.125-.376-.176-.298zm-59.799-.299l-.276.026-.148.3.023.375.376.1.275-.1.176-.25-.15-.351zm30.982-.222l-.326.275.076.25-.05.326.3.2.325-.151.125-.375-.174-.299zm15.26-.162l-.3.374.099.5.576.176.35-.474-.176-.526zm-41.744-.032l-.275.026-.15.3.025.375.375.1.275-.1.176-.25-.15-.351zm13.086-.718l-.274.023-.15.3.025.376.375.1.274-.1.176-.25-.15-.35zm12.051-.118l-.35.174-.125.25.174.225.351.25.2-.174.15-.225-.05-.426zm29.701-.049l-.276.026-.148.299.023.375.375.1.276-.1.176-.25-.15-.35zm-51.432-.007l-.275.025-.149.3.024.376.375.1.275-.1.176-.25-.15-.352zm13.432-.022l-.301.1-.174.375.25.324.35-.025.25-.2-.026-.425zm-20.403-.39l-.3.375.1.5.575.175.35-.474-.176-.526zm9.946-.159l-.276.026-.148.299.023.375.375.1.276-.1.176-.25-.15-.35zm29.707-.031l-.299.375.1.5.574.174.351-.475-.175-.525zm-20.492-.104l-.327.276.077.25-.051.324.3.201.325-.15.125-.375-.176-.3zm22.691-.255l-.3.375.099.5.576.175.35-.476-.176-.524zm12.902-.18l-.298.475.35.425.573-.175-.048-.575zm-5.298-.018l-.325.276.075.25-.05.324.3.201.326-.15.125-.375-.176-.301zM0 51.959v.86l.03.035.574-.176-.05-.574zm63.979-.006l-.3.475.321.39v-.859zm-29.885-.111l-.324.275.074.25-.051.326.3.2.325-.15.125-.376-.174-.299zm8.183-.008l-.298.102-.176.375.25.324.35-.026.25-.199-.026-.426zm-24.324-.15l-.3.375.1.5.575.175.35-.474-.174-.526zm39.197-.02l-.35.176-.124.25.174.224.35.25.2-.175.15-.225-.05-.426zm-19.377-.131l-.35.176-.124.25.176.225.35.25.198-.174.15-.227-.05-.424zm-9.527-.246l-.326.274.076.25-.05.326.3.199.324-.15.125-.375-.174-.3zm1.506-.195l-.35.176-.125.25.174.224.35.25.201-.176.15-.224-.05-.424zm-20.809-.028l-.35.176-.124.25.174.225.35.25.2-.176.15-.225-.05-.425zm13.969-.005l-.299.1-.175.374.25.326.35-.025.25-.2-.026-.425zm-2.807-.163l-.298.475.35.426.573-.176-.048-.574zm13.04-.074l-.35.176-.125.25.176.225.35.25.199-.176.15-.225-.049-.424zm-6.239-.242l-.3.1-.174.375.25.324.35-.024.25-.2-.026-.425zm31.481-.123l-.276.025-.148.301.023.375.375.1.276-.1.175-.25-.15-.351zm-42.889-.07l-.275.023-.15.3.025.376.375.1.275-.1.174-.25-.15-.35zm25.129-.1l-.3.475.349.425.576-.175-.05-.575zm-37.459-.166l-.3.477.349.423.576-.173-.05-.577zm47.297-.049l-.326.276.076.25-.05.324.3.201.324-.15.125-.375-.174-.301zm-15.151-.15l-.3.1-.174.374.25.325.35-.026.25-.199-.026-.426zm8.344-.174l-.3.1-.174.375.25.324.35-.024.25-.2-.026-.425zm10.824-.004l-.324.276.074.25-.05.324.3.199.325-.148.125-.375-.174-.301zm3.2-.336l-.327.274.077.25-.051.326.3.199.325-.15.125-.375-.176-.3zm-46.812-.16l-.302.375.102.5.574.176.35-.475-.174-.525zm3.552-.102l-.324.276.074.25-.049.324.299.201.326-.15.125-.375-.176-.3zm33.824-.072l-.3.475.349.426.576-.176-.05-.574zm13.734-.184l-.324.276.074.25-.05.324.3.2.325-.149.125-.375-.174-.3zm-23.49-.29l-.299.375.1.5.574.175.352-.474-.176-.526zm-35.431-.012l-.325.275.075.25-.051.325.3.199.325-.149.125-.375-.174-.3zm5.089-.578l-.275.025-.15.3.025.376.375.1.275-.1.174-.25-.15-.35zm48.532-.127l-.325.275.075.25-.05.324.3.202.326-.15.125-.376-.176-.3zM1.9 47.797l-.326.275.076.25-.05.324.3.2.325-.149.125-.375-.174-.3zm28.233-.068l-.301.1-.174.374.25.326.35-.025.25-.2-.026-.425zm32.777-.083l-.35.176-.124.25.173.225.35.25.201-.176.15-.225-.05-.425zm-31.418-.171l-.326.275.076.25-.05.324.3.2.324-.149.125-.375-.173-.3zM20.99 47.44l-.299.374.1.5.574.176.35-.474-.174-.526zm-16.73-.008l-.3.1-.175.374.25.324.35-.023.25-.201-.026-.424zm55.988-.203l-.3.474.349.426.576-.176-.05-.574zm-21.035-.186l-.3.375.099.5.576.174.35-.475-.176-.525zm-5.053-.111l-.299.375.1.5.574.175.35-.474-.174-.526zm-7.904-.052l-.299.1-.176.375.25.325.35-.026.25-.199-.026-.426zm-14.697-.02l-.301.474.35.426.576-.176-.051-.574zm34.488-.208l-.3.375.099.5.576.176.35-.474-.176-.526zm7.396-.006l-.3.475.35.426.575-.176-.05-.574zm-30.863-.191l-.324.274.074.25-.049.326.3.199.325-.15.125-.375-.176-.3zm-5.66-.482l-.3.375.1.5.575.173.35-.474-.174-.526zm-4.055-.17l-.299.474.35.426.574-.176-.049-.574zm29.192-.112l-.3.1-.175.375.25.326.35-.025.25-.2-.026-.425zm8.619-.238l-.35.176-.125.25.176.225.35.25.199-.176.15-.225-.049-.426zm-7.604-.101l-.326.273.076.25-.05.326.3.2.324-.151.125-.375-.173-.299zm-36.295-.539l-.275.025-.148.299.023.375.375.1.275-.1.176-.25-.15-.35zm55.702-.023l-.301.374.1.5.576.174.35-.475-.177-.525zm-8.047-.157l-.3.474.35.426.575-.176-.05-.574zM9.393 44.62l-.3.099-.175.375.25.326.35-.025.25-.202-.026-.423zm7.082-.257l-.301.102-.176.375.25.324.352-.025.25-.2-.026-.425zm2.849-.056l-.273.023-.15.3.025.376.375.1.273-.1.176-.25-.15-.35zM64 44.127l-.02.041.02.025zm-33.842-.135l-.275.026-.15.298.025.375.375.102.275-.102.174-.25-.15-.35zm3.414-.269l-.3.375.1.5.575.175.35-.474-.176-.526zM.457 43.691l-.3.102-.157.334v.066l.23.3.352-.026.25-.2-.025-.425zm37.272-.207l-.325.276.075.25-.051.324.3.201.325-.15.125-.375-.174-.301zm-15.491-.009l-.299.474.35.426.574-.176-.049-.574zm-16.25-.088l-.324.275.074.25-.05.324.3.202.324-.15.125-.376-.173-.3zm34.918-.097l-.3.374.1.5.575.176.35-.477-.176-.523zm-26.871-.067l-.35.173-.124.25.173.227.35.25.201-.176.15-.224-.05-.426zm32.572-.075l-.298.475.35.426.573-.176-.048-.574zm3.045-.183l-.326.275.076.25-.05.324.3.202.325-.15.125-.376-.174-.3zm6.108-.015l-.3.099-.175.375.25.324.35-.025.25-.2-.026-.425zm-29.631-.083l-.324.274.074.25-.049.326.299.199.326-.15.125-.375-.176-.3zm34.275-.224l-.275.025-.15.299.025.375.375.1.275-.1.174-.25-.15-.35zm-27.271-.113l-.276.025-.15.3.025.375.375.1.276-.1.176-.25-.15-.351zm9.771-.036l-.299.1-.175.375.25.324.35-.023.25-.202-.026-.423zm1.492-.92l-.326.276.076.25-.05.324.3.201.325-.15.125-.375-.174-.301zm-2.626-.044l-.301.474.35.426.576-.176-.051-.574zm-39.948-.108l-.299.1-.175.374.25.327.35-.026.25-.199-.024-.426zm55.068-.221l-.349.176-.125.25.176.225.35.25.199-.176.15-.225-.049-.426zm-26.415-.156l-.327.275.077.25-.051.325.3.2.325-.15.125-.375-.176-.3zm-13.505-.004l-.3.475.35.425.576-.175-.051-.575zm16.786-.125l-.276.025-.15.301.025.375.375.1.276-.1.174-.25-.15-.351zm14.558-.031l-.35.176-.124.25.174.224.351.25.2-.176.15-.224-.05-.424zm-40.425-.098l-.301.375.101.5.575.176.35-.475-.175-.525zm31.363-.045l-.275.026-.149.3.024.375.375.1.275-.1.176-.25-.15-.351zm-20.782-.056l-.3.375.1.5.576.173.35-.474-.176-.526zm35.903-.19l-.3.1-.175.375.25.326.35-.026.25-.2-.025-.425zm-43.15-.033l-.327.273.077.25-.051.327.3.199.325-.15.125-.376-.174-.298zm48.043-.147l-.325.276.075.25-.05.324.3.201.326-.15.125-.375-.176-.301zm-27.883-.082l-.274.026-.15.299.025.375.375.101.274-.101.176-.25-.15-.35zm30.013-.105l-.3.475.35.425.575-.175-.05-.575zM4.053 40.02l-.35.173-.125.25.176.225.35.25.199-.174.15-.224-.05-.426zm45.877-.364l-.301.475.35.426.576-.176-.051-.574zm-24.49-.033l-.301.475.351.425.574-.175-.05-.575zm-10.944-.09l-.299.475.35.424.574-.174-.049-.576zm7.959-.418l-.326.274.076.25-.05.326.3.2.324-.151.125-.375-.174-.3zm-18.549-.22l-.3.375.1.5.575.175.35-.476-.176-.524zm4.6-.157l-.35.176-.125.25.176.225.35.25.199-.176.15-.225-.05-.425zm1.392-.011l-.275.025-.15.299.025.375.375.101.275-.101.174-.25-.15-.35zm9.829-.159l-.327.274.077.25-.051.326.3.2.325-.151.125-.375-.174-.299zm33.619-.093l-.325.275.075.25-.05.324.3.201.326-.15.125-.375-.176-.3zm-21.286-.27l-.275.025-.15.3.025.374.375.102.276-.102.175-.25-.15-.35zm19.215-.203l-.35.174-.124.25.176.224.35.25.198-.173.15-.225-.048-.426zm-11.13-.117l-.325.275.075.25-.05.324.3.2.326-.149.125-.375-.176-.3zm-37.346-.25l-.299.101-.176.375.25.325.35-.026.25-.2-.026-.425zm52.769-.362l-.3.475.35.426.575-.176-.05-.574zm3.246-.031l-.275.026-.15.298.025.375.375.102.275-.102.176-.25-.15-.35zM28.01 37.14l-.3.1-.175.375.25.326.35-.025.25-.2-.026-.425zm33.523-.105l-.299.375.1.5.574.176.35-.475-.174-.525zm-35.393-.078l-.275.025-.15.3.025.374.375.102.276-.102.175-.25-.15-.35zm18.489-.057l-.324.276.074.25-.05.324.3.201.324-.15.125-.375-.174-.301zm-10.272-.238l-.275.026-.15.298.025.375.375.102.275-.102.176-.25-.15-.35zm12.901-.025l-.35.174-.125.25.174.226.35.25.2-.176.151-.224-.05-.426zm-33.422-.168l-.299.474.35.426.574-.176-.049-.574zm3.867-.002l-.351.176-.125.25.175.224.35.25.201-.174.149-.226-.05-.424zm4.744-.069l-.3.477.35.424.575-.174-.05-.576zm14.668-.117l-.275.026-.15.298.025.375.375.102.275-.102.174-.25-.15-.35zm12.08-.345l-.299.1-.175.374.25.326.35-.025.25-.201-.024-.424zm-23.972 0l-.3.474.35.424.575-.174-.05-.576zm-3.506-.258l-.301.1-.176.374.25.327.352-.026.25-.201-.026-.424zm34.545-.01l-.3.375.1.5.575.176.351-.475-.175-.525zm-3.043-.08l-.35.174-.125.25.176.224.35.25.199-.173.15-.225-.049-.426zM7.428 35.25l-.35.174-.125.25.174.226.352.25.199-.175.15-.225-.05-.426zm-3.604-.209l-.35.176-.124.25.173.224.35.25.201-.175.15-.225-.05-.424zm30.764-.004l-.276.026-.15.3.026.375.374.1.276-.1.174-.25-.15-.35zm-20.223-.043l-.275.026-.15.3.025.375.375.1.275-.1.174-.25-.15-.351zm27.184-.18l-.299.375.1.5.574.176.35-.474-.174-.526zm4.519-.191l-.3.475.351.425.574-.175-.05-.575zm15.802-.06l-.325.275.074.25-.049.324.3.201.325-.15.125-.375-.175-.3zm-60.243-.151l-.324.276.074.25-.049.324.299.2.326-.15.125-.374-.176-.301zm30.881-.004l-.301.375.1.5.576.174.35-.475-.176-.525zm26.4-.068l-.299.1-.175.374.25.327.35-.026.25-.2-.024-.425zm-38.832-.067l-.275.026-.15.3.025.376.375.1.275-.1.176-.25-.15-.35zm16.922-.048l-.35.175-.125.25.176.225.35.25.199-.176.15-.224-.048-.426zm-26.193-.33l-.325.275.075.25-.051.326.3.2.325-.151.125-.375-.174-.299zm6.877-.057l-.3.474.35.424.575-.173-.05-.577zm12.132-.502l-.3.1-.174.375.25.326.35-.026.25-.199-.026-.426zm14.022-.076l-.299.375.1.5.574.176.352-.477-.176-.523zm-8.555-.28l-.3.102-.176.375.25.324.351-.025.25-.2-.025-.425zm26.829-.431l-.3.474.35.426.574-.176-.048-.574zm-51.188-.004l-.326.275.076.25-.05.325.3.2.324-.15.125-.375-.174-.3zm15.728-.01l-.35.176-.124.25.174.225.351.25.2-.176.15-.225L27 32.61zm-20.648-.193l-.35.174-.125.25.176.224.35.25.199-.174.15-.224-.05-.426zm37.808-.061l-.298.1-.176.375.25.324.35-.025.25-.2-.024-.425zm16.913-.021l-.3.1-.175.374.25.325.35-.026.25-.199-.026-.426zm-59.702-.207l-.298.375.1.5.573.176.352-.475-.176-.525zm37.125-.01l-.3.1-.176.375.25.326.351-.026.25-.2-.025-.425zm-5.304-.168l-.299.1-.176.375.25.324.35-.024.25-.2-.024-.425zm-9.569-.172l-.298.375.1.5.573.174.352-.475-.176-.525zm23.827-.14l-.301.375.1.5.576.173.35-.474-.177-.526zm-39.856-.088l-.324.275.074.25-.049.324.3.2.325-.149.125-.375-.175-.3zm11.476-.024l-.275.026-.15.3.025.375.375.1.276-.1.175-.25-.15-.35zm33.561-.071l-.3.376.1.5.575.174.35-.475-.176-.525zm-35.101-.161l-.326.275.076.25-.051.324.3.2.325-.149.125-.375-.174-.3zm24.23-.037l-.275.025-.15.3.025.376.375.1.275-.1.174-.25-.148-.352zm8.422-.078l-.299.476.35.424.574-.174-.049-.576zm6.104-.301l-.35.176-.125.25.174.224.351.25.2-.176.15-.224-.05-.426zm-43-.045l-.3.1-.175.374.25.327.35-.026.25-.201-.024-.424zm16.789-.362l-.325.276.075.25-.05.324.3.201.326-.15.125-.375-.176-.3zM64 29.875l-.219.275.1.5.119.036zm-37.965-.085l-.3.099-.176.375.25.326.351-.026.25-.2-.025-.425zM.08 29.775l-.08.1v.81l.455.14.35-.475-.174-.526zm33.236-.017l-.3.1-.174.374.25.325.35-.024.25-.201-.026-.424zm-14.525-.248l-.3.375.099.5.576.176.35-.475-.176-.525zm-13.648-.155l-.276.026-.148.299.023.375.375.101.276-.101.175-.25-.15-.35zm9.887-.064l-.3.1-.175.375.25.326.35-.026.25-.2-.026-.425zm12.945-.074l-.325.275.075.25-.05.324.3.202.326-.15.125-.376-.176-.3zm15.255-.007l-.3.376.1.5.575.176.35-.477-.176-.523zm-9.064-.013l-.3.1-.175.375.25.324.35-.023.25-.202-.025-.423zm19.098-.187l-.301.474.35.426.576-.176-.051-.574zm-11.614-.053l-.35.176-.124.25.174.224.35.25.2-.175.15-.225-.05-.424zm19.541-.096l-.298.475.35.426.573-.176-.048-.574zm-24.443-.312l-.3.375.099.5.576.176.35-.477-.176-.523zm-28.06-.033l-.276.025-.148.3.023.376.375.1.275-.1.176-.25-.15-.352zm50.916-.006l-.3.476.35.424.575-.174-.05-.576zm-13.106-.016l-.35.174-.125.25.174.225.352.25.199-.174.15-.225-.05-.426zm3.532-.019l-.301.375.1.5.575.175.35-.474-.176-.526zm-34.182-.325l-.301.1-.174.375.25.324.35-.023.25-.201-.026-.424zm-5.18-.334l-.299.1-.176.375.25.324.35-.025.25-.2-.025-.425zm12.703-.099l-.275.023-.15.301.025.375.375.1.275-.1.174-.25-.15-.35zm32.32-.514l-.3.475.35.426.575-.176-.05-.574zm-51.759-.281l-.301.1-.176.374.25.327.352-.026.25-.2-.026-.425zm54.368-.207l-.3.375.1.5.576.176.35-.477-.176-.523zm-48.51-.088l-.302.477.35.423.576-.173-.05-.577zm52.425-.342l-.352.176-.125.25.176.225.35.25.2-.176.15-.225-.05-.424zm-16.908-.521l-.35.175-.125.25.176.225.35.25.199-.176.15-.224-.05-.426zm-19.325-.054l-.298.1-.176.376.25.324.35-.026.25-.199-.026-.426zm21.116-.032l-.352.176-.125.25.176.224.35.25.2-.176.15-.224-.05-.424zm2.189-.073l-.35.174-.124.25.173.227.352.25.2-.176.15-.225-.051-.425zm-15.773-.078l-.3.475.35.426.575-.176-.05-.574zm4.631-.14l-.35.174-.125.25.174.226.35.25.2-.176.15-.224-.05-.426zM2.39 25.309l-.3.101-.174.375.25.324.35-.025.25-.2-.026-.425zm37.815-.131l-.3.101-.175.375.25.325.35-.026.25-.2-.025-.425zm-27-.188l-.3.475.349.426.576-.176-.05-.574zm-6.039-.076l-.3.1-.177.375.25.324.352-.026.25-.199-.025-.425zm21.721-.07l-.3.476.35.424.575-.174-.05-.576zm23.283-.028l-.3.1-.175.375.25.324.35-.023.25-.201-.025-.424zm-29.816-.107l-.35.176-.125.25.174.224.35.25.2-.175.15-.225-.05-.424zm-3.372-.066l-.275.023-.15.3.025.376.375.1.275-.1.176-.25-.15-.35zm-2.464-.006l-.325.275.075.25-.05.324.3.201.326-.15.125-.375-.176-.3zm14.914-.022l-.35.176-.125.25.176.225.35.25.199-.174.15-.227-.049-.424zm24.788-.429l-.298.1-.176.374.25.324.35-.025.25-.2-.024-.425zm-6.982-.528l-.35.176-.124.25.175.225.35.25.2-.176.15-.225-.051-.426zm-39.726-.215l-.3.1-.175.375.25.324.35-.023.25-.201-.024-.424zm24.779-.029l-.275.025-.15.3.025.374.375.102.275-.102.174-.25-.149-.35zm3.277-.104l-.35.176-.124.25.176.225.35.25.198-.174.15-.226-.05-.424zm-9.242-.113l-.3.375.099.5.576.174.35-.475-.176-.525zm14.141-.007l-.324.275.074.25-.049.324.299.201.326-.15.125-.375-.176-.3zm11.947-.34l-.35.175-.125.25.174.225.35.25.201-.176.15-.224-.05-.424zm-37.549-.137l-.324.275.074.25-.049.325.3.199.325-.149.125-.375-.175-.3zm43.512-.108l-.3.375.099.5.576.174.35-.474-.176-.526zM2.05 22.553l-.325.275.076.25-.051.324.3.202.325-.15.125-.376-.174-.3zm43.571-.033l-.326.273.076.25-.05.326.3.2.324-.151.125-.375-.174-.299zm-31.834-.004l-.299.375.1.5.574.173.35-.474-.174-.526zm-7.943-.078l-.324.275.074.25-.05.324.3.2.326-.15.125-.374-.176-.3zm20.106-.135l-.302.1-.175.374.25.325.351-.026.25-.199-.025-.426zm-19.16-.074l-.3.1-.176.374.25.324.35-.025.25-.2-.023-.425zm50.987-.09l-.326.275.076.25-.05.326.3.2.325-.15.125-.376-.174-.299zm-36.087-.196l-.301.375.101.5.574.176.35-.476-.174-.524zM0 21.93v.697l.123-.045.176-.25-.15-.35zm63.873-.047l-.275.025-.15.299.025.375.375.1.152-.055v-.697zm-17.109-.02l-.35.176-.125.25.176.225.35.25.199-.174.15-.227-.05-.424zm-27.401-.258l-.351.176-.125.25.175.225.35.25.201-.176.149-.225-.05-.425zm13.107-.148l-.349.174-.125.25.174.226.35.25.2-.175.151-.225-.05-.426zm13.78-.898l-.35.173-.125.25.176.225.35.25.199-.174.15-.224-.048-.426zm-16.48-.315l-.3.475.35.426.575-.176-.05-.574zm2.623-.078l-.35.174-.125.25.176.226.35.25.199-.175.15-.225-.049-.426zm-10.788-.014l-.298.1-.176.375.25.326.35-.025.25-.2-.026-.425zm-15.822-.068l-.299.102-.175.375.25.324.35-.026.25-.199-.024-.426zm38.795-.256l-.299.375.1.5.574.174.352-.475-.176-.525zm15.916-.098l-.35.176-.124.25.175.225.35.25.2-.176.15-.225-.051-.423zm-21.539-.072l-.35.176-.125.25.176.225.35.25.2-.174.15-.227-.051-.424zm18.125-.179l-.299.474.35.426.574-.176-.049-.574zm-7.807-.059l-.3.375.1.5.575.176.35-.475-.176-.525zm-32.017-.022l-.3.1-.175.375.25.324.35-.023.25-.201-.026-.424zm45.682-.043l-.274.024-.15.3.025.376.375.1.273-.1.176-.25-.15-.35zm-60.504-.041l-.325.274.075.25-.05.326.3.2.326-.151.125-.375-.176-.299zm39.455-.014l-.3.376.1.5.575.174.351-.475-.176-.525zm-16.676-.228l-.274.026-.15.3.025.375.375.1.274-.1.176-.25-.15-.35zm-13.438-.14l-.3.375.1.5.575.175.35-.474-.176-.526zm6.845-.127l-.352.174-.125.25.175.226.35.25.201-.176.149-.224-.05-.426zm-9.85-.166l-.352.174-.125.25.176.224.35.25.2-.174.149-.224-.049-.426zm26.714-.289l-.275.025-.148.3.023.376.375.1.275-.1.176-.25-.15-.35zm-20.994-.237l-.35.174-.124.25.173.225.352.25.2-.174.15-.225-.051-.425zm39.274-.025l-.325.275.075.25-.05.325.3.2.326-.15.125-.375-.176-.3zm-12.578-.637l-.276.026-.148.3.023.375.375.1.276-.1.175-.25-.15-.35zm1.761-.238l-.275.025-.15.3.025.374.375.102.275-.102.174-.25-.15-.35zm-34.74-.106l-.299.475.35.424.574-.174-.049-.576zm48.413-.197l-.276.024-.15.3.025.375.375.1.275-.1.176-.25-.15-.35zm1.755-.015l-.299.1-.176.374.25.326.35-.025.25-.2-.025-.425zm-11.685-.11l-.274.024-.15.3.025.375.375.1.273-.1.176-.25-.15-.35zm-40.98-.037l-.325.275.076.25-.05.327.3.199.324-.15.125-.376-.176-.298zm56.526-.014l-.273.026-.15.299.025.375.375.101.273-.101.176-.25-.15-.35zm-23.3-.027l-.3.375.1.5.575.176.351-.475-.176-.525zm-10.331-.219l-.3.1-.176.375.25.326.351-.025.25-.201-.025-.424zm4.535-.123l-.3.475.35.426.123-.037.019.097.576.176.35-.475-.176-.525-.549-.05-.012.013zm-9.792-.06l-.301.474.35.424.576-.174-.051-.576zm-11.461-.225l-.3.1-.175.375.25.324.35-.024.25-.2-.026-.425zm7.537-.146l-.301.375.1.5.576.175.35-.474-.176-.526zm34.933-.324l-.326.275.076.25-.05.324.3.2.325-.15.125-.374-.176-.301zm-4.537-.17l-.35.175-.124.25.175.225.35.25.2-.176.15-.225-.051-.423zm-23.4-.086l-.275.025-.15.299.025.375.375.1.275-.1.174-.25-.149-.35zM.988 15.342l-.35.176-.124.25.175.224.35.25.2-.174.15-.226-.05-.424zm16.489-.158l-.276.025-.148.3.023.376.375.1.276-.1.175-.25-.15-.35zm-3.082-.18l-.276.025-.15.3.025.374.375.102.276-.102.173-.25-.15-.35zM.79 14.377l-.3.475.35.425.574-.175-.049-.575zm52.9-.051l-.35.174-.125.25.176.225.35.25.198-.174.15-.225-.048-.426zm-7.657-.016l-.273.026-.15.3.025.376.375.1.273-.1.176-.25-.15-.352zm4.84-.039l-.275.026-.149.3.024.376.375.1.275-.1.176-.25-.15-.352zm-11.41-.052l-.299.1-.176.374.25.327.35-.026.25-.201-.024-.424zM6.295 14.15l-.3.477.35.424.575-.174-.05-.576zm21.879-.16l-.299.1-.176.375.25.324.35-.023.25-.202-.024-.423zm28.721-.043l-.301.375.101.5.575.176.35-.475-.175-.525zm1.712-.275l-.324.273.074.25-.05.326.3.2.325-.15.125-.376-.174-.299zm-14.261-.207l-.276.025-.148.301.023.375.375.1.276-.1.175-.25-.15-.35zm18.494-.063l-.299.1-.176.375.25.324.35-.023.25-.201-.024-.424zm-26.945-.031l-.3.375.1.5.575.176.351-.475-.176-.525zm-16.967-.164l-.352.176-.125.25.176.224.35.25.2-.175.15-.225-.05-.426zm-2.53-.078l-.273.025-.15.3.025.374.375.1.273-.1.176-.25-.15-.35zm-12.877-.004l-.35.176-.124.25.176.224.35.25.198-.173.15-.227-.05-.424zm37.849-.213l-.35.174-.125.25.175.225.35.25.2-.174.15-.225-.05-.426zm-19.071-.041l-.35.176-.125.25.174.224.35.25.2-.173.151-.227-.05-.424zm4.171-.152l-.324.273.075.25-.05.326.3.2.326-.15.125-.376-.176-.299zm-16.087-.371l-.299.476.35.424.574-.174-.049-.576zm2.119-.305l-.3.475.349.425.576-.175-.05-.575zm18.308-.006l-.298.1-.176.375.25.324.35-.025.25-.2-.026-.425zm4.182-.506l-.299.375.1.5.574.176.35-.475-.174-.525zm19.531-.068l-.275.023-.15.301.025.375.375.1.275-.1.174-.25-.15-.35zm-50.761 0l-.3.475.35.425.575-.175-.05-.575zm39.279-.373l-.3.375.1.5.575.176.35-.477-.174-.523zM26.1 11.041l-.327.275.077.25-.051.325.3.199.325-.149.125-.375-.176-.3zm-7.432-.111l-.299.1-.176.374.25.325.35-.024.25-.201-.023-.424zm-6.828-.117l-.35.173-.125.25.176.225.35.25.199-.174.15-.225-.05-.425zm-9.955-.12l-.276.024-.148.3.023.376.375.1.276-.1.176-.25-.15-.35zm47.668-.101l-.301.375.1.5.576.176.35-.475-.176-.525zm-1.881-.289l-.299.474.35.426.574-.176-.049-.574zm-9.392-.348l-.301.1-.176.375.25.326.351-.026.25-.2-.025-.425zm-6.05-.019l-.3.1-.176.374.25.324.351-.023.25-.201-.025-.424zm25.038-.227l-.301.475.35.425.576-.175-.051-.575zm-34.977-.014l-.275.026-.149.299.024.375.375.1.275-.1.176-.25-.15-.35zm20.016-.203l-.35.174-.125.25.174.225.351.25.2-.174.15-.225-.05-.426zm-29.244-.179l-.276.023-.15.3.025.376.375.1.275-.1.174-.25-.15-.35zm46.89-.059l-.299.375.1.5.574.174.35-.475-.174-.525zm-44.471-.096l-.3.1-.176.375.25.324.351-.023.25-.202-.025-.423zM8.324 9.08l-.3.1-.174.375.25.326.35-.026.25-.2-.026-.425zM0 8.982v.696l.234-.073-.05-.574zm63.61-.102l-.301.475.35.426.341-.103v-.696zm-33.964 0l-.326.276.076.25-.05.326.3.2.325-.15.125-.376-.176-.299zm-5.859-.433l-.351.176-.125.25.175.225.35.25.201-.174.149-.227-.05-.424zm21.422-.207l-.35.174-.125.25.176.227.35.25.199-.176.15-.225-.05-.426zm-24.207-.256l-.352.174-.125.25.176.225.35.25.201-.174.148-.225-.048-.425zm25.388-.312l-.3.1-.176.374.25.325.352-.024.25-.2-.026-.425zm-5.007-.012l-.276.024-.15.3.025.375.375.1.276-.1.176-.25-.15-.35zm-28.539-.164l-.35.174-.125.25.174.226.35.25.2-.175.151-.225-.05-.426zm26.379-.084l-.3.102-.175.375.25.324.35-.025.25-.2-.026-.426zM10 7.281l-.324.276.074.25-.05.324.3.2.324-.15.125-.374-.174-.301zm21.248-.008l-.324.276.074.25-.049.324.299.201.326-.15.125-.375-.176-.301zm-3.744-.205l-.3.475.349.426.576-.176-.05-.574zm22.449-.089l-.3.1-.174.374.25.326.35-.025.25-.2-.026-.425zm5.176-.049l-.299.1-.176.374.25.326.35-.025.25-.2-.025-.425zM5.13 6.758l-.275.025-.15.301.025.375.375.1.276-.1.174-.25-.15-.35zm30.45-.061l-.35.176-.125.25.174.225.35.25.201-.174.15-.227-.05-.424zM2.17 6.682l-.3.474.35.424.575-.174-.05-.576zm15.846-.012l-.325.273.075.25-.05.327.3.199.326-.15.125-.376-.176-.298zm42.461-.168l-.3.1-.175.375.25.326.35-.026.25-.2-.024-.425zm3-.033l-.35.174-.125.25.176.226.35.25.199-.176.15-.224-.049-.426zm-37.575-.065l-.3.1-.174.375.25.324.35-.025.25-.2-.026-.425zM9.229 6.363l-.327.276.077.25-.051.324.3.201.325-.15.125-.375-.176-.301zm44.669-.357l-.275.023-.15.301.025.375.375.1.275-.1.176-.25-.15-.35zM35.068 5.4l-.275.026-.148.3.023.376.375.1.275-.1.176-.25-.15-.35zm17.616-.33l-.3.475.35.426.575-.176-.05-.574zm-24.586-.271l-.301.1-.174.374.25.327.35-.026.25-.201-.026-.424zm3.554-.276l-.275.026-.15.299.025.375.375.1.275-.1.174-.25-.15-.35zm6.543-.177l-.3.474.351.426.574-.176-.05-.574zm24.159-.049l-.3.1-.175.374.25.327.35-.026.25-.2-.024-.425zm-48.452-.004l-.3.477.35.423.575-.173-.05-.577zm12.643-.09l-.3.475.35.426.575-.176-.05-.574zm14.75-.338l-.35.174-.125.25.174.225.352.25.199-.174.15-.225-.05-.426zm4.111-.113l-.324.275.074.25-.049.325.3.2.325-.15.125-.375-.175-.3zm5.231-.032l-.301.376.102.5.574.175.35-.476-.175-.524zm-2.427-.083l-.298.375.1.5.574.174.35-.475-.174-.525zm10.333-.026l-.299.475.35.426.574-.176-.049-.574zm-1.051-.066l-.299.475.35.425.574-.175-.049-.575zM3.207 3.494l-.3.475.35.424.575-.174-.05-.576zM.559 3.393l-.327.275.077.25-.051.324.3.2.325-.149.125-.375-.176-.3zm8.679-.038l-.281.352-.553-.144-.299.474.35.426.574-.176-.013-.168.021.111.576.174.35-.474-.176-.526zm13.797-.218l-.275.023-.15.3.025.376.375.1.275-.1.176-.25-.15-.35zm-2.505-.123l-.301.1-.174.374.25.325.35-.026.25-.2-.026-.425zm-3.604-.184l-.276.025-.15.3.025.374.375.102.276-.102.174-.25-.149-.35zm11.258-.705l-.301.475.351.425.575-.175-.051-.575zm-11.026-.053l-.275.024-.15.3.025.375.375.1.275-.1.174-.25-.15-.35zm14.799-.308l-.324.275.074.25-.049.324.299.2.326-.149.125-.375-.176-.3zM8.97 1.691l-.275.026-.15.299.025.375.375.101.276-.101.175-.25-.15-.35zm10.84-.339l-.3.1-.174.374.25.324.35-.023.25-.201-.026-.424zm37.764-.043l-.326.275.076.25-.05.324.3.2.324-.149.125-.375-.173-.3zm5.912-.084l-.3.101-.174.375.25.324.35-.025.25-.2-.026-.425zm-18.879-.213l-.273.025-.15.3.025.376.375.1.273-.1.176-.25-.15-.35zM10.396.88l-.326.274.076.25-.05.326.3.2.325-.15.125-.376-.174-.299zM58.66.766l-.3.1-.174.374.25.324.35-.025.25-.2-.026-.425zM49.146.744l-.3.375.101.5.574.176.35-.475-.174-.525zM35.393.668l-.301.375.1.5.576.174.35-.475-.177-.525zM5.035.605l-.3.375.099.5.576.176.35-.474-.176-.526zm35.971-.22l-.35.176-.125.25.174.224.35.25.2-.174.151-.226-.05-.424zM25.729.34l-.3.1-.175.374.25.325.35-.024.25-.2-.026-.425zM54.063.102l-.276.023-.148.3.023.376.375.1.276-.1.175-.25-.15-.35zM.713.004L.387.279l.076.25-.05.325.3.2.324-.15.125-.375-.174-.3zM46.986 0l.05.158-.052.326.301.2.324-.15.125-.376L47.643 0zm-8.002 0l-.117.059-.125.25.174.224.35.25.2-.176.151-.224L39.572 0zm-9.101 0l.101.031.024-.031zm-6.918 0l-.07.14.173.225.352.25.2-.174.15-.224L23.744 0zm-8.731 0l-.115.23.026.375.375.102.275-.102.176-.25-.15-.35L14.804 0zm16.814 27.767l-.326.275.076.25-.051.324.3.2.325-.149.125-.375-.176-.3zM28.23 40.124l-.327.275.077.25-.051.324.3.2.325-.149.125-.375-.176-.3zm7.587-1.301l-.326.275.076.25-.05.325.3.199.324-.149.125-.375-.175-.3zm9.647.433l-.326.276.076.25-.05.324.3.2.325-.15.125-.374-.176-.3zm6.179-18.752l-.326.276.076.25-.051.324.3.199.325-.148.125-.375-.176-.301zM22.593 5.98l-.326.275.076.25-.05.324.3.2.324-.15.125-.374-.176-.301zM11.645 37.305l-.326.276.076.25-.05.324.3.2.324-.15.125-.374-.175-.301zM1.022 26.14l-.326.276.076.25-.05.324.3.2.325-.149.125-.375-.176-.3zm38.481 1.518l-.327.276.077.25-.051.324.3.2.325-.15.125-.374-.176-.301zm-.543 27.641l-.326.275.077.25-.051.325.3.199.325-.149.125-.375-.176-.3zM31.327 15.75l-.275.026-.15.299.025.375.375.101.275-.101.174-.25-.149-.35zm15.067-4.335l-.275.025-.15.299.025.375.375.101.275-.101.174-.25-.149-.35zm7.046-9.973l-.276.026-.15.299.025.375.375.101.276-.101.173-.25-.148-.35zm-.217 41.516l-.276.025-.15.299.025.375.375.101.276-.101.174-.25-.149-.35zM41.191 53.58l-.275.026-.15.298.025.375.375.102.275-.102.174-.25-.149-.35zm-11.273-7.913l-.275.026-.15.299.025.375.375.101.275-.101.174-.25-.149-.35zm-2.602 15.067l-.275.026-.15.299.025.375.375.101.275-.101.174-.25-.148-.35zM22.054 17.16l-.299.101-.176.375.25.324.35-.025.25-.2-.025-.425zm21.571 21.245l-.3.102-.175.375.25.324.35-.026.25-.199-.026-.426zM57.174 30.6l-.299.102-.176.375.25.324.35-.025.25-.2-.026-.425zm5.962 10.732l-.3.101-.175.375.25.324.35-.025.25-.2-.026-.425zm-9.539 12.465l-.299.102-.176.375.25.324.35-.026.25-.199-.026-.426zm5.962 2.06l-.3.101-.175.375.25.324.35-.025.25-.2-.026-.425zM19.344 27.349l-.299.101-.176.375.25.324.35-.025.25-.2-.025-.425zM11.649 4.694l-.3.1-.177.375.25.326.352-.025.25-.202-.025-.423zm.651 38.914l-.301.1-.176.375.25.326.351-.026.25-.2-.025-.425zm18.21 9.972l-.301.1-.176.375.25.326.352-.025.25-.202-.026-.423zm9.43-18.21l-.3.1-.176.375.25.326.351-.026.25-.2-.025-.425zm-10.297 0l-.301.1-.176.375.25.326.352-.026.25-.2-.026-.425zM6.771 26.048l-.3.1-.176.375.25.326.351-.026.25-.2-.025-.425zm3.36 11.273l-.3.1-.176.375.25.326.351-.026.25-.2-.025-.425zm4.661-17.235l-.3.1-.176.375.25.326.351-.025.25-.202-.025-.423zm17.994-6.937l-.3.1-.177.375.25.326.352-.026.25-.2-.025-.425zm7.588-1.734l-.301.1-.176.374.25.326.352-.025.25-.201-.026-.424zM24.439 48.81l-.3.1-.175.375.25.327.35-.026.25-.2-.024-.425zM14.25 55.315l-.3.1-.175.374.25.326.35-.025.25-.201-.024-.424zm.65 5.202l-.299.1-.176.375.25.326.35-.025.25-.201-.024-.424zm-11.815 0l-.299.1-.176.375.25.326.35-.025.25-.201-.024-.424zm2.276-5.527l-.299.099-.175.375.25.326.35-.025.25-.201-.024-.424zm2.819-8.13l-.3.1-.175.374.25.327.35-.026.25-.201-.024-.424zm-1.952 3.468l-.299.1-.175.375.25.326.35-.025.25-.201-.024-.424zM2.868 44.8l-.299.1-.176.375.25.326.35-.025.25-.202-.023-.423zm32.41-23.847l-.299.1-.175.375.25.326.35-.025.25-.201-.024-.424zm4.228 1.41l-.3.1-.175.374.25.326.35-.025.25-.201-.024-.424zm10.189 10.189l-.3.1-.175.374.25.326.35-.025.25-.201-.024-.424zm6.395.325l-.299.1-.176.374.25.327.35-.026.25-.201-.024-.424zM51.976 8.655l-.301.475.35.425.576-.175-.051-.575zm6.178-3.035l-.3.475.35.425.575-.175-.05-.575zM20.541 30.984l-.3.475.35.426.575-.176-.05-.574zm7.805 15.934l-.301.475.35.426.576-.176-.051-.574zm16.909 2.168l-.3.475.35.426.575-.176-.05-.574zm4.336-1.517l-.3.474.349.426.576-.176-.05-.574zm.434-25.473l-.301.475.35.425.576-.175-.051-.575zM28.78 19.494l-.301.475.35.426.575-.176-.05-.574zm2.167-2.059l-.3.475.349.425.576-.175-.05-.575zM7.75 11.365l-.3.474.35.426.576-.176-.051-.574zm-3.803 5.886l-.324.276.074.25-.049.324.3.201.325-.15.125-.375-.175-.301zm39.131 8.455l-.325.276.075.25-.05.324.3.2.326-.15.125-.374-.176-.301zm16.259-13.874l-.324.275.074.25-.049.324.299.201.326-.15.125-.375-.176-.3zM33.864 7.93l-.324.275.074.25-.049.324.3.201.325-.15.125-.375-.176-.301zm-9.755 33.602l-.325.275.075.25-.05.324.3.202.326-.15.125-.376-.176-.3z"/>
    <path d="M14.353 55.298l-.324.275.074.25-.049.325.299.2.326-.15.125-.375-.176-.3zm21.679-5.311l-.324.275.074.25-.049.324.299.201.326-.15.125-.375-.176-.3zm-5.637-23.305l-.324.275.074.25-.048.324.298.201.327-.15.125-.375-.176-.3zm22.113-.325l-.324.275.074.25-.049.324.299.201.326-.15.125-.375-.176-.3zm-8.78 17.559l-.324.276.074.25-.049.324.299.201.326-.15.125-.375-.176-.3zM21.29 42.507l-.324.276.074.25-.049.324.3.201.325-.15.125-.375-.175-.301zM26.818 57.9l-.324.275.074.25-.048.324.298.201.327-.15.125-.375-.176-.301zm9.539-42.166l-.324.275.074.25-.049.324.3.202.325-.15.125-.376-.175-.3zm7.154-9.647l-.324.275.074.25-.049.324.3.201.325-.15.125-.375-.175-.3zM30.72.233l-.324.276.075.25-.05.324.3.201.326-.15.125-.375-.176-.301zM19.23 8.58l-.323.275.074.25-.049.324.299.202.326-.15.125-.376-.176-.3z"/>
</svg>
