<svg width="16.887274" height="16.956984" version="1.1"
  xmlns="http://www.w3.org/2000/svg" xmlns:svg="http://www.w3.org/2000/svg">


  <path
    d="M 3.7192736,1.4999839 L 2.7542736,1.5269839 C -1.2427264,4.1269839 5.9802736,4.5519839 1.5372736,7.6369839 L 2.4142736,7.6249839 C 6.5822736,4.3329839 -0.67972641,4.0939839 3.7192736,1.4999839 Z M 6.7522736,1.4999839 L 5.7892736,1.5269839 C 1.7922736,4.1269839 9.0142736,4.5539839 4.5712736,7.6389839 L 5.4492736,7.6269839 C 9.6172736,4.3349839 2.3532736,4.0939839 6.7522736,1.4999839 Z M 11.592274,2.2889839 A 1.392,1.392 0 0 0 10.203274,3.6819839 A 1.392,1.392 0 0 0 11.596274,5.0739839 A 1.392,1.392 0 0 0 12.989274,3.6819839 A 1.392,1.392 0 0 0 11.596274,2.2889839 A 1.392,1.392 0 0 0 11.592274,2.2889839 Z M 12.812274,5.5189839 A 0.669,0.669 0 0 0 12.176274,5.8989839 C 12.168274,5.9109839 12.156274,5.9189839 12.149274,5.9339839 L 10.944274,8.3009839 L 8.4642736,9.1479839 A 0.48116239,0.48116239 0 1 0 8.7772736,10.057984 L 11.417274,9.1569839 A 0.474,0.474 0 0 0 11.702274,8.8799839 C 11.715274,8.8619839 11.733274,8.8499839 11.743274,8.8299839 L 12.491274,7.3539839 L 13.792274,10.977984 L 10.745274,10.971984 A 0.635,0.635 0 0 0 10.193274,11.303984 L 7.7432736,14.262984 A 0.763,0.763 0 0 0 7.7942736,15.275984 A 0.617,0.617 0 0 0 8.7222736,15.228984 L 11.181274,12.258984 L 14.687274,12.266984 H 14.743274 C 14.801274,12.266984 14.853274,12.246984 14.906274,12.232984 C 14.919274,12.228984 14.933274,12.232984 14.946274,12.227984 C 14.949274,12.226984 14.950274,12.223984 14.952274,12.223984 A 0.628,0.628 0 0 0 15.370274,11.701984 C 15.374274,11.677984 15.383274,11.654984 15.384274,11.629984 L 15.386274,11.623984 C 15.386274,11.606984 15.377274,11.593984 15.376274,11.576984 A 0.643,0.643 0 0 0 15.346274,11.379984 L 13.400274,5.9569839 A 0.66,0.66 0 0 0 12.814274,5.5189839 Z M 2.2172736,11.552984 L 2.5972736,15.456984 H 5.1422736 L 5.5892736,11.552984 H 2.2182736 Z M 11.979274,13.556984 V 14.286984 H 15.387274 V 13.556984 Z"
  />
</svg>
