<svg xmlns="http://www.w3.org/2000/svg" width="14" height="14">
    <path d="M2.332.043L1.367.07C-2.63 2.67 4.593 3.095.15 6.18l.877-.012C5.195 2.876-2.067 2.637 2.332.043zm3.033 0L4.402.07C.405 2.67 7.627 3.097 3.184 6.182l.878-.012C8.23 2.878.966 2.637 5.365.043zm4.84.789a1.392 1.392 0 00-1.389 1.393 1.392 1.392 0 001.393 1.392 1.392 1.392 0 001.393-1.392A1.392 1.392 0 0010.209.832a1.392 1.392 0 00-.004 0zm1.22 3.23a.669.669 0 00-.636.38c-.008.012-.02.02-.027.035L9.557 6.844l-2.48.847a.48.48 0 10.313.91l2.64-.901a.474.474 0 00.285-.277c.013-.018.031-.03.041-.05l.748-1.476 1.301 3.624-3.047-.006a.635.635 0 00-.552.332l-2.45 2.959a.763.763 0 00.051 1.013.617.617 0 00.928-.047l2.459-2.97 3.506.008h.056c.058 0 .11-.02.163-.034.013-.004.027 0 .04-.005.003-.001.004-.004.006-.004a.628.628 0 00.418-.522c.004-.024.013-.047.014-.072l.002-.006c0-.017-.009-.03-.01-.047a.643.643 0 00-.03-.197L12.013 4.5a.66.66 0 00-.586-.438zM.83 10.096L1.21 14h2.545l.447-3.904H.831zm9.762 2.004v.73H14v-.73h-3.408z" fill="none" stroke="#fff" stroke-opacity=".5" stroke-width="3" stroke-linejoin="round" stroke-linecap="round"/>
    <path d="M2.332.043L1.367.07C-2.63 2.67 4.593 3.095.15 6.18l.877-.012C5.195 2.876-2.067 2.637 2.332.043zm3.033 0L4.402.07C.405 2.67 7.627 3.097 3.184 6.182l.878-.012C8.23 2.878.966 2.637 5.365.043zm4.84.789a1.392 1.392 0 00-1.389 1.393 1.392 1.392 0 001.393 1.392 1.392 1.392 0 001.393-1.392A1.392 1.392 0 0010.209.832a1.392 1.392 0 00-.004 0zm1.22 3.23a.669.669 0 00-.636.38c-.008.012-.02.02-.027.035L9.557 6.844l-2.48.847a.48.48 0 10.313.91l2.64-.901a.474.474 0 00.285-.277c.013-.018.031-.03.041-.05l.748-1.476 1.301 3.624-3.047-.006a.635.635 0 00-.552.332l-2.45 2.959a.763.763 0 00.051 1.013.617.617 0 00.928-.047l2.459-2.97 3.506.008h.056c.058 0 .11-.02.163-.034.013-.004.027 0 .04-.005.003-.001.004-.004.006-.004a.628.628 0 00.418-.522c.004-.024.013-.047.014-.072l.002-.006c0-.017-.009-.03-.01-.047a.643.643 0 00-.03-.197L12.013 4.5a.66.66 0 00-.586-.438zM.83 10.096L1.21 14h2.545l.447-3.904H.831zm9.762 2.004v.73H14v-.73h-3.408z"/>
</svg>
