<svg xmlns="http://www.w3.org/2000/svg" width="64" height="64">
    <path d="M27.596 0l-.414.52.148.75.863.261.526-.71-.264-.79L28.107 0h-.511zm21.531 0l.785.238.176-.238h-.961zM9.49.033l-.45.563.15.75.863.261.525-.71-.264-.79L9.49.033zM42.13.48l-.45.15-.262.563.375.489.525-.04.375-.298-.037-.639-.525-.225zM18.995.541l-.414.037-.225.45.038.562.562.15.414-.15.262-.375-.225-.524-.412-.15zM.604.713l-.45.562.15.75.862.262.525-.713L1.43.787.604.713zM37.01.8l-.451.562.15.75.863.262.526-.71-.264-.79L37.01.8zm-13.287.273l-.526.264-.187.375.261.338.526.375.3-.264.225-.338-.074-.637-.525-.113zm37.068.047l-.451.563.15.75.864.263.525-.713-.264-.787-.824-.076zm-2.94.19l-.449.562.149.75.863.262.525-.711-.263-.79-.824-.073zm-43.821.2l-.449.148-.262.563.375.488.524-.037.375-.3-.037-.638-.526-.224zm15.61.256l-.412.037-.225.449.037.562.563.15.412-.15.261-.375-.224-.523-.412-.15zm25.285.084l-.488.412.113.375-.076.488.45.3.487-.226.188-.562-.262-.45-.412-.337zm-49.608.16l-.45.562.15.75.863.264.525-.713-.263-.787-.825-.076zm29.088.088l-.449.71.525.64.862-.264-.074-.862-.864-.224zM49 2.31l-.412.037-.227.449.04.562.562.15.412-.15.262-.375-.225-.525L49 2.311zm-4.293.521l-.412.04-.225.448.037.563.563.15.412-.15.264-.375-.227-.526-.412-.15zM12.926 3.959l-.451.148-.262.563.375.488.525-.037.375-.3-.039-.637-.523-.225zm41.234.72l-.45.714.526.636.862-.261-.075-.864-.863-.224zm-43.012.1l-.412.037-.224.45.037.562.562.15.412-.15.264-.375-.225-.523-.414-.15zm35.354.004l-.414.04-.225.448.037.563.563.15.414-.15.262-.375-.225-.525-.412-.15zm-5.356.047l-.486.412.111.375-.074.487.45.3.488-.224.187-.563-.261-.451-.415-.336zm17.565.184l-.45.713.526.636.861-.261-.074-.864-.863-.224zm5.117.31l-.45.15-.263.563.375.488.51-.035V5.398l-.172-.074zm-57.252.051l-.449.15-.264.563.375.486.526-.037.375-.3-.037-.637-.526-.225zM0 5.398V6.49l.016-.002.375-.3-.037-.637L0 5.398zm29.246.256l-.488.412.113.375-.074.487.45.3.487-.224.188-.563-.264-.45-.412-.337zm-3.789.342l-.525.262-.188.375.264.338.523.375.301-.262.225-.338-.075-.637-.525-.113zm11.61.014l-.413.037-.224.451.037.563.562.148.412-.148.264-.375-.226-.526-.413-.15zm-18.407.129l-.523.261-.188.375.262.338.525.375.3-.261.226-.338-.076-.637-.526-.113zm2.266.152l-.451.711.525.639.863-.264-.076-.861-.861-.225zm29.465.11l-.45.712.526.639.861-.264-.074-.861-.863-.227zm-15.325.003l-.412.037-.224.452.037.562.562.15.412-.15.262-.375-.224-.525-.413-.15zM3.328 6.67l-.45.15-.263.563.375.488.526-.039.375-.299-.037-.638-.526-.225zM40.953 7.7l-.45.562.15.75.863.261.525-.712-.264-.788-.824-.074zm-26.723.09l-.488.411.113.375-.074.488.45.3.488-.225.187-.563-.263-.449-.413-.338zm2.58.397l-.449.563.15.75.862.262.525-.711-.261-.79-.826-.073zm-14.476.627l-.412.038-.227.449.04.562.562.15.412-.15.262-.375-.225-.525-.412-.149zm19.352.319l-.45.562.15.75.862.264.525-.713-.261-.787-.826-.076zm7.98.037l-.451.562.15.75.864.262.523-.713-.262-.787-.824-.074zm25.69.27l-.526.263-.187.375.261.338.526.375.3-.264.225-.338-.074-.636-.526-.114zm-9.803.13l-.451.15-.262.563.375.487.525-.038.375-.298-.039-.64-.523-.224zm13.29.102l-.411.037-.225.451.037.563.563.15.412-.15.261-.375-.224-.526-.412-.15zm-33.447.176l-.412.037-.224.449.037.562.562.15.412-.15.264-.375-.226-.525-.413-.148zm-18.812.086l-.412.037-.225.45.037.563.563.15.412-.15.262-.375-.225-.525-.412-.15zm43.816.035l-.449.562.15.75.862.264.525-.713-.261-.787-.827-.076zm-39.367.068l-.488.412.113.375-.074.489.45.298.487-.224.188-.563-.264-.449-.412-.338zm51.291.137l-.451.562.15.75.864.262.525-.713-.264-.787-.824-.074zm-22.73.34l-.45.148-.261.563.375.488.523-.037.375-.301-.037-.637-.525-.224zm-5.938.052l-.45.563.15.75.863.262.523-.711-.262-.79-.824-.074zm-15.765 1.625l-.45.149-.261.562.375.489.523-.037.375-.301-.037-.637-.525-.225zm12.601.274l-.449.713.523.636.864-.261-.075-.864-.863-.224zm6.83.29l-.449.714.525.636.862-.261-.074-.864-.864-.224zm25.602.054l-.414.037-.225.449.037.562.563.15.414-.15.262-.375-.225-.525-.412-.148zm-11.35.1l-.488.411.113.375-.076.489.451.298.487-.224.187-.563-.262-.449-.412-.338zm-26.705.081l-.451.563.15.75.864.261.523-.712-.262-.788-.824-.074zm19.483.2l-.452.71.526.64.863-.265-.076-.86-.861-.226zm11.162.398l-.489.412.114.375-.075.488.45.301.488-.226.187-.563-.263-.45-.412-.337zm-40.659.15l-.523.262-.187.375.261.338.526.375.298-.262.227-.338-.076-.638-.526-.112zm-4.265.04l-.451.15-.262.562.375.487.525-.038.375-.3-.039-.637-.523-.225zm48.754.015l-.526.262-.187.375.262.338.525.375.3-.262.225-.338-.076-.637-.523-.113zm-51.867.281l-.487.412.112.375-.075.489.45.3.488-.226.187-.563-.261-.449-.414-.338zm-5.418.104l-.45.713.524.636.863-.261-.074-.864-.863-.224zm31.714.074l-.525.264-.187.375.263.338.524.375.3-.264.225-.338-.074-.637-.526-.113zm8.325.02l-.526.261-.187.375.261.338.526.375.3-.264.225-.336-.074-.638-.525-.112zm-21.528.027l-.45.15-.263.563.375.488.526-.037.375-.3-.037-.638-.526-.226zm3.416.814l-.488.412.113.375-.076.489.451.299.487-.225.187-.563-.262-.449-.412-.338zm23.487.147l-.489.412.114.375-.077.488.452.3.486-.226.187-.562-.261-.45-.412-.337zm-29.178.886l-.412.038-.227.449.04.562.562.15.412-.15.262-.375-.225-.525-.412-.149zm40.096.403l-.412.037-.227.45.039.562.563.15.412-.15.261-.375-.224-.524-.412-.15zm-4.748.199l-.452.713.526.639.863-.264-.076-.861-.861-.227zm-17.104.016l-.451.713.525.638.864-.263-.077-.862-.86-.226zm-1.557.049l-.488.412.113.375-.076.488.451.3.487-.226.187-.562-.261-.45-.413-.337zm-23.998.335l-.525.262-.188.375.264.338.524.375.3-.264.225-.336-.074-.638-.526-.112zm-5.173.112l-.526.261-.187.375.263.338.526.375.299-.261.224-.338-.074-.639-.525-.111zm-3.254.078l-.452.15-.261.563.375.488.525-.039.375-.299-.037-.639-.525-.224zm40.693.025l-.488.414.113.375-.076.487.451.3.486-.224.188-.563-.262-.45-.412-.339zm-19.158.106l-.45.562.151.75.861.262.526-.713-.262-.787-.826-.074zm4.783.133l-.523.261-.188.375.262.338.525.375.299-.262.227-.337-.077-.64-.525-.11zm34.434.11l-.413.038-.224.45.037.562.562.15.413-.15.263-.375-.224-.524-.414-.15zm-13.276.087l-.451.713.525.636.864-.261-.076-.864-.862-.224zm-36.687.693l-.526.264-.187.375.262.336.525.375.3-.262.225-.338-.076-.637-.523-.113zm20.773 1.565l-.414.037-.225.449.038.562.562.15.414-.15.262-.375-.225-.525-.412-.148zm-7.549.017l-.486.412.111.375-.074.489.45.298.488-.224.187-.563-.262-.449-.414-.338zm11.303.078l-.412.037-.225.45.037.562.563.15.412-.15.262-.375-.225-.523-.412-.15zm-19.371.13l-.451.712.525.637.863-.262-.076-.863-.861-.225zM62.4 20.4l-.412.04-.224.449.037.562.562.15.412-.15.264-.375-.225-.525-.414-.15zm-21.177.108l-.45.713.524.638.863-.263-.074-.862-.863-.226zm-10.909.14l-.488.413.113.375-.076.488.451.299.487-.225.187-.562-.261-.45-.413-.338zm27.514.237l-.45.562.151.75.862.262.525-.713-.262-.787-.826-.074zm-4.158.127l-.488.412.113.375-.076.488.45.299.487-.225.188-.562-.262-.45-.412-.337zm-38.774.142l-.488.412.113.375-.076.489.451.3.487-.226.187-.563-.261-.449-.413-.338zm-5.584.498l-.525.262-.187.375.263.338.524.375.3-.262.225-.338-.074-.638-.525-.112zm-4.36.016l-.452.562.15.75.864.262.525-.71-.264-.79-.824-.074zm46.448.445l-.412.037-.226.452.039.562.562.15.412-.15.262-.375-.224-.525-.413-.15zm-5.752.055l-.449.562.15.75.862.264.525-.713-.261-.787-.827-.076zm-43.289.068l-.412.037-.224.452.037.562.562.149.412-.149.262-.375-.225-.525-.412-.15zm18.631.928l-.449.15-.264.563.375.488.526-.037.375-.3-.037-.637-.526-.227zm-4.328.824l-.45.563.151.75.862.262.525-.713-.262-.788-.826-.074zm34.133.367l-.525.262-.188.375.264.338.525.375.299-.262.225-.338-.075-.636-.525-.114zm-36.777.538l-.489.412.114.375-.077.488.452.3.486-.226.187-.562-.261-.45-.412-.337zm16.142.212l-.45.149-.263.562.375.489.526-.037.375-.301-.037-.637-.526-.225zm32.928.014l-.526.262-.187.375.262.338.525.375.3-.264.225-.336-.074-.639-.525-.11zm-17.725.035l-.45.149-.263.562.375.489.526-.038.375-.3-.04-.637-.523-.225zm-18.244.149l-.412.037-.227.451.04.563.562.148.412-.148.262-.375-.225-.526-.412-.15zm31.694.224l-.45.563.15.75.862.262.525-.711-.261-.79-.827-.074zm-21.577.157l-.45.562.15.75.863.262.523-.713-.261-.787-.825-.074zm16.653.086l-.526.263-.187.375.261.338.526.375.3-.264.225-.337-.074-.637-.525-.113zm-20.385.029l-.451.71.525.64.863-.264-.076-.862-.861-.224zm8.717.023l-.45.713.526.637.861-.262-.074-.863-.863-.225zm-36.315.098l-.412.039-.224.45.037.562.562.15.412-.15.262-.375-.225-.526-.412-.15zm-4.437.264l-.45.712.526.637.861-.262-.074-.863-.863-.224zm21.556.005l-.412.038-.224.45.037.563.562.15.412-.15.262-.375-.224-.525-.413-.15zm-11.634.62l-.452.148-.261.563.375.488.525-.037.375-.301-.039-.637-.523-.224zm7.838.918l-.487.412.112.375-.075.488.45.3.488-.226.187-.562-.263-.45-.412-.337zm18.16.189l-.526.262-.187.375.263.338.524.375.3-.262.225-.338-.074-.639-.525-.111zm-30.045.213l-.45.562.15.75.862.264.526-.713-.262-.787-.826-.076zm25.937.074l-.449.711.525.639.862-.264-.074-.861-.864-.225zm21.537.133l-.525.264-.188.375.262.336.526.375.3-.262.225-.338-.074-.637-.526-.113zm-25.347.072l-.526.262-.187.375.262.338.525.375.3-.264.225-.336-.074-.638-.525-.112zm-5.922.33l-.526.262-.187.375.264.338.523.375.3-.262.225-.338-.074-.638-.525-.112zm-8.285.352l-.45.713.526.636.861-.261-.074-.864-.863-.224zm42.756.047l-.489.412.114.375-.077.488.452.299.486-.225.187-.562-.261-.45-.412-.337zM1.926 29.9l-.451.713.525.637.863-.262-.076-.863-.861-.225zm44.002.026l-.45.15-.263.563.375.488.525-.037.375-.3-.037-.638-.525-.226zm-34.465.162l-.486.412.11.375-.073.488.449.3.488-.226.188-.562-.264-.45-.412-.337zm37.03.03l-.45.562.148.75.864.263.525-.713-.264-.787-.824-.076zm14.087.077l-.412.037-.225.452.037.562.563.15.412-.15.264-.375-.225-.525-.414-.15zm-21.488.108l-.45.71.526.64.861-.264-.074-.862-.863-.224zm-14.196.22l-.45.149-.262.562.375.489.525-.037.375-.301-.04-.637-.523-.225zm35.952 1.74l-.45.151-.263.563.375.486.525-.037.375-.299-.037-.639-.525-.224zm-36.121.305l-.452.563.15.75.864.262.523-.713-.261-.787-.824-.075zm4.287.084l-.45.563.149.75.863.262.526-.713-.264-.787-.824-.075zm14.795.022l-.452.713.526.638.863-.263-.076-.862-.861-.226zm5.32.324l-.45.713.524.639.863-.264-.074-.861-.863-.227zm-50.383.008l-.45.562.15.75.863.262.525-.713-.264-.787-.824-.074zm53.723.135l-.45.15-.263.563.375.488.525-.037.375-.301-.037-.637-.525-.226zm-43.174.029l-.525.264-.188.375.264.336.523.375.3-.262.226-.338-.075-.637-.525-.113zm45.64.043l-.449.713.524.636.863-.261-.074-.864-.863-.224zm-39.841.232l-.451.711.525.639.863-.264-.076-.861-.861-.225zm18.644.479l-.412.037-.226.451.039.563.562.15.412-.15.262-.375-.225-.526-.412-.15zm-30.96.219l-.45.562.15.75.862.262.525-.713-.261-.787-.827-.074zm18.117.107l-.45.148-.261.563.375.488.523-.037.375-.3-.037-.637-.525-.225zm15.603.03l-.414.036-.225.45.037.562.563.15.414-.15.262-.375-.225-.523-.412-.15zm2.098.171l-.451.711.525.639.863-.264-.076-.861-.861-.225zm-26.389.041l-.451.563.15.75.864.261.525-.71-.264-.79-.824-.074zm20.31 1.004l-.488.414.114.375-.077.486.452.301.486-.224.187-.563-.261-.451-.412-.338zm11.93.264l-.525.261-.188.375.264.338.525.375.3-.261.224-.338-.074-.639-.526-.111zm-16.441.398l-.451.713.525.637.863-.262-.076-.863-.861-.225zm28.734.692l-.412.037-.224.449.037.562.562.15.412-.15.264-.375-.225-.523-.414-.15zm-40.406.123l-.486.412.111.375-.074.486.449.3.488-.224.188-.562-.262-.451-.414-.336zm30.393.013l-.45.563.15.75.862.264.525-.713-.261-.788-.826-.076zm-10.952.035l-.45.15-.263.563.376.489.525-.037.375-.301-.04-.637-.523-.227zm3.327.252l-.45.149-.263.562.375.489.525-.037.375-.301-.037-.637-.525-.225zm-30.579.2l-.45.15-.262.563.375.486.525-.037.375-.3-.04-.638-.523-.224zm52.7.205l-.45.15-.263.563.375.488.525-.04.375-.298-.037-.639-.525-.224zm-60.25.008l-.412.037-.225.449.037.562.563.15.412-.15.261-.375-.224-.525-.412-.148zm22.197.369l-.45.148-.263.563.375.488.525-.037.375-.301-.037-.637-.525-.224zm-10.621.017l-.45.713.526.637.861-.262-.074-.863-.863-.225zm38.812.04l-.449.562.15.75.862.264.525-.713-.261-.788-.827-.076zm-45.648.378l-.526.262-.187.375.264.338.525.375.299-.264.225-.336-.075-.638-.525-.112zm14.049.356l-.45.713.524.638.863-.263-.074-.862-.863-.226zm32.707.756l-.489.414.114.375-.074.486.449.3.488-.224.188-.562-.264-.452-.412-.337zm-23.356.28l-.488.413.113.375-.076.488.451.301.487-.227.187-.562-.262-.45-.412-.337zm-12.207.032l-.486.414.111.375-.074.486.45.301.488-.224.187-.563-.264-.451-.412-.338zm4.666.242l-.449.563.148.75.864.261.525-.712-.264-.788-.824-.074zm-8.636.432l-.413.037-.224.45.037.562.562.15.413-.15.263-.375-.226-.524-.412-.15zm32.39.033l-.525.262-.188.375.262.338.525.375.301-.264.225-.336-.074-.639-.526-.11zm3.768.47l-.45.151-.261.563.375.488.523-.04.375-.298-.037-.639-.525-.224zm7.52.11l-.45.713.525.637.862-.262-.074-.863-.864-.225zm-31.551.178l-.526.262-.187.375.263.338.524.375.3-.264.225-.336-.074-.639-.526-.111zm34.11.23l-.45.713.525.637.863-.262-.076-.863-.861-.225zm-56.134.188l-.45.15-.263.563.375.488.526-.037.375-.3-.038-.638-.525-.226zm38.357.006l-.525.261-.187.375.263.338.526.375.298-.261.225-.338-.074-.639-.526-.111zm-9.171.056l-.413.04-.224.449.037.562.563.15.412-.15.263-.375-.226-.525-.412-.15zm-32.666.756l-.45.563.15.75.862.263.525-.712-.261-.788-.826-.076zm8.98.012l-.45.562.151.75.862.262.525-.713-.262-.787-.826-.074zm26.422.1l-.45.15-.263.562.375.487.525-.037.375-.301-.037-.637-.525-.224zm-29.371.959l-.488.414.113.375-.074.486.449.3.488-.224.188-.562-.264-.452-.412-.337zm42.853.17l-.488.412.113.375-.076.488.451.299.487-.225.187-.562-.262-.45-.412-.338zm-5.361.074l-.525.261-.188.375.262.338.525.375.301-.263.225-.336-.077-.639-.523-.111zm9.965.365l-.486.412.11.375-.073.488.449.301.488-.226.188-.563-.262-.45-.414-.337zm-39.772.049l-.449.713.526.636.86-.261-.073-.864-.864-.224zm42.87.18l-.452.148-.261.562.375.489.525-.037.375-.301-.037-.637-.525-.225zm-35.791.296l-.413.037-.224.452.037.562.562.15.413-.15.263-.375-.224-.525-.414-.15zm16.732.172l-.525.262-.188.375.262.338.525.375.3-.262.226-.338-.075-.637-.525-.113zm-27.902.08l-.45.713.526.637.861-.262-.074-.863-.863-.225zm19.566.012l-.45.713.526.637.861-.262-.074-.863-.863-.225zm-12.658.395l-.45.71.526.64.861-.265-.074-.86-.863-.225zm-14.383.027l-.412.037-.225.451.037.563.563.15.412-.15.262-.375-.225-.526-.412-.15zm22.379.523l-.451.563.15.75.863.263.526-.712-.264-.788-.824-.076zm36.094.266l-.412.037-.227.45.039.562.563.15.412-.15.261-.375-.224-.526-.412-.148zm-29.254.1l-.451.15-.262.562.375.487.525-.037.375-.301-.039-.637-.523-.224zm9.998.314l-.451.15-.262.563.375.486.525-.037.375-.299-.039-.638-.523-.225zM60.8 47.918l-.526.262-.187.375.262.338.525.375.3-.262.225-.338-.076-.639-.523-.111zm-15.715.037l-.488.414.113.375-.076.486.45.301.487-.224.188-.563-.262-.451-.412-.338zm-18.121.61l-.414.037-.225.449.037.562.563.15.414-.15.262-.375-.225-.525-.412-.149zm25.818.023l-.525.262-.188.375.264.337.523.376.301-.264.225-.336-.074-.639-.526-.111zm-4.056.152l-.526.262-.187.375.261.338.526.375.3-.264.225-.336-.076-.638-.523-.112zm-7.608.055l-.45.562.151.75.862.264.525-.713-.262-.787-.826-.076zm-10.459.18l-.412.037-.225.45.038.563.562.149.412-.149.262-.375-.225-.525-.412-.15zm-26.697.043l-.45.562.151.75.861.264.526-.713-.262-.787-.826-.076zm6.078.185l-.488.412.113.375-.074.487.449.3.488-.224.188-.563-.264-.45-.412-.337zm6.865.094l-.525.264-.188.375.264.337.523.375.301-.263.225-.338-.074-.637-.526-.113zm16.17.271l-.449.563.148.75.864.262.525-.713-.264-.787-.824-.075zm-12.613.53l-.488.412.113.375-.074.488.449.3.488-.226.188-.562-.264-.45-.412-.337zm36.687.207l-.412.039-.224.449.037.562.562.15.412-.15.262-.375-.224-.525-.413-.15zm-45.01.367l-.45.562.15.75.863.262.526-.713-.264-.787-.824-.074zm-11.224.166l-.451.15-.262.563.375.488.526-.037.375-.3-.04-.638-.523-.226zm38.338.07l-.412.04-.227.448.04.563.562.15.412-.15.262-.375-.225-.525-.412-.15zm-3.785.83l-.412.037-.225.452.037.562.563.15.412-.15.263-.375-.224-.525-.414-.15zm16.16.03l-.525.263-.188.375.262.338.525.375.3-.264.226-.337-.077-.637-.523-.113zm-29.645.029l-.45.713.525.636.863-.261-.076-.864-.862-.224zM5.721 52l-.45.71.524.64.863-.264-.074-.861L5.721 52zm41.123.354l-.489.412.114.375-.076.488.45.299.487-.225.188-.562-.262-.45-.412-.337zm-33.426.107l-.525.262-.188.375.264.338.525.375.299-.262.225-.338-.075-.639-.525-.111zm48.398.06l-.449.563.15.75.862.262.525-.713-.261-.787-.827-.075zm-51.972.01l-.414.04-.225.449.037.562.563.15.414-.15.261-.375-.224-.525-.412-.15zm19.287.512l-.486.412.11.375-.073.488.449.3.488-.225.188-.563-.262-.45-.414-.337zm7.744.596l-.451.713.525.638.864-.263-.077-.862-.861-.226zm-34.77.117l-.412.037-.224.451.037.563.562.15.412-.15.264-.375-.226-.526-.413-.15zm38.249.101l-.45.711.524.639.863-.264-.074-.861-.863-.225zm12.61.116l-.448.15-.264.563.375.488.525-.04.375-.298-.037-.639-.525-.224zm-33.985.324l-.487.414.112.375-.075.486.45.301.488-.225.187-.562-.263-.451-.412-.338zm7.433.117l-.451.148-.262.563.375.488.526-.037.375-.3-.04-.637-.523-.225zm32.19.35l-.45.15-.263.563.375.488.525-.04.375-.298-.037-.639-.525-.224zm-3.3 1.265l-.448.15-.262.563.375.488.523-.037.375-.3-.037-.637-.525-.227zm-8.077.52l-.45.15-.263.563.375.488.525-.037.375-.3-.037-.638-.525-.226zm-4.305.207l-.525.262-.188.375.264.337.523.375.3-.263.226-.336-.075-.639-.525-.111zm15.094.348l-.526.261-.187.375.263.338.524.375.3-.262.225-.337-.074-.64-.525-.11zm3.218.013l-.523.262-.188.375.262.338.526.375.298-.264.227-.336-.076-.638-.526-.112zm-50.455.205l-.525.264-.188.375.264.336.524.375.3-.262.225-.338-.074-.636-.526-.114zm5.95.14l-.45.563.15.75.862.262.525-.713-.261-.787-.826-.074zm-9.936.085l-.525.264-.188.375.264.335.525.375.299-.261.225-.338-.075-.637-.525-.113zm-5.662.103l-.45.149-.261.562.375.489.523-.038.375-.3-.037-.637-.525-.225zm24.174.07l-.526.264-.187.375.262.336.525.375.3-.261.225-.338-.074-.637-.525-.113zm-12.166.175l-.45.15-.261.562.375.487.523-.037.375-.3-.037-.638-.525-.224zm17.92 0l-.452.562.15.75.864.262.526-.713-.264-.787-.824-.074zm6.375.334l-.489.412.114.375-.075.488.45.299.488-.225.187-.562-.263-.45-.412-.337zm-14.51.09l-.45.15-.263.562.375.489.525-.04.375-.298-.037-.639-.525-.225zm27.478.216l-.449.563.15.75.862.261.525-.713-.261-.787-.827-.074zm-16.61.414l-.415.037-.225.452.038.562.562.15.414-.15.262-.375-.225-.525-.412-.15zm-5.118.684l-.412.037-.225.451.037.563.563.148.412-.148.262-.375-.225-.526-.412-.15zm18.39.172l-.525.263-.187.375.261.338.526.375.3-.263.225-.338-.076-.637-.523-.113zm6.34.039l-.449.713.524.636.863-.261-.074-.864-.864-.224zM4.97 59.9l-.451.713.525.637.863-.262-.076-.863-.861-.225zm35.263.026l-.488.412.113.375-.074.488.45.301.488-.227.187-.562-.263-.45-.413-.337zm-18.726.27l-.45.562.151.75.861.263.526-.712-.262-.788-.826-.076zm-5.914.32l-.526.261-.187.375.264.338.525.375.299-.261.224-.338-.074-.637-.525-.113zm3.957.703l-.412.037-.227.451.04.563.562.148.412-.148.262-.375-.225-.526-.412-.15zm23.88.15l-.449.713.524.639.863-.264-.074-.861-.863-.227zm-40.542.135l-.451.562.15.75.863.264.524-.713-.262-.787-.824-.076zm54.037.469l-.412.037-.225.45.037.563.563.15.412-.15.264-.375-.227-.525-.412-.15zm3.943.22l-.451.713.525.639.864-.264-.076-.861-.862-.227zm-27.379.018l-.449.562.15.75.862.262.525-.713-.262-.787-.826-.074zm-7.828.1l-.451.148-.262.562.375.489.526-.037.375-.301-.04-.637-.523-.224zm-14.662.203l-.45.713.526.636.862-.261-.075-.864-.863-.224zm38.352.15l-.452.563.15.75.079.023h.96l.349-.475-.262-.787-.824-.074zm-21.72 1.293l-.034.043h.511l-.476-.043z" fill="#8c8c8c"/>
</svg>
