<?xml version="1.0" encoding="UTF-8" standalone="no"?>
<svg width="256" height="256" version="1.1" id="svg298" xmlns:xlink="http://www.w3.org/1999/xlink"
  xmlns="http://www.w3.org/2000/svg" xmlns:svg="http://www.w3.org/2000/svg">
  <defs id="defs6">
    <path id="b" fill="#000"
      d="M4 9v4.125l-1.594-2.406-.812.562L3.406 14H1v1h7v-1H5.594l1.812-2.719-.812-.562L5 13.125V9z"
      transform="translate(-5 -12)" />
  </defs>
  <g id="g296" style="opacity:0.2">
    <use xlink:href="#b" x="161" y="15" id="use8" />
    <use xlink:href="#b" x="222" y="53" id="use10" />
    <use xlink:href="#b" x="166" y="78" id="use12" />
    <use xlink:href="#b" x="142" y="75" id="use14" />
    <use xlink:href="#b" x="232" y="75" id="use16" />
    <use xlink:href="#b" x="54" y="137" id="use18" />
    <use xlink:href="#b" x="11" y="139" id="use20" />
    <use xlink:href="#b" x="79" y="81" id="use22" />
    <use xlink:href="#b" x="51" y="53" id="use24" />
    <use xlink:href="#b" x="139" y="52" id="use26" />
    <use xlink:href="#b" x="210" y="79" id="use28" />
    <use xlink:href="#b" x="117" y="100" id="use30" />
    <use xlink:href="#b" x="78" y="206" id="use32" />
    <use xlink:href="#b" x="96" y="9" id="use34" />
    <use xlink:href="#b" x="116" y="57" id="use36" />
    <use xlink:href="#b" x="137" y="180" id="use38" />
    <use xlink:href="#b" x="252" y="166" id="use40" />
    <use xlink:href="#b" x="227" y="31" id="use42" />
    <use xlink:href="#b" x="53" y="97" id="use44" />
    <use xlink:href="#b" x="11" y="95" id="use46" />
    <use xlink:href="#b" x="29" y="227" id="use48" />
    <use xlink:href="#b" x="160" y="188" id="use50" />
    <use xlink:href="#b" x="102" y="202" id="use52" />
    <use xlink:href="#b" x="204" y="58" id="use54" />
    <use xlink:href="#b" x="178" y="11" id="use56" />
    <use xlink:href="#b" x="9" y="9" id="use58" />
    <use xlink:href="#b" x="116" y="186" id="use60" />
    <use xlink:href="#b" x="9" y="179" id="use62" />
    <use xlink:href="#b" x="156" y="227" id="use64" />
    <use xlink:href="#b" x="95" y="95" id="use66" />
    <use xlink:href="#b" x="96" y="223" id="use68" />
    <use xlink:href="#b" x="186" y="74" id="use70" />
    <use xlink:href="#b" x="59" y="157" id="use72" />
    <use xlink:href="#b" x="121" y="206" id="use74" />
    <use xlink:href="#b" x="244" y="144" id="use76" />
    <use xlink:href="#b" x="94" y="182" id="use78" />
    <use xlink:href="#b" x="103" y="118" id="use80" />
    <use xlink:href="#b" x="58" y="32" id="use82" />
    <use xlink:href="#b" x="121" y="123" id="use84" />
    <use xlink:href="#b" x="77" y="248" id="use86" />
    <use xlink:href="#b" x="116" y="18" id="use88" />
    <use xlink:href="#b" x="99" y="75" id="use90" />
    <use xlink:href="#b" x="75" y="186" id="use92" />
    <use xlink:href="#b" x="15" y="244" id="use94" />
    <use xlink:href="#b" x="95" y="51" id="use96" />
    <use xlink:href="#b" x="78" y="35" id="use98" />
    <use xlink:href="#b" x="252" y="208" id="use100" />
    <use xlink:href="#b" x="144" y="32" id="use102" />
    <use xlink:href="#b" x="99" y="158" id="use104" />
    <use xlink:href="#b" x="74" y="101" id="use106" />
    <use xlink:href="#b" x="251" y="249" id="use108" />
    <use xlink:href="#b" x="188" y="31" id="use110" />
    <use xlink:href="#b" x="117" y="231" id="use112" />
    <use xlink:href="#b" x="230" y="117" id="use114" />
    <use xlink:href="#b" x="166" y="165" id="use116" />
    <use xlink:href="#b" x="79" y="122" id="use118" />
    <use xlink:href="#b" x="208" y="251" id="use120" />
    <use xlink:href="#b" x="166" y="206" id="use122" />
    <use xlink:href="#b" x="143" y="202" id="use124" />
    <use xlink:href="#b" x="161" y="36" id="use126" />
    <use xlink:href="#b" x="200" y="16" id="use128" />
    <use xlink:href="#b" x="12" y="51" id="use130" />
    <use xlink:href="#b" x="58" y="117" id="use132" />
    <use xlink:href="#b" x="37" y="248" id="use134" />
    <use xlink:href="#b" x="141" y="116" id="use136" />
    <use xlink:href="#b" x="223" y="9" id="use138" />
    <use xlink:href="#b" x="81" y="165" id="use140" />
    <use xlink:href="#b" x="229" y="159" id="use142" />
    <use xlink:href="#b" x="143" y="159" id="use144" />
    <use xlink:href="#b" x="223" y="137" id="use146" />
    <use xlink:href="#b" x="187" y="161" id="use148" />
    <use xlink:href="#b" x="31" y="100" id="use150" />
    <use xlink:href="#b" x="75" y="228" id="use152" />
    <use xlink:href="#b" x="123" y="251" id="use154" />
    <use xlink:href="#b" x="138" y="8" id="use156" />
    <use xlink:href="#b" x="157" y="143" id="use158" />
    <use xlink:href="#b" x="122" y="38" id="use160" />
    <use xlink:href="#b" x="122" y="80" id="use162" />
    <use xlink:href="#b" x="222" y="179" id="use164" />
    <use xlink:href="#b" x="253" y="121" id="use166" />
    <use xlink:href="#b" x="207" y="208" id="use168" />
    <use xlink:href="#b" x="200" y="230" id="use170" />
    <use xlink:href="#b" x="164" y="123" id="use172" />
    <use xlink:href="#b" x="243" y="187" id="use174" />
    <use xlink:href="#b" x="50" y="10" id="use176" />
    <use xlink:href="#b" x="203" y="144" id="use178" />
    <use xlink:href="#b" x="250" y="38" id="use180" />
    <use xlink:href="#b" x="223" y="92" id="use182" />
    <use xlink:href="#b" x="245" y="229" id="use184" />
    <use xlink:href="#b" x="223" y="223" id="use186" />
    <use xlink:href="#b" x="38" y="166" id="use188" />
    <use xlink:href="#b" x="30" y="185" id="use190" />
    <use xlink:href="#b" x="16" y="201" id="use192" />
    <use xlink:href="#b" x="38" y="208" id="use194" />
    <use xlink:href="#b" x="31" y="143" id="use196" />
    <use xlink:href="#b" x="31" y="13" id="use198" />
    <use xlink:href="#b" x="16" y="75" id="use200" />
    <use xlink:href="#b" x="160" y="60" id="use202" />
    <use xlink:href="#b" x="72" y="143" id="use204" />
    <use xlink:href="#b" x="30" y="58" id="use206" />
    <use xlink:href="#b" x="15" y="30" id="use208" />
    <use xlink:href="#b" x="245" y="16" id="use210" />
    <use xlink:href="#b" x="181" y="180" id="use212" />
    <use xlink:href="#b" x="74" y="56" id="use214" />
    <use xlink:href="#b" x="202" y="186" id="use216" />
    <use xlink:href="#b" x="159" y="104" id="use218" />
    <use xlink:href="#b" x="229" y="203" id="use220" />
    <use xlink:href="#b" x="185" y="202" id="use222" />
    <use xlink:href="#b" x="13" y="157" id="use224" />
    <use xlink:href="#b" x="203" y="102" id="use226" />
    <use xlink:href="#b" x="38" y="79" id="use228" />
    <use xlink:href="#b" x="16" y="115" id="use230" />
    <use xlink:href="#b" x="99" y="245" id="use232" />
    <use xlink:href="#b" x="9" y="223" id="use234" />
    <use xlink:href="#b" x="120" y="166" id="use236" />
    <use xlink:href="#b" x="229" y="244" id="use238" />
    <use xlink:href="#b" x="243" y="103" id="use240" />
    <use xlink:href="#b" x="208" y="120" id="use242" />
    <use xlink:href="#b" x="181" y="223" id="use244" />
    <use xlink:href="#b" x="36" y="39" id="use246" />
    <use xlink:href="#b" x="139" y="136" id="use248" />
    <use xlink:href="#b" x="117" y="142" id="use250" />
    <use xlink:href="#b" x="93" y="137" id="use252" />
    <use xlink:href="#b" x="53" y="181" id="use254" />
    <use xlink:href="#b" x="205" y="165" id="use256" />
    <use xlink:href="#b" x="36" y="123" id="use258" />
    <use xlink:href="#b" x="163" y="251" id="use260" />
    <use xlink:href="#b" x="246" y="60" id="use262" />
    <use xlink:href="#b" x="51" y="224" id="use264" />
    <use xlink:href="#b" x="207" y="36" id="use266" />
    <use xlink:href="#b" x="56" y="73" id="use268" />
    <use xlink:href="#b" x="56" y="244" id="use270" />
    <use xlink:href="#b" x="186" y="243" id="use272" />
    <use xlink:href="#b" x="181" y="136" id="use274" />
    <use xlink:href="#b" x="179" y="94" id="use276" />
    <use xlink:href="#b" x="181" y="50" id="use278" />
    <use xlink:href="#b" x="188" y="119" id="use280" />
    <use xlink:href="#b" x="139" y="222" id="use282" />
    <use xlink:href="#b" x="99" y="32" id="use284" />
    <use xlink:href="#b" x="142" y="243" id="use286" />
    <use xlink:href="#b" x="139" y="94" id="use288" />
    <use xlink:href="#b" x="74" y="17" id="use290" />
    <use xlink:href="#b" x="250" y="79" id="use292" />
    <use xlink:href="#b" x="56" y="201" id="use294" />
  </g>
</svg>
