<svg xmlns="http://www.w3.org/2000/svg" width="512" height="512">
    <path d="M236.59 0l.879 1.318h-2.406v1h7v-1h-2.407l.88-1.318h-1.18l-.293.443V0h-1v.443L237.77 0h-1.18zM346.1 0l.46.691h-2.406v1h7v-1h-2.406L349.21 0h-3.11zm101.857 2.469v4.125l-1.594-2.407-.812.563 1.812 2.719h-2.406v1h7v-1h-2.406l1.812-2.719-.812-.563-1.594 2.407V2.469h-1zM4.314 4.07v4.125L2.721 5.79l-.813.563L3.721 9.07H1.314v1h7v-1H5.908l1.813-2.718-.813-.563-1.594 2.406V4.07h-1zm393.022.166v4.125l-1.594-2.406-.812.563 1.812 2.718h-2.406v1h7v-1h-2.406l1.812-2.718-.812-.563-1.594 2.406V4.236h-1zm-207.514.53V8.89l-1.593-2.407-.813.563 1.813 2.719h-2.407v1h7v-1h-2.406l1.813-2.72-.813-.562-1.594 2.407V4.766h-1zm114.907.379V9.27l-1.594-2.407-.813.563 1.813 2.719h-2.406v1h7v-1h-2.407l1.813-2.72-.813-.562-1.593 2.407V5.145h-1zm73.021.15V9.42l-1.594-2.406-.812.562 1.812 2.719h-2.406v1h7v-1h-2.406l1.812-2.719-.812-.562-1.594 2.406V5.295h-1zM30.174 6.307v4.125L28.58 8.025l-.812.563 1.812 2.719h-2.406v1h7v-1h-2.406l1.812-2.72-.812-.562-1.594 2.407V6.307h-1zm397.135.761v4.125l-1.594-2.406-.813.563 1.813 2.718h-2.406v1h7v-1h-2.407l1.813-2.718-.813-.563-1.593 2.406V7.068h-1zm-153.424.211v4.125l-1.594-2.406-.812.563 1.812 2.718h-2.406v1h7v-1h-2.406l1.812-2.718-.812-.563-1.594 2.406V7.28h-1zm-111.844.012v4.125l-1.594-2.406-.812.562 1.812 2.719h-2.406v1h7v-1h-2.406l1.812-2.719-.812-.562-1.594 2.406V7.291h-1zm61.313 1.566v4.125l-1.594-2.406-.813.563 1.813 2.718h-2.406v1h7v-1h-2.407l1.813-2.718-.813-.563-1.593 2.406V8.857h-1zm-140.249.2v4.125l-1.593-2.407-.813.563 1.813 2.719h-2.407v1h7v-1H84.7l1.813-2.72-.813-.562-1.594 2.407V9.057h-1zm420.036.609v4.125l-1.594-2.406-.813.562 1.813 2.719h-2.406v1h7v-1h-2.407l1.813-2.719-.813-.562-1.593 2.406V9.666h-1zm-364.327 1.393v4.125l-1.593-2.405-.813.563 1.813 2.717h-2.407v1h7v-1h-2.406l1.813-2.717-.813-.563-1.594 2.405v-4.125h-1zm-32 .386v4.125l-1.593-2.406-.813.563 1.813 2.718h-2.407v1h7v-1h-2.406l1.813-2.718-.813-.563-1.594 2.406v-4.125h-1zm-52.978 1.092v4.125l-1.594-2.406-.812.562 1.812 2.72h-2.406v1h7v-1H55.43l1.812-2.72-.812-.562-1.594 2.406v-4.125h-1zm148.488 1.621v4.125l-1.594-2.404-.812.562 1.812 2.717h-2.406v1h7v-1h-2.406l1.812-2.717-.812-.562-1.594 2.404v-4.125h-1zm116.746.262v4.125l-1.593-2.406-.813.562 1.813 2.719h-2.407v1h7v-1h-2.406l1.813-2.719-.813-.562-1.594 2.406V14.42h-1zm155.957.617v4.125l-1.593-2.406-.813.562 1.813 2.72h-2.407v1h7v-1h-2.406l1.813-2.72-.813-.562-1.594 2.406v-4.125h-1zm-126.75 1.787v4.125l-1.593-2.406-.813.562 1.813 2.72h-2.407v1h7v-1h-2.406l1.813-2.72-.813-.562-1.594 2.406v-4.125h-1zm-93.925.19v4.125l-1.594-2.407-.813.563 1.813 2.719h-2.406v1h7v-1h-2.407l1.813-2.72-.813-.562-1.593 2.407v-4.125h-1zm147.486 9.457v4.125l-1.594-2.407-.812.563 1.812 2.719h-2.406v1h7v-1h-2.406l1.812-2.719-.812-.563-1.594 2.407V26.47h-1zm-268.266.177v4.125l-1.593-2.406-.813.563 1.813 2.718h-2.407v1h7v-1h-2.406l1.813-2.718-.813-.563-1.594 2.406v-4.125h-1zm-106.777 2.84v4.125L25.2 31.207l-.812.563 1.812 2.718h-2.406v1h7v-1h-2.406L30.2 31.77l-.812-.563-1.594 2.406v-4.125h-1zm31.96.35v4.125l-1.593-2.406-.812.562 1.812 2.719h-2.406v1h7v-1H60.35l1.812-2.719-.812-.562-1.594 2.406v-4.125h-1zm227.054.826v4.125l-1.594-2.406-.813.562 1.813 2.72h-2.406v1h7v-1h-2.407l1.813-2.72-.813-.562-1.593 2.406v-4.125h-1zm-54.07.06v4.126l-1.594-2.407-.813.563 1.813 2.719h-2.407v1h7v-1h-2.406l1.813-2.72-.813-.562-1.594 2.407v-4.125h-1zm145.099.616v4.125l-1.594-2.406-.812.562 1.812 2.719h-2.406v1h7v-1h-2.406l1.812-2.719-.812-.562-1.594 2.406V31.34h-1zm70.887.375v4.125l-1.594-2.406-.813.562 1.813 2.719h-2.406v1h7v-1h-2.407l1.813-2.719-.813-.562-1.593 2.406v-4.125h-1zM2.19 32.408v4.125L.598 34.127 0 34.541v.47l1.598 2.397H0v1h6.191v-1H3.785l1.813-2.719-.813-.562-1.594 2.406v-4.125h-1zm318.66.88v4.124l-1.593-2.406-.813.562 1.813 2.72h-2.406v1h7v-1h-2.407l1.813-2.72-.813-.562-1.593 2.406v-4.125h-1zm-143.302.983v4.125l-1.594-2.406-.812.563 1.812 2.718h-2.406v1h7v-1h-2.406l1.812-2.718-.812-.563-1.594 2.406v-4.125h-1zm334.451.27l-.215.148.215.323v-.471zm-427.143.236v4.125l-1.593-2.406-.813.563 1.813 2.718h-2.407v1h7v-1H86.45l1.813-2.718-.813-.563-1.594 2.406v-4.125h-1zm342.456.647v4.125l-1.594-2.406-.813.562 1.813 2.719h-2.406v1h7v-1h-2.407l1.813-2.719-.813-.562-1.594 2.406v-4.125h-1zm-165.167 1.654v4.125l-1.593-2.406-.813.562 1.813 2.72h-2.407v1h7v-1h-2.406l1.813-2.72-.813-.562-1.594 2.406v-4.125h-1zm83.217.012v4.125l-1.593-2.406-.813.562 1.813 2.719h-2.407v1h7v-1h-2.406l1.813-2.719-.813-.562-1.594 2.406V37.09h-1zm165.828.318v1h.81v-1h-.809zm-302.003.139v4.125l-1.594-2.406-.813.562 1.813 2.719h-2.406v1h7v-1h-2.407l1.813-2.719-.813-.562-1.594 2.406v-4.125h-1zm288.093.433v4.125l-1.594-2.406-.812.563 1.813 2.718h-2.407v1h7v-1h-2.406l1.813-2.718-.813-.563-1.594 2.406V37.98h-1zm-392.676.532v4.125l-1.593-2.407-.813.563 1.813 2.719h-2.407v1h7v-1H106.2l1.813-2.719-.813-.563-1.594 2.407v-4.125h-1zm49.844.46v4.126l-1.594-2.407-.812.563 1.812 2.719h-2.406v1h7v-1h-2.406l1.812-2.72-.812-.562-1.594 2.407v-4.125h-1zm310.946 2.112v4.125l-1.594-2.406-.813.562 1.813 2.719h-2.406v1h7v-1h-2.407l1.813-2.719-.813-.562-1.593 2.406v-4.125h-1zM303.74 42.488v4.125l-1.594-2.406-.812.563 1.812 2.718h-2.406v1h7v-1h-2.406l1.812-2.718-.812-.563-1.594 2.406v-4.125h-1zm118.248 8.881v4.125l-1.593-2.406-.813.562 1.813 2.72h-2.407v1h7v-1h-2.406l1.813-2.72-.813-.562-1.594 2.406V51.37h-1zm-372.101.244v4.125l-1.594-2.406-.813.563 1.813 2.718h-2.406v1h7v-1H51.48l1.813-2.718-.813-.563-1.593 2.406v-4.125h-1zm29.498 2.645v4.125l-1.594-2.404-.812.562 1.812 2.717h-2.406v1h7v-1h-2.406l1.812-2.717-.812-.562-1.594 2.404v-4.125h-1zm398.199.08v4.125l-1.594-2.406-.812.562 1.812 2.719h-2.406v1h7v-1h-2.406l1.812-2.719-.812-.562-1.594 2.406v-4.125h-1zm-295.016.98v4.125l-1.593-2.404-.813.563 1.813 2.716h-2.407v1h7v-1h-2.406l1.813-2.716-.813-.563-1.594 2.404v-4.125h-1zm-53.82 1.694v4.125l-1.594-2.407-.812.563 1.812 2.719h-2.406v1h7v-1h-2.406l1.812-2.719-.812-.563-1.594 2.407v-4.125h-1zm233.746.263V61.4l-1.594-2.406-.812.563 1.812 2.718h-2.406v1h7v-1h-2.406l1.812-2.718-.812-.563-1.594 2.406v-4.125h-1zm-108.974.465v4.125l-1.594-2.406-.813.562 1.813 2.72h-2.406v1h7v-1h-2.407l1.813-2.72-.813-.562-1.593 2.406V57.74h-1zm147.962.145v4.125l-1.593-2.406-.813.562 1.813 2.719h-2.407v1h7v-1h-2.406l1.813-2.719-.813-.562-1.594 2.406v-4.125h-1zm-387.97.103v4.125l-1.594-2.406-.813.563 1.813 2.718h-2.406v1h7v-1h-2.407l1.813-2.718-.813-.563-1.593 2.406v-4.125h-1zm189.537.5v4.125l-1.594-2.406-.812.563 1.812 2.718h-2.406v1h7v-1h-2.406l1.812-2.718-.812-.563-1.594 2.406v-4.125h-1zm98.857.578v4.125l-1.594-2.406-.812.563 1.813 2.718h-2.407v1h7v-1H303.5l1.813-2.718-.813-.563-1.594 2.406v-4.125h-1zm-25.011.905v4.125l-1.594-2.407-.813.563 1.813 2.719h-2.406v1h7v-1h-2.407l1.813-2.719-.813-.563-1.593 2.407V59.97h-1zm-45.256.42v4.125l-1.594-2.407-.813.563 1.813 2.719h-2.406v1h7v-1h-2.407l1.813-2.72-.813-.562-1.593 2.407V60.39h-1zm-198.727.607v4.125l-1.594-2.406-.812.562 1.812 2.719h-2.406v1h7v-1h-2.406l1.812-2.719-.812-.562-1.594 2.406v-4.125h-1zm468.033.6v4.125l-1.593-2.407-.813.563 1.813 2.719h-2.407v1h7v-1h-2.406l1.813-2.72-.813-.562-1.594 2.407v-4.125h-1zm-167.257.918v4.125l-1.594-2.407-.813.563 1.813 2.719h-2.406v1h7v-1h-2.407l1.813-2.72-.813-.562-1.594 2.407v-4.125h-1zm108.119.111v4.125l-1.594-2.406-.813.562 1.813 2.719h-2.406v1h7v-1H443.4l1.813-2.719-.813-.562-1.593 2.406v-4.125h-1zm-63.383.566v4.125l-1.594-2.406-.812.563 1.812 2.718h-2.406v1h7v-1h-2.406l1.812-2.718-.812-.563-1.594 2.406v-4.125h-1zm-218.315.045v4.125l-1.593-2.406-.813.563 1.813 2.718h-2.407v1h7v-1h-2.406l1.813-2.718-.813-.563-1.594 2.406v-4.125h-1zm-52.021 5.303v4.125l-1.594-2.406-.812.562 1.812 2.719h-2.406v1h7v-1h-2.406l1.812-2.719-.812-.562-1.594 2.406v-4.125h-1zm299.943 6.648v4.125l-1.594-2.406-.812.563 1.813 2.718h-2.407v1h7v-1h-2.406l1.813-2.718-.813-.563-1.594 2.406V75.19h-1zm45.149.047v4.125l-1.594-2.406-.813.563 1.813 2.718h-2.406v1h7v-1h-2.407l1.813-2.718-.813-.563-1.593 2.406v-4.125h-1zm-145.102 1.727v4.125l-1.594-2.406-.812.562 1.812 2.719h-2.406v1h7v-1h-2.406l1.812-2.719-.812-.562-1.594 2.406v-4.125h-1zm-245.785 2.82v4.125l-1.594-2.406-.812.562 1.812 2.72h-2.406v1h7v-1h-2.406l1.812-2.72-.812-.562-1.594 2.406v-4.125h-1zm16.646.254v4.125l-1.593-2.406-.813.562 1.813 2.72h-2.407v1h7v-1h-2.406l1.813-2.72-.813-.562-1.594 2.406v-4.125h-1zm416.059 1.164v4.125l-1.594-2.406-.812.562 1.812 2.72h-2.406v1h7v-1h-2.406l1.812-2.72-.812-.562-1.594 2.406v-4.125h-1zm-24.934.563v4.125l-1.593-2.407-.813.563 1.813 2.719h-2.407v1h7v-1h-2.406l1.813-2.72-.813-.562-1.594 2.407v-4.125h-1zm-215.082.562v4.125l-1.593-2.406-.813.562 1.813 2.72h-2.407v1h7v-1h-2.406l1.813-2.72-.813-.562-1.594 2.406v-4.125h-1zm-46.502.131v4.125l-1.593-2.406-.813.562 1.813 2.719h-2.407v1h7v-1h-2.406l1.813-2.719-.813-.562-1.594 2.406v-4.125h-1zm140.793.682v4.125l-1.593-2.407-.813.563 1.813 2.719h-2.407v1h7v-1h-2.406l1.813-2.72-.813-.562-1.594 2.407v-4.125h-1zm-63.265.363v4.125l-1.594-2.406-.812.562 1.812 2.719h-2.406v1h7v-1h-2.406l1.812-2.719-.812-.562-1.594 2.406v-4.125h-1zm-150.072.69v4.124l-1.594-2.406-.813.563 1.813 2.718h-2.406v1h7v-1h-2.407l1.813-2.718-.813-.563-1.593 2.406v-4.125h-1zm50.513 1.097v4.125l-1.594-2.406-.812.562 1.812 2.72h-2.406v1h7v-1h-2.406l1.812-2.72-.812-.562-1.594 2.406V85.29h-1zm191.242.096v4.125l-1.593-2.406-.813.562 1.813 2.719h-2.407v1h7v-1h-2.406l1.813-2.719-.813-.562-1.594 2.406v-4.125h-1zm-340.634.107v4.125l-1.594-2.406-.813.562 1.813 2.72h-2.406v1h7v-1H38.65l1.813-2.72-.813-.562-1.593 2.406v-4.125h-1zm117.455 1.156v4.125l-1.594-2.406-.813.563 1.813 2.718h-2.406v1h7v-1h-2.407l1.813-2.718-.813-.563-1.593 2.406v-4.125h-1zm-140.088.48v4.126l-1.594-2.406-.812.562 1.812 2.719h-2.406v1h7v-1h-2.406l1.812-2.719-.812-.562-1.594 2.406v-4.125h-1zm420.847 1.718v4.125l-1.593-2.405-.813.563 1.813 2.717h-2.407v1h7v-1h-2.406l1.813-2.717-.813-.563-1.594 2.405v-4.125h-1zm-117.13 1.664v4.125l-1.594-2.406-.813.562 1.813 2.719h-2.406v1h7v-1h-2.407l1.813-2.719-.813-.562-1.593 2.406V90.51h-1zm-212.405.18v4.124l-1.593-2.406-.813.563 1.813 2.718h-2.407v1h7v-1h-2.406l1.813-2.718-.813-.563-1.594 2.406V90.69h-1zm130.678.11v4.126l-1.594-2.406-.812.562 1.812 2.719h-2.406v1h7v-1h-2.406l1.812-2.719-.812-.562-1.594 2.406V90.8h-1zM6.076 101.7v4.124l-1.594-2.406-.812.562 1.812 2.72H3.076v1h7v-1H7.67l1.812-2.72-.812-.562-1.594 2.406V101.7h-1zm418.352.152v4.125l-1.594-2.407-.813.563 1.813 2.719h-2.406v1h7v-1h-2.407l1.813-2.72-.813-.562-1.593 2.407v-4.125h-1zm-335.276 1.394v4.125l-1.593-2.406-.813.562 1.813 2.72h-2.407v1h7v-1h-2.406l1.813-2.72-.813-.562-1.594 2.406v-4.125h-1zm72.121.488v4.125l-1.593-2.406-.813.563 1.813 2.718h-2.407v1h7v-1h-2.406l1.813-2.718-.813-.563-1.594 2.406v-4.125h-1zm119.426.473v4.125l-1.594-2.406-.812.562 1.812 2.719H277.7v1h7v-1h-2.406l1.812-2.719-.812-.562-1.594 2.406v-4.125h-1zm122.826.006v4.125l-1.593-2.406-.813.562 1.813 2.719h-2.407v1h7v-1h-2.406l1.813-2.719-.813-.562-1.594 2.406v-4.125h-1zm-219.045 1.121v4.125l-1.593-2.406-.813.562 1.813 2.719h-2.407v1h7v-1h-2.406l1.813-2.719-.813-.562-1.594 2.406v-4.125h-1zm141.8.037v4.125l-1.594-2.406-.813.562 1.813 2.72h-2.407v1h7v-1h-2.406l1.813-2.72-.813-.562-1.594 2.406v-4.125h-1zm142.43.108v4.125l-1.593-2.407-.812.563 1.812 2.719h-2.406v1h7v-1h-2.406l1.812-2.72-.812-.562-1.594 2.407v-4.125h-1zm-85.458.136v4.125l-1.594-2.406-.812.562 1.812 2.72h-2.406v1h7v-1h-2.406l1.812-2.72-.812-.562-1.594 2.406v-4.125h-1zm-31.238 1.248v4.125l-1.594-2.406-.813.563 1.813 2.718h-2.406v1h7v-1h-2.407l1.813-2.718-.813-.563-1.593 2.406v-4.125h-1zm136.26 1.203v4.125l-1.594-2.404-.813.563 1.813 2.716h-2.407v1h7v-1h-2.406l1.813-2.716-.813-.563-1.594 2.404v-4.125h-1zm-257.928.873v4.125l-1.594-2.406-.813.563 1.813 2.718h-2.406v1h7v-1h-2.407l1.813-2.718-.813-.563-1.593 2.406v-4.125h-1zm-164.33.366v4.125l-1.594-2.407-.813.563 1.813 2.719h-2.406v1h7v-1h-2.407l1.813-2.72-.813-.562-1.593 2.407v-4.125h-1zm196.46.111v4.125l-1.593-2.404-.813.562 1.813 2.717h-2.406v1h7v-1h-2.407l1.813-2.717-.813-.562-1.593 2.404v-4.125h-1zm-225.695.635v4.125l-1.593-2.406-.813.562 1.813 2.719H33.78v1h7v-1h-2.406l1.813-2.719-.813-.562-1.594 2.406v-4.125h-1zm81.414.613v4.125l-1.593-2.406-.813.562 1.813 2.72h-2.407v1h7v-1h-2.406l1.813-2.72-.813-.562-1.594 2.406v-4.125h-1zm336.72 1.088v4.125l-1.595-2.406-.812.562 1.812 2.719h-2.406v1h7v-1h-2.406l1.812-2.719-.812-.562-1.594 2.406v-4.125h-1zm-252.145 1.37v4.124l-1.594-2.406-.813.562 1.813 2.72h-2.406v1h7v-1h-2.407l1.813-2.72-.813-.562-1.593 2.406v-4.125h-1zm93.46.68v4.126l-1.593-2.407-.813.563 1.813 2.719h-2.407v1h7v-1h-2.406l1.813-2.719-.813-.563-1.594 2.407v-4.125h-1zm-155.105 1.909v4.125l-1.594-2.406-.812.562 1.812 2.719h-2.406v1h7v-1h-2.406l1.812-2.719-.812-.562-1.594 2.406v-4.125h-1zm283.764 7.37v4.124l-1.594-2.406-.813.562 1.813 2.72h-2.406v1h7v-1h-2.407l1.813-2.72-.813-.562-1.593 2.406v-4.125h-1zM8.047 124.126v4.125l-1.594-2.406-.812.562 1.812 2.719H5.047v1h7v-1H9.64l1.812-2.719-.812-.562-1.594 2.406v-4.125h-1zm370.674.355v4.125l-1.594-2.406-.813.563 1.813 2.718h-2.406v1h7v-1h-2.407l1.813-2.718-.813-.563-1.593 2.406v-4.125h-1zm-143.742 1.264v4.125l-1.594-2.406-.813.562 1.813 2.72h-2.406v1h7v-1h-2.407l1.813-2.72-.813-.562-1.593 2.406v-4.125h-1zm209.689.865v4.125l-1.594-2.406-.812.563 1.812 2.718h-2.406v1h7v-1h-2.406l1.812-2.718-.812-.563-1.594 2.406v-4.125h-1zm-414.287.582v4.125l-1.594-2.406-.812.563 1.812 2.718h-2.406v1h7v-1h-2.406l1.812-2.718-.812-.563-1.594 2.406v-4.125h-1zm132.148 1.51v4.125l-1.593-2.406-.813.562 1.813 2.72h-2.407v1h7v-1h-2.406l1.813-2.72-.813-.562-1.594 2.406v-4.125h-1zm-100.16.258v4.125l-1.594-2.406-.812.562 1.812 2.719H59.37v1h7v-1h-2.406l1.812-2.719-.812-.562-1.594 2.406v-4.125h-1zm192.97.75v4.125l-1.593-2.406-.812.562 1.812 2.719h-2.406v1h7v-1h-2.406l1.812-2.719-.812-.562-1.594 2.406v-4.125h-1zm241.917.34v4.125l-1.594-2.406-.812.562 1.812 2.719h-2.406v1h7v-1h-2.406l1.812-2.719-.812-.562-1.594 2.406v-4.125h-1zm-191.277.166v4.125l-1.594-2.406-.813.562 1.813 2.719h-2.406v1h7v-1h-2.407l1.813-2.719-.813-.562-1.593 2.406v-4.125h-1zm-201.965 1.355v4.125l-1.594-2.406-.813.563 1.813 2.718h-2.406v1h7v-1h-2.407l1.813-2.718-.813-.563-1.593 2.406v-4.125h-1zm224.416.772v4.125l-1.594-2.406-.813.562 1.813 2.719h-2.406v1h7v-1h-2.407l1.813-2.719-.813-.563-1.593 2.407v-4.125h-1zm-197.614.414v4.125l-1.593-2.406-.813.562 1.813 2.719h-2.407v1h7v-1h-2.406l1.813-2.719-.813-.562-1.594 2.406v-4.125h-1zm217.33.181v4.125l-1.593-2.406-.813.563 1.813 2.718h-2.407v1h7v-1h-2.406l1.813-2.718-.813-.563-1.594 2.406v-4.125h-1zm-138.888 1.663v4.125l-1.594-2.405-.812.563 1.812 2.717h-2.406v1h7v-1h-2.406l1.812-2.717-.812-.563-1.594 2.405v-4.125h-1zm-124.082.384v4.125l-1.594-2.406-.812.563 1.812 2.718h-2.406v1h7v-1H86.77l1.812-2.718-.812-.563-1.594 2.406v-4.125h-1zm312.488.649v4.125l-1.594-2.406-.812.562 1.812 2.719h-2.406v1h7v-1h-2.406l1.812-2.719-.812-.562-1.594 2.406v-4.125h-1zm-117.662.613v4.125l-1.594-2.406-.812.562 1.812 2.72h-2.406v1h7v-1h-2.406l1.812-2.72-.812-.562-1.594 2.406v-4.125h-1zm194.607.63v4.126l-1.593-2.406-.813.562 1.813 2.719h-2.407v1h7v-1h-2.406l1.813-2.719-.813-.562-1.594 2.406v-4.125h-1zm-290.072.45v4.125l-1.594-2.406-.812.562 1.812 2.72h-2.406v1h7v-1h-2.406l1.812-2.72-.812-.562-1.594 2.406v-4.125h-1zm172.041 10.317v4.125l-1.594-2.407-.812.563 1.812 2.719h-2.406v1h7v-1h-2.406l1.812-2.72-.812-.562-1.594 2.407v-4.125h-1zm-100.185 1.863v4.125l-1.594-2.406-.813.562 1.813 2.719h-2.406v1h7v-1h-2.407l1.813-2.719-.813-.562-1.593 2.406v-4.125h-1zm-213.76.676v4.125l-1.594-2.407-.812.563 1.812 2.719h-2.406v1h7v-1h-2.406l1.812-2.72-.812-.562-1.594 2.407v-4.125h-1zm382.451.11v4.126l-1.594-2.406-.812.562 1.812 2.719h-2.406v1h7v-1h-2.406l1.812-2.719-.812-.562-1.594 2.406v-4.125h-1zm-199.451.626v4.125l-1.594-2.406-.812.562 1.812 2.719h-2.406v1h7v-1h-2.406l1.812-2.719-.812-.562-1.594 2.406v-4.125h-1zm277.554.445v4.125l-1.593-2.406-.813.562 1.813 2.72h-2.406v1h7v-1h-2.407l1.813-2.72-.813-.562-1.594 2.406v-4.125h-1zm-366.505 1.317v4.125l-1.594-2.405-.813.563 1.813 2.717h-2.406v1h7v-1h-2.407l1.813-2.717-.813-.563-1.593 2.405v-4.125h-1zm46.521.464v4.125l-1.594-2.406-.812.563 1.812 2.718h-2.406v1h7v-1h-2.406l1.812-2.718-.812-.563-1.594 2.406v-4.125h-1zm-171.357.21v4.124l-1.594-2.406-.813.563 1.813 2.718H8.846v1h7v-1h-2.407l1.813-2.718-.813-.563-1.593 2.406v-4.125h-1zm384.328.119v4.125l-1.594-2.407-.812.563 1.812 2.719h-2.406v1h7v-1h-2.406l1.812-2.72-.812-.562-1.594 2.407v-4.125h-1zm-242.182 1.283v4.125l-1.594-2.406-.812.562 1.812 2.719h-2.406v1h7v-1h-2.406l1.812-2.719-.812-.562-1.594 2.406v-4.125h-1zm171.59.81v4.125l-1.594-2.406-.812.563 1.812 2.718h-2.406v1h7v-1h-2.406l1.812-2.718-.812-.563-1.594 2.406v-4.125h-1zm47.25.368v4.125l-1.594-2.407-.812.563 1.812 2.719h-2.406v1h7v-1h-2.406l1.812-2.72-.812-.562-1.594 2.407v-4.125h-1zm-93.666 1.154v4.125l-1.594-2.406-.812.562 1.812 2.719h-2.406v1h7v-1h-2.406l1.812-2.719-.812-.562-1.594 2.406v-4.125h-1zm172.324.256v4.125l-1.594-2.407-.812.563 1.812 2.719h-2.406v1h7v-1h-2.406l1.812-2.72-.812-.562-1.594 2.407v-4.125h-1zm-368.549.361v4.125l-1.593-2.406-.813.562 1.813 2.719H79.94v1h7v-1h-2.406l1.813-2.719-.813-.562-1.594 2.406v-4.125h-1zm30.7 2.09v4.125l-1.594-2.406-.813.562 1.813 2.719h-2.406v1h7v-1h-2.407l1.813-2.719-.813-.562-1.593 2.406v-4.125h-1zm-55.227.914v4.125l-1.594-2.406-.812.562 1.812 2.719h-2.406v1h7v-1h-2.406l1.812-2.719-.812-.562-1.594 2.406v-4.125h-1zm241.23.85v4.125l-1.593-2.407-.813.563 1.813 2.719h-2.406v1h7v-1h-2.407l1.813-2.72-.813-.562-1.593 2.407v-4.125h-1zm175.987 2.593v4.125l-1.594-2.406-.812.563 1.812 2.718h-2.406v1h7v-1h-2.406l1.812-2.718-.812-.563-1.594 2.406v-4.125h-1zm-264.192 2.377v4.125l-1.593-2.406-.813.563 1.813 2.718h-2.407v1h7v-1h-2.406l1.813-2.719-.813-.562-1.594 2.406v-4.125h-1zm40.649 5.487v4.125l-1.594-2.407-.812.563 1.812 2.719h-2.406v1h7v-1h-2.406l1.812-2.72-.812-.562-1.594 2.407v-4.125h-1zm79.65.07v4.125l-1.593-2.406-.813.562 1.813 2.719h-2.407v1h7v-1h-2.406l1.813-2.719-.813-.562-1.594 2.406v-4.125h-1zm-94.16 3.389v4.125l-1.594-2.407-.812.563 1.812 2.719h-2.406v1h7v-1h-2.406l1.812-2.72-.812-.562-1.594 2.407v-4.125h-1zm-220.402.148v4.125l-1.594-2.406-.812.562 1.812 2.719h-2.406v1h7v-1H18.77l1.812-2.719-.812-.562-1.594 2.406v-4.125h-1zm388.316.113v4.125l-1.594-2.406-.812.563 1.812 2.718h-2.406v1h7v-1h-2.406l1.812-2.718-.812-.563-1.594 2.406v-4.125h-1zm-31.982.325v4.125l-1.594-2.407-.812.563 1.812 2.719h-2.406v1h7v-1h-2.406l1.812-2.72-.812-.562-1.594 2.406v-4.125h-1zm-195.707.029v4.125l-1.594-2.406-.813.562 1.813 2.719h-2.406v1h7v-1h-2.407l1.813-2.719-.813-.562-1.593 2.406v-4.125h-1zm321.613.595v4.125l-1.594-2.406-.812.563 1.812 2.719h-2.406v1h7v-1h-2.406l1.812-2.72-.812-.562-1.594 2.406v-4.125h-1zm-461.234.72v4.124l-1.594-2.406-.813.563 1.813 2.718h-2.406v1h7v-1h-2.407l1.813-2.719-.813-.562-1.593 2.406v-4.125h-1zm389.088.675v4.125l-1.594-2.406-.813.562 1.813 2.719h-2.406v1h7v-1h-2.407l1.813-2.719-.813-.562-1.593 2.406v-4.125h-1zm-77.633.24v4.125l-1.594-2.406-.813.563 1.813 2.718h-2.406v1h7v-1h-2.407l1.813-2.718-.813-.563-1.593 2.406v-4.125h-1zm-77.364 1.082v4.125l-1.593-2.404-.813.563 1.813 2.716h-2.407v1h7v-1h-2.406l1.813-2.716-.813-.563-1.594 2.404v-4.125h-1zm-133.431.06v4.126l-1.594-2.406-.812.562 1.812 2.719h-2.406v1h7v-1h-2.406l1.812-2.719-.812-.562-1.594 2.406v-4.125h-1zm59.672 1.8v4.125l-1.594-2.407-.813.563 1.813 2.719h-2.406v1h7v-1h-2.407l1.813-2.72-.813-.562-1.593 2.407v-4.125h-1zm102.984.941v4.125l-1.594-2.406-.812.562 1.812 2.72h-2.406v1h7v-1h-2.406l1.812-2.72-.812-.562-1.594 2.406v-4.125h-1zm-191.887.432v4.125l-1.593-2.407-.813.563 1.813 2.719h-2.407v1h7v-1h-2.406l1.813-2.719-.813-.563-1.594 2.407v-4.125h-1zm358.457.638v4.125l-1.593-2.406-.813.563 1.813 2.718h-2.407v1h7v-1h-2.406l1.813-2.718-.813-.563-1.594 2.406v-4.125h-1zm-305.207 1.723v4.125l-1.593-2.406-.813.562 1.813 2.72h-2.407v1h7v-1h-2.406l1.813-2.72-.813-.562-1.594 2.406v-4.125h-1zm-95.441.754v4.125l-1.594-2.406-.812.562 1.812 2.719H64.42v1h7v-1h-2.406l1.812-2.719-.812-.562-1.594 2.406v-4.125h-1zm17.473.396v4.125l-1.594-2.406-.813.563 1.813 2.718h-2.406v1h7v-1h-2.407l1.813-2.718-.813-.563-1.593 2.406v-4.125h-1zm356.222 1.502v4.125l-1.594-2.406-.812.563 1.812 2.718h-2.406v1h7v-1h-2.406l1.812-2.718-.812-.563-1.594 2.406v-4.125h-1zm-62.433 5.412v4.125l-1.594-2.406-.813.563 1.813 2.719h-2.406v1h7v-1h-2.407l1.813-2.72-.813-.562-1.593 2.406v-4.125h-1zm-147.534 3.12v4.125l-1.593-2.407-.813.563 1.813 2.719h-2.407v1h7v-1h-2.406l1.813-2.72-.813-.562-1.594 2.407v-4.125h-1zm245.262 2.738v4.125l-1.594-2.406-.812.562 1.812 2.719h-2.406v1h7v-1h-2.406l1.812-2.719-.812-.562-1.594 2.406v-4.125h-1zm-81.234 1.568v4.125l-1.594-2.406-.812.563 1.812 2.718h-2.406v1h7v-1h-2.406l1.812-2.718-.812-.563-1.594 2.406v-4.125h-1zm-181.432.94v4.125l-1.594-2.407-.812.563 1.812 2.719h-2.406v1h7v-1h-2.406l1.812-2.719-.812-.563-1.594 2.407v-4.125h-1zm96.277 1.097v4.125l-1.593-2.406-.813.563 1.813 2.718h-2.407v1h7v-1h-2.406l1.813-2.718-.813-.563-1.594 2.406v-4.125h-1zM4.402 203.717v4.125l-1.593-2.406-.813.562 1.813 2.719H1.402v1h7v-1H5.996l1.813-2.719-.813-.562-1.594 2.406v-4.125h-1zm247.567.306v4.125l-1.594-2.406-.813.563 1.813 2.718h-2.406v1h7v-1h-2.406l1.812-2.718-.813-.563-1.593 2.406v-4.125h-1zm78.654.018v4.125l-1.594-2.406-.812.562 1.812 2.719h-2.406v1h7v-1h-2.406l1.812-2.719-.812-.562-1.594 2.406v-4.125h-1zm-203.24.164v4.125l-1.594-2.406-.812.562 1.812 2.72h-2.406v1h7v-1h-2.406l1.812-2.72-.812-.562-1.594 2.406v-4.125h-1zm-96.256.178v4.125l-1.594-2.406-.812.562 1.812 2.719h-2.406v1h7v-1h-2.406l1.812-2.719-.812-.562-1.594 2.406v-4.125h-1zm247.66.449v4.125l-1.594-2.406-.812.562 1.812 2.719h-2.406v1h7v-1h-2.406l1.812-2.719-.812-.562-1.594 2.406v-4.125h-1zm75.524.004v4.125l-1.594-2.406-.813.562 1.813 2.719h-2.406v1h7v-1h-2.407l1.813-2.719-.813-.562-1.593 2.406v-4.125h-1zm141.326 1.635v4.125l-1.594-2.407-.813.563 1.813 2.719h-2.406v1h7v-1h-2.407l1.813-2.72-.813-.562-1.593 2.407v-4.125h-1zm-436.553.029v4.125l-1.594-2.406-.812.562 1.812 2.719h-2.406v1h7v-1h-2.406l1.812-2.719-.812-.562-1.594 2.406V206.5h-1zm126.045.781v4.125L183.535 209l-.812.563 1.812 2.718h-2.406v1h7v-1h-2.406l1.812-2.719-.812-.562-1.594 2.406v-4.125h-1zm230.6.477v4.125l-1.594-2.406-.813.562 1.813 2.719h-2.406v1h7v-1h-2.407l1.813-2.719-.813-.562-1.593 2.406v-4.125h-1zm31.882.205v4.125l-1.593-2.406-.813.562 1.813 2.719h-2.407v1h7v-1h-2.406l1.813-2.719-.813-.562-1.594 2.406v-4.125h-1zm-294.5.148v4.125l-1.593-2.406-.813.563 1.813 2.718h-2.407v1h7v-1h-2.406l1.813-2.718-.813-.563-1.594 2.406v-4.125h-1zm-50.01 4.407v4.125l-1.593-2.407-.813.563 1.813 2.719h-2.406v1h7v-1h-2.407l1.813-2.72-.813-.562-1.593 2.407v-4.125h-1zm-16.81 1.517v4.125l-1.594-2.404-.812.562 1.812 2.717h-2.406v1h7v-1h-2.406l1.812-2.717-.812-.562-1.594 2.404v-4.125h-1zm126.637 9.125v4.125l-1.594-2.406-.813.562 1.813 2.72h-2.406v1h7v-1h-2.407l1.813-2.72-.813-.562-1.593 2.406v-4.125h-1zm160.685.934v4.125l-1.593-2.406-.813.562 1.813 2.719h-2.407v1h7v-1h-2.406l1.813-2.719-.813-.563-1.594 2.407v-4.125h-1zm-192.72.215v4.125l-1.594-2.407-.813.563 1.813 2.719h-2.406v1h7v-1h-2.407l1.813-2.72-.813-.562-1.593 2.407v-4.125h-1zm-147.854.738v4.125l-1.594-2.406-.812.562 1.812 2.719H30.04v1h7v-1h-2.406l1.812-2.719-.812-.562-1.594 2.406v-4.125h-1zm247.97 2.1v4.124l-1.593-2.406-.812.563 1.812 2.718h-2.406v1h7v-1h-2.406l1.812-2.718-.812-.563-1.594 2.406v-4.125h-1zm-46.823.867v4.125l-1.594-2.407-.813.563 1.813 2.719h-2.406v1h7v-1h-2.407l1.813-2.72-.813-.562-1.593 2.407v-4.125h-1zm238.01.324v4.125l-1.594-2.406-.813.562 1.813 2.719h-2.407v1h7v-1h-2.406l1.813-2.719-.813-.562-1.594 2.406v-4.125h-1zm-311.005.197v4.125l-1.593-2.406-.813.562 1.813 2.72h-2.407v1h7v-1h-2.406l1.813-2.72-.813-.562-1.594 2.406v-4.125h-1zm172.225.543v4.125l-1.594-2.406-.812.562 1.812 2.72h-2.406v1h7v-1h-2.406l1.812-2.72-.812-.562-1.594 2.406v-4.125h-1zm25.8.623v4.125l-1.593-2.406-.812.562 1.812 2.72h-2.406v1h7v-1h-2.406l1.812-2.72-.812-.562-1.594 2.406v-4.125h-1zm-229.39.48v4.126l-1.594-2.407-.812.563 1.812 2.719h-2.406v1h7v-1h-2.406l1.812-2.72-.812-.562-1.594 2.407v-4.125h-1zm264.158 1.145v4.125l-1.593-2.406-.813.562 1.813 2.72h-2.407v1h7v-1h-2.406l1.813-2.72-.813-.562-1.594 2.406v-4.125h-1zm31.862.088v4.125l-1.594-2.406-.813.562 1.813 2.72h-2.406v1h7v-1h-2.407l1.813-2.72-.813-.562-1.593 2.406v-4.125h-1zm-315.364.041v4.125l-1.593-2.406-.813.562 1.813 2.72h-2.407v1h7v-1h-2.406l1.813-2.72-.813-.562-1.594 2.406v-4.125h-1zm-96.296.084v4.125l-1.594-2.406-.813.562 1.813 2.72h-2.406v1h7v-1h-2.407l1.813-2.72-.813-.562-1.593 2.406v-4.125h-1zm298.457.24v4.125l-1.594-2.406-.813.563 1.813 2.718h-2.406v1h7v-1h-2.407l1.813-2.718-.813-.563-1.593 2.406v-4.125h-1zm-255.696.12v4.124l-1.593-2.406-.813.563 1.813 2.718h-2.407v1h7v-1h-2.406l1.813-2.718-.813-.563-1.594 2.406v-4.125h-1zm445.362.497v4.125l-1.594-2.406-.813.563 1.813 2.718h-2.406v1h7v-1h-2.407l1.813-2.718-.813-.563-1.593 2.406v-4.125h-1zm-57.86.104v4.125l-1.594-2.406-.812.562 1.812 2.719h-2.406v1h7v-1h-2.406l1.812-2.719-.812-.562-1.594 2.406V232.5h-1zm-181.713.008v4.125l-1.593-2.406-.813.562 1.813 2.719h-2.407v1h7v-1h-2.406l1.813-2.719-.813-.562-1.594 2.406v-4.125h-1zm-184.252.488v4.125l-1.593-2.406-.813.562 1.813 2.72h-2.407v1h7v-1h-2.406l1.813-2.72-.813-.562-1.594 2.406v-4.125h-1zm110.54 11.39v4.126l-1.594-2.407-.813.563 1.813 2.719h-2.407v1h7v-1h-2.406l1.813-2.719-.813-.563-1.594 2.407v-4.125h-1zm-50.348 2.247v4.125l-1.594-2.406-.812.562 1.812 2.719h-2.406v1h7v-1h-2.406l1.812-2.719-.812-.562-1.594 2.406v-4.125h-1zm158.465 1.943v4.125l-1.594-2.406-.813.562 1.813 2.72h-2.406v1h7v-1h-2.407l1.813-2.72-.813-.562-1.593 2.406v-4.125h-1zm-86.784.639v4.125l-1.593-2.406-.813.562 1.813 2.719h-2.407v1h7v-1h-2.406l1.813-2.719-.813-.562-1.594 2.406v-4.125h-1zm137.028 1.342v4.125l-1.594-2.407-.812.563 1.812 2.719h-2.406v1h7v-1h-2.406l1.812-2.72-.812-.562-1.594 2.407v-4.125h-1zm128.619.18v4.124l-1.594-2.406-.812.563 1.812 2.718h-2.406v1h7v-1h-2.406l1.812-2.718-.812-.563-1.594 2.406v-4.125h-1zm-467.17.54v4.125l-1.594-2.406-.812.563 1.812 2.718H5.834v1h7v-1h-2.406l1.812-2.718-.812-.563-1.594 2.406v-4.125h-1zm409.88.407v4.125l-1.593-2.407-.812.563 1.812 2.719h-2.406v1h7v-1h-2.406l1.812-2.72-.812-.562-1.594 2.407v-4.125h-1zm31.974.316v4.125l-1.594-2.406-.813.562 1.813 2.719h-2.406v1h7v-1h-2.407l1.813-2.719-.813-.562-1.594 2.406V252h-1zm-195.979.13v4.126l-1.594-2.406-.812.562 1.812 2.719h-2.406v1h7v-1h-2.406l1.812-2.719-.812-.562-1.594 2.406v-4.125h-1zm-167.43 1.329v4.125l-1.593-2.406-.813.562 1.813 2.719h-2.407v1h7v-1h-2.406l1.813-2.719-.813-.562-1.594 2.406v-4.125h-1zm73.889 2.451v4.125l-1.594-2.406-.812.562 1.812 2.72h-2.406v1h7v-1h-2.406l1.812-2.72-.812-.562-1.594 2.406v-4.125h-1zm212.502.2v4.124l-1.594-2.406-.812.563 1.812 2.718h-2.406v1h7v-1h-2.406l1.812-2.718-.812-.563-1.594 2.406v-4.125h-1zm-333.36.115v4.125l-1.593-2.407-.813.563 1.813 2.719H37.31v1h7v-1h-2.407l1.813-2.72-.813-.562-1.593 2.407v-4.125h-1zm352.4.652v4.125l-1.593-2.406-.812.562 1.812 2.719h-2.406v1h7v-1h-2.406l1.812-2.719-.812-.562-1.594 2.406v-4.125h-1zm-284.38.027v4.125l-1.594-2.406-.812.563 1.812 2.718h-2.406v1h7v-1h-2.406l1.812-2.718-.812-.563-1.594 2.406v-4.125h-1zm115.408 3.229v4.125l-1.593-2.406-.813.562 1.813 2.719h-2.407v1h7v-1h-2.406l1.813-2.719-.813-.562-1.594 2.406v-4.125h-1zm54.678.152v4.125l-1.594-2.406-.812.562 1.812 2.72h-2.406v1h7v-1h-2.406l1.812-2.72-.812-.562-1.594 2.406v-4.125h-1zm48.47.127v4.125l-1.593-2.406-.813.562 1.813 2.72h-2.406v1h7v-1h-2.407l1.813-2.72-.813-.562-1.593 2.406v-4.125h-1zm173.26 1.457v4.125l-1.593-2.406-.813.562 1.813 2.72h-2.407v1h7v-1h-2.406l1.813-2.72-.813-.562-1.594 2.406v-4.125h-1zm-434.091.649v4.125l-1.594-2.407-.813.563 1.813 2.719h-2.406v1h7v-1h-2.407l1.813-2.72-.813-.562-1.593 2.407v-4.125h-1zm363.379 5.308v4.125l-1.594-2.406-.813.562 1.813 2.72h-2.406v1h7v-1h-2.407l1.813-2.72-.813-.562-1.593 2.406v-4.125h-1zm-298.739 1.104v4.125l-1.593-2.407-.813.563 1.813 2.719h-2.407v1h7v-1h-2.406l1.813-2.72-.813-.562-1.594 2.407v-4.125h-1zm53.664 2.152v4.125l-1.593-2.406-.813.562 1.813 2.719h-2.407v1h7v-1h-2.406l1.813-2.719-.813-.562-1.594 2.406v-4.125h-1zm48.985 1.951v4.125l-1.594-2.406-.813.562 1.813 2.72h-2.406v1h7v-1h-2.406l1.812-2.72-.813-.562-1.593 2.406v-4.125h-1zm-219.961.557v4.125l-1.594-2.406-.812.562 1.812 2.719h-2.406v1h7v-1h-2.406l1.812-2.719-.812-.562-1.594 2.406v-4.125h-1zm141.068.93v4.125l-1.594-2.407-.812.563 1.812 2.719h-2.406v1h7v-1h-2.406l1.812-2.72-.812-.562-1.594 2.407v-4.125h-1zm-123.724.146v4.125l-1.594-2.406-.813.562 1.813 2.719h-2.406v1h7v-1H32.32l1.813-2.719-.813-.562-1.593 2.406v-4.125h-1zm170.845 1.895v4.125l-1.593-2.407-.813.563 1.813 2.719h-2.407v1h7v-1h-2.406l1.813-2.72-.813-.562-1.594 2.407v-4.125h-1zm49.772.617v4.125l-1.594-2.405-.813.563 1.813 2.717h-2.406v1h7v-1h-2.406l1.812-2.717-.813-.563-1.593 2.405v-4.125h-1zm80.955 1.021v4.125l-1.594-2.406-.812.562 1.812 2.72H329.3v1h7v-1h-2.406l1.812-2.72-.812-.562-1.594 2.406V278.2h-1zm125.146.158v4.125l-1.593-2.406-.813.563 1.813 2.718h-2.407v1h7v-1h-2.406l1.813-2.718-.813-.563-1.594 2.406v-4.125h-1zm-153.802 1.475v4.125l-1.594-2.406-.813.562 1.813 2.719h-2.406v1h7v-1h-2.407l1.813-2.719-.813-.562-1.593 2.406v-4.125h-1zm-20.512.223v4.125l-1.594-2.407-.812.563 1.812 2.719h-2.406v1h7v-1h-2.406l1.812-2.72-.812-.562-1.594 2.407v-4.125h-1zm122.613.947v4.125l-1.594-2.406-.812.562 1.812 2.719h-2.406v1h7v-1h-2.406l1.812-2.719-.812-.562-1.594 2.406v-4.125h-1zm-345.48.219v4.125l-1.594-2.407-.813.563 1.813 2.719h-2.406v1h7v-1h-2.407l1.813-2.719-.813-.563-1.593 2.407v-4.125h-1zm49.765.191v4.125l-1.593-2.406-.813.562 1.813 2.72h-2.407v1h7v-1h-2.406l1.813-2.72-.813-.562-1.594 2.406v-4.125h-1zm386.81.615v4.125l-1.593-2.406-.812.563 1.812 2.718h-2.406v1h7v-1h-2.406l1.812-2.718-.812-.563-1.594 2.406v-4.125h-1zm-139.804.43v4.125l-1.594-2.406-.812.562 1.812 2.719h-2.406v1h7v-1h-2.406l1.812-2.719-.812-.562-1.594 2.406v-4.125h-1zm118.838.26v4.125l-1.594-2.406-.812.562 1.812 2.719h-2.406v1h7v-1h-2.406l1.812-2.719-.812-.562-1.594 2.406v-4.125h-1zm-97.303 2.388v4.125l-1.593-2.406-.813.563 1.813 2.718h-2.407v1h7v-1h-2.406l1.813-2.718-.813-.563-1.594 2.406v-4.125h-1zm-290.152.32v4.126l-1.594-2.406-.812.562 1.812 2.719h-2.406v1h7v-1h-2.406l1.812-2.719-.812-.562-1.594 2.406v-4.125h-1zm339.978 6.44v4.125l-1.593-2.406-.813.562 1.813 2.72h-2.407v1h7v-1h-2.406l1.813-2.72-.813-.562-1.594 2.406v-4.125h-1zm-224.537 4.586v4.125l-1.593-2.406-.813.562 1.813 2.72h-2.407v1h7v-1h-2.406l1.813-2.72-.813-.562-1.594 2.406v-4.125h-1zm-146.226.154v4.125l-1.594-2.406-.812.563 1.812 2.718h-2.406v1h7v-1h-2.406l1.812-2.718-.812-.563-1.594 2.406v-4.125h-1zm218.982.366v4.125l-1.594-2.407-.812.563 1.812 2.719h-2.406v1h7v-1h-2.406l1.812-2.719-.812-.563-1.594 2.407v-4.125h-1zm-119.625.187v4.125l-1.594-2.406-.812.562 1.812 2.72h-2.406v1h7v-1h-2.406l1.812-2.72-.812-.562-1.594 2.406v-4.125h-1zm349.285 2.074v4.125l-1.593-2.406-.813.563 1.813 2.718h-2.407v1h7v-1h-2.406l1.813-2.718-.813-.563-1.594 2.406v-4.125h-1zm-248.886.346v4.125l-1.594-2.406-.813.562 1.813 2.72h-2.406v1h7v-1h-2.407l1.813-2.72-.813-.562-1.593 2.406v-4.125h-1zm51.132.012v4.125l-1.593-2.406-.813.562 1.813 2.719h-2.407v1h7v-1h-2.406l1.813-2.719-.813-.562-1.594 2.406v-4.125h-1zm-172.802.91v4.125l-1.594-2.406-.813.562 1.813 2.719h-2.406v1h7v-1h-2.406l1.812-2.719-.813-.562-1.593 2.406V300.5h-1zm-104.617.22v4.126l-1.594-2.407-.813.563 1.813 2.719h-2.406v1h7v-1h-2.407l1.813-2.719-.813-.563-1.593 2.407v-4.125h-1zm200.476 1.628v4.125l-1.594-2.407-.812.563 1.812 2.719h-2.406v1h7v-1h-2.406l1.812-2.72-.812-.562-1.594 2.407v-4.125h-1zm212.531.619v4.125l-1.593-2.406-.813.562 1.813 2.719h-2.407v1h7v-1h-2.406l1.813-2.719-.813-.562-1.594 2.406v-4.125h-1zm-260.576.03v4.124l-1.594-2.406-.812.562 1.812 2.72h-2.406v1h7v-1h-2.406l1.812-2.72-.812-.562-1.594 2.406v-4.125h-1zm165.547.235v4.125l-1.594-2.406-.812.563 1.812 2.718h-2.406v1h7v-1h-2.406l1.812-2.718-.812-.563-1.594 2.406v-4.125h-1zm-234.088.07v4.126l-1.594-2.407-.812.563 1.812 2.719h-2.406v1h7v-1h-2.406l1.812-2.719-.812-.563-1.594 2.407v-4.125h-1zm266.084.612v4.125l-1.594-2.406-.812.562 1.812 2.72h-2.406v1h7v-1h-2.406l1.812-2.72-.812-.562-1.594 2.406v-4.125h-1zm-366.967.816v4.125l-1.593-2.406-.813.563 1.813 2.718h-2.407v1h7v-1h-2.406l1.813-2.718-.813-.563-1.594 2.406v-4.125h-1zm460.743.582v4.125l-1.594-2.406-.813.563 1.813 2.719h-2.406v1h7v-1h-2.407l1.813-2.72-.813-.562-1.593 2.406v-4.125h-1zm-153.663 2.57v4.126l-1.593-2.406-.813.562 1.813 2.719h-2.407v1h7v-1h-2.406l1.813-2.719-.813-.562-1.594 2.406v-4.125h-1zm79.885.714v4.125l-1.594-2.407-.812.563 1.812 2.719h-2.406v1h7v-1h-2.406l1.812-2.719-.812-.563-1.594 2.407v-4.125h-1zm-314.713 2.011v4.125l-1.593-2.406-.813.563 1.813 2.718H83.36v1h7v-1h-2.406l1.813-2.718-.813-.563-1.594 2.406v-4.125h-1zm197.446 7.11v4.125l-1.594-2.406-.813.562 1.813 2.719h-2.406v1h7v-1H285.4l1.813-2.719-.813-.562-1.593 2.406v-4.125h-1zm-103.479 1.41v4.125l-1.594-2.406-.812.562 1.812 2.719h-2.406v1h7v-1h-2.406l1.812-2.719-.812-.562-1.594 2.406v-4.125h-1zm231.727.21v4.126l-1.594-2.406-.813.562 1.813 2.719h-2.406v1h7v-1h-2.407l1.813-2.719-.813-.562-1.593 2.406v-4.125h-1zm32.023.933v4.125l-1.594-2.407-.812.563 1.812 2.719h-2.406v1h7v-1h-2.406l1.812-2.72-.812-.562-1.594 2.407v-4.125h-1zm-387.094 2.537v4.125l-1.593-2.407-.813.563 1.813 2.719h-2.407v1h7v-1h-2.406l1.813-2.72-.813-.562-1.594 2.407v-4.125h-1zm151.387.416v4.125l-1.594-2.407-.812.563 1.812 2.719h-2.406v1h7v-1h-2.406l1.812-2.72-.812-.562-1.594 2.407v-4.125h-1zm-179.908.193v4.125l-1.594-2.406-.812.562 1.812 2.719h-2.406v1h7v-1h-2.406l1.812-2.719-.812-.562-1.594 2.406v-4.125h-1zm472.267.678v4.125l-1.593-2.406-.813.562 1.813 2.719h-2.407v1h7v-1h-2.406l1.813-2.719-.813-.563-1.594 2.407v-4.125h-1zm-385.789.808v4.125l-1.593-2.406-.813.563 1.813 2.718h-2.407v1h7v-1h-2.406l1.813-2.718-.813-.563-1.594 2.406v-4.125h-1zm41.012.383v4.125l-1.594-2.406-.812.562 1.812 2.72h-2.406v1h7v-1h-2.406l1.812-2.72-.812-.562-1.594 2.406v-4.125h-1zm97.887.182v4.125l-1.594-2.406-.812.562 1.812 2.719h-2.406v1h7v-1h-2.406l1.812-2.719-.812-.562-1.594 2.406v-4.125h-1zm72.885.508v4.125l-1.594-2.407-.813.563 1.813 2.719h-2.406v1h7v-1h-2.407l1.813-2.72-.813-.562-1.593 2.407v-4.125h-1zm-99.868.271v4.125l-1.593-2.406-.813.562 1.813 2.72h-2.407v1h7v-1h-2.406l1.813-2.72-.813-.562-1.594 2.406v-4.125h-1zm131.858.442v4.125l-1.594-2.407-.812.563 1.812 2.719h-2.406v1h7v-1h-2.406l1.812-2.72-.812-.562-1.594 2.406v-4.125h-1zm110.848 1.388v4.125l-1.594-2.406-.813.562 1.813 2.72h-2.406v1h7v-1h-2.407l1.813-2.72-.813-.562-1.594 2.406v-4.125h-1zm-91.717.944v4.125l-1.594-2.407-.813.563 1.813 2.719h-2.406v1h7v-1h-2.407l1.813-2.72-.813-.562-1.593 2.407v-4.125h-1zm-242.102 2.2v4.126l-1.594-2.407-.812.563 1.812 2.719h-2.406v1h7v-1h-2.406l1.812-2.719-.812-.563-1.594 2.407v-4.125h-1zm290.193 1.612v4.125l-1.593-2.406-.813.562 1.813 2.719h-2.406v1h7v-1h-2.407l1.813-2.719-.813-.562-1.594 2.406v-4.125h-1zm-124.246.34v4.125l-1.593-2.406-.813.562 1.813 2.719h-2.407v1h7v-1h-2.406l1.813-2.719-.813-.562-1.594 2.406v-4.125h-1zM86.26 335.586v4.125l-1.594-2.406-.812.562 1.812 2.719H83.26v1h7v-1h-2.406l1.812-2.719-.812-.562-1.594 2.406v-4.125h-1zm-70.108 1.055v4.125l-1.593-2.407-.813.563 1.813 2.719h-2.407v1h7v-1h-2.406l1.813-2.72-.813-.562-1.594 2.407v-4.125h-1zm184.395 7.921v4.125l-1.594-2.406-.812.563 1.812 2.719h-2.406v1h7v-1h-2.406l1.812-2.72-.812-.562-1.594 2.406v-4.125h-1zm134.47.375v4.125l-1.593-2.406-.813.563 1.813 2.719h-2.406v1h7v-1h-2.407l1.813-2.72-.813-.562-1.593 2.406v-4.125h-1zm161.731.094v4.125l-1.594-2.406-.812.563 1.812 2.718h-2.406v1h7v-1h-2.406l1.812-2.719-.812-.562-1.594 2.406v-4.125h-1zm-314.486.567v4.125l-1.594-2.407-.813.563 1.813 2.719h-2.406v1h7v-1h-2.407l1.813-2.72-.813-.562-1.593 2.407v-4.125h-1zm-18.383.943v4.125l-1.594-2.406-.812.562 1.812 2.719h-2.406v1h7v-1h-2.406l1.812-2.719-.812-.562-1.594 2.406v-4.125h-1zm233.834 1.324v4.125l-1.594-2.406-.812.562 1.812 2.72h-2.406v1h7v-1h-2.406l1.812-2.72-.812-.562-1.594 2.406v-4.125h-1zm-121.127.09v4.125l-1.594-2.406-.812.562 1.812 2.72h-2.406v1h7v-1h-2.406l1.812-2.72-.812-.562-1.594 2.406v-4.125h-1zm-26.787.674v4.125l-1.594-2.406-.812.562 1.812 2.719H246.8v1h7v-1h-2.406l1.812-2.719-.812-.562-1.594 2.406v-4.125h-1zm-18.373 1.078v4.125l-1.594-2.406-.812.562 1.812 2.719h-2.406v1h7v-1h-2.406l1.812-2.719-.812-.562-1.594 2.406v-4.125h-1zm-190.186.887v4.125l-1.594-2.406-.812.562 1.812 2.719H38.24v1h7v-1h-2.406l1.812-2.719-.812-.563-1.594 2.407v-4.125h-1zm410.153.832v4.125l-1.594-2.406-.813.562 1.813 2.719h-2.406v1h7v-1h-2.407l1.813-2.719-.813-.562-1.593 2.406v-4.125h-1zm-143.127.644v4.125l-1.594-2.406-.813.563 1.813 2.718h-2.406v1h7v-1h-2.407l1.813-2.718-.813-.563-1.593 2.406v-4.125h-1zm-249.329 1.31v4.125l-1.593-2.406-.813.562 1.813 2.719h-2.407v1h7v-1h-2.406l1.813-2.719-.813-.562-1.593 2.406v-4.125h-1zm-43.33.045v4.125l-1.593-2.406-.813.562 1.813 2.719h-2.407v1h7v-1h-2.406l1.813-2.719-.813-.562-1.594 2.406v-4.125h-1zm97.323.1v4.124l-1.594-2.406-.813.563 1.813 2.718h-2.406v1h7v-1h-2.407l1.813-2.718-.813-.563-1.593 2.406v-4.125h-1zm-29.418.564v4.125l-1.594-2.406-.813.562 1.813 2.719h-2.406v1h7v-1h-2.407l1.813-2.719-.813-.562-1.593 2.406v-4.125h-1zm275.465.797v4.125l-1.594-2.406-.813.562 1.813 2.719h-2.406v1h7v-1h-2.407l1.813-2.719-.813-.562-1.593 2.406v-4.125h-1zm65.308.142v4.125l-1.594-2.406-.812.563 1.812 2.718h-2.406v1h7v-1h-2.406l1.812-2.718-.812-.563-1.594 2.406v-4.125h-1zm51.17.452v4.125l-1.594-2.405-.812.563 1.812 2.717h-2.406v1h7v-1h-2.406l1.812-2.717-.812-.563-1.594 2.405v-4.125h-1zm-333.08 3.271v4.125l-1.594-2.406-.812.562 1.812 2.719h-2.406v1h7v-1h-2.406l1.812-2.719-.812-.562-1.594 2.406v-4.125h-1zm229.895 1.55v4.126l-1.594-2.406-.813.562 1.813 2.719h-2.406v1h7v-1h-2.407l1.813-2.719-.813-.562-1.593 2.406V360.3h-1zm133.437 5.329v4.125l-1.594-2.406-.812.562 1.812 2.719h-2.406v1h7v-1h-2.406l1.812-2.719-.812-.562-1.594 2.406v-4.125h-1zm-297.824 4.375v4.125l-1.594-2.406-.812.562 1.812 2.719h-2.406v1h7v-1h-2.406l1.812-2.719-.812-.562-1.594 2.406v-4.125h-1zm74.754 1.176v4.125l-1.594-2.407-.813.563 1.813 2.719h-2.406v1h7v-1h-2.407l1.813-2.72-.813-.562-1.593 2.407v-4.125h-1zm-225.963.257v4.125l-1.594-2.406-.812.563 1.812 2.719h-2.406v1h7v-1h-2.406l1.812-2.72-.812-.562-1.594 2.406v-4.125h-1zm42.46.065v4.125l-1.593-2.406-.812.562 1.812 2.719h-2.406v1h7v-1h-2.406l1.812-2.719-.812-.562-1.594 2.406v-4.125h-1zm212.253.275v4.125l-1.594-2.406-.813.563 1.813 2.718h-2.406v1h7v-1h-2.407l1.813-2.718-.813-.563-1.593 2.406v-4.125h-1zm-49.594.065v4.125l-1.594-2.406-.812.562 1.812 2.719h-2.406v1h7v-1h-2.406l1.812-2.719-.812-.562-1.594 2.406v-4.125h-1zm-102.916.24v4.125l-1.594-2.406-.812.562 1.812 2.719h-2.406v1h7v-1h-2.406l1.812-2.719-.812-.562-1.594 2.406v-4.125h-1zm70.998 1.697v4.125l-1.594-2.406-.812.563 1.812 2.718h-2.406v1h7v-1h-2.406l1.812-2.718-.812-.563-1.594 2.406v-4.125h-1zm171.43.026v4.125l-1.594-2.407-.813.563 1.813 2.719h-2.406v1h7v-1h-2.407l1.813-2.72-.813-.562-1.593 2.407v-4.125h-1zm-211.317.998v4.125l-1.593-2.407-.813.563 1.813 2.719h-2.407v1h7v-1h-2.406l1.813-2.719-.813-.563-1.594 2.407v-4.125h-1zm260.489.717v4.125l-1.594-2.407-.813.563 1.813 2.719h-2.406v1h7v-1h-2.407l1.813-2.72-.813-.562-1.593 2.407v-4.125h-1zm-120.975.496v4.125l-1.594-2.407-.812.563 1.812 2.719h-2.406v1h7v-1h-2.406l1.812-2.72-.812-.562-1.594 2.407v-4.125h-1zm146.482 1.234v4.125l-1.593-2.406-.813.562 1.813 2.719h-2.407v1h7v-1h-2.406l1.813-2.719-.813-.562-1.594 2.406v-4.125h-1zm-53.406 2.564v4.125l-1.594-2.406-.812.563 1.812 2.718h-2.406v1h7v-1h-2.406l1.812-2.718-.812-.563-1.594 2.406v-4.125h-1zm-78.797 1.131v4.125l-1.594-2.406-.812.563 1.813 2.718h-2.407v1h7v-1h-2.406l1.813-2.718-.813-.563-1.594 2.406v-4.125h-1zm-312.021.112v4.125l-1.594-2.407-.812.563 1.812 2.719H28.76v1h7v-1h-2.406l1.812-2.72-.812-.562-1.594 2.407v-4.125h-1zm92.732.123v4.125l-1.594-2.407-.812.563 1.812 2.719h-2.406v1h7v-1h-2.406l1.812-2.72-.812-.562-1.594 2.407v-4.125h-1zm260.11.056v4.125l-1.594-2.406-.813.563 1.813 2.718h-2.406v1h7v-1h-2.407l1.813-2.718-.813-.563-1.593 2.406v-4.125h-1zm-365.207 1.805v4.125L17.8 384.76l-.813.562 1.813 2.719h-2.406v1h7v-1h-2.407l1.813-2.719-.813-.562-1.593 2.406v-4.125h-1zm73.18 1.768v4.125l-1.595-2.407-.812.563 1.812 2.719h-2.406v1h7v-1h-2.406l1.812-2.72-.812-.562-1.594 2.407v-4.125h-1zm145.185 4.445v4.125l-1.594-2.406-.812.562 1.812 2.719h-2.406v1h7v-1h-2.406l1.812-2.719-.812-.562-1.594 2.406v-4.125h-1zm-87.686 2.273v4.125l-1.594-2.406-.812.563 1.812 2.718h-2.406v1h7v-1h-2.406l1.812-2.718-.812-.563-1.594 2.406v-4.125h-1zm350.406.297v4.125l-1.593-2.406-.813.562 1.813 2.72h-2.407v1h7v-1h-2.406l1.813-2.72-.813-.562-1.594 2.406v-4.125h-1zm-133.043.125v4.125l-1.593-2.406-.813.562 1.813 2.72h-2.406v1h7v-1h-2.407l1.813-2.72-.813-.562-1.594 2.406v-4.125h-1zm-310.314.54v4.124l-1.594-2.406-.812.563 1.812 2.718h-2.406v1h7v-1h-2.406l1.812-2.718-.812-.563-1.594 2.406v-4.125h-1zm-49.271 1.98v4.125l-1.594-2.407-.813.563 1.813 2.719H4.852v1h7v-1H9.445l1.813-2.719-.813-.563-1.593 2.407v-4.125h-1zm169.916.396v4.125l-1.594-2.406-.813.562 1.813 2.72h-2.406v1h7v-1h-2.407l1.813-2.72-.813-.562-1.593 2.406v-4.125h-1zM75.605 396.37v4.125l-1.593-2.406-.813.562 1.813 2.72h-2.407v1h7v-1H77.2l1.813-2.72-.813-.562-1.594 2.406v-4.125h-1zm223.954.02v4.125l-1.594-2.407-.813.563 1.813 2.719h-2.406v1h7v-1h-2.407l1.813-2.72-.813-.562-1.593 2.407v-4.125h-1zm150.07.546v4.125l-1.594-2.406-.812.563 1.812 2.719h-2.406v1h7v-1h-2.406l1.812-2.72-.812-.562-1.594 2.406v-4.125h-1zm-175.549.606v4.125l-1.594-2.406-.812.562 1.812 2.719h-2.406v1h7v-1h-2.406l1.812-2.719-.812-.562-1.594 2.406v-4.125h-1zm-64.75 2.807v4.125l-1.594-2.407-.812.563 1.812 2.719h-2.406v1h7v-1h-2.406l1.812-2.72-.812-.562-1.594 2.407v-4.125h-1zm189.121.466v4.125l-1.594-2.406-.812.563 1.812 2.718h-2.406v1h7v-1h-2.406l1.812-2.718-.812-.563-1.594 2.406v-4.125h-1zm72.108 2.225v4.125l-1.594-2.406-.813.562 1.813 2.719h-2.406v1h7v-1h-2.407l1.813-2.719-.813-.562-1.593 2.406v-4.125h-1zm-152.895.102v4.125l-1.594-2.407-.812.563 1.812 2.719h-2.406v1h7v-1h-2.406l1.812-2.72-.812-.562-1.594 2.407v-4.125h-1zm-55.85.72v4.125l-1.593-2.406-.813.563 1.813 2.718h-2.407v1h7v-1h-2.406l1.813-2.718-.813-.563-1.594 2.406v-4.125h-1zm-159.123.631v4.125l-1.593-2.406-.813.562 1.813 2.72H99.69v1h7v-1h-2.406l1.813-2.72-.813-.562-1.594 2.406v-4.125h-1zm31.893.44v4.125l-1.594-2.407-.812.563 1.812 2.719h-2.406v1h7v-1h-2.406l1.812-2.72-.812-.562-1.594 2.407v-4.125h-1zm285.205.443v4.125l-1.594-2.406-.812.562 1.812 2.719h-2.406v1h7v-1h-2.406l1.812-2.719-.812-.562-1.594 2.406v-4.125h-1zm-379.363 1.789v4.125l-1.594-2.406-.812.562 1.812 2.719h-2.406v1h7v-1H42.02l1.812-2.719-.812-.562-1.594 2.406v-4.125h-1zm308.637 2.256v4.125l-1.594-2.406-.813.562 1.813 2.719h-2.406v1h7v-1h-2.407l1.813-2.719-.813-.562-1.594 2.406v-4.125h-1zm31.388 5.879v4.125l-1.594-2.406-.812.562 1.812 2.719h-2.406v1h7v-1h-2.406l1.812-2.719-.812-.562-1.594 2.406V415.3h-1zm-181.762 1.847v4.125l-1.593-2.406-.813.563 1.813 2.718h-2.407v1h7v-1h-2.406l1.813-2.718-.813-.563-1.594 2.406v-4.125h-1zm299.916 1.305v4.125l-1.593-2.406-.813.562 1.813 2.72h-2.407v1h7v-1H500.2l1.813-2.72-.813-.562-1.594 2.406v-4.125h-1zm-171.511.068v4.125l-1.594-2.406-.813.563 1.813 2.718h-2.406v1h7v-1h-2.406l1.812-2.718-.813-.563-1.593 2.406v-4.125h-1zm-318.864.694v4.125l-1.593-2.406-.813.562 1.813 2.719H5.23v1h7v-1H9.824l1.813-2.719-.813-.562-1.594 2.406v-4.125h-1zm239.387.408v4.125l-1.594-2.406-.812.562 1.812 2.719h-2.406v1h7v-1h-2.406l1.812-2.719-.812-.562-1.594 2.406v-4.125h-1zm-19.8.014v4.125l-1.594-2.407-.813.563 1.813 2.719h-2.407v1h7v-1h-2.406l1.813-2.719-.813-.563-1.594 2.407v-4.125h-1zm199.925.742v4.125l-1.594-2.406-.812.562 1.812 2.719h-2.406v1h7v-1h-2.406l1.812-2.719-.812-.562-1.594 2.406v-4.125h-1zm-297.494.267v4.125l-1.594-2.406-.812.563 1.812 2.718h-2.406v1h7v-1h-2.406l1.812-2.718-.812-.563-1.594 2.406v-4.125h-1zm32.01.432v4.125l-1.594-2.406-.812.562 1.812 2.72h-2.406v1h7v-1h-2.406l1.812-2.72-.812-.562-1.594 2.406v-4.125h-1zm-130.48.246v4.125l-1.594-2.406-.813.562 1.813 2.72h-2.407v1h7v-1h-2.406l1.813-2.72-.813-.562-1.594 2.406v-4.125h-1zm263.445.127v4.125l-1.594-2.406-.813.562 1.813 2.72h-2.406v1h7v-1h-2.407l1.813-2.72-.813-.562-1.593 2.406v-4.125h-1zm183.304 2.701v4.125l-1.593-2.406-.813.563 1.813 2.718h-2.407v1h7v-1h-2.406l1.813-2.718-.813-.563-1.594 2.406v-4.125h-1zm-31.605.518v4.125l-1.594-2.406-.812.562 1.812 2.719h-2.406v1h7v-1h-2.406l1.812-2.719-.812-.562-1.594 2.406v-4.125h-1zm-385.895.19v4.124l-1.593-2.406-.813.563 1.813 2.718h-2.407v1h7v-1h-2.406l1.813-2.718-.813-.563-1.594 2.406v-4.125h-1zm40.543.01v4.124l-1.593-2.406-.813.562 1.813 2.72H98.57v1h7v-1h-2.406l1.813-2.72-.813-.562-1.594 2.406v-4.125h-1zm82.807 1.32v4.124l-1.594-2.406-.812.563 1.812 2.718h-2.406v1h7v-1h-2.406l1.812-2.718-.812-.563-1.594 2.406v-4.125h-1zm212.11 1.08v4.125l-1.594-2.407-.813.563 1.813 2.719h-2.407v1h7v-1h-2.406l1.813-2.72-.813-.562-1.594 2.407v-4.125h-1zm-317.102.537v4.125l-1.594-2.407-.812.563 1.812 2.719h-2.406v1h7v-1h-2.406l1.812-2.72-.812-.562-1.594 2.407v-4.125h-1zm198.695 1.49v4.125l-1.594-2.406-.812.562 1.812 2.719h-2.406v1h7v-1h-2.406l1.812-2.719-.812-.562-1.594 2.406v-4.125h-1zm78.672 1.373v4.125l-1.594-2.406-.812.562 1.812 2.719h-2.406v1h7v-1h-2.406l1.812-2.719-.812-.562-1.594 2.406v-4.125h-1zm-22.863 7.64v4.126l-1.594-2.407-.813.563 1.813 2.719h-2.406v1h7v-1h-2.407l1.813-2.72-.813-.562-1.593 2.407v-4.125h-1zM9.352 440.92v4.125l-1.594-2.406-.813.562 1.813 2.719H6.352v1h7v-1h-2.407l1.813-2.719-.813-.562-1.593 2.406v-4.125h-1zm394.154.29v4.126l-1.594-2.406-.812.562 1.812 2.719h-2.406v1h7v-1H405.1l1.812-2.719-.812-.562-1.594 2.406v-4.125h-1zm-247.242.315v4.125l-1.594-2.406-.813.563 1.813 2.718h-2.406v1h7v-1h-2.407l1.813-2.718-.813-.563-1.593 2.406v-4.125h-1zm317.476.653v4.125l-1.594-2.407-.812.563 1.812 2.719h-2.406v1h7v-1h-2.406l1.812-2.719-.812-.563-1.594 2.407v-4.125h-1zm-335.28.38v4.126l-1.593-2.407-.812.563 1.812 2.719h-2.406v1h7v-1h-2.406l1.812-2.72-.812-.562-1.594 2.407v-4.125h-1zm-30.95.66v4.126l-1.594-2.406-.812.562 1.812 2.719h-2.406v1h7v-1h-2.406l1.812-2.719-.812-.563-1.594 2.407v-4.125h-1zm199.83.448v4.125l-1.594-2.406-.812.562 1.812 2.719h-2.406v1h7v-1h-2.406l1.812-2.719-.812-.562-1.594 2.406v-4.125h-1zm-97.78 2.248v4.125l-1.593-2.406-.813.562 1.813 2.72h-2.406v1h7v-1h-2.407l1.813-2.72-.813-.562-1.593 2.406v-4.125h-1zm162.702.328v4.125l-1.594-2.406-.813.562 1.813 2.72h-2.406v1h7v-1h-2.407l1.813-2.72-.813-.562-1.593 2.406v-4.125h-1zm82.705.16v4.125l-1.594-2.406-.812.563 1.812 2.718h-2.406v1h7v-1h-2.406l1.812-2.718-.812-.563-1.594 2.406v-4.125h-1zm-223.928.692v4.125l-1.594-2.406-.812.562 1.812 2.719h-2.406v1h7v-1h-2.406l1.812-2.719-.812-.563-1.594 2.407v-4.125h-1zm20.781.275v4.125l-1.593-2.406-.813.562 1.813 2.72h-2.407v1h7v-1h-2.406l1.813-2.72-.813-.562-1.594 2.406v-4.125h-1zm-70.566 2.174v4.125l-1.594-2.406-.812.562 1.812 2.719h-2.406v1h7v-1h-2.406l1.812-2.719-.812-.562-1.594 2.406v-4.125h-1zm-125.213.094v4.125l-1.594-2.407-.812.563 1.812 2.719h-2.406v1h7v-1h-2.406l1.812-2.719-.812-.563-1.594 2.407v-4.125h-1zm439.084 1.09v4.125l-1.594-2.407-.812.563 1.812 2.719h-2.406v1h7v-1h-2.406l1.812-2.72-.812-.562-1.594 2.407v-4.125h-1zm-211.572.53v4.126l-1.594-2.406-.813.562 1.813 2.719h-2.406v1h7v-1h-2.407l1.813-2.719-.813-.562-1.593 2.406v-4.125h-1zm147.263.946v4.125l-1.593-2.406-.813.562 1.813 2.72h-2.407v1h7v-1h-2.406l1.813-2.72-.813-.562-1.594 2.406v-4.125h-1zm-399.548.703v4.125l-1.594-2.406-.813.563 1.813 2.718h-2.406v1h7v-1H32.86l1.813-2.719-.813-.562-1.593 2.406v-4.125h-1zm46.574.961v4.125l-1.594-2.406-.812.562 1.812 2.72h-2.406v1h7v-1h-2.406l1.812-2.72-.812-.562-1.594 2.406v-4.125h-1zm272.521 2.612v4.125l-1.593-2.407-.813.563 1.813 2.719h-2.407v1h7v-1h-2.406l1.813-2.72-.813-.562-1.594 2.407v-4.125h-1zm27.53 6.79v4.126l-1.594-2.407-.813.563 1.813 2.719h-2.406v1h7v-1h-2.407l1.813-2.72-.813-.562-1.593 2.407v-4.125h-1zm-258.444 3.252v4.125l-1.594-2.406-.812.563 1.812 2.718h-2.406v1h7v-1h-2.406l1.812-2.718-.812-.563-1.594 2.406v-4.125h-1zm136.61.577v4.125l-1.594-2.407-.813.563 1.813 2.719h-2.406v1h7v-1h-2.407l1.813-2.72-.813-.562-1.593 2.407v-4.125h-1zm-245.563.277v4.125l-1.594-2.406-.812.562 1.812 2.719H7.496v1h7v-1H12.09l1.812-2.719-.812-.562-1.594 2.406v-4.125h-1zm196.686.94v4.124l-1.594-2.406-.813.563 1.813 2.718h-2.406v1h7v-1h-2.407l1.813-2.718-.813-.563-1.593 2.406v-4.125h-1zm213.261.02v4.126l-1.593-2.406-.813.562 1.813 2.719h-2.407v1h7v-1h-2.406l1.813-2.719-.813-.562-1.594 2.406v-4.125h-1zm-92.8.026v4.125l-1.594-2.406-.813.563 1.813 2.718h-2.406v1h7v-1h-2.407l1.813-2.718-.813-.563-1.593 2.406v-4.125h-1zm165.443.26v4.125l-1.594-2.406-.812.562 1.812 2.72h-2.406v1h7v-1h-2.406l1.812-2.72-.812-.562-1.594 2.406v-4.125h-1zm-95.004 1.877v4.125l-1.594-2.406-.812.562 1.812 2.719h-2.406v1h7v-1h-2.406l1.812-2.719-.812-.562-1.594 2.406v-4.125h-1zm-245.654.768v4.125l-1.594-2.407-.813.563 1.813 2.719h-2.406v1h7v-1h-2.407l1.813-2.72-.813-.562-1.593 2.407v-4.125h-1zm-63.182.443v4.125l-1.594-2.406-.812.562 1.812 2.719h-2.406v1h7v-1H90.84l1.812-2.719-.812-.562-1.594 2.406v-4.125h-1zm86.725.498v4.125l-1.594-2.406-.813.562 1.813 2.719h-2.406v1h7v-1h-2.407l1.813-2.719-.813-.562-1.593 2.406v-4.125h-1zm297.5.969v4.125l-1.594-2.406-.813.562 1.813 2.719h-2.406v1h7v-1h-2.407l1.813-2.719-.813-.562-1.593 2.406v-4.125h-1zm-435.032 1.787v4.125l-1.593-2.406-.813.562 1.813 2.719h-2.407v1h7v-1h-2.406l1.813-2.719-.813-.562-1.594 2.406v-4.125h-1zm265.305.465v4.125l-1.594-2.407-.812.563 1.812 2.719h-2.406v1h7v-1h-2.406l1.812-2.719-.812-.563-1.594 2.407v-4.125h-1zm-32.072.394v4.125l-1.594-2.406-.812.563 1.812 2.718h-2.406v1h7v-1h-2.406l1.812-2.718-.812-.563-1.594 2.406v-4.125h-1zm-33.647.471v4.125l-1.593-2.406-.813.562 1.813 2.719h-2.407v1h7v-1h-2.406l1.813-2.719-.813-.562-1.594 2.406v-4.125h-1zm115.575.05v4.126l-1.594-2.406-.813.562 1.813 2.719H350.6v1h7v-1h-2.407l1.813-2.719-.813-.563-1.593 2.407v-4.125h-1zm97.423.673v4.125l-1.593-2.407-.813.563 1.813 2.719h-2.407v1h7v-1h-2.406l1.813-2.72-.813-.562-1.594 2.407v-4.125h-1zm-391.62 3.005v4.125l-1.594-2.406-.813.563 1.813 2.718h-2.407v1h7v-1h-2.406l1.813-2.718-.813-.563-1.594 2.406v-4.125h-1zm77.908.592v4.125l-1.594-2.406-.813.563 1.813 2.718h-2.406v1h7v-1h-2.407l1.813-2.718-.813-.563-1.593 2.406v-4.125h-1zm363.562 9.088v4.125l-1.594-2.406-.812.562 1.812 2.72h-2.406v1h7v-1h-2.406l1.812-2.72-.812-.562-1.594 2.406v-4.125h-1zm-104.66.723v4.125l-1.594-2.406-.812.562 1.812 2.719h-2.406v1h7v-1h-2.406l1.812-2.719-.812-.562-1.594 2.406v-4.125h-1zm-210.492 1.63v4.126l-1.594-2.407-.813.563 1.813 2.719h-2.406v1h7v-1h-2.407l1.813-2.72-.813-.562-1.593 2.407v-4.125h-1zm113.486.124v4.125l-1.594-2.407-.812.563 1.812 2.719h-2.406v1h7v-1h-2.406l1.812-2.719-.812-.563-1.594 2.407v-4.125h-1zm-87.93.867v4.125l-1.593-2.406-.813.562 1.813 2.719h-2.407v1h7v-1h-2.406l1.813-2.719-.813-.562-1.594 2.406v-4.125h-1zm212.313.578v4.125l-1.594-2.406-.812.562 1.812 2.719h-2.406v1h7v-1h-2.406l1.812-2.719-.812-.562-1.594 2.406v-4.125h-1zm-412.555.162v4.125l-1.594-2.406-.812.562 1.812 2.72H8.035v1h7v-1H12.63l1.812-2.72-.812-.562-1.594 2.406v-4.125h-1zm97.12.045v4.125l-1.594-2.406-.813.562 1.813 2.72h-2.407v1h7v-1h-2.406l1.813-2.72-.813-.562-1.594 2.406v-4.125h-1zm260.53.063v4.125l-1.593-2.407-.813.563 1.813 2.719h-2.406v1h7v-1h-2.407l1.813-2.72-.813-.562-1.593 2.407v-4.125h-1zm-39.306 2.863v4.125l-1.594-2.406-.812.562 1.812 2.719h-2.406v1h7v-1h-2.406l1.812-2.719-.812-.562-1.594 2.406v-4.125h-1zm-50.227 1.21v4.126l-1.593-2.406-.813.562 1.813 2.719h-2.407v1h7v-1h-2.406l1.813-2.719-.813-.562-1.594 2.406v-4.125h-1zm-29.615.475v4.125l-1.594-2.406-.812.563 1.812 2.718h-2.406v1h7v-1h-2.406l1.812-2.718-.812-.563-1.594 2.406v-4.125h-1zm205.52.87v4.125l-1.594-2.407-.813.563 1.813 2.719h-2.406v1h7v-1h-2.407l1.813-2.72-.813-.562-1.593 2.407v-4.125h-1zm-369.653.308v4.125l-1.593-2.406-.813.562 1.813 2.72h-2.407v1h7v-1h-2.406l1.813-2.72-.813-.562-1.594 2.406v-4.125h-1zm-53.865.186v4.125l-1.594-2.407-.812.563 1.812 2.719H28.54v1h7v-1h-2.406l1.812-2.72-.812-.562-1.594 2.407v-4.125h-1zm26.592.498v4.125l-1.594-2.407-.812.563 1.812 2.719h-2.406v1h7v-1h-2.406l1.812-2.719-.812-.563-1.594 2.407v-4.125h-1zm103.898.748v4.125l-1.593-2.406-.813.562 1.813 2.719h-2.407v1h7v-1h-2.406l1.813-2.719-.813-.562-1.594 2.406v-4.125h-1zm317.57.23v4.125L478.007 503l-.813.563 1.813 2.718H476.6v1h7v-1h-2.407l1.813-2.719-.813-.562-1.593 2.406v-4.125h-1zm-347.341 2.748v4.125l-1.594-2.406-.812.563 1.812 2.718h-2.406v1h7v-1h-2.406l1.812-2.718-.812-.563-1.594 2.406v-4.125h-1zm214.896 3.662v4.125l-1.593-2.406-.813.563L346.1 512h3.109l1.352-2.027-.813-.563-1.594 2.406v-4.125h-1zm-109.091.627V512h1v-3.682h-1zm-1.594 1.72l-.813.562.934 1.4h1.18l-1.301-1.963zm4.187 0l-1.3 1.962h1.18l.933-1.4-.813-.563z"/>
</svg>
