<svg width="19" height="19" version="1.1"
  xmlns="http://www.w3.org/2000/svg" xmlns:svg="http://www.w3.org/2000/svg">


  <path
    d="M 9,1.5 V 3.021 A 6.507,6.507 0 0 0 3.021,9 H 1.5 V 10 H 3.021 A 6.507,6.507 0 0 0 9,15.979 V 17.5 H 10 V 15.979 A 6.507,6.507 0 0 0 15.979,10 H 17.5 V 9 H 15.979 A 6.507,6.507 0 0 0 10,3.021 V 1.5 Z M 9,4.025 V 5.03 A 4.51,4.51 0 0 0 5.03,9 H 4.024 A 5.488,5.488 0 0 1 9,4.025 Z M 10,4.025 A 5.488,5.488 0 0 1 14.975,9 H 13.97 A 4.51,4.51 0 0 0 10,5.03 V 4.024 Z M 9,6.037 V 7.051 C 8.024,7.251 7.251,8.024 7.05,9 H 6.038 A 3.486,3.486 0 0 1 9,6.037 Z M 10,6.037 A 3.486,3.486 0 0 1 12.963,9 H 11.949 A 2.516,2.516 0 0 0 10,7.05 V 6.038 Z M 9,8.084 V 9 H 8.084 A 1.49,1.49 0 0 1 9,8.084 Z M 10,8.084 C 10.429,8.234 10.766,8.571 10.916,9 H 10 Z M 4.025,10 H 5.03 A 4.51,4.51 0 0 0 9,13.97 V 14.975 A 5.488,5.488 0 0 1 4.025,10 Z M 6.037,10 H 7.051 C 7.251,10.976 8.024,11.749 9,11.95 V 12.963 A 3.486,3.486 0 0 1 6.037,10 Z M 8.084,10 H 9 V 10.916 A 1.49,1.49 0 0 1 8.084,10 Z M 10,10 H 10.916 A 1.49,1.49 0 0 1 10,10.916 Z M 11.95,10 H 12.963 A 3.486,3.486 0 0 1 10,12.963 V 11.949 A 2.516,2.516 0 0 0 11.95,10 Z M 13.97,10 H 14.975 A 5.488,5.488 0 0 1 10,14.975 V 13.97 A 4.51,4.51 0 0 0 13.97,9.999 Z"
  />
</svg>
