<svg width="19" height="19" xmlns="http://www.w3.org/2000/svg">
  <g color="#000" fill-rule="evenodd">
    <path
      d="M9.5 2v1.521A6.507 6.507 0 0 0 3.521 9.5H2v1h1.521A6.507 6.507 0 0 0 9.5 16.479V18h1v-1.521a6.507 6.507 0 0 0 5.979-5.979H18v-1h-1.521A6.507 6.507 0 0 0 10.5 3.521V2h-1zm0 2.525V5.53A4.51 4.51 0 0 0 5.53 9.5H4.524A5.488 5.488 0 0 1 9.5 4.525zm1 0A5.488 5.488 0 0 1 15.475 9.5H14.47A4.51 4.51 0 0 0 10.5 5.53V4.524zm-1 2.012v1.014c-.976.2-1.749.973-1.95 1.949H6.538A3.486 3.486 0 0 1 9.5 6.537zm1 0A3.486 3.486 0 0 1 13.463 9.5h-1.014A2.516 2.516 0 0 0 10.5 7.55V6.538zm-1 2.047V9.5h-.916a1.49 1.49 0 0 1 .916-.916zm1 0c.429.15.766.487.916.916H10.5v-.916zM4.525 10.5H5.53A4.51 4.51 0 0 0 9.5 14.47v1.005A5.488 5.488 0 0 1 4.525 10.5zm2.012 0h1.014c.2.976.973 1.749 1.949 1.95v1.013A3.486 3.486 0 0 1 6.537 10.5zm2.047 0H9.5v.916a1.49 1.49 0 0 1-.916-.916zm1.916 0h.916a1.49 1.49 0 0 1-.916.916V10.5zm1.95 0h1.013a3.486 3.486 0 0 1-2.963 2.963v-1.014a2.516 2.516 0 0 0 1.95-1.949zm2.02 0h1.005a5.488 5.488 0 0 1-4.975 4.975V14.47a4.51 4.51 0 0 0 3.97-3.971z"
      stroke="#fff" stroke-opacity=".5" stroke-width="3" stroke-linejoin="round" />
    <path style="-inkscape-stroke:none"
      d="M9.5 2v1.521A6.507 6.507 0 0 0 3.521 9.5H2v1h1.521A6.507 6.507 0 0 0 9.5 16.479V18h1v-1.521a6.507 6.507 0 0 0 5.979-5.979H18v-1h-1.521A6.507 6.507 0 0 0 10.5 3.521V2h-1zm0 2.525V5.53A4.51 4.51 0 0 0 5.53 9.5H4.524A5.488 5.488 0 0 1 9.5 4.525zm1 0A5.488 5.488 0 0 1 15.475 9.5H14.47A4.51 4.51 0 0 0 10.5 5.53V4.524zm-1 2.012v1.014c-.976.2-1.749.973-1.95 1.949H6.538A3.486 3.486 0 0 1 9.5 6.537zm1 0A3.486 3.486 0 0 1 13.463 9.5h-1.014A2.516 2.516 0 0 0 10.5 7.55V6.538zm-1 2.047V9.5h-.916a1.49 1.49 0 0 1 .916-.916zm1 0c.429.15.766.487.916.916H10.5v-.916zM4.525 10.5H5.53A4.51 4.51 0 0 0 9.5 14.47v1.005A5.488 5.488 0 0 1 4.525 10.5zm2.012 0h1.014c.2.976.973 1.749 1.949 1.95v1.013A3.486 3.486 0 0 1 6.537 10.5zm2.047 0H9.5v.916a1.49 1.49 0 0 1-.916-.916zm1.916 0h.916a1.49 1.49 0 0 1-.916.916V10.5zm1.95 0h1.013a3.486 3.486 0 0 1-2.963 2.963v-1.014a2.516 2.516 0 0 0 1.95-1.949zm2.02 0h1.005a5.488 5.488 0 0 1-4.975 4.975V14.47a4.51 4.51 0 0 0 3.97-3.971z" />
  </g>
</svg>
