<?xml version="1.0" encoding="UTF-8" standalone="no"?>
<!-- Generator: Adobe Illustrator 13.0.2, SVG Export Plug-In . SVG Version: 6.00 Build 14948)  -->

<svg version="1.1" id="Layer_1" x="0px" y="0px" width="14" height="14" viewBox="-0.258 -0.548 14 14" xml:space="preserve" sodipodi:docname="sinkhole.svg" inkscape:version="1.1.1 (3bf5ae0d25, 2021-09-20)" xmlns:inkscape="http://www.inkscape.org/namespaces/inkscape" xmlns:sodipodi="http://sodipodi.sourceforge.net/DTD/sodipodi-0.dtd" xmlns="http://www.w3.org/2000/svg" xmlns:svg="http://www.w3.org/2000/svg"><defs id="defs904">
	
	
	
	
</defs><sodipodi:namedview id="namedview902" pagecolor="#ffffff" bordercolor="#666666" borderopacity="1.0" inkscape:pageshadow="2" inkscape:pageopacity="0.0" inkscape:pagecheckerboard="true" showgrid="true" inkscape:zoom="54.201506" inkscape:cx="6.2913381" inkscape:cy="6.6880061" inkscape:window-width="1883" inkscape:window-height="1062" inkscape:window-x="0" inkscape:window-y="0" inkscape:window-maximized="1" inkscape:current-layer="Layer_1"><inkscape:grid type="xygrid" id="grid2233" /></sodipodi:namedview>

<path id="circle3323" style="color:#000000;opacity:0.5;fill:none;stroke:#fefefe;stroke-width:3;stroke-linecap:round;stroke-linejoin:round;stroke-miterlimit:4;stroke-dasharray:none;stroke-opacity:1" d="M 9.4072488,-0.02074662 C 5.8379293,-1.4904665 1.7389733,0.21743173 0.26925338,3.7867512 C -1.2004665,7.3560706 0.50743173,11.455027 4.0767512,12.924747 C 7.6460706,14.394466 11.745027,12.686568 13.214747,9.1172488 C 14.684467,5.5479293 12.976568,1.4489732 9.4072488,-0.02074662 Z M 8.5559797,0.73342271 L 7.4219104,3.4875908 L 8.3465885,3.8683406 L 9.4806578,1.1141725 C 10.627259,1.7002786 11.511918,2.6134482 12.069735,3.6905017 L 9.3186478,4.836788 L 9.7032221,5.7597664 L 12.456859,4.6124175 C 12.828666,5.7669206 12.851942,7.0391819 12.460578,8.2659799 L 9.7064092,7.1319104 L 9.3256594,8.0565885 L 12.078021,9.189914 C 11.491593,10.336553 10.580172,11.223959 9.5027545,11.781541 L 8.3564684,9.0304538 L 7.43349,9.4150281 L 8.5797765,12.166115 C 7.4258258,12.537464 6.1541575,12.561568 4.9280201,12.170578 L 6.0620896,9.4164092 L 5.1374115,9.0356594 L 4.004086,11.788021 C 2.8587315,11.202249 1.9712143,10.291149 1.4135213,9.215304 L 4.1646085,8.069018 L 3.7800342,7.1460396 L 1.0314965,8.2912636 C 0.65941723,7.1369792 0.63435349,5.8654913 1.0252287,4.6387639 L 3.7775908,5.7720896 L 4.1583406,4.8474115 L 1.4041725,3.7133422 C 1.9899352,2.5670283 2.9040058,1.6822566 3.9805017,1.1242648 L 5.126788,3.8753522 L 6.0497664,3.4907779 L 4.90348,0.73969056 C 6.0575982,0.36781865 7.3294806,0.34260752 8.5559797,0.73342271 Z" /><circle style="opacity:1;fill:none;fill-opacity:1;stroke:#020202;stroke-width:1;stroke-linecap:round;stroke-linejoin:round;stroke-miterlimit:4;stroke-dasharray:none;stroke-opacity:1" id="path1550" cy="3.3990078" cx="8.6907778" r="6.5" transform="rotate(22.380137)" /><path style="fill:none;fill-rule:evenodd;stroke:#000000;stroke-width:1px;stroke-linecap:butt;stroke-linejoin:miter;stroke-opacity:1" d="M 9.2168739,0.44159242 L 7.8842495,3.6779657" id="path1841" sodipodi:nodetypes="cc" /><path style="fill:none;fill-rule:evenodd;stroke:#000000;stroke-width:1px;stroke-linecap:butt;stroke-linejoin:miter;stroke-opacity:1" d="M 0.73159242,3.9771261 L 3.9679657,5.3097505" id="path1843" sodipodi:nodetypes="cc" /><path style="fill:none;fill-rule:evenodd;stroke:#000000;stroke-width:1px;stroke-linecap:butt;stroke-linejoin:miter;stroke-opacity:1" d="M 12.752408,8.9268739 L 9.5160343,7.5942495" id="path1845" sodipodi:nodetypes="cc" /><path style="fill:none;fill-rule:evenodd;stroke:#000000;stroke-width:1px;stroke-linecap:butt;stroke-linejoin:miter;stroke-opacity:1" d="M 4.2671261,12.462408 L 5.5997505,9.2260343" id="path1847" sodipodi:nodetypes="cc" /><path style="fill:none;fill-rule:evenodd;stroke:#000000;stroke-width:1px;stroke-linecap:butt;stroke-linejoin:miter;stroke-opacity:1" d="M 12.742,3.9520001 L 9.5112307,5.2981539" id="path3222" sodipodi:nodetypes="cc" /><path style="fill:none;fill-rule:evenodd;stroke:#000000;stroke-width:1px;stroke-linecap:butt;stroke-linejoin:miter;stroke-opacity:1" d="M 4.2420001,0.45199991 L 5.5881539,3.6827693" id="path3224" sodipodi:nodetypes="cc" /><path style="fill:none;fill-rule:evenodd;stroke:#000000;stroke-width:1px;stroke-linecap:butt;stroke-linejoin:miter;stroke-opacity:1" d="M 9.2419998,12.452 L 7.8958461,9.2212307" id="path3226" sodipodi:nodetypes="cc" /><path style="fill:none;fill-rule:evenodd;stroke:#000000;stroke-width:1px;stroke-linecap:butt;stroke-linejoin:miter;stroke-opacity:1" d="M 0.74199995,8.9519998 L 3.9727693,7.6058461" id="path3228" sodipodi:nodetypes="cc" /></svg>
