<svg version="1.1" width="17" height="17" xmlns="http://www.w3.org/2000/svg"
  xmlns:svg="http://www.w3.org/2000/svg">
  <path
    d="M 8.4393077,1.5000815 C 5.7117764,1.5277007 3.1294892,3.1590269 2.0271983,5.836019 C 0.55747708,9.4053419 2.2664699,13.503015 5.835792,14.972737 C 9.4051151,16.442458 13.50279,14.735419 14.972511,11.166097 C 16.442232,7.5967742 14.735193,3.4971467 11.16587,2.0274253 C 10.27354,1.6599951 9.3484848,1.4908751 8.4393077,1.5000815 Z M 8.4607921,2.4981284 C 9.0765334,2.4943524 9.7009811,2.5858358 10.314308,2.7813314 L 9.1795421,5.5371909 L 10.105323,5.9180503 L 11.240089,3.1621909 C 12.386387,3.7481035 13.27206,4.6617227 13.829933,5.7383628 L 11.076027,6.8848472 L 11.460792,7.8086753 L 14.214699,6.6621909 C 14.586095,7.816231 14.611631,9.0902535 14.220558,10.316488 L 11.464699,9.1817222 L 11.083839,10.10555 L 13.839699,11.240316 C 13.253558,12.386653 12.33848,13.272448 11.261574,13.830159 L 10.115089,11.078207 L 9.1912608,11.462972 L 10.339699,14.214924 C 9.1852869,14.586752 7.912132,14.612015 6.6854014,14.220784 L 7.820167,11.464925 L 6.8943858,11.084066 L 5.7596202,13.837971 C 4.6140235,13.252187 3.7275339,12.339776 3.1697764,11.263754 L 5.9236827,10.117269 L 5.538917,9.1934409 L 2.7850108,10.339925 C 2.4134528,9.1861336 2.3904769,7.9136732 2.7811045,6.6875815 L 5.5350108,7.820394 L 5.9158702,6.8965659 L 3.1619639,5.7618003 C 3.7479773,4.6149569 4.6610139,3.7279645 5.7381358,3.1700034 L 6.8846202,5.9239097 L 7.8084483,5.539144 L 6.6600108,2.7852377 C 7.2371495,2.5992807 7.8450507,2.5019043 8.4607921,2.4981284 Z"
  />
</svg>
