<?xml version="1.0" encoding="UTF-8" standalone="no"?>
<svg width="11.69" height="11.69" version="1.1" id="svg91" sodipodi:docname="spring.svg" inkscape:version="1.1.1 (3bf5ae0d25, 2021-09-20)" viewBox="-1.4 0 11.69 11.69" xmlns:inkscape="http://www.inkscape.org/namespaces/inkscape" xmlns:sodipodi="http://sodipodi.sourceforge.net/DTD/sodipodi-0.dtd" xmlns="http://www.w3.org/2000/svg" xmlns:svg="http://www.w3.org/2000/svg">
  <defs id="defs95" />
  <sodipodi:namedview id="namedview93" pagecolor="#ffffff" bordercolor="#666666" borderopacity="1.0" inkscape:pageshadow="2" inkscape:pageopacity="0.0" inkscape:pagecheckerboard="true" showgrid="false" fit-margin-top="0" fit-margin-left="0" fit-margin-right="0" fit-margin-bottom="0" inkscape:zoom="13.078125" inkscape:cx="24.315412" inkscape:cy="9.6726404" inkscape:window-width="1883" inkscape:window-height="1062" inkscape:window-x="0" inkscape:window-y="0" inkscape:window-maximized="1" inkscape:current-layer="svg91" viewbox-x="-1.4" />
  <path d="M 5.5,0.01 A 3.3,3.3 0 0 0 2.23,3.34 A 3.36,3.36 0 0 0 2.41,4.42 C 0.7,6.47 1.71,7.34 2.09,8.61 C 2.49,9.89 1.09,10.67 0,11.69 C 3.24,11.1 3.77,9.59 3.68,8.77 C 3.58,7.85 2.85,7.25 3.8,6.17 C 4.36,6.35 4.88,6.66 5.5,6.66 A 3.24,3.24 0 0 0 7.37,6.06 A 3.33,3.33 0 0 0 8.78,3.33 A 3.3,3.3 0 0 0 5.5,0 Z" fill="#0064ff" id="path89" />
</svg>
