<?xml version="1.0" encoding="UTF-8" standalone="no"?>
<svg width="14" height="14" version="1.1" id="svg91" sodipodi:docname="spring.svg" inkscape:version="1.1.1 (3bf5ae0d25, 2021-09-20)" viewBox="-1.4 0 14.000001 14.000001" xmlns:inkscape="http://www.inkscape.org/namespaces/inkscape" xmlns:sodipodi="http://sodipodi.sourceforge.net/DTD/sodipodi-0.dtd" xmlns="http://www.w3.org/2000/svg" xmlns:svg="http://www.w3.org/2000/svg">
  <defs id="defs95" />
  <sodipodi:namedview id="namedview93" pagecolor="#ffffff" bordercolor="#666666" borderopacity="1.0" inkscape:pageshadow="2" inkscape:pageopacity="0.0" inkscape:pagecheckerboard="true" showgrid="false" fit-margin-top="0" fit-margin-left="0" fit-margin-right="0" fit-margin-bottom="0" inkscape:zoom="13.078125" inkscape:cx="24.315412" inkscape:cy="9.6726404" inkscape:window-width="1883" inkscape:window-height="1062" inkscape:window-x="0" inkscape:window-y="0" inkscape:window-maximized="1" inkscape:current-layer="svg91" viewbox-x="-1.4" />
  <path d="M 6.7099315,1.165 A 3.3,3.3 0 0 0 3.4399315,4.495 A 3.36,3.36 0 0 0 3.6199315,5.575 C 1.9099315,7.625 2.9199315,8.495 3.2999315,9.765 C 3.6999315,11.045 2.2999315,11.825 1.2099315,12.845 C 4.4499315,12.255 4.9799315,10.745 4.8899315,9.925 C 4.7899315,9.005 4.0599315,8.405 5.0099315,7.325 C 5.5699315,7.505 6.0899315,7.815 6.7099315,7.815 A 3.24,3.24 0 0 0 8.5799315,7.215 A 3.33,3.33 0 0 0 9.9899315,4.485 A 3.3,3.3 0 0 0 6.7099315,1.155 Z" fill="#0064ff" id="path89" />
</svg>
