<svg version="1.0" width="15" height="19" id="svg1" xmlns="http://www.w3.org/2000/svg"
  xmlns:svg="http://www.w3.org/2000/svg">
  <path
    d="M 7.5592387,1.5000003 L 4.8164504,1.502404 C 3.5400079,1.502404 2.6001041,2.5276442 2.6001041,3.6454328 V 11.560095 C 2.6001041,12.643028 3.44746,13.53125 4.2984215,13.668268 L 1.7443351,17.5 H 3.2190946 L 5.0460174,14.822116 H 10.050825 L 11.877748,17.5 H 13.352506 L 10.798421,13.668268 C 11.649382,13.53125 12.497939,12.643028 12.497939,11.560095 V 3.6466346 C 12.497939,2.528846 11.556832,1.5036057 10.280393,1.5036057 Z M 6.4727004,1.9591347 H 8.6241425 C 8.8188542,1.9591347 8.9871231,2.1225961 8.9871231,2.3161059 V 2.9459134 C 8.9871231,3.1406249 8.8272674,3.3064904 8.6241425,3.3064904 H 6.4727004 A 0.36418269,0.36418269 0 0 1 6.1097195,2.9459134 V 2.3161059 C 6.1097195,2.1225961 6.2779888,1.9591347 6.4727004,1.9591347 Z M 4.8921715,3.734375 H 10.208277 C 10.929431,3.734375 11.312845,4.2512019 11.312845,4.8425482 V 6.2668268 C 11.317653,6.9519231 10.818854,7.372596 10.207075,7.372596 H 4.8897677 C 4.2791906,7.372596 3.7803925,6.9519231 3.7852006,6.2668268 V 4.8425482 C 3.7852006,4.2512019 4.1698158,3.734375 4.8909695,3.734375 Z M 4.7719793,10.569711 A 0.97355767,0.97355767 0 1 1 4.7719793,12.515625 A 0.97355767,0.97355767 0 0 1 4.7719793,10.569711 Z M 10.305633,10.569711 A 0.971755,0.971755 0 1 1 10.305633,12.513221 A 0.971755,0.971755 0 0 1 10.305633,10.569711 Z"
    id="path1" style="stroke-width:1" />
</svg>
