<svg xmlns="http://www.w3.org/2000/svg" version="1.0" width="14" height="14">
    <path d="M7.009.344L4.727.346c-1.062 0-1.844.853-1.844 1.783v6.585c0 .901.705 1.64 1.413 1.754l-2.125 3.188h1.227l1.52-2.228h4.164l1.52 2.228h1.227l-2.125-3.188c.708-.114 1.414-.853 1.414-1.754V2.13c0-.93-.783-1.783-1.845-1.783z" fill="#fbfbfb" stroke-width="3" stroke="#fff" opacity=".5" stroke-linejoin="round" stroke-linecap="round"/>
    <path d="M7.009.344L4.727.346c-1.062 0-1.844.853-1.844 1.783v6.585c0 .901.705 1.64 1.413 1.754l-2.125 3.188h1.227l1.52-2.228h4.164l1.52 2.228h1.227l-2.125-3.188c.708-.114 1.414-.853 1.414-1.754V2.13c0-.93-.783-1.783-1.845-1.783zm-.904.382h1.79c.162 0 .302.136.302.297v.524c0 .162-.133.3-.302.3h-1.79a.303.303 0 01-.302-.3v-.524c0-.161.14-.297.302-.297zM4.79 2.203h4.423c.6 0 .919.43.919.922V4.31c.004.57-.411.92-.92.92H4.788c-.508 0-.923-.35-.919-.92V3.125c0-.492.32-.922.92-.922zm-.1 5.687a.81.81 0 110 1.619.81.81 0 010-1.619zm4.604 0a.808.808 0 110 1.617.808.808 0 010-1.617z"/>
</svg>
