<svg xmlns="http://www.w3.org/2000/svg" width="16" height="16">
  <path d="M4.091153 1.5320212c.9235829-.1627012 1.8679653.4013787 2.2801235 1.233469.4447926.6632487 1.0657136 1.1799361 1.5455238 1.8104406.3938715.7031397.4280379 1.5333215.6441307 2.2976501.1340823.6676864.2915687 1.340971.3232916 2.0211503-.116054.5703842-.5747411.9698032-.9269933 1.3976698-.5344256.50386-1.3004567.518766-1.9776793.645216-.7498427.118752-1.5062304.028398-2.2594684.036217-.5276661-.006341-1.0735573-.208206-1.3785791-.666143-.5009045-.6190426-.9689134-1.4194215-.8022477-2.24996.1792524-.7066726.6421457-1.3535444.5551526-2.1157873-.0823053-.8727449.0626424-1.7460221.1590432-2.6120902.0117005-.3752943.1369662-.7332597.4048618-1.0001173.3274171-.3373802.708305-.686077 1.193141-.7369011.0806024-.0169051.1610697-.0352539.2394808-.0608823z" stroke-width="3" fill="none" stroke="#fff" stroke-linejoin="round" stroke-opacity=".5"/>
  <path d="M4.091153 1.5603836c.9235829-.1627014 1.8679653.4013785 2.2801235 1.2334687.4447926.663249 1.0657136 1.179936 1.5455238 1.8104406.3938715.7031397.4280379 1.5333216.6441307 2.2976507.1340823.6676859.2915687 1.3409706.3232916 2.021153-.116054.5703807-.5747411.9698018-.9269933 1.3976674-.5344256.503861-1.3004567.518762-1.9776793.645215-.7498427.118751-1.5062304.028398-2.2594684.036219-.5276661-.006342-1.0735573-.208208-1.3785791-.666146-.5009045-.6190416-.9689134-1.4194214-.8022477-2.2499586.1792524-.7066727.6421457-1.3535443.5551526-2.1157877-.0823053-.8727448.0626424-1.746022.1590432-2.6120901.0117005-.3752946.1369662-.7332592.4048618-1.000117.3274171-.3373803.708305-.6860773 1.193141-.736901.0806024-.0169053.1610697-.0352544.2394808-.0608828z"/>
</svg>
