<?xml version="1.0" encoding="UTF-8" standalone="no"?>
<svg width="14" height="14" version="1.1" id="svg4286" sodipodi:docname="stone.svg" inkscape:version="1.1.1 (3bf5ae0d25, 2021-09-20)" xmlns:inkscape="http://www.inkscape.org/namespaces/inkscape" xmlns:sodipodi="http://sodipodi.sourceforge.net/DTD/sodipodi-0.dtd" xmlns="http://www.w3.org/2000/svg" xmlns:svg="http://www.w3.org/2000/svg">
  <defs id="defs4290" />
  <sodipodi:namedview id="namedview4288" pagecolor="#ffffff" bordercolor="#666666" borderopacity="1.0" inkscape:pageshadow="2" inkscape:pageopacity="0.0" inkscape:pagecheckerboard="0" showgrid="false" inkscape:zoom="46.5625" inkscape:cx="7.9892617" inkscape:cy="8" inkscape:window-width="1883" inkscape:window-height="1062" inkscape:window-x="0" inkscape:window-y="0" inkscape:window-maximized="1" inkscape:current-layer="svg4286" />
  <path d="M 5.8965807,2.2803008 C 6.8201636,2.1175994 7.764546,2.6816793 8.1767042,3.5137695 C 8.6214968,4.1770185 9.2424178,4.6937055 9.722228,5.3242101 C 10.116099,6.0273498 10.150266,6.8575317 10.366359,7.6218608 C 10.500441,8.2895467 10.657927,8.9628314 10.68965,9.6430138 C 10.573596,10.213394 10.114909,10.612816 9.762657,11.040681 C 9.2282314,11.544542 8.4622003,11.559443 7.7849777,11.685896 C 7.035135,11.804647 6.2787473,11.714294 5.5255093,11.722115 C 4.9978432,11.715773 4.451952,11.513907 4.1469302,11.055969 C 3.6460257,10.436928 3.1780168,9.6365478 3.3446825,8.8060106 C 3.5239349,8.0993379 3.9868282,7.4524663 3.8998351,6.6902229 C 3.8175298,5.8174781 3.9624775,4.9442009 4.0588783,4.0781328 C 4.0705788,3.7028382 4.1958445,3.3448736 4.4637401,3.0780158 C 4.7911572,2.7406355 5.1720451,2.3919385 5.6568811,2.3411148 C 5.7374835,2.3242095 5.8179508,2.3058604 5.8963619,2.280232 Z" id="path4284" />
</svg>
