<svg width="10.384222" height="12.506433" version="1.1"
  xmlns="http://www.w3.org/2000/svg" xmlns:svg="http://www.w3.org/2000/svg">


  <path
    d="M 4.0911533,1.5320214 C 5.0147362,1.36932 5.9591186,1.9333999 6.3712768,2.7654901 C 6.8160694,3.4287391 7.4369904,3.9454261 7.9168006,4.5759307 C 8.3106721,5.2790704 8.3448385,6.1092523 8.5609313,6.8735814 C 8.6950136,7.5412673 8.8525,8.214552 8.8842229,8.8947344 C 8.7681689,9.4651151 8.3094818,9.8645362 7.9572296,10.292402 C 7.422804,10.796263 6.6567729,10.811164 5.9795503,10.937617 C 5.2297076,11.056368 4.4733199,10.966015 3.7200819,10.973836 C 3.1924158,10.967494 2.6465246,10.765628 2.3415028,10.30769 C 1.8405983,9.6886482 1.3725894,8.8882684 1.5392551,8.0577312 C 1.7185075,7.3510585 2.1814008,6.7041869 2.0944077,5.9419435 C 2.0121024,5.0691987 2.1570501,4.1959215 2.2534509,3.3298534 C 2.2651514,2.9545588 2.3904171,2.5965942 2.6583127,2.3297364 C 2.9857298,1.9923561 3.3666177,1.6436591 3.8514537,1.5928354 C 3.9320561,1.5759301 4.0125234,1.557581 4.0909345,1.5319526 Z"
  />
</svg>
