<?xml version="1.0" encoding="UTF-8"?>
<svg id="Svg" width="64" height="64" version="1.1" xmlns="http://www.w3.org/2000/svg">
 <g stroke="#000" stroke-linecap="round" stroke-linejoin="round">
  <path id="pathSk5sig4l6llw" d="m9.5558 25.622c-1.8e-6 0.006246-4.32e-5 0.012078-4.68e-5 0.018306 6.282e-4 -0.006102 0.0013734-0.012222 0.0022356-0.018306zm5.7789 0.00108c5.91e-4 0.005652 0.001082 0.011304 0.001474 0.016938 4.9e-5 -0.005706-7e-6 -0.011214 4.7e-5 -0.016938zm0.001474 0.021312c-0.002538 0.65137-1.2958 1.1789-2.8902 1.1789-1.5934-5.4e-5 -2.8862-0.52688-2.8902-1.1778-0.072376 3.3479-0.34683 4.9163-1.6035 6.0125 2.0624 0.76979 2.5833-1.0727 2.9905-1.0721 0.83782 0.00117 0.50617 1.6957 1.6994 1.672 1.1932-0.023724 0.85177-1.6756 1.5911-1.6711 0.45924 0.002772 1.1408 1.9483 3.2068 1.1611-1.4251-1.2644-1.99-2.9744-2.1038-6.1034z" fill="#963434" fill-opacity=".5" fill-rule="evenodd" stroke-width=".46021"/>
  <ellipse id="ellipseSk5sig4l6llx" cx="12.446" cy="25.642" rx="2.8905" ry="1.1808" fill="#d4ac82" fill-opacity=".5" stroke-width=".46021" style="paint-order:normal"/>
  <g stroke-width=".46021">
   <path id="pathSk5sig4l6llz" d="m10.336 29.654c0.45751-0.81684 0.37249-1.9709 0.37249-1.9709" fill="none"/>
   <path id="pathSk5sig4l6lnn" d="m29.556 29.763c-2e-6 0.006246-4.3e-5 0.012078-4.7e-5 0.018306 6.28e-4 -0.006102 0.001374-0.012222 0.002236-0.018306zm5.7789 0.00108c5.91e-4 0.005652 0.001082 0.011304 0.001474 0.016938 4.9e-5 -0.005706-7e-6 -0.011214 4.7e-5 -0.016938zm0.001474 0.021312c-0.002538 0.65137-1.2958 1.1789-2.8902 1.1789-1.5934-5.4e-5 -2.8862-0.52688-2.8902-1.1778-0.072377 3.3479-0.34683 4.9163-1.6035 6.0125 2.0624 0.76979 2.5833-1.0727 2.9905-1.0721 0.83782 0.00117 0.50617 1.6957 1.6994 1.672 1.1932-0.023724 0.85177-1.6756 1.5911-1.6711 0.45924 0.002772 1.1408 1.9483 3.2068 1.1611-1.4251-1.2644-1.99-2.9744-2.1038-6.1034z" fill="#963434" fill-opacity=".5" fill-rule="evenodd"/>
   <ellipse id="ellipseSk5sig4l6lno" cx="32.446" cy="29.783" rx="2.8905" ry="1.1808" fill="#d4ac82" fill-opacity=".5" style="paint-order:normal"/>
  </g>
  <g stroke-width=".46021">
   <path id="pathSk5sig4l6lnq" d="m30.336 33.795c0.45751-0.81684 0.37249-1.9709 0.37249-1.9709" fill="none"/>
   <path id="pathSk5sig4l6lqk" d="m5.2423 5.4494c-1.8e-6 0.006246-4.32e-5 0.012078-4.68e-5 0.018306 6.282e-4 -0.006102 0.0013734-0.012222 0.0022356-0.018306zm5.7789 0.00108c5.91e-4 0.005652 0.001082 0.011304 0.001474 0.016938 4.9e-5 -0.005706-7e-6 -0.011214 4.7e-5 -0.016938zm0.001474 0.021312c-0.002538 0.65137-1.2958 1.1789-2.8902 1.1789-1.5934-5.4e-5 -2.8862-0.52688-2.8902-1.1778-0.072376 3.3479-0.34683 4.9163-1.6035 6.0125 2.0624 0.76979 2.5833-1.0727 2.9905-1.0721 0.83782 0.00117 0.50617 1.6957 1.6994 1.672 1.1932-0.023724 0.85177-1.6756 1.5911-1.6711 0.45924 0.002772 1.1408 1.9483 3.2068 1.1611-1.4251-1.2644-1.99-2.9744-2.1038-6.1034z" fill="#963434" fill-opacity=".5" fill-rule="evenodd"/>
   <ellipse id="ellipseSk5sig4l6lql" cx="8.1324" cy="5.4699" rx="2.8905" ry="1.1808" fill="#d4ac82" fill-opacity=".5" style="paint-order:normal"/>
  </g>
  <g stroke-width=".46021">
   <path id="pathSk5sig4l6lqn" d="m6.0223 9.4812c0.45751-0.81684 0.37249-1.9709 0.37249-1.9709" fill="none"/>
   <path id="pathSk5sig4l6lrq" d="m25.415 9.7629c-2e-6 0.006246-4.3e-5 0.012078-4.7e-5 0.018306 6.28e-4 -0.006102 0.001374-0.012222 0.002236-0.018306zm5.7789 0.00108c5.91e-4 0.005652 0.001082 0.011304 0.001474 0.016938 4.9e-5 -0.005706-7e-6 -0.011214 4.7e-5 -0.016938zm0.001474 0.021312c-0.002538 0.65137-1.2958 1.1789-2.8902 1.1789-1.5934-5.4e-5 -2.8862-0.52688-2.8902-1.1778-0.072377 3.3479-0.34683 4.9163-1.6035 6.0125 2.0624 0.76979 2.5833-1.0727 2.9905-1.0721 0.83782 0.00117 0.50617 1.6957 1.6994 1.672 1.1932-0.023724 0.85177-1.6756 1.5911-1.6711 0.45924 0.002772 1.1408 1.9483 3.2068 1.1611-1.4251-1.2644-1.99-2.9744-2.1038-6.1034z" fill="#963434" fill-opacity=".5" fill-rule="evenodd"/>
   <ellipse id="ellipseSk5sig4l6lrr" cx="28.305" cy="9.7834" rx="2.8905" ry="1.1808" fill="#d4ac82" fill-opacity=".5" style="paint-order:normal"/>
  </g>
  <path id="pathSk5sig4l6lrt" d="m26.195 13.795c0.45751-0.81684 0.37249-1.9709 0.37249-1.9709" fill="none" stroke-width=".46021"/>
 </g>
 <desc>Created with Snap</desc>
 <rect x="2" y="-2" width="40" height="40" opacity="0" stroke-width=".047244" style="paint-order:normal"/>
</svg>
