<svg xmlns="http://www.w3.org/2000/svg" viewBox="0 0 210 297" height="297mm" width="210mm">
    <g stroke="#000" stroke-width=".256" stroke-linecap="round" stroke-linejoin="round">
        <path d="M95.72 132.836v.01l.002-.01zm3.211 0v0zm0 .012c0 .362-.719.655-1.605.655-.885 0-1.603-.293-1.606-.654-.04 1.86-.192 2.73-.89 3.34 1.145.428 1.435-.596 1.661-.596.465 0 .281.942.944.93.663-.014.473-.932.884-.93.255.002.634 1.083 1.782.646-.792-.703-1.106-1.653-1.17-3.391z" fill="#963434" fill-opacity=".5" fill-rule="evenodd"/>
        <ellipse cx="97.326" cy="132.847" rx="1.606" ry=".656" fill="#d4ac82" fill-opacity=".5"/>
        <path d="M96.154 135.075c.254-.453.207-1.094.207-1.094" fill="none"/>
    </g>
</svg>
