<svg xmlns="http://www.w3.org/2000/svg" height="14" width="14">
    <path d="M13.412 1.172a.553.553 0 00-.162.027l-1.482.551L11.5 3H0l1 6 9 .9V11H1.5a.5.5 0 000 1h1.02a1 1 0 010 .002 1 1 0 00-.02.197 1 1 0 001 1 1 1 0 001-1A1 1 0 004.479 12h4.04a1 1 0 010 .002 1 1 0 00-.019.197 1 1 0 001 1 1 1 0 001-1 1 1 0 00-.021-.199H11v-2l1.5-7 .1-.4 1-.35a.553.553 0 00-.188-1.078zM1.168 4H3.5v1H1.346zM4 4h1.5v1H4zm2 0h1.5v1H6zm2 0h1.5v1H8zm2 0h1.285l-.21 1H10zM1.436 5.5H3.5V7H1.703zM4 5.5h1.5V7H4zm2 0h1.5V7H6zm2 0h1.5V7H8zm2 0h.969L10.652 7H10zm-8.207 2H3.5v.754L1.9 8.1zM4 7.5h1.5v.945L4 8.301zm2 0h1.5v1.137L6 8.492zm2 0h1.5v1.328L8 8.684zm2 0h.545l-.295 1.4-.25-.023z" fill="none" stroke="#fff" stroke-width="3" stroke-linecap="round" stroke-linejoin="round" stroke-opacity=".5"/>
    <path d="M13.412 1.172a.553.553 0 00-.162.027l-1.482.551L11.5 3H0l1 6 9 .9V11H1.5a.5.5 0 000 1h1.02a1 1 0 010 .002 1 1 0 00-.02.197 1 1 0 001 1 1 1 0 001-1A1 1 0 004.479 12h4.04a1 1 0 010 .002 1 1 0 00-.019.197 1 1 0 001 1 1 1 0 001-1 1 1 0 00-.021-.199H11v-2l1.5-7 .1-.4 1-.35a.553.553 0 00-.188-1.078zM1.168 4H3.5v1H1.346l-.178-1zM4 4h1.5v1H4V4zm2 0h1.5v1H6V4zm2 0h1.5v1H8V4zm2 0h1.285l-.21 1H10V4zM1.436 5.5H3.5V7H1.703l-.267-1.5zM4 5.5h1.5V7H4V5.5zm2 0h1.5V7H6V5.5zm2 0h1.5V7H8V5.5zm2 0h.969L10.652 7H10V5.5zm-8.207 2H3.5v.754L1.9 8.1l-.107-.6zM4 7.5h1.5v.945L4 8.301V7.5zm2 0h1.5v1.137L6 8.492V7.5zm2 0h1.5v1.328L8 8.684V7.5zm2 0h.545l-.295 1.4-.25-.023V7.5z"/>
</svg>
