<svg height="15.5" width="17" version="1.1" xmlns="http://www.w3.org/2000/svg"
  xmlns:svg="http://www.w3.org/2000/svg">
  <path
    d="M 14,1.5 C 13.770781,1.5003571 13.571156,1.6565155 13.515625,1.8789062 L 13.109375,3.5 H 2 C 1.6847177,3.5001243 1.4482247,3.7884384 1.5097656,4.0976562 L 2.5097656,9.0976562 C 2.5527085,9.311135 2.7288633,9.4722812 2.9453125,9.4960938 L 11.5,10.445312 V 11.5 H 3 C 2.7238576,11.5 2.5,11.723858 2.5,12 C 2.5,12.276142 2.7238576,12.5 3,12.5 H 4.1347656 C 4.0467208,12.651943 4.0002404,12.824391 4,13 C 4,13.552285 4.4477153,14 5,14 C 5.5522847,14 6,13.552285 6,13 C 5.9997596,12.824391 5.9532792,12.651943 5.8652344,12.5 H 10.134766 C 10.046721,12.651943 10.000241,12.824391 10,13 C 10,13.552285 10.447715,14 11,14 C 11.552285,14 12,13.552285 12,13 C 11.999759,12.824391 11.953279,12.651943 11.865234,12.5 H 12 C 12.276131,12.499972 12.499972,12.276131 12.5,12 V 10.058594 L 14.390625,2.5 H 15 C 15.276142,2.5 15.5,2.2761424 15.5,2 C 15.5,1.7238576 15.276142,1.5 15,1.5 Z M 2.609375,4.5 L 3.5,4.4996406 V 5.4998203 L 2.7772459,5.5001797 Z M 4,4.4996406 L 5.515625,4.5 L 5.5058594,5.5001797 L 4,5.4998203 Z M 6.015625,4.5 H 7.4970703 L 7.4990234,5.5001797 H 6.0058594 Z M 7.9970703,4.5 H 9.5 V 5.5001797 H 7.9990234 Z M 10,4.5 L 11.5,4.4999297 V 5.5001094 L 10,5.5001797 Z M 12,4.4999297 L 12.859375,4.5 L 12.66217,5.5001797 L 12,5.5001094 Z M 2.8768553,6.0001797 L 3.5,5.9998203 V 7.5055 L 3.1627039,7.5058594 Z M 4,5.9998203 L 5.5019532,6.0001797 L 5.4921876,7.5019532 L 4,7.5035469 Z M 6.0039063,6.0001797 H 7.4990234 L 7.5009765,7.5 L 5.9921876,7.5019532 Z M 7.9990234,6.0001797 H 9.5 V 7.4980469 L 8.0009765,7.5 Z M 10,6.0001797 L 11.5,6.0001094 V 7.4940703 L 10,7.4960938 Z M 12,6.0001094 L 12.53717,6.0001797 L 12.194966,7.5069385 L 12,7.5 Z M 11.5,7.9940703 V 9.5 L 10,9.3027344 V 7.9960938 Z M 9.5,7.9980469 V 9.2480469 L 8.0029297,9.0820312 L 8.0009765,8 Z M 7.5009765,8 L 7.5029297,9.0253906 L 5.984375,8.859375 L 5.9882813,8.0019532 Z M 5.4882813,8.0019532 L 5.484375,8.8027344 L 4,8.6363594 V 8.0035469 Z M 3.2623133,8.0058594 L 3.5,8.0055 V 8.5667392 L 3.4179688,8.5449219 Z"
  />
</svg>
