<svg
   height="15"
   width="15"
   xmlns="http://www.w3.org/2000/svg">
  <path
     d="M 7.5,0 C 4.0000035,0 2,3.0039082 2,5 H 0 V 15 H 15 V 5 H 13 C 13,3.0000019 10.999996,0 7.5,0 Z M 7.4726563,1.5 8.4628906,3.2519533 10.445313,3.25 9.453125,5.0019533 10.447266,6.75 8.4648438,6.7480467 7.4726563,8.5 6.4824218,6.7480467 4.5,6.75 5.4921875,4.9980467 4.4980467,3.25 6.4804688,3.25195 Z m 0,1.2128906 -0.3046877,0.5390627 H 7.7773437 Z M 5.529297,3.8574218 5.8339843,4.3945312 6.138672,3.8574218 Z m 1.2968748,0 L 6.1777344,5 6.8261718,6.1425782 H 8.1191405 L 8.767578,5 8.1191405,3.8574218 Z m 1.9804692,0 0.304687,0.5390627 0.304688,-0.5390627 z M 5.8339843,5.6035155 5.529297,6.1425782 H 6.138672 Z M 9.111328,5.6054655 8.806641,6.1425749 H 9.416016 Z M 7.1679686,6.7480467 7.4726563,7.2871094 7.7773437,6.7480467 Z M 7.5,9.000289 c 1.243983,0 1.5,1.034589 1.5,1.609375 v 3.394242 L 6,14 V 10.605758 C 6,10.009719 6.2560166,9.000289 7.5,9.000289 Z M 3,8.998289 c 1.2439834,0 1.5,1.034589 1.5,1.609375 v 3.394242 l -3,-0.0039 V 10.603763 C 1.5,10.007725 1.7560166,8.998295 3,8.998295 Z m 9,0 c 1.243983,0 1.5,1.034589 1.5,1.609375 v 3.394242 l -3,-0.0039 v -3.394243 c 0,-0.596038 0.256017,-1.605468 1.5,-1.605468 z" />
</svg>
