<svg width="17" height="17" version="1.1"
  xmlns="http://www.w3.org/2000/svg" xmlns:svg="http://www.w3.org/2000/svg">


  <path
    d="M 7.469,1.5 C 6.929,1.5 6.5,1.988 6.5,2.5 L 6.469,3.5 H 4.5 L 3.25,7.5 C 2.49,7.5 1.5,7.997 1.5,9.5 V 13.5 H 3.5 V 14.5 C 3.5,14.5 3.5,15.5 4.5,15.5 C 5.5,15.5 5.5,14.5 5.5,14.5 V 13.5 L 11.5,13.469 V 14.5 C 11.5,14.5 11.5,15.5 12.5,15.5 C 13.5,15.5 13.5,14.5 13.5,14.5 V 13.5 H 15.5 V 9.5 C 15.5,7.973 14.5,7.5 13.5,7.5 L 12.5,3.5 H 10.5 V 2.5 C 10.5,1.934 10.066,1.5 9.5,1.5 Z M 7.5,2.5 H 9.5 V 3.5 H 7.5 Z M 5.5,5 H 11.5 L 12.094,7.5 H 4.813 Z M 4.5,9.5 A 1,1 0 1 1 4.5,11.5 A 1,1 0 0 1 4.5,9.5 Z M 12.5,9.5 A 1,1 0 1 1 12.5,11.5 A 1,1 0 0 1 12.5,9.5 Z"
  />
</svg>
