<svg width="14.874933" height="14.941418" version="1.1"
  xmlns="http://www.w3.org/2000/svg" xmlns:svg="http://www.w3.org/2000/svg">


  <path
    d="M 2.4977168,8.4945324 C 1.5097168,9.4825324 1.0577168,11.068532 2.0467168,12.047532 L 2.4977168,12.494532 L 5.4977168,9.4945324 V 7.9945324 L 7.9977168,5.4945324 H 9.4977168 L 12.497717,2.4945324 L 11.987717,2.0075324 C 11.010717,1.0765324 9.4777168,1.5135324 8.4977168,2.4945324 Z M 3.0427168,13.032532 L 3.3817168,13.384532 C 3.3817168,13.384532 4.2317168,13.460532 4.6707168,13.028532 L 6.0647168,11.656532 C 6.4457168,11.254532 6.3717168,10.351532 6.3717168,10.351532 L 6.0327168,9.9985324 Z M 10.050717,6.0145324 L 10.389717,6.3675324 C 10.389717,6.3675324 11.259717,6.5255324 11.653717,6.1375324 L 13.047717,4.7645324 C 13.442717,4.3745324 13.369717,3.3555324 13.369717,3.3555324 L 13.030717,3.0025324 Z"
  />
</svg>
