<svg width="17" height="17" version="1.1"
  xmlns="http://www.w3.org/2000/svg" xmlns:svg="http://www.w3.org/2000/svg">


  <path
    d="M 7.75,1.5 V 15.5 H 9.25 V 1.5 Z M 4,2.5 A 1.5,1.5 0 1 0 4,5.5 A 1.5,1.5 0 0 0 4,2.5 Z M 13,2.5 A 1.5,1.5 0 1 0 13,5.5 A 1.5,1.5 0 0 0 13,2.5 Z M 3,6.5 C 2.4,6.5 2,7.069 2,7.5 C 2,8.027 3.25,8.997 3.25,9.5 C 3.25,10.056 1.5,10.5 1.5,12.5 H 3.25 V 15.5 H 4.75 V 12.5 H 6.5 C 6.5,10.5 4.75,10.03 4.75,9.5 C 4.75,8.97 6,8.051 6,7.5 C 6,7.093 5.575,6.5 5,6.5 Z M 11.5,6.5 C 10.973,6.5 10.5,6.98 10.5,7.5 C 10.5,8.5 12.25,11.516 12.25,12.5 V 15.5 H 13.75 V 12.5 C 13.75,11.536 15.5,8.5 15.5,7.5 A 1,1 0 0 0 14.5,6.5 Z"
  />
</svg>
