<svg width="13" height="16.999989" version="1.1"
  xmlns="http://www.w3.org/2000/svg" xmlns:svg="http://www.w3.org/2000/svg">


  <path
    d="M 6.5,1.4999884 L 1.5,3.4999884 V 7.4999884 H 11.5 V 3.4999884 Z M 2.5,4.4999884 H 4.5 V 6.4999884 H 2.5 Z M 5.5,4.4999884 H 7.5 V 6.4999884 H 5.5 Z M 8.5,4.4999884 H 10.5 V 6.4999884 H 8.5 Z M 3.406,8.1249884 L 2.5,15.499988 H 4 L 4.188,14.030988 L 6.5,12.499988 L 8.813,14.062988 L 9,15.499988 H 10.5 L 9.594,8.1559884 Z M 4.844,8.6879884 L 8.156,8.7179884 L 8.344,10.280988 L 6.5,11.499988 L 4.656,10.280988 L 4.844,8.6869884 Z M 4.531,11.187988 L 5.75,11.999988 L 4.312,12.968988 L 4.532,11.187988 Z M 8.469,11.187988 L 8.688,12.967988 L 7.25,11.999988 L 8.469,11.186988 Z"
  />
</svg>
