<svg height="16.999962" width="11" version="1.1"
  xmlns="http://www.w3.org/2000/svg" xmlns:svg="http://www.w3.org/2000/svg">


  <path
    d="M 5.5,1.4999625 L 1.5,4.4999625 V 15.499963 H 2.5 V 7.4999625 A 3,3 0 0 1 5.5,4.4999625 A 3,3 0 0 1 8.5,7.4999625 V 15.499963 H 9.5 V 4.4999625 Z M 5.143,5.9999625 C 3.67,7.0989625 4.126,7.6169625 3.625,9.5299625 C 3.527,9.6299625 3,9.9519625 3,10.259963 V 10.499963 H 8 V 10.259963 C 8.007,9.9519625 7.428,9.6299625 7.33,9.5299625 C 6.837,7.6469625 7.261,6.8429625 5.857,5.9999625 Z M 5.5,11.249963 A 0.75,0.75 0 0 0 4.75,11.999963 A 0.75,0.75 0 0 0 5.5,12.749963 A 0.75,0.75 0 0 0 6.25,11.999963 A 0.75,0.75 0 0 0 5.5,11.249963 Z"
  />
</svg>
