<svg height="17" width="15" version="1.1" id="svg1" xmlns="http://www.w3.org/2000/svg"
  xmlns:svg="http://www.w3.org/2000/svg">
  <path
    d="M 4.5157613,2 C 2.7578438,2.7759908 1.5003409,4.5329136 1.5003409,6.5703868 C 1.5003409,8.6078599 2.7578438,10.364779 4.5157613,11.14077 V 9.990715 C 3.325909,9.3032671 2.5260415,8.0497437 2.5260415,6.5703868 C 2.5260415,5.0900351 3.325909,3.8375064 4.5157613,3.1500581 V 2.0009949 Z M 10.484918,2 V 3.1500581 C 11.67477,3.8375064 12.474638,5.0900351 12.474638,6.5703868 C 12.474638,8.0507385 11.67477,9.3032671 10.484918,9.990715 V 11.14077 C 12.242835,10.364779 13.500337,8.6078599 13.500337,6.5703868 C 13.500337,4.5329136 12.242835,2.7759908 10.484918,2 Z M 5.5106215,3.7718456 C 4.3595684,4.1867023 3.5209016,5.2810482 3.5209016,6.5703868 C 3.5209016,7.8607202 4.3595684,8.9540713 5.5106215,9.3689279 V 8.2795562 A 1.9598742,1.9598742 0 0 1 4.5157613,6.5703868 C 4.5157613,5.8302109 4.91669,5.2034491 5.5106215,4.8602224 Z M 9.4900616,3.7718456 V 4.8602224 C 10.083991,5.2034491 10.484918,5.8302109 10.484918,6.5703868 C 10.484918,7.3105626 10.083991,7.9373244 9.4900616,8.2805511 V 9.367933 C 10.641111,8.9540713 11.479778,7.8607202 11.479778,6.5703868 C 11.479778,5.2800533 10.641111,4.1867023 9.4900616,3.7718456 Z M 7.5003413,5.5755269 C 6.9054151,5.5755269 6.5054815,6.043111 6.5054815,6.5703868 V 10.549823 L 3.6333208,15.524122 H 4.782384 L 6.5054815,12.539543 V 15.524122 H 8.4952014 V 12.539543 L 10.218296,15.524122 H 11.367358 L 8.4952014,10.549823 V 6.5703868 C 8.4952014,6.0769363 8.0952679,5.5755269 7.5003413,5.5755269 Z"
  />
</svg>
