<svg height="14" width="14" xmlns="http://www.w3.org/2000/svg">
  <path d="M7 0 3 3v11h1V6a3 3 0 0 1 3-3 3 3 0 0 1 3 3v8h1V3L7 0zm-.357 4.5C5.17 5.599 5.626 6.117 5.125 8.03c-.098.1-.625.422-.625.73V9h5v-.24c.007-.308-.572-.63-.67-.73-.493-1.883-.069-2.687-1.473-3.53h-.714zM7 9.75a.75.75 0 0 0-.75.75.75.75 0 0 0 .75.75.75.75 0 0 0 .75-.75.75.75 0 0 0-.75-.75z" style="opacity:.5;fill:none;fill-opacity:1;fill-rule:evenodd;stroke:#fdfdfd;stroke-width:3;stroke-linecap:round;stroke-linejoin:round;stroke-miterlimit:4;stroke-dasharray:none;stroke-opacity:1;paint-order:stroke fill markers" />
  <path d="M7 0 3 3v11h1V6a3 3 0 0 1 3-3 3 3 0 0 1 3 3v8h1V3L7 0zm-.357 4.5C5.17 5.599 5.626 6.117 5.125 8.03c-.098.1-.625.422-.625.73V9h5v-.24c.007-.308-.572-.63-.67-.73-.493-1.883-.069-2.687-1.473-3.53h-.714zM7 9.75a.75.75 0 0 0-.75.75.75.75 0 0 0 .75.75.75.75 0 0 0 .75-.75.75.75 0 0 0-.75-.75z" style="opacity:1;fill:#000;fill-opacity:1;fill-rule:evenodd;stroke:none;stroke-width:1.68416572;stroke-linecap:square;stroke-linejoin:miter;stroke-miterlimit:4;stroke-dasharray:none;stroke-opacity:1;paint-order:stroke fill markers" />
</svg>
