<svg width="14" height="14" viewBox="-0.258 -0.548 14 14" xml:space="preserve" xmlns="http://www.w3.org/2000/svg">
  <path style="fill:none;fill-opacity:1;fill-rule:evenodd;stroke:#fff;stroke-width:3;stroke-linecap:round;stroke-linejoin:round;stroke-opacity:.5;stroke-miterlimit:4;stroke-dasharray:none" d="M7.5 0c-3.86 0-7 3.14-7 7s3.14 7 7 7 7-3.14 7-7-3.14-7-7-7zm0 1c3.32 0 6 2.68 6 6s-2.68 6-6 6-6-2.68-6-6 2.68-6 6-6zm0 1C5.58 2 4.1 5.293 4.598 7.25c.248.98 1.397 1.568 2.423 1.713V12h1V8.957c1.016-.155 2.136-.741 2.381-1.707C10.9 5.293 9.421 2 7.5 2z" transform="translate(-.258 -.548)" />
  <path style="fill:#107010;fill-opacity:1;fill-rule:evenodd;stroke:none;stroke-width:.999986px;stroke-linecap:butt;stroke-linejoin:miter;stroke-opacity:1" d="M7.5 0c-3.86 0-7 3.14-7 7s3.14 7 7 7 7-3.14 7-7-3.14-7-7-7zm0 1c3.32 0 6 2.68 6 6s-2.68 6-6 6-6-2.68-6-6 2.68-6 6-6zm0 1C5.58 2 4.1 5.293 4.598 7.25c.248.98 1.397 1.568 2.423 1.713V12h1V8.957c1.016-.155 2.136-.741 2.381-1.707C10.9 5.293 9.421 2 7.5 2z" transform="translate(-.258 -.548)" />
</svg>
