<svg width="17" height="17" version="1.1" xmlns="http://www.w3.org/2000/svg"
  xmlns:svg="http://www.w3.org/2000/svg">
  <path
    d="M 8.5,1.5 C 4.64,1.5 1.5,4.64 1.5,8.5 C 1.5,12.36 4.64,15.5 8.5,15.5 C 12.36,15.5 15.5,12.36 15.5,8.5 C 15.5,4.64 12.36,1.5 8.5,1.5 Z M 8.5,2.5 C 11.82,2.5 14.5,5.18 14.5,8.5 C 14.5,11.82 11.82,14.5 8.5,14.5 C 5.18,14.5 2.5,11.82 2.5,8.5 C 2.5,5.18 5.18,2.5 8.5,2.5 Z M 8.5,3.5 C 6.58,3.5 5.1,6.793 5.598,8.75 C 5.846,9.73 6.995,10.318 8.021,10.463 V 13.5 H 9.021 V 10.457 C 10.037,10.302 11.157,9.716 11.402,8.75 C 11.9,6.793 10.421,3.5 8.5,3.5 Z"
    fill="#107010" />
</svg>
