<svg xmlns="http://www.w3.org/2000/svg" width="14" height="14">
    <path d="M10.047 9.518c-.261.279-.552-.216-.883-.008-.33.208-.48 1.651-.872 1.688-.39.037-1.238-1.059-1.633-1.167-.394-.109-1.44 1.444-1.74 1.221-.301-.223.175-1.675-.049-2.018-.223-.344-1.072.384-1.29.053-.216-.33.492-1.012.446-1.388-.045-.376-1.259-1.59-1.078-1.94.18-.349 1.2-.21 1.412-.55.212-.34.297-1.044.593-1.269.297-.225 1.19-.127 1.571-.27.381-.141.79-1.307 1.2-1.313.411-.007.773 1.466 1.144 1.618.37.153 1.133-.477 1.36-.147.226.33-.467 1.773-.27 2.09.195.318 1.041.238 1.089.63.047.393-.802.742-.87 1.12-.067.38.13 1.371-.13 1.65z" fill="#b0ddb0"/>
</svg>
