<svg width="10" height="10" version="1.1"
  xmlns="http://www.w3.org/2000/svg" xmlns:svg="http://www.w3.org/2000/svg">


  <path
    d="M 8.577736,7.8367558 C 8.2723843,8.1408348 7.9319346,7.6013397 7.5446878,7.8280367 C 7.1586108,8.0547336 6.9831213,9.6274436 6.5245087,9.6677695 C 6.068236,9.7080954 5.0761352,8.5135769 4.6140129,8.3958689 C 4.1530604,8.277071 2.9293135,9.9696688 2.5783345,9.7266235 C 2.2261855,9.4835782 2.7830722,7.9010592 2.5210079,7.5272273 C 2.2601135,7.1523054 1.2668428,7.9457447 1.0117981,7.5849914 C 0.75909319,7.225328 1.5874037,6.4820236 1.5335869,6.0722253 C 1.48094,5.662427 0.06064492,4.3393017 0.27240227,3.9578405 C 0.48298968,3.5774692 1.6763184,3.7289638 1.9243436,3.3584015 C 2.1723687,2.9878392 2.2718128,2.2205573 2.6181121,1.9753322 C 2.9655813,1.7301072 4.0103289,1.8369163 4.4560723,1.6810622 C 4.9018157,1.5273878 5.3803171,0.25657707 5.8599884,0.25003773 C 6.3408297,0.24240851 6.7643444,1.8478152 7.1983884,2.0134783 C 7.6312626,2.1802314 8.5239193,1.4936012 8.7894934,1.8532646 C 9.0538976,2.212928 8.243136,3.785638 8.4736123,4.1311328 C 8.7017486,4.4777176 9.6915095,4.3905265 9.7476661,4.817763 C 9.8026528,5.2460894 8.8093822,5.6264607 8.7298269,6.0384388 C 8.6514416,6.4525966 8.8819179,7.5326767 8.577736,7.8367558 Z"
    fill="#c2eeb9" stroke="#dfffdf" stroke-width="0.500001" />
</svg>
