<?xml version="1.0" encoding="UTF-8" standalone="no"?>
<!-- Created with Inkscape (http://www.inkscape.org/) -->

<svg version="1.0" width="544.94269" height="544.94269" id="svg2" sodipodi:version="0.32" inkscape:version="1.1.1 (3bf5ae0d25, 2021-09-20)" sodipodi:docname="university.svg" inkscape:output_extension="org.inkscape.output.svg.inkscape" xmlns:inkscape="http://www.inkscape.org/namespaces/inkscape" xmlns:sodipodi="http://sodipodi.sourceforge.net/DTD/sodipodi-0.dtd" xmlns="http://www.w3.org/2000/svg" xmlns:svg="http://www.w3.org/2000/svg" xmlns:rdf="http://www.w3.org/1999/02/22-rdf-syntax-ns#" xmlns:cc="http://creativecommons.org/ns#" xmlns:dc="http://purl.org/dc/elements/1.1/">
  <metadata id="metadata2975">
    <rdf:RDF>
      <cc:Work rdf:about="">
        <dc:format>image/svg+xml</dc:format>
        <dc:type rdf:resource="http://purl.org/dc/dcmitype/StillImage" />
        <cc:license rdf:resource="http://web.resource.org/cc/PublicDomain" />
        <dc:language>en</dc:language>
      </cc:Work>
    </rdf:RDF>
  </metadata>
  <sodipodi:namedview inkscape:window-height="1062" inkscape:window-width="1883" inkscape:pageshadow="2" inkscape:pageopacity="0.0" guidetolerance="10.0" gridtolerance="10.0" objecttolerance="10.0" borderopacity="1.0" bordercolor="#666666" pagecolor="#ffffff" id="base" inkscape:zoom="0.65172414" inkscape:cx="282.32804" inkscape:cy="-49.867725" inkscape:window-x="0" inkscape:window-y="0" inkscape:current-layer="svg2" showgrid="false" inkscape:pagecheckerboard="0" fit-margin-top="0" fit-margin-left="0" fit-margin-right="0" fit-margin-bottom="0" width="544.94269px" inkscape:window-maximized="1" />
  <defs id="defs4" />
  <g id="g886" transform="translate(-19.556318,-41.73345)">
    <g id="g1327" />
    <path style="fill:#000000;fill-rule:evenodd;stroke:#000000;stroke-width:10;stroke-linecap:round;stroke-linejoin:round;stroke-miterlimit:4;stroke-dasharray:none;stroke-opacity:1" d="M 272.88678,135.49087 L 24.554768,260.20708 L 334.04076,264.35727 L 559.5004,146.80474 Z" id="path2662" />
    <path style="fill:#000000;fill-rule:evenodd;stroke:#000000;stroke-width:10;stroke-linecap:round;stroke-linejoin:round;stroke-miterlimit:4;stroke-dasharray:none;stroke-opacity:1" d="M 127.2667,365.3754 L 154.09984,286.09352 L 341.09332,291.42596 L 465.59678,223.64726 L 515.40623,281.48345 C 515.40623,281.48345 452.5225,288.41485 425.1209,305.43773 C 397.7193,322.4606 362.17606,363.44383 362.17606,363.44383 C 362.17606,363.44383 284.79228,336.638 249.00949,336.03614 C 180.69074,334.88703 131.50867,364.45854 127.2667,365.3754 Z" id="path2664" sodipodi:nodetypes="cccccscsc" />
    <path style="fill:#000000;fill-opacity:1;fill-rule:evenodd;stroke:none;stroke-width:20;stroke-linecap:butt;stroke-linejoin:miter;stroke-miterlimit:4;stroke-dasharray:none;stroke-opacity:1" d="M 134.25,280.09375 L 104.21875,280.53125 C 100.02835,287.5158 97.009988,296.28576 93.78125,306.71875 C 89.128683,321.75255 85.191392,339.76671 82.875,357.71875 C 74.146268,425.36641 74.125,456.65625 74.125,456.65625 H 94.125 C 94.125,456.65625 94.08782,427.17095 102.71875,360.28125 C 104.88395,343.50095 108.62408,326.36097 112.875,312.625 C 117.12592,298.88903 123.05253,288.10333 124.5625,286.625 C 128.09983,283.16179 131.17852,281.42336 133.1875,280.53125 C 133.63538,280.33236 133.96818,280.20769 134.25,280.09375 Z" id="path2666" />
    <path style="fill:#000000;fill-opacity:1;stroke:#000000;stroke-width:15.4746;stroke-linecap:butt;stroke-linejoin:round;stroke-miterlimit:4;stroke-dashoffset:0;stroke-opacity:1" d="M 106.46373,433.24868 C 106.46373,446.35545 91.82635,480.99284 78.719573,480.99284 C 65.612797,480.99284 58.975414,446.35545 58.975414,433.24868 C 58.975414,420.1419 69.612797,409.50452 82.719573,409.50452 C 95.82635,409.50452 106.46373,420.1419 106.46373,433.24868 Z" id="path3462" sodipodi:nodetypes="csssc" />
    <path id="path3466" d="M 81.949709,438.15162 L 69.214311,492.79019 Z" style="fill:none;fill-rule:evenodd;stroke:#000000;stroke-width:10;stroke-linecap:round;stroke-linejoin:round;stroke-miterlimit:4;stroke-dasharray:none;stroke-opacity:1" sodipodi:nodetypes="ccc" />
    <path style="fill:none;fill-rule:evenodd;stroke:#000000;stroke-width:10;stroke-linecap:round;stroke-linejoin:round;stroke-miterlimit:4;stroke-dasharray:none;stroke-opacity:1" d="M 106.41283,437.87281 L 88.618917,496.4658 Z" id="path3468" sodipodi:nodetypes="ccc" />
    <path sodipodi:nodetypes="ccc" id="path3471" d="M 56.079496,432.50244 L 51.793515,485.72506 Z" style="fill:none;fill-rule:evenodd;stroke:#000000;stroke-width:10;stroke-linecap:round;stroke-linejoin:round;stroke-miterlimit:4;stroke-dasharray:none;stroke-opacity:1" />
    <path sodipodi:nodetypes="ccc" id="path3482" d="M 65.682673,436.61091 L 61.396692,489.83353 Z" style="fill:none;fill-rule:evenodd;stroke:#000000;stroke-width:10;stroke-linecap:round;stroke-linejoin:round;stroke-miterlimit:4;stroke-dasharray:none;stroke-opacity:1" />
    <path sodipodi:nodetypes="ccc" style="fill:none;fill-rule:evenodd;stroke:#000000;stroke-width:10;stroke-linecap:round;stroke-linejoin:round;stroke-miterlimit:4;stroke-dasharray:none;stroke-opacity:1" d="M 91.949709,440.15162 L 79.214311,494.79019 Z" id="path3484" />
  </g>
</svg>
