<?xml version="1.0" encoding="UTF-8" standalone="no"?>
<svg version="1.0" width="17" height="17" id="svg1" xmlns="http://www.w3.org/2000/svg" xmlns:svg="http://www.w3.org/2000/svg">
  <defs id="defs1" />
  <path d="M 8.3261719,1.5035279 L 8.3242188,1.5054811 C 8.1708355,1.5271406 8.0389046,1.6196034 7.9707031,1.7535453 L 6.8491406,4.5 H 1.8125 C 1.6395032,4.5001129 1.5001174,4.6343624 1.5,4.8008022 V 12.199599 C 1.500397,12.366038 1.6370161,12.500295 1.8125,12.500402 L 3.4321406,12.5 L 2.484375,14.87946 C 2.3885692,15.111349 2.5072064,15.374774 2.7480469,15.467391 C 2.988506,15.559783 3.2603539,15.448318 3.3574219,15.217374 L 4.4438594,12.5 H 12.462164 L 13.548828,15.217374 C 13.645894,15.44939 13.92108,15.561083 14.162109,15.467391 C 14.402152,15.374003 14.517906,15.110805 14.421875,14.87946 L 13.475836,12.5 L 15.1875,12.500402 C 15.360158,12.500289 15.499882,12.366038 15.5,12.199599 V 4.8008022 C 15.499882,4.6343625 15.360497,4.5001131 15.1875,4.5 H 10.058859 L 8.9375,1.7535453 C 8.8692985,1.6196033 8.7373677,1.5271406 8.5839844,1.5054811 C 8.5826313,1.5048223 8.5814378,1.504174 8.5800781,1.5035279 C 8.5381295,1.4987262 8.4968439,1.4993804 8.4550781,1.5054811 C 8.4126449,1.4992025 8.3687908,1.4985481 8.3261719,1.5035279 Z M 8.4550781,3.0173052 L 9.0471406,4.5 H 7.8608593 Z M 11.294922,6.0018882 C 11.553048,6.0005453 11.771033,6.0123055 11.951172,6.0370469 C 12.824805,6.1562804 13.581462,6.8834201 13.685547,7.7637298 C 13.81091,8.4561945 13.588002,9.2415965 12.966797,9.6349539 H 13.851562 V 10.496342 H 11.826172 V 9.5724495 C 12.506255,9.1307928 12.714857,8.1667942 12.386719,7.4453482 C 12.158287,6.7900178 11.213359,6.6230446 10.732422,7.0957144 C 10.101734,7.7963481 10.262061,9.0606079 11.058594,9.5724495 V 10.496342 H 9.0478257 C 9.0478257,10.201573 9.0566406,9.8873414 9.0566406,9.6232344 C 9.322999,9.6232344 9.6621476,9.6212811 9.8984375,9.6212811 C 9.1764295,9.146304 9.01873,8.1502531 9.296875,7.3808906 C 9.559971,6.5324571 10.431419,6.0064766 11.294922,6.0018882 Z M 3.1542969,6.0839252 H 4.2890625 C 4.2893645,6.4447668 4.2870465,6.8051944 4.2890625,7.1660318 C 4.2609205,7.6810996 4.368536,8.2547516 4.8125,8.5743332 C 4.826452,7.7442274 4.8184745,6.9140853 4.8203125,6.0839252 H 5.9550781 V 8.5762864 C 6.1170521,8.4483055 6.2513729,8.2931917 6.3417969,8.1075037 C 6.5969479,7.4678913 6.4528622,6.7553454 6.4882812,6.0839252 H 7.6230469 C 7.6005439,6.7772752 7.7052235,7.4872745 7.5078125,8.162195 C 7.2918805,8.8446711 6.7156184,9.5190117 5.9589844,9.5861224 C 5.9532264,9.8895415 5.9557681,10.192888 5.9550781,10.496342 H 4.8203125 V 9.5861224 C 4.3021095,9.551816 3.8775794,9.1978508 3.5839844,8.7970049 C 3.0166734,8.0440845 3.173501,7.0458187 3.15625,6.1640089 Z" id="path1" />
</svg>
