<svg xmlns="http://www.w3.org/2000/svg" version="1.0" width="580" height="580">
    <path d="M550.094 509.49c-.967-.15-1.264 1.332-1.354 1.637-.45 1.529-.673 2.873-.654 2.867.02-.006.96-.884 2.057-1.955.31-.304 1.773-1.586.408-2.375a1.336 1.336 0 00-.457-.174zm-5.532.065c-.14.022-.296.079-.466.177-1.335.77.112 2.036.363 2.3 1.099 1.153 2.15 2.021 2.154 2.001.004-.02-.284-1.275-.664-2.76-.094-.368-.397-1.875-1.386-1.718zm-2.748 4.656c-.513.02-.976.253-.986 1.041-.002.193.024.351.072.482.342.917 1.78.45 2.09.38 1.553-.357 2.835-.819 2.82-.833-.014-.014-1.24-.404-2.71-.836-.209-.06-.772-.254-1.286-.234zm10.94.057c-.499-.033-1.044.137-1.22.177-1.554.357-2.836.817-2.821.83.015.014 1.24.407 2.71.838.366.107 1.816.615 2.186-.316a1.36 1.36 0 00.086-.492c.01-.77-.442-1.005-.941-1.037zm-4.72 2.257l.02.09-.06-.053c-.005.02.27 1.277.633 2.766.103.423.459 2.336 1.834 1.565.034-.02.047-.043.078-.063.004-.002.008 0 .012-.004.129-.075.212-.156.293-.238l.002-.002c.748-.77-.432-1.821-.659-2.059-1.099-1.154-2.15-2.022-2.154-2.002zm-1.468.02c-.019.006-.97.873-2.08 1.932-.275.262-1.441 1.264-.82 2.05.007.01.024.017.031.026.091.12.216.236.399.342.166.096.319.152.457.173.966.151 1.264-1.331 1.353-1.636.404-1.373.596-2.46.623-2.692.005-.032.04-.196.037-.195z" opacity=".5" fill="none" stroke="#fbfbfb" stroke-width="3" stroke-linecap="round" stroke-linejoin="round"/>
    <path d="M550.094 509.49c-.967-.15-1.264 1.332-1.354 1.637-.45 1.529-.673 2.873-.654 2.867.02-.006.96-.884 2.057-1.955.31-.304 1.773-1.586.408-2.375a1.336 1.336 0 00-.457-.174zm-5.532.065c-.14.022-.296.079-.466.177-1.335.77.112 2.036.363 2.3 1.099 1.153 2.15 2.021 2.154 2.001.004-.02-.284-1.275-.664-2.76-.094-.368-.397-1.875-1.386-1.718zm-2.748 4.656c-.513.02-.976.253-.986 1.041-.002.193.024.351.072.482.342.917 1.78.45 2.09.38 1.553-.357 2.835-.819 2.82-.833-.014-.014-1.24-.404-2.71-.836-.209-.06-.772-.254-1.286-.234zm10.94.057c-.499-.033-1.044.137-1.22.177-1.554.357-2.836.817-2.821.83.015.014 1.24.407 2.71.838.366.107 1.816.615 2.186-.316a1.36 1.36 0 00.086-.492c.01-.77-.442-1.005-.941-1.037zm-4.72 2.257l.02.09-.06-.053c-.005.02.27 1.277.633 2.766.103.423.459 2.336 1.834 1.565.034-.02.047-.043.078-.063.004-.002.008 0 .012-.004.129-.075.212-.156.293-.238l.002-.002c.748-.77-.432-1.821-.659-2.059-1.099-1.154-2.15-2.022-2.154-2.002zm-1.468.02c-.019.006-.97.873-2.08 1.932-.275.262-1.441 1.264-.82 2.05.007.01.024.017.031.026.091.12.216.236.399.342.166.096.319.152.457.173.966.151 1.264-1.331 1.353-1.636.404-1.373.596-2.46.623-2.692.005-.032.04-.196.037-.195z" stroke="#000" stroke-width=".354" stroke-linecap="round" stroke-linejoin="round"/>
</svg>
