<svg version="1.0" width="16.248848" height="14.933655"
  xmlns="http://www.w3.org/2000/svg" xmlns:svg="http://www.w3.org/2000/svg">


  <path
    d="M 10.980759,1.5085963 C 10.212852,1.3840476 9.7473837,2.1649383 9.5644694,2.7968187 C 9.2429813,3.9182943 8.9207994,5.0502271 8.7698208,6.2078151 C 9.0615033,6.6324694 9.4151584,5.8919097 9.6916958,5.737112 C 10.404624,5.0192008 11.210062,4.3818747 11.829841,3.5782655 C 12.277436,3.0525702 12.290433,2.1563697 11.633084,1.7888121 C 11.436983,1.6536433 11.217514,1.546902 10.980759,1.5085963 Z M 5.3948207,1.5730495 C 4.7248068,1.6831614 4.0136735,2.3239228 4.2691094,3.0564912 C 4.5797201,3.9369217 5.3888495,4.4888928 5.9960212,5.1544182 C 6.4645682,5.5782016 6.9071018,6.0548067 7.4358364,6.3992213 C 7.9169441,6.258431 7.415076,5.6096757 7.4344101,5.2579069 C 7.1616997,4.2817668 7.0324039,3.2534047 6.6077114,2.3269557 C 6.3888486,1.8706064 5.9347264,1.4717713 5.3948207,1.5730495 Z M 1.5107132,7.519519 C 1.4660495,8.1505454 2.0200989,8.6841677 2.6418074,8.6607867 C 3.5751136,8.6596082 4.4653456,8.3097112 5.3627918,8.0937976 C 5.8424555,7.9182544 6.3903044,7.8434948 6.820602,7.5691432 C 6.8449666,7.0772191 6.0410472,7.1989189 5.7211925,6.9837849 C 4.7754809,6.7295754 3.857152,6.3320356 2.8778267,6.2291044 C 1.7609241,6.1435283 1.448722,6.9977609 1.5107132,7.519519 Z M 13.62529,6.283987 C 12.724141,6.269848 11.866346,6.6145543 10.999223,6.8155088 C 10.480082,6.9835529 9.9318813,7.100234 9.4436489,7.3445338 C 9.3525942,7.6286766 10.25302,7.8703404 10.424867,7.9287297 C 11.402774,8.1928034 12.352561,8.6064851 13.365524,8.7136745 C 13.969256,8.7986995 14.648485,8.429392 14.709274,7.7796608 C 14.867523,7.1174475 14.474396,6.3098311 13.728116,6.2933051 Z M 8.8928676,8.5398464 C 8.4462399,8.7011772 8.8540554,9.2663114 8.8596645,9.6257839 C 9.1137238,10.605369 9.2526343,11.62312 9.627653,12.566324 C 9.8513281,13.220283 10.61546,13.690833 11.268021,13.31166 C 11.791934,13.063121 12.301712,12.504026 12.081703,11.88206 C 11.779807,11.004343 10.974292,10.450706 10.369792,9.7903657 C 9.9002698,9.3668955 9.459044,8.8891868 8.929977,8.5437526 C 8.9177889,8.5395323 8.9053176,8.5398598 8.8928676,8.5398464 Z M 7.3733364,8.5691432 C 6.5419575,9.2493259 5.7838939,10.029039 4.9926028,10.759551 C 4.4940295,11.242753 3.9050539,11.992632 4.3085175,12.706216 C 4.6828806,13.342483 5.6885666,13.754821 6.2626535,13.135496 C 6.8818195,12.435229 6.9565293,11.450369 7.2291834,10.592477 C 7.3782804,9.9692248 7.5262705,9.339729 7.5998989,8.7039089 C 7.5847708,8.5965576 7.4680264,8.5541435 7.3733364,8.5691432 Z"
  />
</svg>
