<?xml version="1.0" encoding="UTF-8" standalone="no"?>
<svg version="1.0" width="16" height="16" id="svg6" sodipodi:docname="viewpoint.svg" inkscape:version="1.2.2 (b0a8486541, 2022-12-01)" xmlns:inkscape="http://www.inkscape.org/namespaces/inkscape" xmlns:sodipodi="http://sodipodi.sourceforge.net/DTD/sodipodi-0.dtd" xmlns="http://www.w3.org/2000/svg" xmlns:svg="http://www.w3.org/2000/svg">
  <defs id="defs10" />
  <sodipodi:namedview id="namedview8" pagecolor="#ffffff" bordercolor="#666666" borderopacity="1.0" inkscape:showpageshadow="2" inkscape:pageopacity="0.0" inkscape:pagecheckerboard="0" inkscape:deskcolor="#d1d1d1" showgrid="false" inkscape:zoom="4.603509" inkscape:cx="40.512575" inkscape:cy="35.950837" inkscape:window-width="1863" inkscape:window-height="1056" inkscape:window-x="0" inkscape:window-y="0" inkscape:window-maximized="1" inkscape:current-layer="svg6" />
  <path d="M 10.832505,2.2109614 C 9.8655052,2.0609614 9.5685052,3.5429614 9.4785052,3.8479614 C 9.0285052,5.3769614 8.8055052,6.7209614 8.8245052,6.7149614 C 8.8445052,6.7089614 9.7845052,5.8309614 10.881505,4.7599614 C 11.191505,4.4559614 12.654505,3.1739614 11.289505,2.3849614 A 1.336,1.336 0 0 0 10.832505,2.2109614 Z M 5.3005052,2.2759614 C 5.1605052,2.2979614 5.0045052,2.3549614 4.8345052,2.4529614 C 3.4995052,3.2229614 4.9465052,4.4889614 5.1975052,4.7529614 C 6.2965052,5.9059614 7.3475052,6.7739614 7.3515052,6.7539614 C 7.3555052,6.7339614 7.0675052,5.4789614 6.6875052,3.9939614 C 6.5935052,3.6259614 6.2905052,2.1189614 5.3015052,2.2759614 Z M 2.5525052,6.9319614 C 2.0395052,6.9519614 1.5765052,7.1849614 1.5665052,7.9729614 C 1.5645052,8.1659614 1.5905052,8.3239614 1.6385052,8.4549614 C 1.9805052,9.3719614 3.4185052,8.9049614 3.7285052,8.8349614 C 5.2815052,8.4779614 6.5635052,8.0159614 6.5485052,8.0019614 C 6.5345052,7.9879614 5.3085052,7.5979614 3.8385052,7.1659614 C 3.6295052,7.1059614 3.0665052,6.9119614 2.5525052,6.9319614 Z M 13.492505,6.9889614 C 12.993505,6.9559614 12.448505,7.1259614 12.272505,7.1659614 C 10.718505,7.5229614 9.4365052,7.9829614 9.4515052,7.9959614 C 9.4665052,8.0099614 10.691505,8.4029614 12.161505,8.8339614 C 12.527505,8.9409614 13.977505,9.4489614 14.347505,8.5179614 A 1.36,1.36 0 0 0 14.433505,8.0259614 C 14.443505,7.2559614 13.991505,7.0209614 13.492505,6.9889614 Z M 8.7725052,9.2459614 L 8.7925052,9.3359614 L 8.7325052,9.2829614 C 8.7275052,9.3029614 9.0025052,10.559961 9.3655052,12.048962 C 9.4685052,12.471962 9.8245052,14.384962 11.199505,13.613962 C 11.233505,13.593962 11.246505,13.570962 11.277505,13.550962 C 11.281505,13.548962 11.285505,13.550962 11.289505,13.546962 C 11.418505,13.471962 11.501505,13.390962 11.582505,13.308962 L 11.584505,13.306962 C 12.332505,12.536962 11.152505,11.485962 10.925505,11.247962 C 9.8265052,10.093961 8.7755052,9.2259614 8.7715052,9.2459614 Z M 7.3045052,9.2659614 C 7.2855052,9.2719614 6.3345052,10.138961 5.2245052,11.197962 C 4.9495052,11.459962 3.7835052,12.461962 4.4045052,13.247962 C 4.4115052,13.257962 4.4285052,13.264962 4.4355052,13.273962 C 4.5265052,13.393962 4.6515052,13.509962 4.8345052,13.615962 C 5.0005052,13.711962 5.1535052,13.767962 5.2915052,13.788962 C 6.2575052,13.939962 6.5555052,12.457962 6.6445052,12.152962 C 7.0485052,10.779962 7.2405052,9.6929614 7.2675052,9.4609614 C 7.2725052,9.4289614 7.3075052,9.2649614 7.3045052,9.2659614 Z" opacity="0.5" fill="none" stroke="#fbfbfb" stroke-width="3" stroke-linecap="round" stroke-linejoin="round" id="path2" />
  <path d="M 10.832477,2.2109349 C 9.8654772,2.0609349 9.5684772,3.5429349 9.4784772,3.8479349 C 9.0284772,5.3769349 8.8054772,6.7209349 8.8244772,6.7149349 C 8.8444772,6.7089349 9.7844772,5.8309349 10.881477,4.7599349 C 11.191477,4.4559349 12.654477,3.1739349 11.289477,2.3849349 A 1.336,1.336 0 0 0 10.832477,2.2109349 Z M 5.3004772,2.2759349 C 5.1604772,2.2979349 5.0044772,2.3549349 4.8344772,2.4529349 C 3.4994772,3.2229349 4.9464772,4.4889349 5.1974772,4.7529349 C 6.2964772,5.9059349 7.3474772,6.7739349 7.3514772,6.7539349 C 7.3554772,6.7339349 7.0674772,5.4789349 6.6874772,3.9939349 C 6.5934772,3.6259349 6.2904772,2.1189349 5.3014772,2.2759349 Z M 2.5524772,6.9319349 C 2.0394772,6.9519349 1.5764772,7.1849349 1.5664772,7.9729349 C 1.5644772,8.1659349 1.5904772,8.3239349 1.6384772,8.4549349 C 1.9804772,9.3719349 3.4184772,8.9049349 3.7284772,8.8349349 C 5.2814772,8.4779349 6.5634772,8.0159349 6.5484772,8.0019349 C 6.5344772,7.9879349 5.3084772,7.5979349 3.8384772,7.1659349 C 3.6294772,7.1059349 3.0664772,6.9119349 2.5524772,6.9319349 Z M 13.492477,6.9889349 C 12.993477,6.9559349 12.448477,7.1259349 12.272477,7.1659349 C 10.718477,7.5229349 9.4364772,7.9829349 9.4514772,7.9959349 C 9.4664772,8.0099349 10.691477,8.4029349 12.161477,8.8339349 C 12.527477,8.9409349 13.977477,9.4489349 14.347477,8.5179349 A 1.36,1.36 0 0 0 14.433477,8.0259349 C 14.443477,7.2559349 13.991477,7.0209349 13.492477,6.9889349 Z M 8.7724772,9.2459349 L 8.7924772,9.3359349 L 8.7324772,9.2829349 C 8.7274772,9.3029349 9.0024772,10.559935 9.3654772,12.048935 C 9.4684772,12.471935 9.8244772,14.384935 11.199477,13.613935 C 11.233477,13.593935 11.246477,13.570935 11.277477,13.550935 C 11.281477,13.548935 11.285477,13.550935 11.289477,13.546935 C 11.418477,13.471935 11.501477,13.390935 11.582477,13.308935 L 11.584477,13.306935 C 12.332477,12.536935 11.152477,11.485935 10.925477,11.247935 C 9.8264772,10.093935 8.7754772,9.2259349 8.7714772,9.2459349 Z M 7.3044772,9.2659349 C 7.2854772,9.2719349 6.3344772,10.138935 5.2244772,11.197935 C 4.9494772,11.459935 3.7834772,12.461935 4.4044772,13.247935 C 4.4114772,13.257935 4.4284772,13.264935 4.4354772,13.273935 C 4.5264772,13.393935 4.6514772,13.509935 4.8344772,13.615935 C 5.0004772,13.711935 5.1534772,13.767935 5.2914772,13.788935 C 6.2574772,13.939935 6.5554772,12.457935 6.6444772,12.152935 C 7.0484772,10.779935 7.2404772,9.6929349 7.2674772,9.4609349 C 7.2724772,9.4289349 7.3074772,9.2649349 7.3044772,9.2659349 Z" stroke="#000000" stroke-width="0.354" stroke-linecap="round" stroke-linejoin="round" id="path4" />
</svg>
