<svg width="16" height="16" viewBox="0 0 16 16" version="1.1" xmlns="http://www.w3.org/2000/svg"
  xmlns:svg="http://www.w3.org/2000/svg">
  <path
    d="M 14.479832,8.4447904 A 5.9729458,5.9729458 0 0 1 14.348416,9.3950271 A 8.9178712,8.9178712 0 0 0 12.154785,7.8888008 A 8.9868139,8.9868139 0 0 0 10.739538,7.3227022 A 8.7080104,8.7080104 0 0 0 8.8997183,6.9688907 A 0.22340673,0.22340673 0 0 0 8.8188471,6.9587818 A 7.3997163,7.3997163 0 0 1 8.0000261,5.0583082 C 7.9899172,5.0481993 7.9899172,5.0481993 8.0000261,5.0380904 A 7.8417785,7.8417785 0 0 1 9.5365792,5.1897239 A 7.1760063,7.1760063 0 0 1 11.113568,5.695169 A 6.9331904,6.9331904 0 0 1 12.528814,6.4836634 A 7.4972672,7.4972672 0 0 1 14.479832,8.4447904 Z M 12.589467,3.3903394 A 6.2909719,6.2909719 0 0 0 10.719321,2.1065088 A 4.3190284,4.3190284 0 0 0 9.7286483,1.7425883 A 5.7026338,5.7026338 0 0 0 8.1617685,1.5100836 A 1.3022288,1.3022288 0 0 0 7.8382836,1.5100836 A 7.5071739,7.5071739 0 0 0 7.7068679,2.9455477 C 7.7068679,3.1477257 7.7169768,3.3397949 7.7270857,3.531864 A 2.3048297,2.3048297 0 0 1 7.9899172,3.5217551 A 2.6725915,2.6725915 0 0 1 8.2729664,3.531864 A 8.3767416,8.3767416 0 0 1 9.7791928,3.6936064 A 9.08578,9.08578 0 0 1 11.143894,4.0676358 A 8.8879488,8.8879488 0 0 1 12.690556,4.7752589 A 10.290862,10.290862 0 0 1 14.095694,5.7558224 A 6.5291376,6.5291376 0 0 0 12.589467,3.3903394 Z M 4.4720193,9.2737203 A 9.5108594,9.5108594 0 0 1 3.8452673,7.8888008 A 9.2029422,9.2029422 0 0 1 3.471238,6.4634456 A 9.2747154,9.2747154 0 0 1 3.3094955,4.7752589 V 4.7449322 A 8.5470766,8.5470766 0 0 1 3.4105846,3.3903394 A 6.3483905,6.3483905 0 0 0 1.9043582,5.7760402 A 6.289961,6.289961 0 0 0 1.5000021,7.9999987 C 1.5000021,8.1516322 1.510111,8.3032657 1.5202199,8.4447904 A 5.9729458,5.9729458 0 0 0 1.6516356,9.3950271 A 5.7967477,5.7967477 0 0 0 2.0661006,10.638422 C 2.2884964,10.587878 2.5108923,10.527224 2.7231792,10.466571 A 8.1061263,8.1061263 0 0 0 4.6438706,9.5769874 C 4.5832172,9.4758984 4.5225638,9.3748093 4.4720193,9.2737203 Z M 7.1003338,6.9688907 A 9.0980118,9.0980118 0 0 1 6.463473,5.1897239 A 9.234482,9.234482 0 0 1 6.2208593,3.6936064 C 6.2006415,3.4408839 6.1905326,3.1982702 6.1905326,2.9455477 A 9.479825,9.479825 0 0 1 6.2714038,1.7425883 A 4.3190284,4.3190284 0 0 0 5.2807314,2.1065088 A 7.7876959,7.7876959 0 0 0 4.8561575,4.0676358 C 4.8359397,4.2900316 4.8258308,4.5124275 4.8258308,4.7449322 A 7.3450271,7.3450271 0 0 0 4.8864843,5.6850601 A 7.5066684,7.5066684 0 0 0 5.2605136,7.3328111 A 6.540965,6.540965 0 0 0 5.8569388,8.6267506 A 8.1047111,8.1047111 0 0 0 7.1407694,7.039653 A 0.25494651,0.25494651 0 0 1 7.1003338,6.9688907 Z M 13.256655,10.456462 C 13.256655,10.456462 13.256655,10.446353 13.246546,10.456462 A 7.0891708,7.0891708 0 0 0 11.528033,9.2838292 C 11.467379,9.3849182 11.416835,9.4758984 11.356181,9.5769874 A 8.8786486,8.8786486 0 0 1 10.466598,10.810273 A 9.0095589,9.0095589 0 0 1 9.3950545,11.891926 A 10.531555,10.531555 0 0 1 8.0000261,12.882598 A 9.0912388,9.0912388 0 0 1 5.3312759,13.913706 A 6.3670919,6.3670919 0 0 0 10.668776,13.913706 A 6.0323862,6.0323862 0 0 0 13.11513,12.003124 A 4.8783539,4.8783539 0 0 0 13.772209,10.961907 A 6.0971842,6.0971842 0 0 0 13.256655,10.456462 Z M 8.0303528,8.4346815 C 8.0202439,8.4447904 8.010135,8.4650082 8.0000261,8.4751171 A 9.3608433,9.3608433 0 0 1 6.7364133,9.8903633 A 9.6969642,9.6969642 0 0 1 5.533454,10.810273 A 9.3692336,9.3692336 0 0 1 2.8849217,12.003124 A 6.1653182,6.1653182 0 0 0 3.4206935,12.619767 A 7.819539,7.819539 0 0 0 6.6049976,11.891926 A 7.4643121,7.4643121 0 0 0 8.0000261,11.062996 A 7.7261327,7.7261327 0 0 0 9.2636388,9.8903633 A 7.8284348,7.8284348 0 0 0 10.092569,8.7278396 A 7.4213493,7.4213493 0 0 0 8.0303528,8.4346815 Z" />
</svg>
