<svg xmlns="http://www.w3.org/2000/svg" width="16" height="16">
    <g transform="translate(0 -1036.362)" fill-rule="evenodd">
        <path d="M8.684 1036.638c-2.607.887-3.175 2.905-3.518 5.086a2.579 2.61 0 00-.209 1.027 2.579 2.61 0 002.578 2.611 2.579 2.61 0 002.578-2.611 2.579 2.61 0 00-.002-.031h.012l-.012-.043a2.579 2.61 0 00-.412-1.344 2.491 2.491 0 00-.535-.861c-1.431-1.49-1.405-2.662-.48-3.834zm-5.12 9.699c-.29 0-.578.077-.851.232l-.512.291a1.68 1.68 0 01-1.707 0l-.256-.144-.238-.137v1.305l.238.136.256.145a1.68 1.68 0 001.707 0l.512-.291a1.68 1.68 0 011.705 0l.512.29a1.67 1.67 0 001.705 0l.511-.29c.27-.154.561-.233.854-.233.293 0 .583.079.854.233l.511.29a1.67 1.67 0 001.705 0l.512-.29a1.68 1.68 0 011.705 0l.512.29a1.68 1.68 0 001.707 0l.256-.144.238-.136v-1.305l-.238.137-.256.144a1.68 1.68 0 01-1.707 0l-.512-.29a1.676 1.676 0 00-1.705 0l-.512.29a1.68 1.68 0 01-1.705 0l-.511-.29a1.719 1.719 0 00-.854-.233 1.72 1.72 0 00-.854.232l-.511.291a1.68 1.68 0 01-1.705 0l-.512-.29a1.718 1.718 0 00-.854-.233zm0 2.963c-.29 0-.578.079-.851.234l-.512.291a1.68 1.68 0 01-1.707 0l-.256-.146-.238-.135v1.305l.238.134.256.147a1.68 1.68 0 001.707 0l.512-.291a1.68 1.68 0 011.705 0l.512.29a1.675 1.675 0 001.705 0l.511-.29a1.72 1.72 0 01.854-.235c.293 0 .583.08.854.235l.511.29c.546.311 1.16.311 1.705 0l.512-.29a1.68 1.68 0 011.705 0l.512.29a1.68 1.68 0 001.707 0l.256-.146.238-.134v-1.305l-.238.135-.256.146a1.68 1.68 0 01-1.707 0l-.512-.29a1.676 1.676 0 00-1.705 0l-.512.29a1.68 1.68 0 01-1.705 0l-.511-.29A1.72 1.72 0 008 1049.3c-.293 0-.583.08-.854.234l-.511.291a1.68 1.68 0 01-1.705 0l-.512-.29a1.72 1.72 0 00-.854-.235z" fill="#1332ff" stroke="#fdfdfd" stroke-width="3" stroke-linecap="round" stroke-linejoin="round" opacity=".5"/>
        <path d="M16 1049.543l-.24.136-.255.145a1.676 1.676 0 01-1.706 0l-.511-.29a1.677 1.677 0 00-1.706 0l-.512.29a1.676 1.676 0 01-1.706 0l-.511-.29A1.716 1.716 0 008 1049.3c-.293 0-.583.08-.853.233l-.512.292a1.68 1.68 0 01-1.705 0l-.512-.292a1.677 1.677 0 00-1.706 0l-.512.292a1.68 1.68 0 01-1.705 0l-.256-.146-.239-.136v1.305l.239.136.256.145c.545.31 1.16.31 1.705 0l.512-.291c.546-.31 1.16-.31 1.706 0l.512.291c.545.31 1.16.31 1.705 0l.512-.291c.27-.154.56-.233.853-.233.293 0 .582.079.853.233l.511.291c.546.31 1.16.31 1.706 0l.512-.291c.546-.31 1.16-.31 1.706 0l.511.291c.546.31 1.16.31 1.706 0l.256-.145.239-.136v-1.305zm0-2.963l-.24.135-.255.146c-.546.31-1.16.31-1.706 0l-.511-.291a1.677 1.677 0 00-1.706 0l-.512.29a1.672 1.672 0 01-1.706 0l-.511-.29a1.717 1.717 0 00-.853-.233c-.293 0-.583.079-.853.233l-.512.29a1.67 1.67 0 01-1.705 0l-.512-.29a1.677 1.677 0 00-1.706 0l-.512.29a1.67 1.67 0 01-1.705 0l-.256-.145-.239-.136v1.305l.239.136.256.146c.545.31 1.16.31 1.705 0l.512-.292c.546-.31 1.16-.31 1.706 0l.512.292c.545.31 1.16.31 1.705 0l.512-.292c.27-.153.56-.233.853-.233.293 0 .582.08.853.233l.511.292c.546.31 1.16.31 1.706 0l.512-.292c.546-.31 1.16-.31 1.706 0l.511.292c.546.31 1.16.31 1.706 0l.256-.146.239-.136v-1.305z" fill="#0064ff"/>
        <ellipse cx="7.535" cy="1042.752" rx="2.579" ry="2.61" color="#000" fill="#0064ff"/>
        <path d="M10.123 1042.72c-.288-.827-.28-1.542-.96-2.25-1.43-1.488-1.404-2.661-.48-3.833-2.987 1.016-3.316 3.506-3.672 6.038z" fill="#0064ff"/>
        <path d="M6.025 1043.71c-1.01-1.274.035-2.499.035-2.499l.515-.676.79-.59s-.85 1.954-.053 3.257c-.7.863-.959.597-1.287.509" fill="#82a0f6"/>
    </g>
</svg>
