<svg width="19" height="17.70801" version="1.1"
  xmlns="http://www.w3.org/2000/svg" xmlns:svg="http://www.w3.org/2000/svg">


  <path
    d="M 17.5,14.405845 L 17.26,14.541845 L 17.005,14.686845 A 1.676,1.676 0 0 1 15.299,14.686845 L 14.788,14.396845 A 1.677,1.677 0 0 0 13.082,14.396845 L 12.57,14.686845 A 1.676,1.676 0 0 1 10.864,14.686845 L 10.353,14.396845 A 1.716,1.716 0 0 0 9.5,14.162845 C 9.207,14.162845 8.917,14.242845 8.647,14.395845 L 8.135,14.687845 A 1.68,1.68 0 0 1 6.43,14.687845 L 5.918,14.395845 A 1.677,1.677 0 0 0 4.212,14.395845 L 3.7,14.687845 A 1.68,1.68 0 0 1 1.995,14.687845 L 1.739,14.541845 L 1.5,14.405845 V 15.710845 L 1.739,15.846845 L 1.995,15.991845 C 2.54,16.301845 3.155,16.301845 3.7,15.991845 L 4.212,15.700845 C 4.758,15.390845 5.372,15.390845 5.918,15.700845 L 6.43,15.991845 C 6.975,16.301845 7.59,16.301845 8.135,15.991845 L 8.647,15.700845 C 8.917,15.546845 9.207,15.467845 9.5,15.467845 C 9.793,15.467845 10.082,15.546845 10.353,15.700845 L 10.864,15.991845 C 11.41,16.301845 12.024,16.301845 12.57,15.991845 L 13.082,15.700845 C 13.628,15.390845 14.242,15.390845 14.788,15.700845 L 15.299,15.991845 C 15.845,16.301845 16.459,16.301845 17.005,15.991845 L 17.261,15.846845 L 17.5,15.710845 Z M 17.5,11.442845 L 17.26,11.577845 L 17.005,11.723845 C 16.459,12.033845 15.845,12.033845 15.299,11.723845 L 14.788,11.432845 A 1.677,1.677 0 0 0 13.082,11.432845 L 12.57,11.722845 A 1.672,1.672 0 0 1 10.864,11.722845 L 10.353,11.432845 A 1.717,1.717 0 0 0 9.5,11.199845 C 9.207,11.199845 8.917,11.278845 8.647,11.432845 L 8.135,11.722845 A 1.67,1.67 0 0 1 6.43,11.722845 L 5.918,11.432845 A 1.677,1.677 0 0 0 4.212,11.432845 L 3.7,11.722845 A 1.67,1.67 0 0 1 1.995,11.722845 L 1.739,11.577845 L 1.5,11.441845 V 12.746845 L 1.739,12.882845 L 1.995,13.028845 C 2.54,13.338845 3.155,13.338845 3.7,13.028845 L 4.212,12.736845 C 4.758,12.426845 5.372,12.426845 5.918,12.736845 L 6.43,13.028845 C 6.975,13.338845 7.59,13.338845 8.135,13.028845 L 8.647,12.736845 C 8.917,12.583845 9.207,12.503845 9.5,12.503845 C 9.793,12.503845 10.082,12.583845 10.353,12.736845 L 10.864,13.028845 C 11.41,13.338845 12.024,13.338845 12.57,13.028845 L 13.082,12.736845 C 13.628,12.426845 14.242,12.426845 14.788,12.736845 L 15.299,13.028845 C 15.845,13.338845 16.459,13.338845 17.005,13.028845 L 17.261,12.882845 L 17.5,12.746845 V 11.441845 Z"
    fill="#0064ff" />
  <ellipse cx="9.0349998" cy="7.6147981" rx="2.579" ry="2.61" fill="#0064ff"
    id="ellipse2" />
  <path
    d="M 11.623,7.5828449 C 11.335,6.7558449 11.343,6.0408449 10.663,5.3328449 C 9.233,3.8448449 9.259,2.6718449 10.183,1.4998449 C 7.196,2.5158449 6.867,5.0058449 6.511,7.5378449 Z"
    fill="#0064ff" />
  <path
    d="M 7.525,8.5728449 C 6.515,7.2988449 7.56,6.0738449 7.56,6.0738449 L 8.075,5.3978449 L 8.865,4.8078449 C 8.865,4.8078449 8.015,6.7618449 8.812,8.0648449 C 8.112,8.9278449 7.853,8.6618449 7.525,8.5738449"
    fill="#82a0f6" />
</svg>
