<svg xmlns="http://www.w3.org/2000/svg" width="14" height="14">
    <path d="M7.927 3.496L.328 6.74l2.373 4.763 2.41-.002 6.269-3.138L13.786 3.5zM8.104 4.5h2.779l-4 2H3.436zm3.779.617l-1.256 2.51-4.51 2.256 1.256-2.51zM1.809 7.5H6.19l-1.5 3H3.31z" color="#000" opacity=".5" fill="none" stroke="#fff" stroke-width="3" stroke-linecap="round" stroke-linejoin="round"/>
    <path d="M7.927 3.496L.328 6.74l2.373 4.763 2.41-.002 6.269-3.138L13.786 3.5zM8.104 4.5h2.779l-4 2H3.436zm3.779.617l-1.256 2.51-4.51 2.256 1.256-2.51zM1.809 7.5H6.19l-1.5 3H3.31z" color="#000" fill="#0064ff" fill-rule="evenodd"/>
</svg>
