<svg width="16.999493" height="16.999273" version="1.1"
  xmlns="http://www.w3.org/2000/svg" xmlns:svg="http://www.w3.org/2000/svg">


  <path
    d="M 5.5079073,1.5 L 4.5079073,3.5 H 4.9769073 L 6.0229073,1.5 Z M 9.5079073,1.5 L 8.5079073,3.5 H 8.9769073 L 10.022907,1.5 Z M 13.507907,1.5 L 12.507907,3.5 H 12.976907 L 14.022907,1.5 Z M 2.4999073,3.5 L 1.4999073,5.5 H 1.9689073 L 3.0179073,3.5 Z M 6.5079073,3.5 L 5.5079073,5.5 H 5.9769073 L 7.0229073,3.5 Z M 10.507907,3.5 L 9.5079073,5.5 H 9.9769073 L 11.022907,3.5 Z M 14.507907,3.5 L 13.507907,5.5 H 13.976907 L 15.022907,3.5 Z M 3.9999073,5.5 L 2.9999073,7.5 H 3.4689073 L 4.5179073,5.5 Z M 11.981907,5.5 L 10.981907,7.5 H 11.451907 L 12.499907,5.5 Z M 8.4999073,6.5 L 1.4999073,10.5 H 3.4999073 L 4.4999073,10.1 V 15 A 0.5,0.5 0 0 0 4.7399073,15.428 A 0.5,0.5 0 0 0 5.2439073,15.436 A 0.5,0.5 0 0 0 5.4999073,15 V 9.7 L 8.4999073,8.5 L 11.499907,9.7 V 15 A 0.5,0.5 0 0 0 11.739907,15.428 A 0.5,0.5 0 0 0 12.243907,15.436 A 0.5,0.5 0 0 0 12.499907,15 V 10.1 L 13.499907,10.5 H 15.499907 Z"
    fill-rule="evenodd"
  />
</svg>
