<?xml version="1.0" encoding="UTF-8" standalone="no"?>
<svg width="14" height="14" version="1.1" id="svg767" sodipodi:docname="weather_shelter.svg" inkscape:version="1.1.1 (3bf5ae0d25, 2021-09-20)" xmlns:inkscape="http://www.inkscape.org/namespaces/inkscape" xmlns:sodipodi="http://sodipodi.sourceforge.net/DTD/sodipodi-0.dtd" xmlns="http://www.w3.org/2000/svg" xmlns:svg="http://www.w3.org/2000/svg">
  <defs id="defs771" />
  <sodipodi:namedview id="namedview769" pagecolor="#ffffff" bordercolor="#666666" borderopacity="1.0" inkscape:pageshadow="2" inkscape:pageopacity="0.0" inkscape:pagecheckerboard="true" showgrid="false" inkscape:zoom="53.214286" inkscape:cx="4.3597315" inkscape:cy="7" inkscape:window-width="1883" inkscape:window-height="1062" inkscape:window-x="0" inkscape:window-y="0" inkscape:window-maximized="1" inkscape:current-layer="svg767" />
  <path d="M4.008 0l-1 2h.469l1.046-2h-.515zm4 0l-1 2h.469l1.046-2h-.515zm4 0l-1 2h.469l1.046-2h-.515zM1 2L0 4h.469l1.049-2H1zm4.008 0l-1 2h.469l1.046-2h-.515zm4 0l-1 2h.469l1.046-2h-.515zm4 0l-1 2h.469l1.046-2h-.515zM2.5 4l-1 2h.469l1.049-2H2.5zm7.982 0l-1 2h.47L11 4h-.518zM7 5L0 9h2l1-.4v4.9a.5.5 0 00.24.428.5.5 0 00.504.008A.5.5 0 004 13.5V8.2L7 7l3 1.2v5.3a.5.5 0 00.24.428.5.5 0 00.504.008A.5.5 0 0011 13.5V8.6l1 .4h2L7 5z" fill-rule="evenodd" id="path765" />
</svg>
