<svg width="17" height="17" version="1.1"
  xmlns="http://www.w3.org/2000/svg" xmlns:svg="http://www.w3.org/2000/svg">


  <path
    d="M 9.5,1.5 V 3.5 L 8.5,3 L 1.5,6.5 V 8.5 L 3,7.85 V 15.5 H 4.5 V 7.2 L 8.5,5.5 L 9.5,5.926 V 10.5 H 6 C 6.025,12.152 5.966,13.89 6,15.5 H 11 C 11.018,12.547 11.006,9.55 11,6.562 L 12.5,7.2 V 15.5 H 14 V 7.85 L 15.5,8.5 V 6.5 L 11,4.25 C 10.998,3.331 11,2.416 11,1.5 Z M 8.5,12.5 C 8.5,12.5 9.5,12.5 9.5,13.5 V 14.5 H 7.5 V 13.5 C 7.5,12.5 8.5,12.5 8.5,12.5 Z"
  />
</svg>
