<svg
   width="12"
   height="14"
   xmlns="http://www.w3.org/2000/svg">
  <path
     d="M 1.71875,0 0,1.71875 4.96875,6 0,10.28125 1.71875,12 6,7.03125 10.28125,12 12,10.28125 7.03125,6 12,1.71875 10.28125,0 6,4.96875 Z M 6,2 C 5.5846058,2 5.2371923,2.0902 4.9375,2.21875 L 6,3.4375 7.0625,2.21875 C 6.7644902,2.0832701 6.4104059,2 6,2 Z M 6,5.5 C 6.2761424,5.5 6.5,5.7238576 6.5,6 6.5,6.2761424 6.2761424,6.5 6,6.5 5.7238576,6.5 5.5,6.2761424 5.5,6 5.5,5.7238576 5.7238576,5.5 6,5.5 Z M 3.1875,5.78125 3.15625,6.25 3.4375,6 Z m 5.625,0 L 8.5625,6 8.84375,6.25 Z M 6,8.5625 2.625,12.46875 2.5,14 h 7 L 9.375,12.46875 Z" />
</svg>
