<?xml version="1.0" encoding="UTF-8" standalone="no"?>
<!-- Created with Inkscape (http://www.inkscape.org/) -->

<svg version="1.0" width="491.08551" height="491.08551" id="svg2" sodipodi:version="0.32" inkscape:version="1.1.1 (3bf5ae0d25, 2021-09-20)" sodipodi:docname="zoo.svg" inkscape:output_extension="org.inkscape.output.svg.inkscape" xmlns:inkscape="http://www.inkscape.org/namespaces/inkscape" xmlns:sodipodi="http://sodipodi.sourceforge.net/DTD/sodipodi-0.dtd" xmlns="http://www.w3.org/2000/svg" xmlns:svg="http://www.w3.org/2000/svg" xmlns:rdf="http://www.w3.org/1999/02/22-rdf-syntax-ns#" xmlns:cc="http://creativecommons.org/ns#" xmlns:dc="http://purl.org/dc/elements/1.1/">
  <metadata id="metadata2975">
    <rdf:RDF>
      <cc:Work rdf:about="">
        <dc:format>image/svg+xml</dc:format>
        <dc:type rdf:resource="http://purl.org/dc/dcmitype/StillImage" />
        <cc:license rdf:resource="http://web.resource.org/cc/PublicDomain" />
        <dc:language>en</dc:language>
      </cc:Work>
    </rdf:RDF>
  </metadata>
  <sodipodi:namedview inkscape:window-height="1062" inkscape:window-width="1883" inkscape:pageshadow="2" inkscape:pageopacity="0.0" guidetolerance="10.0" gridtolerance="10.0" objecttolerance="10.0" borderopacity="1.0" bordercolor="#666666" pagecolor="#ffffff" id="base" inkscape:zoom="0.92167712" inkscape:cx="404.69704" inkscape:cy="194.75367" inkscape:window-x="0" inkscape:window-y="0" inkscape:current-layer="svg2" showgrid="false" inkscape:pagecheckerboard="0" fit-margin-top="0" fit-margin-left="0" fit-margin-right="0" fit-margin-bottom="0" width="491.08551px" inkscape:window-maximized="1" />
  <defs id="defs4" />
  <g id="g1327" transform="translate(-40.891613,-86.867673)" />
  <path id="path6" style="fill:#000000;fill-opacity:1;stroke:none" d="M 55.954567,343.40068 C 61.599686,345.06535 75.464866,343.66468 70.712606,334.29918 C 68.075876,329.10227 55.670167,322.56003 50.190475,321.00833 C 41.933412,318.66926 28.060392,328.82098 38.662289,335.33095 L 36.356652,342.24786 C 27.478334,338.00549 24.948013,325.02245 25.67083,315.73303 C 26.179108,309.20001 32.077965,302.31077 34.414844,296.13512 C 40.798923,279.26362 46.042519,262.68263 51.007939,245.4111 C 52.992747,238.50687 53.580684,225.44082 59.582946,220.88834 C 65.206976,216.62176 73.844006,216.00039 80.159146,212.8578 C 84.814226,210.54064 87.855366,205.77373 92.862056,204.2255 C 103.6121,200.90192 114.20304,201.75847 119.3596,190.0758 C 130.24682,206.51154 139.33564,221.82673 141.14211,241.95264 C 142.42635,256.26027 132.65967,270.92989 129.36261,284.60693 C 127.05812,294.16726 127.76826,303.90511 125.25742,313.4274 C 122.12521,325.30143 116.01643,336.27626 113.03639,348.01196 C 111.23799,355.09141 112.84963,363.14616 110.63968,369.91436 C 106.68436,382.02933 84.104096,389.26903 86.789006,404.4943 C 88.029446,411.52996 96.232906,412.91334 102.06732,414.10766 C 115.61525,416.88019 130.19955,415.16941 143.56879,413.07589 C 148.02098,412.37843 153.42654,413.23959 156.90229,409.76384 C 165.29366,401.37362 155.37942,385.51891 158.09777,375.6796 C 160.04488,368.62781 166.71509,362.48329 170.1989,356.08169 C 177.77292,342.16025 184.18605,327.49524 188.52872,312.27458 H 189.68154 C 189.95821,325.69108 193.19648,342.50609 198.34382,354.92887 C 201.59361,362.77265 209.96192,374.02646 209.73367,382.59651 C 209.34171,397.28342 187.08885,406.88986 197.76164,424.07608 C 208.499,441.3649 233.87715,423.97118 247.32247,420.92889 C 254.69359,419.26076 264.57786,421.4442 268.1954,412.52023 C 273.18941,400.20351 263.05268,388.52777 261.35227,376.83242 C 259.40516,363.4482 261.91946,349.98212 259.46741,336.48377 C 257.67363,326.60527 249.63272,315.11051 249.90248,305.35767 C 250.09154,298.49494 254.96335,290.36872 256.54502,283.45411 L 300.35213,304.02616 L 318.79723,314.58022 C 318.87792,324.37917 318.60932,336.0872 320.32932,345.70632 C 321.15128,350.3003 325.46513,354.94155 324.14976,359.69001 C 321.58474,368.94253 298.93762,378.43599 304.03423,388.23956 C 306.83558,393.62784 314.56869,395.4735 319.95004,396.85688 C 333.57867,400.36145 369.28492,405.62637 379.30406,392.84738 C 383.71936,387.21586 383.35276,377.84575 383.35507,371.06833 C 383.36199,353.98586 385.16269,335.88776 381.04943,319.19149 C 395.8839,328.33911 399.25705,346.72195 406.69273,361.84578 C 409.26813,367.08419 414.6345,375.3914 412.87875,381.4264 C 410.16963,390.73426 382.40169,405.26785 395.24985,417.83472 C 398.81206,421.31969 405.28744,421.57908 409.8699,422.97399 C 423.12962,427.00885 463.37797,433.59375 469.64585,416.01096 C 475.50332,399.57869 474.00812,370.56109 469.93175,353.77605 C 467.53273,343.89755 461.96001,335.32865 460.98588,324.95558 C 460.09014,315.4114 466.70155,305.75193 467.40708,296.13512 C 468.38812,282.74743 464.24951,270.99099 463.83795,258.0921 C 463.57395,249.79411 466.35801,241.24942 466.35801,232.73009 C 479.02057,266.29441 465.76546,302.4076 474.98225,336.48377 C 476.32413,341.44435 476.84866,369.57658 486.7848,366.74295 C 490.51071,365.68121 491.61281,359.22081 490.86463,356.08169 C 487.60215,342.3839 481.6928,330.27354 481.66053,315.73303 C 481.64439,308.50256 484.94836,301.05074 485.75649,293.82948 C 490.52801,251.18441 497.19245,191.87881 460.58931,160.60861 C 444.2677,146.66528 426.58807,136.48105 408.71708,124.93626 C 394.73224,115.90196 380.41999,105.3546 363.75715,101.75884 C 351.53497,99.121416 338.13691,103.01922 325.71414,102.41537 C 298.62751,101.09862 272.02161,95.971686 245.01683,93.434796 C 232.72779,92.280246 220.55517,94.649636 208.12664,92.312176 C 181.42159,87.289696 161.67035,67.109374 135.49906,60.509141 C 127.20914,58.418666 112.84272,59.851227 104.37296,61.339055 C 96.374696,62.744226 92.139246,68.346809 85.910556,72.781816 C 67.822606,85.662256 44.101172,106.31674 34.085714,126.66987 C 27.937502,139.16412 27.27832,155.86118 23.334067,169.32507 C 17.585075,188.9495 6.6636168,205.27687 3.4309988,225.81318 C 0.04551587,247.32132 5.2319318,269.91426 5.2305478,291.52384 C 5.2295108,307.76936 -3.8581582,327.64165 1.9259938,343.40068 C 10.011403,365.42989 52.933261,372.70879 55.954567,343.40068 Z" />
</svg>
