<?xml version="1.0" encoding="UTF-8" standalone="no"?>
<!-- Created with Inkscape (http://www.inkscape.org/) -->

<svg version="1.0" width="528.00037" height="528.00037" id="svg2" sodipodi:version="0.32" inkscape:version="1.1.1 (3bf5ae0d25, 2021-09-20)" sodipodi:docname="archery.svg" inkscape:output_extension="org.inkscape.output.svg.inkscape" xmlns:inkscape="http://www.inkscape.org/namespaces/inkscape" xmlns:sodipodi="http://sodipodi.sourceforge.net/DTD/sodipodi-0.dtd" xmlns="http://www.w3.org/2000/svg" xmlns:svg="http://www.w3.org/2000/svg" xmlns:rdf="http://www.w3.org/1999/02/22-rdf-syntax-ns#" xmlns:cc="http://creativecommons.org/ns#" xmlns:dc="http://purl.org/dc/elements/1.1/">
  <metadata id="metadata2975">
    <rdf:RDF>
      <cc:Work rdf:about="">
        <dc:format>image/svg+xml</dc:format>
        <dc:type rdf:resource="http://purl.org/dc/dcmitype/StillImage" />
        <cc:license rdf:resource="http://web.resource.org/cc/PublicDomain" />
        <dc:language>en</dc:language>
      </cc:Work>
    </rdf:RDF>
  </metadata>
  <sodipodi:namedview inkscape:window-height="1062" inkscape:window-width="1883" inkscape:pageshadow="2" inkscape:pageopacity="0.0" guidetolerance="10.0" gridtolerance="10.0" objecttolerance="10.0" borderopacity="1.0" bordercolor="#666666" pagecolor="#ffffff" id="base" inkscape:zoom="0.92167712" inkscape:cx="158.40688" inkscape:cy="259.85239" inkscape:window-x="0" inkscape:window-y="0" inkscape:current-layer="svg2" showgrid="false" inkscape:pagecheckerboard="0" fit-margin-top="0" fit-margin-left="0" fit-margin-right="0" fit-margin-bottom="0" inkscape:window-maximized="1" />
  <defs id="defs4">
    <inkscape:perspective sodipodi:type="inkscape:persp3d" inkscape:vp_x="0 : 238.00037 : 1" inkscape:vp_y="0 : 1000 : 0" inkscape:vp_z="580 : 238.00037 : 1" inkscape:persp3d-origin="290 : 141.3337 : 1" id="perspective2441" />
    <inkscape:perspective id="perspective3452" inkscape:persp3d-origin="30 : -31.999634 : 1" inkscape:vp_z="60 : -21.999634 : 1" inkscape:vp_y="0 : 1000 : 0" inkscape:vp_x="0 : -21.999634 : 1" sodipodi:type="inkscape:persp3d" />
    <symbol viewBox="244.5 110 489 219.9" id="symbol-university">
      <path id="path4460" d="M 79,43 L 136,162 C 136,162 157,66 240,66 C 323,66 364,172 364,172 L 407,39 L 489,22 L 0,17 Z" />
      <path id="path4462" d="M 94,176 L 73,215" stroke-width="20" stroke="#000000" fill="none" />
      <path id="path4464" d="M 300,19 C 300,29.5 277.4,38 249.5,38 C 221.6,38 199,29.5 199,19 C 199,8.5 221.6,0 249.5,0 C 277.4,0 300,8.5 300,19 Z" />
      <path id="path4466" d="M 112,216 L 96,178 L 64,88 C 64,88 55,80 60,53 C 65,26 76,29 76,29" stroke-width="20" stroke="#000000" ill="none" />
    </symbol>
    <inkscape:perspective id="perspective4471" inkscape:persp3d-origin="372.04724 : 298.78776 : 1" inkscape:vp_z="744.09448 : 474.18146 : 1" inkscape:vp_y="0 : 1000 : 0" inkscape:vp_x="0 : 474.18146 : 1" sodipodi:type="inkscape:persp3d" />
    <inkscape:perspective id="perspective4668" inkscape:persp3d-origin="6 : -47.999634 : 1" inkscape:vp_z="12 : -45.999634 : 1" inkscape:vp_y="0 : 1000 : 0" inkscape:vp_x="0 : -45.999634 : 1" sodipodi:type="inkscape:persp3d" />
  </defs>
  <g id="g1327" transform="translate(-142.82297,-22.185962)" />
  <path style="font-style:normal;font-variant:normal;font-weight:normal;font-stretch:normal;font-size:144px;line-height:100%;font-family:NPSPICT3;-inkscape-font-specification:NPSPICT3;text-align:start;writing-mode:lr-tb;text-anchor:start;fill:#000000;fill-opacity:1;stroke:none;stroke-width:1px;stroke-linecap:butt;stroke-linejoin:miter;stroke-opacity:1" d="M 214.23103,111.97348 C 226.25458,111.97382 236.51911,107.72436 245.02468,99.225048 C 253.52965,90.726468 257.78227,80.256268 257.78262,67.814398 C 257.78227,55.778313 253.52965,45.510595 245.02468,37.011239 C 236.51911,28.512747 226.25458,24.263242 214.23103,24.262853 C 202.20696,24.263242 191.83802,28.512747 183.12413,37.011239 C 174.4098,45.510595 170.05277,55.778313 170.05298,67.814398 C 170.05277,80.256268 174.4098,90.726468 183.12413,99.225048 C 191.83802,107.72436 202.20696,111.97382 214.23103,111.97348 Z M 243.46792,139.34986 C 241.80959,148.47559 236.00652,153.0383 226.05867,153.038 H 122.15383 C 109.71217,153.0383 103.49143,147.6466 103.4916,136.86279 C 103.49143,132.29407 104.94697,128.56035 107.85814,125.66167 C 99.972888,128.56035 96.030378,133.74327 96.030508,141.21037 C 96.030378,151.99413 102.45995,157.38588 115.31924,157.38557 H 224.17919 C 237.87338,157.38588 244.30296,151.37397 243.46792,139.34986 Z M 122.15383,153.038 H 226.05867 C 236.00652,153.0383 241.80959,148.47559 243.46792,139.34986 C 243.04995,128.5667 236.62037,123.17495 224.17919,123.17465 H 115.31924 C 114.90144,123.17495 112.41438,124.00399 107.85814,125.66167 C 104.94697,128.56035 103.49143,132.29407 103.4916,136.86279 C 103.49143,147.6466 109.71217,153.0383 122.15383,153.038 Z M 268.98374,123.17465 L 367.89554,23.636346 C 392.3604,52.253425 406.25107,85.432828 409.56756,123.17465 Z M 367.89554,255.68983 C 347.15088,234.94581 317.49636,205.2913 278.93186,166.72619 V 157.38557 H 409.56756 C 405.8334,194.30531 391.94273,227.07335 367.89554,255.68983 Z M 231.03274,319.13768 V 317.27713 C 231.03249,317.27726 231.03249,317.47979 231.03274,317.88467 Z M 229.77973,331.57286 V 329.7123 C 229.77947,330.13011 229.77947,330.33894 229.77973,330.33881 Z M 375.35663,0 L 249.69501,125.03516 C 250.09972,125.45318 250.51104,125.87081 250.92902,126.28817 C 252.58674,129.60453 253.8334,133.33825 254.66905,137.4893 C 255.08642,141.62834 254.04859,146.39358 251.55552,151.78499 C 251.55522,152.62063 251.13755,153.6585 250.30251,154.89856 C 244.50549,163.60662 235.79769,167.9605 224.17919,167.96019 H 164.4524 V 328.45929 V 328.45929 L 130.24147,498.92551 C 129.0009,505.55753 130.24761,511.67385 133.9815,517.27448 C 137.71501,522.87498 142.89793,526.29545 149.5302,527.53589 C 156.16209,528.77616 162.27842,527.53265 167.87918,523.80532 C 173.47955,520.07786 177.10881,514.8918 178.76709,508.24712 L 213.60452,331.57286 H 229.77973 V 331.57286 L 264.61721,508.24712 C 265.85721,514.8918 269.27769,520.07786 274.87857,523.80532 C 280.47881,527.53265 286.80397,528.77616 293.85409,527.53589 C 300.0808,526.29545 305.16245,522.87498 309.099,517.27448 C 313.03486,511.67385 314.17396,505.55753 312.51632,498.92551 L 278.30535,327.22529 V 183.50894 L 375.35663,279.93367 L 383.44424,271.23857 C 415.79418,235.57232 431.96938,191.81829 431.96986,139.97636 C 431.96938,88.540048 415.58534,44.786021 382.81773,8.71411 C 382.8173,8.714585 380.33028,5.809853 375.35663,0 Z M 231.03274,319.13768 V 317.88467 C 231.03249,317.8848 231.03249,317.68227 231.03274,317.27713 Z" id="flowRoot2391" />
</svg>
