<?xml version="1.0" encoding="UTF-8" standalone="no"?>
<!-- Created with Inkscape (http://www.inkscape.org/) -->

<svg version="1.0" width="522.80658" height="522.80658" id="svg2" sodipodi:version="0.32" inkscape:version="1.1.1 (3bf5ae0d25, 2021-09-20)" sodipodi:docname="baseball.svg" inkscape:output_extension="org.inkscape.output.svg.inkscape" xmlns:inkscape="http://www.inkscape.org/namespaces/inkscape" xmlns:sodipodi="http://sodipodi.sourceforge.net/DTD/sodipodi-0.dtd" xmlns="http://www.w3.org/2000/svg" xmlns:svg="http://www.w3.org/2000/svg" xmlns:rdf="http://www.w3.org/1999/02/22-rdf-syntax-ns#" xmlns:cc="http://creativecommons.org/ns#" xmlns:dc="http://purl.org/dc/elements/1.1/">
  <g id="g853" transform="translate(-8.5572243,-25.411758)">
    <path transform="matrix(14.685839,0,0,14.685839,565.76584,1146.0639)" style="font-style:normal;font-variant:normal;font-weight:normal;font-stretch:normal;font-size:40px;line-height:125%;font-family:NPSPICT3;-inkscape-font-specification:NPSPICT3;text-align:start;writing-mode:lr-tb;text-anchor:start;fill:#000000;fill-opacity:1;stroke:none;stroke-width:1px;stroke-linecap:butt;stroke-linejoin:miter;stroke-opacity:1" d="M -19.742432,-69.308838 C -19.742451,-68.561745 -19.482441,-67.928201 -18.962402,-67.408203 C -18.442403,-66.888163 -17.809266,-66.628153 -17.062988,-66.628174 C -16.342796,-66.628153 -15.715966,-66.888163 -15.182495,-67.408203 C -14.649072,-67.928201 -14.382349,-68.561745 -14.382324,-69.308838 C -14.382349,-70.05507 -14.649072,-70.688208 -15.182495,-71.208252 C -15.715966,-71.728246 -16.342796,-71.988255 -17.062988,-71.988281 C -17.809266,-71.988255 -18.442403,-71.728246 -18.962402,-71.208252 C -19.482441,-70.688208 -19.742451,-70.05507 -19.742432,-69.308838 Z M -13.742676,-55.228027 V -64.828857 C -13.822454,-65.628805 -14.248885,-66.028789 -15.021973,-66.028809 H -20.102539 C -20.236021,-66.05483 -20.462665,-65.948222 -20.782471,-65.708984 L -23.742676,-63.989014 L -26.862793,-67.068848 C -27.182629,-67.415506 -27.555757,-67.588846 -27.982178,-67.588867 C -28.888763,-67.588846 -29.342051,-67.122131 -29.342041,-66.188721 C -29.342051,-65.842021 -29.222015,-65.521791 -28.981934,-65.228027 L -25.021973,-61.268066 C -24.702163,-60.948227 -24.355483,-60.788315 -23.981934,-60.78833 C -23.742691,-60.788315 -23.462743,-60.881496 -23.14209,-61.067871 L -20.541992,-62.508301 V -55.428223 L -24.501953,-43.268799 C -24.582534,-43.081627 -24.622817,-42.89486 -24.622803,-42.708496 C -24.622817,-42.17546 -24.422826,-41.715459 -24.022827,-41.328491 C -23.622859,-40.941534 -23.15594,-40.748052 -22.62207,-40.748047 C -21.662615,-40.748052 -21.00954,-41.241623 -20.662842,-42.22876 L -17.182617,-52.748779 L -13.662109,-42.188477 C -13.315455,-41.202153 -12.66238,-40.70899 -11.702881,-40.708984 C -11.169055,-40.70899 -10.702136,-40.902268 -10.302124,-41.288818 C -9.9021695,-41.675379 -9.7021778,-42.135177 -9.7021484,-42.668213 C -9.7021778,-42.855391 -9.7290332,-43.042158 -9.7827148,-43.228516 Z M -30.422363,-65.228027 L -30.462646,-65.188965 C -30.62216,-65.028627 -30.62216,-64.855287 -30.462646,-64.668945 L -29.702148,-63.868164 C -29.542653,-63.708641 -29.369313,-63.708641 -29.182129,-63.868164 L -29.143066,-63.908447 C -28.982757,-64.09479 -28.982757,-64.26813 -29.143066,-64.428467 L -29.902344,-65.228027 C -30.062672,-65.388327 -30.236011,-65.388327 -30.422363,-65.228027 Z M -21.182861,-71.749023 L -17.781982,-74.908203 C -17.649354,-75.068493 -17.583029,-75.255261 -17.583008,-75.468506 C -17.583029,-76.028372 -17.862977,-76.308319 -18.422852,-76.30835 C -18.662944,-76.308319 -18.862732,-76.241588 -19.022217,-76.108154 L -22.261963,-72.868408 L -26.862793,-67.908691 L -26.30249,-67.348389 Z" id="flowRoot3192" />
  </g>
  <metadata id="metadata2975">
    <rdf:RDF>
      <cc:Work rdf:about="">
        <dc:format>image/svg+xml</dc:format>
        <dc:type rdf:resource="http://purl.org/dc/dcmitype/StillImage" />
        <cc:license rdf:resource="http://web.resource.org/cc/PublicDomain" />
        <dc:language>en</dc:language>
      </cc:Work>
    </rdf:RDF>
  </metadata>
  <sodipodi:namedview inkscape:window-height="1062" inkscape:window-width="1883" inkscape:pageshadow="2" inkscape:pageopacity="0.0" guidetolerance="10.0" gridtolerance="10.0" objecttolerance="10.0" borderopacity="1.0" bordercolor="#666666" pagecolor="#ffffff" id="base" inkscape:zoom="0.92167712" inkscape:cx="164.91676" inkscape:cy="253.34252" inkscape:window-x="0" inkscape:window-y="0" inkscape:current-layer="svg2" showgrid="false" inkscape:pagecheckerboard="0" fit-margin-top="0" fit-margin-left="0" fit-margin-right="0" fit-margin-bottom="0" inkscape:window-maximized="1" />
  <defs id="defs4">
    <inkscape:perspective sodipodi:type="inkscape:persp3d" inkscape:vp_x="0 : 232.80658 : 1" inkscape:vp_y="0 : 1000 : 0" inkscape:vp_z="580 : 232.80658 : 1" inkscape:persp3d-origin="290 : 136.13991 : 1" id="perspective2441" />
    <inkscape:perspective id="perspective3452" inkscape:persp3d-origin="30 : -37.19342 : 1" inkscape:vp_z="60 : -27.19342 : 1" inkscape:vp_y="0 : 1000 : 0" inkscape:vp_x="0 : -27.19342 : 1" sodipodi:type="inkscape:persp3d" />
    <symbol viewBox="244.5 110 489 219.9" id="symbol-university">
      <path id="path4460" d="M 79,43 L 136,162 C 136,162 157,66 240,66 C 323,66 364,172 364,172 L 407,39 L 489,22 L 0,17 Z" />
      <path id="path4462" d="M 94,176 L 73,215" stroke-width="20" stroke="#000000" fill="none" />
      <path id="path4464" d="M 300,19 C 300,29.5 277.4,38 249.5,38 C 221.6,38 199,29.5 199,19 C 199,8.5 221.6,0 249.5,0 C 277.4,0 300,8.5 300,19 Z" />
      <path id="path4466" d="M 112,216 L 96,178 L 64,88 C 64,88 55,80 60,53 C 65,26 76,29 76,29" stroke-width="20" stroke="#000000" ill="none" />
    </symbol>
    <inkscape:perspective id="perspective4471" inkscape:persp3d-origin="372.04724 : 293.59397 : 1" inkscape:vp_z="744.09448 : 468.98767 : 1" inkscape:vp_y="0 : 1000 : 0" inkscape:vp_x="0 : 468.98767 : 1" sodipodi:type="inkscape:persp3d" />
    <inkscape:perspective id="perspective4668" inkscape:persp3d-origin="6 : -53.19342 : 1" inkscape:vp_z="12 : -51.19342 : 1" inkscape:vp_y="0 : 1000 : 0" inkscape:vp_x="0 : -51.19342 : 1" sodipodi:type="inkscape:persp3d" />
  </defs>
</svg>
