<?xml version="1.0" encoding="UTF-8" standalone="no"?>
<!-- Created with Inkscape (http://www.inkscape.org/) -->

<svg version="1.0" width="489.31882" height="489.31882" id="svg2" sodipodi:version="0.32" inkscape:version="1.1.1 (3bf5ae0d25, 2021-09-20)" sodipodi:docname="diving.svg" inkscape:output_extension="org.inkscape.output.svg.inkscape" xmlns:inkscape="http://www.inkscape.org/namespaces/inkscape" xmlns:sodipodi="http://sodipodi.sourceforge.net/DTD/sodipodi-0.dtd" xmlns="http://www.w3.org/2000/svg" xmlns:svg="http://www.w3.org/2000/svg" xmlns:rdf="http://www.w3.org/1999/02/22-rdf-syntax-ns#" xmlns:cc="http://creativecommons.org/ns#" xmlns:dc="http://purl.org/dc/elements/1.1/">
  <metadata id="metadata2975">
    <rdf:RDF>
      <cc:Work rdf:about="">
        <dc:format>image/svg+xml</dc:format>
        <dc:type rdf:resource="http://purl.org/dc/dcmitype/StillImage" />
        <cc:license rdf:resource="http://web.resource.org/cc/PublicDomain" />
        <dc:language>en</dc:language>
      </cc:Work>
    </rdf:RDF>
  </metadata>
  <sodipodi:namedview inkscape:window-height="1062" inkscape:window-width="1883" inkscape:pageshadow="2" inkscape:pageopacity="0.0" guidetolerance="10.0" gridtolerance="10.0" objecttolerance="10.0" borderopacity="1.0" bordercolor="#666666" pagecolor="#ffffff" id="base" inkscape:zoom="0.92167712" inkscape:cx="247.37513" inkscape:cy="237.06784" inkscape:window-x="0" inkscape:window-y="0" inkscape:current-layer="svg2" showgrid="false" inkscape:pagecheckerboard="0" fit-margin-top="0" fit-margin-left="0" fit-margin-right="0" fit-margin-bottom="0" height="489.31882px" inkscape:window-maximized="1" />
  <defs id="defs4" />
  <g id="g1327" transform="translate(-54.360898,-44.217239)" />
  <path style="font-style:normal;font-variant:normal;font-weight:normal;font-stretch:normal;font-size:40px;line-height:125%;font-family:NPSPICT3;-inkscape-font-specification:NPSPICT3;text-align:start;writing-mode:lr-tb;text-anchor:start;fill:#000000;fill-opacity:1;stroke:none;stroke-width:14.6858px;stroke-linecap:butt;stroke-linejoin:miter;stroke-opacity:1" d="M 69.897569,476.39342 C 76.948739,476.39336 86.644286,478.54759 98.984209,482.85611 C 111.32382,487.16453 121.01339,489.31875 128.05292,489.31882 C 135.10403,489.31875 144.79958,487.16453 157.13956,482.85611 C 169.47912,478.54759 179.17466,476.39336 186.22619,476.39342 C 193.2653,476.39336 203.05047,478.54759 215.58174,482.85611 C 228.11246,487.16453 237.71239,489.31875 244.38154,489.31882 C 251.42059,489.31875 261.20876,487.16453 273.74605,482.85611 C 286.2827,478.54759 296.07086,476.39336 303.11056,476.39342 C 309.76711,476.39336 319.36404,478.54759 331.9014,482.85611 C 344.43799,487.16453 354.22615,489.31875 361.26591,489.31882 C 368.31678,489.31875 378.01233,487.16453 390.35254,482.85611 C 402.69188,478.54759 412.38144,476.39336 419.42125,476.39342 C 426.47208,476.39336 436.16762,478.54759 448.50789,482.85611 C 460.84717,487.16453 470.53673,489.31875 477.5766,489.31882 V 445.84573 C 470.53673,445.8457 460.84717,443.79006 448.50789,439.67882 C 436.16762,435.56753 426.47208,433.5119 419.42125,433.51191 C 412.38144,433.5119 402.59328,435.56753 390.05675,439.67882 C 377.51934,443.79006 367.9224,445.8457 361.26591,445.84573 C 354.22615,445.8457 344.43799,443.79006 331.9014,439.67882 C 319.36404,435.56753 309.76711,433.5119 303.11056,433.51191 C 296.07086,433.5119 286.2827,435.56753 273.74605,439.67882 C 261.20876,443.79006 251.42059,445.8457 244.38154,445.84573 C 237.71239,445.8457 228.11246,443.79006 215.58174,439.67882 C 203.05047,435.56753 193.2653,433.5119 186.22619,433.51191 C 179.17466,433.5119 169.47912,435.56753 157.13956,439.67882 C 144.79958,443.79006 135.10403,445.8457 128.05292,445.84573 C 121.01339,445.8457 111.32382,443.79006 98.984209,439.67882 C 86.644286,435.56753 76.948739,433.5119 69.897569,433.51191 C 62.858103,433.5119 53.069947,435.56753 40.533057,439.67882 C 27.995992,443.79006 18.39906,445.8457 11.742219,445.84573 V 489.31882 C 18.39906,489.31875 27.995992,487.16453 40.533057,482.85611 C 53.069947,478.54759 62.858103,476.39336 69.897569,476.39342 Z M 143.32676,277.85135 C 154.29791,277.85149 163.60205,274.03303 171.23918,266.39595 C 178.87588,258.7592 182.69433,249.45507 182.69456,238.48355 C 182.69433,227.91873 178.87588,218.81777 171.23918,211.18065 C 163.60205,203.54394 154.29791,199.72549 143.32676,199.72525 C 132.36718,199.72549 123.06903,203.54394 115.43228,211.18065 C 107.7952,218.81777 103.97673,227.91873 103.97689,238.48355 C 103.97673,249.45507 107.7952,258.7592 115.43228,266.39595 C 123.06903,274.03303 132.36718,277.85149 143.32676,277.85135 Z M 129.82769,425.30132 C 138.44444,425.30132 144.90414,421.57848 149.20684,414.13277 L 212.65067,303.70215 L 351.28054,217.92121 C 357.1602,214.01332 361.66586,209.31644 364.79753,203.83055 L 460.54591,41.10672 C 462.89981,37.199009 464.07702,32.699327 464.07753,27.607658 C 464.07702,20.162364 461.43278,13.699669 456.14481,8.2195452 C 450.85583,2.7402734 444.48875,4.2445867e-4 437.04354,-1.4306641e-6 C 426.47806,4.2445867e-4 418.45272,4.6973083 412.96752,14.090665 L 333.08458,149.7805 L 216.18229,220.28759 C 209.90757,224.19588 205.20471,228.89277 202.0737,234.37825 L 110.43063,391.81359 C 108.48239,394.94489 107.50835,398.66176 107.50852,402.96422 C 107.50835,408.8443 109.7582,414.03717 114.25806,418.54283 C 118.75758,423.04849 123.94745,425.30132 129.82769,425.30132 Z" id="flowRoot3192" />
</svg>
