<?xml version="1.0" encoding="UTF-8" standalone="no"?>
<!-- Created with Inkscape (http://www.inkscape.org/) -->

<svg version="1.0" width="541.21869" height="541.21869" id="svg2" sodipodi:version="0.32" inkscape:version="1.1.1 (3bf5ae0d25, 2021-09-20)" sodipodi:docname="gymnasium.svg" inkscape:output_extension="org.inkscape.output.svg.inkscape" xmlns:inkscape="http://www.inkscape.org/namespaces/inkscape" xmlns:sodipodi="http://sodipodi.sourceforge.net/DTD/sodipodi-0.dtd" xmlns="http://www.w3.org/2000/svg" xmlns:svg="http://www.w3.org/2000/svg" xmlns:rdf="http://www.w3.org/1999/02/22-rdf-syntax-ns#" xmlns:cc="http://creativecommons.org/ns#" xmlns:dc="http://purl.org/dc/elements/1.1/">
  <metadata id="metadata2975">
    <rdf:RDF>
      <cc:Work rdf:about="">
        <dc:format>image/svg+xml</dc:format>
        <dc:type rdf:resource="http://purl.org/dc/dcmitype/StillImage" />
        <cc:license rdf:resource="http://web.resource.org/cc/PublicDomain" />
        <dc:language>en</dc:language>
      </cc:Work>
    </rdf:RDF>
  </metadata>
  <sodipodi:namedview inkscape:window-height="1062" inkscape:window-width="1883" inkscape:pageshadow="2" inkscape:pageopacity="0.0" guidetolerance="10.0" gridtolerance="10.0" objecttolerance="10.0" borderopacity="1.0" bordercolor="#666666" pagecolor="#ffffff" id="base" inkscape:zoom="0.46083856" inkscape:cx="588.05843" inkscape:cy="168.17169" inkscape:window-x="0" inkscape:window-y="0" inkscape:current-layer="svg2" showgrid="false" inkscape:window-maximized="1" inkscape:pagecheckerboard="0" fit-margin-top="0" fit-margin-left="0" fit-margin-right="0" fit-margin-bottom="0" height="541.21869px" />
  <defs id="defs4">
    <inkscape:perspective sodipodi:type="inkscape:persp3d" inkscape:vp_x="0 : 251.21869 : 1" inkscape:vp_y="0 : 1000 : 0" inkscape:vp_z="580 : 251.21869 : 1" inkscape:persp3d-origin="290 : 154.55202 : 1" id="perspective2441" />
    <inkscape:perspective id="perspective3452" inkscape:persp3d-origin="30 : -18.781311 : 1" inkscape:vp_z="60 : -8.781311 : 1" inkscape:vp_y="0 : 1000 : 0" inkscape:vp_x="0 : -8.781311 : 1" sodipodi:type="inkscape:persp3d" />
    <symbol viewBox="244.5 110 489 219.9" id="symbol-university">
      <path id="path4460" d="M 79,43 L 136,162 C 136,162 157,66 240,66 C 323,66 364,172 364,172 L 407,39 L 489,22 L 0,17 Z" />
      <path id="path4462" d="M 94,176 L 73,215" stroke-width="20" stroke="#000000" fill="none" />
      <path id="path4464" d="M 300,19 C 300,29.5 277.4,38 249.5,38 C 221.6,38 199,29.5 199,19 C 199,8.5 221.6,0 249.5,0 C 277.4,0 300,8.5 300,19 Z" />
      <path id="path4466" d="M 112,216 L 96,178 L 64,88 C 64,88 55,80 60,53 C 65,26 76,29 76,29" stroke-width="20" stroke="#000000" ill="none" />
    </symbol>
    <inkscape:perspective id="perspective4471" inkscape:persp3d-origin="372.04724 : 312.00608 : 1" inkscape:vp_z="744.09448 : 487.39978 : 1" inkscape:vp_y="0 : 1000 : 0" inkscape:vp_x="0 : 487.39978 : 1" sodipodi:type="inkscape:persp3d" />
    <inkscape:perspective id="perspective4668" inkscape:persp3d-origin="6 : -34.781311 : 1" inkscape:vp_z="12 : -32.781311 : 1" inkscape:vp_y="0 : 1000 : 0" inkscape:vp_x="0 : -32.781311 : 1" sodipodi:type="inkscape:persp3d" />
    <inkscape:perspective id="perspective19499" inkscape:persp3d-origin="0.5 : -38.447978 : 1" inkscape:vp_z="1 : -38.281311 : 1" inkscape:vp_y="0 : 1000 : 0" inkscape:vp_x="0 : -38.281311 : 1" sodipodi:type="inkscape:persp3d" />
  </defs>
  <g id="g20039" transform="matrix(1.086424,0,0,1.086424,-57.968184,-45.907648)">
    <g transform="translate(28.209445,59.673826)" id="g19515">
      <path style="font-style:normal;font-variant:normal;font-weight:normal;font-stretch:normal;font-size:40px;line-height:125%;font-family:NPSPICT3;-inkscape-font-specification:NPSPICT3;text-align:start;writing-mode:lr-tb;text-anchor:start;fill:#000000;fill-opacity:1;stroke:none" d="M 245.07327,199.02606 C 245.07305,207.60397 248.05841,214.87814 254.02935,220.8486 C 259.99983,226.81955 267.26932,229.80491 275.83787,229.80467 C 284.1069,229.80491 291.30398,226.81955 297.42914,220.8486 C 303.55375,214.87814 306.61619,207.60397 306.61647,199.02606 C 306.61619,190.45804 303.55375,183.18854 297.42914,177.21754 C 291.30398,171.24712 284.1069,168.26178 275.83787,168.26148 C 267.26932,168.26178 259.99983,171.24712 254.02935,177.21754 C 248.05841,183.18854 245.07305,190.45804 245.07327,199.02606 Z M 313.96073,360.69784 V 250.4639 C 313.04474,241.27913 308.14858,236.68663 299.27221,236.6864 H 240.93863 L 196.97367,224.30244 L 163.31936,165.07115 C 159.64709,161.09092 155.36294,159.10068 150.4669,159.10044 C 140.05776,159.10068 134.85324,164.45937 134.85335,175.17651 C 134.85324,179.15722 136.23145,182.83401 138.98799,186.20692 L 174.69031,250.11868 C 178.36227,253.79098 175.83288,252.9146 181.74932,257.79683 L 235.89296,273.10785 V 358.39925 L 144.85673,444.84627 C 143.93153,446.99533 143.46901,449.13973 143.46917,451.27951 C 143.46901,457.39967 145.76525,462.68127 150.35792,467.12432 C 154.95024,471.56725 160.31126,473.78876 166.441,473.78881 C 177.45719,473.78876 177.42943,472.73288 184.93629,468.72247 L 274.46432,389.16385 L 349.60508,468.1 C 359.55264,478.61095 363.25364,480.74713 374.27033,480.74719 C 380.39956,480.74713 385.76059,478.52796 390.35341,474.08971 C 394.94558,469.65133 397.24182,464.37206 397.24216,458.2519 C 397.24182,456.10277 396.93348,453.95837 396.31712,451.81866 Z" id="flowRoot3192" sodipodi:nodetypes="csssscssccccccccssccccccssscccssscc" />
      <path sodipodi:nodetypes="cccssccccc" id="path19513" d="M 301.21525,236.85636 L 352.23257,224.30244 L 385.88688,165.07115 C 389.55915,161.09092 393.8433,159.10068 398.73934,159.10044 C 409.14848,159.10068 414.353,164.45937 414.35289,175.17651 C 414.353,179.15722 412.97479,182.83401 410.21825,186.20692 L 374.51593,250.11868 C 370.84397,253.79098 373.37336,252.9146 367.45692,257.79683 L 313.31328,273.10785 Z" style="font-style:normal;font-variant:normal;font-weight:normal;font-stretch:normal;font-size:40px;line-height:125%;font-family:NPSPICT3;-inkscape-font-specification:NPSPICT3;text-align:start;writing-mode:lr-tb;text-anchor:start;fill:#000000;fill-opacity:1;stroke:none" />
    </g>
    <rect ry="4.0686698" y="162.28322" x="146.47212" height="77.033485" width="11.934765" id="rect20031" style="fill:#000000;fill-opacity:1;stroke:#000000;stroke-width:5;stroke-miterlimit:4;stroke-dasharray:none;stroke-opacity:1" rx="4.0686698" />
    <rect style="fill:#000000;fill-opacity:1;stroke:#000000;stroke-width:5;stroke-miterlimit:4;stroke-dasharray:none;stroke-opacity:1" id="rect20033" width="11.934765" height="77.033485" x="446.47211" y="162.28322" ry="4.0686698" rx="4.0686698" />
    <path id="path20035" d="M 152.81203,160.51841 V 42.255738" style="opacity:0.5;fill:none;stroke:#000000;stroke-width:8;stroke-linecap:butt;stroke-linejoin:miter;stroke-miterlimit:4;stroke-dasharray:none;stroke-opacity:1" />
    <path style="opacity:0.5;fill:none;stroke:#000000;stroke-width:8;stroke-linecap:butt;stroke-linejoin:miter;stroke-miterlimit:4;stroke-dasharray:none;stroke-opacity:1" d="M 452.81203,160.51841 V 42.255738" id="path20037" />
  </g>
</svg>
