<?xml version="1.0" encoding="UTF-8" standalone="no"?>
<!-- Created with Inkscape (http://www.inkscape.org/) -->

<svg version="1.0" width="494.76459" height="494.76459" id="svg2" sodipodi:version="0.32" inkscape:version="1.1.1 (3bf5ae0d25, 2021-09-20)" sodipodi:docname="iceskating.svg" inkscape:output_extension="org.inkscape.output.svg.inkscape" xmlns:inkscape="http://www.inkscape.org/namespaces/inkscape" xmlns:sodipodi="http://sodipodi.sourceforge.net/DTD/sodipodi-0.dtd" xmlns="http://www.w3.org/2000/svg" xmlns:svg="http://www.w3.org/2000/svg" xmlns:rdf="http://www.w3.org/1999/02/22-rdf-syntax-ns#" xmlns:cc="http://creativecommons.org/ns#" xmlns:dc="http://purl.org/dc/elements/1.1/">
  <metadata id="metadata2975">
    <rdf:RDF>
      <cc:Work rdf:about="">
        <dc:format>image/svg+xml</dc:format>
        <dc:type rdf:resource="http://purl.org/dc/dcmitype/StillImage" />
        <cc:license rdf:resource="http://web.resource.org/cc/PublicDomain" />
        <dc:language>en</dc:language>
      </cc:Work>
    </rdf:RDF>
  </metadata>
  <sodipodi:namedview inkscape:window-height="1062" inkscape:window-width="1883" inkscape:pageshadow="2" inkscape:pageopacity="0.0" guidetolerance="10.0" gridtolerance="10.0" objecttolerance="10.0" borderopacity="1.0" bordercolor="#666666" pagecolor="#ffffff" id="base" inkscape:zoom="0.65172414" inkscape:cx="251.64021" inkscape:cy="470.291" inkscape:window-x="0" inkscape:window-y="0" inkscape:current-layer="svg2" showgrid="false" inkscape:window-maximized="1" inkscape:pagecheckerboard="0" fit-margin-top="0" fit-margin-left="0" fit-margin-right="0" fit-margin-bottom="0" />
  <defs id="defs4">
    <inkscape:perspective sodipodi:type="inkscape:persp3d" inkscape:vp_x="0 : 204.76459 : 1" inkscape:vp_y="6.1230318e-14 : 1000 : 0" inkscape:vp_z="580 : 204.76459 : 1" inkscape:persp3d-origin="290 : 108.09792 : 1" id="perspective2441" />
    <inkscape:perspective id="perspective3452" inkscape:persp3d-origin="30 : -65.235413 : 1" inkscape:vp_z="60 : -55.235413 : 1" inkscape:vp_y="0 : 1000 : 0" inkscape:vp_x="0 : -55.235413 : 1" sodipodi:type="inkscape:persp3d" />
    <symbol viewBox="244.5 110 489 219.9" id="symbol-university">
      <path id="path4460" d="M 79,43 L 136,162 C 136,162 157,66 240,66 C 323,66 364,172 364,172 L 407,39 L 489,22 L 0,17 Z" />
      <path id="path4462" d="M 94,176 L 73,215" stroke-width="20" stroke="#000000" fill="none" />
      <path id="path4464" d="M 300,19 C 300,29.5 277.4,38 249.5,38 C 221.6,38 199,29.5 199,19 C 199,8.5 221.6,0 249.5,0 C 277.4,0 300,8.5 300,19 Z" />
      <path id="path4466" d="M 112,216 L 96,178 L 64,88 C 64,88 55,80 60,53 C 65,26 76,29 76,29" stroke-width="20" stroke="#000000" ill="none" />
    </symbol>
    <inkscape:perspective id="perspective4471" inkscape:persp3d-origin="372.04724 : 265.55198 : 1" inkscape:vp_z="744.09448 : 440.94568 : 1" inkscape:vp_y="0 : 1000 : 0" inkscape:vp_x="0 : 440.94568 : 1" sodipodi:type="inkscape:persp3d" />
    <inkscape:perspective id="perspective4668" inkscape:persp3d-origin="6 : -81.235413 : 1" inkscape:vp_z="12 : -79.235413 : 1" inkscape:vp_y="0 : 1000 : 0" inkscape:vp_x="0 : -79.235413 : 1" sodipodi:type="inkscape:persp3d" />
    <inkscape:perspective id="perspective3826" inkscape:persp3d-origin="0.5 : -84.902079 : 1" inkscape:vp_z="1 : -84.735413 : 1" inkscape:vp_y="0 : 1000 : 0" inkscape:vp_x="0 : -84.735413 : 1" sodipodi:type="inkscape:persp3d" />
    <inkscape:perspective id="perspective3855" inkscape:persp3d-origin="0.5 : -84.902079 : 1" inkscape:vp_z="1 : -84.735413 : 1" inkscape:vp_y="0 : 1000 : 0" inkscape:vp_x="0 : -84.735413 : 1" sodipodi:type="inkscape:persp3d" />
    <inkscape:perspective id="perspective3909" inkscape:persp3d-origin="0.5 : -84.902079 : 1" inkscape:vp_z="1 : -84.735413 : 1" inkscape:vp_y="0 : 1000 : 0" inkscape:vp_x="0 : -84.735413 : 1" sodipodi:type="inkscape:persp3d" />
    <inkscape:perspective id="perspective11014" inkscape:persp3d-origin="0.5 : -84.902079 : 1" inkscape:vp_z="1 : -84.735413 : 1" inkscape:vp_y="0 : 1000 : 0" inkscape:vp_x="0 : -84.735413 : 1" sodipodi:type="inkscape:persp3d" />
    <inkscape:perspective id="perspective11066" inkscape:persp3d-origin="0.5 : -84.902079 : 1" inkscape:vp_z="1 : -84.735413 : 1" inkscape:vp_y="0 : 1000 : 0" inkscape:vp_x="0 : -84.735413 : 1" sodipodi:type="inkscape:persp3d" />
  </defs>
  <g id="g1327" transform="translate(-44.909016,-42.339261)" />
  <g id="g3338" transform="matrix(1.3973279,-0.2437849,0.2437849,1.3973279,-229.98304,-98.522568)" />
  <g id="g11108" transform="matrix(1.6413845,0,0,1.6413845,-206.4329,691.1)">
    <circle transform="matrix(39.813911,0,0,39.813911,-491.40772,-12515.876)" style="fill:#000000" cx="22.254" cy="304.478" r="0.69400001" id="circle5993" />
    <path style="fill:#000000" d="M 316.09802,-130.00717 H 387.48437 C 387.48437,-130.00717 392.89906,-129.44978 392.89906,-135.10335 V -140.75693 H 403.44974 C 403.44974,-140.75693 405.87839,-121.44718 391.46576,-119.61574 H 316.09802 Z" id="path5995" />
    <path style="fill:#000000" d="M 138.0104,-185.18925 L 188.53425,-134.70521 C 188.53425,-134.70521 191.91843,-130.56457 195.93964,-134.50614 L 199.96084,-138.52735 L 207.40605,-131.04233 C 207.40605,-131.04233 195.42206,-115.63435 183.95565,-124.51285 L 130.72445,-177.78386 Z" id="path5997" />
    <path style="fill:#000000" d="M 332.89949,-202.787 L 332.97912,-152.74091 C 332.97912,-143.34483 340.58358,-135.70056 350.05929,-135.70056 C 358.65909,-135.70056 367.05983,-145.65404 367.05983,-152.74091 V -222.37544 C 367.05983,-227.23274 365.02932,-231.61227 361.76458,-234.75757 L 320.91551,-275.4872 L 375.10224,-329.67394 C 385.2946,-342.37457 379.91972,-357.6233 379.91972,-357.6233 C 374.26615,-374.54421 355.11566,-375.10161 355.11566,-375.10161 L 215.40864,-375.14142 C 207.96344,-375.14142 201.91173,-369.12952 201.91173,-361.64451 C 201.91173,-354.15949 207.96344,-348.14759 215.40864,-348.14759 L 311.87775,-347.98833 L 271.22775,-307.5374 C 265.41491,-301.60513 262.46868,-294.91639 262.46868,-286.15733 C 262.46868,-277.7566 265.81305,-270.27158 271.387,-264.77726 Z" id="path5999" />
    <path style="fill:#000000" d="M 262.74738,-257.21262 C 261.47334,-258.44685 260.27892,-259.80052 259.20394,-261.27364 L 178.62059,-180.53102 C 172.52906,-175.63391 170.53836,-166.99429 174.20124,-159.78798 C 178.3817,-151.5465 188.53425,-148.28176 196.77573,-152.50203 C 197.89052,-153.09924 198.92568,-153.77608 199.88122,-154.57235 L 282.61452,-237.4251 Z" id="path6001" />
  </g>
</svg>
