<?xml version="1.0" encoding="UTF-8" standalone="no"?>
<!-- Created with Inkscape (http://www.inkscape.org/) -->

<svg version="1.0" width="473.2955" height="473.2955" id="svg2" sodipodi:version="0.32" inkscape:version="1.1.1 (3bf5ae0d25, 2021-09-20)" sodipodi:docname="motorracing.svg" inkscape:output_extension="org.inkscape.output.svg.inkscape" xmlns:inkscape="http://www.inkscape.org/namespaces/inkscape" xmlns:sodipodi="http://sodipodi.sourceforge.net/DTD/sodipodi-0.dtd" xmlns="http://www.w3.org/2000/svg" xmlns:svg="http://www.w3.org/2000/svg" xmlns:rdf="http://www.w3.org/1999/02/22-rdf-syntax-ns#" xmlns:cc="http://creativecommons.org/ns#" xmlns:dc="http://purl.org/dc/elements/1.1/">
  <metadata id="metadata2975">
    <rdf:RDF>
      <cc:Work rdf:about="">
        <dc:format>image/svg+xml</dc:format>
        <dc:type rdf:resource="http://purl.org/dc/dcmitype/StillImage" />
      </cc:Work>
    </rdf:RDF>
  </metadata>
  <sodipodi:namedview inkscape:window-height="1062" inkscape:window-width="1883" inkscape:pageshadow="2" inkscape:pageopacity="0.0" guidetolerance="10.0" gridtolerance="10.0" objecttolerance="10.0" borderopacity="1.0" bordercolor="#666666" pagecolor="#ffffff" id="base" inkscape:zoom="0.35355339" inkscape:cx="299.81328" inkscape:cy="179.60512" inkscape:window-x="0" inkscape:window-y="0" inkscape:current-layer="svg2" showgrid="false" inkscape:pagecheckerboard="0" fit-margin-top="0" fit-margin-left="0" fit-margin-right="0" fit-margin-bottom="0" inkscape:window-maximized="1" />
  <defs id="defs4" />
  <g id="g1072" transform="translate(54.956536)">
    <g id="g1327" transform="translate(-111.49945,-61.58584)" />
    <path style="opacity:1;fill:#000000;fill-opacity:1;fill-rule:evenodd;stroke:#000000;stroke-width:5;stroke-linecap:round;stroke-linejoin:round;stroke-miterlimit:4;stroke-dasharray:none;stroke-opacity:1" d="M 194.14178,7.368672 C 192.62061,7.368672 190.98486,7.481588 189.35143,7.625298 V 89.74562 C 190.98486,89.60191 192.62061,89.48899 194.14178,89.48899 C 216.76131,89.48899 243.09609,106.22914 270.10308,112.07208 V 29.951761 C 243.09609,24.108818 216.76131,7.368672 194.14178,7.368672 Z" id="path15131" />
    <path sodipodi:nodetypes="cssssccsssc" d="M 18.95176,7.026504 L 20.69912,253.17886 C 20.8102,268.8276 67.73274,289.31511 90.12271,289.31511 C 120.23349,289.31511 166.76834,264.67902 194.14178,264.67902 C 221.51522,264.67902 254.36335,289.31511 287.21148,289.31511 C 320.05961,289.31511 358.38243,270.15371 358.38243,270.15371 V 12.84336 C 358.38243,12.84336 320.05961,32.004769 287.21148,32.004769 C 254.36335,32.004769 221.51522,7.368672 194.14178,7.368672 C 166.76834,7.368672 120.23349,32.004769 90.12271,32.004769 C 60.01192,32.004769 18.95176,7.026504 18.95176,7.026504 Z" style="opacity:1;fill:none;fill-opacity:1;fill-rule:evenodd;stroke:#000000;stroke-width:10;stroke-linecap:round;stroke-linejoin:round;stroke-miterlimit:4;stroke-dasharray:none;stroke-opacity:1" id="path15140" />
    <path style="opacity:1;fill:#000000;fill-opacity:1;fill-rule:evenodd;stroke:#000000;stroke-width:5;stroke-linecap:round;stroke-linejoin:round;stroke-miterlimit:4;stroke-dasharray:none;stroke-opacity:1" d="M 356.32942,101.37933 C 351.01142,103.9442 317.4685,119.59978 287.21148,119.59978 C 283.33357,119.59978 279.44668,119.26446 275.57777,118.65882 V 200.77914 C 279.44668,201.38478 283.33357,201.7201 287.21148,201.7201 C 317.4685,201.7201 351.01142,186.06452 356.32942,183.49966 Z" id="path15142" />
    <path style="opacity:1;fill:#000000;fill-opacity:1;fill-rule:evenodd;stroke:#000000;stroke-width:5;stroke-linecap:round;stroke-linejoin:round;stroke-miterlimit:4;stroke-dasharray:none;stroke-opacity:1" d="M 194.14178,182.55869 C 192.62061,182.55869 190.98486,182.67161 189.35143,182.81532 V 264.93564 C 190.98486,264.79193 192.62061,264.67902 194.14178,264.67902 C 216.76131,264.67902 243.09609,281.41916 270.10308,287.26211 V 205.14178 C 243.09609,199.29884 216.76131,182.55869 194.14178,182.55869 Z" id="path15144" />
    <path style="opacity:1;fill:#000000;fill-opacity:1;stroke:#000000;stroke-width:5;stroke-linecap:round;stroke-linejoin:round;stroke-miterlimit:4;stroke-dasharray:none;stroke-dashoffset:0;stroke-opacity:1" d="M 18.95176,182.21653 L 20.6626,253.21639 C 21.04783,268.86078 67.73274,289.31511 90.12271,289.31511 C 92.94721,289.31511 95.93491,289.02367 99.01908,288.63078 V 206.51045 C 95.93491,206.90335 92.94721,207.19479 90.12271,207.19479 C 60.01192,207.19479 18.95176,182.21653 18.95176,182.21653 Z" id="rect15152" />
    <path style="opacity:1;fill:#000000;fill-opacity:1;stroke:#000000;stroke-width:5;stroke-linecap:round;stroke-linejoin:round;stroke-miterlimit:4;stroke-dasharray:none;stroke-dashoffset:0;stroke-opacity:1" d="M 184.56108,95.8191 C 161.22333,99.388 129.35306,113.74148 103.80943,118.23111 V 200.35143 C 129.35306,195.8618 161.22333,181.50832 184.56108,177.93943 Z" id="rect15154" />
    <path style="opacity:1;fill:#000000;fill-opacity:1;stroke:#000000;stroke-width:5;stroke-linecap:round;stroke-linejoin:round;stroke-miterlimit:4;stroke-dasharray:none;stroke-dashoffset:0;stroke-opacity:1" d="M 18.95176,7.026504 L 20.6626,78.02637 C 21.04783,93.67075 67.73274,114.12509 90.12271,114.12509 C 92.94721,114.12509 95.93491,113.83365 99.01908,113.44076 V 31.320433 C 95.93491,31.713324 92.94721,32.004769 90.12271,32.004769 C 60.01192,32.004769 18.95176,7.026504 18.95176,7.026504 Z" id="rect15168" />
    <path style="opacity:1;fill:#000000;fill-opacity:1;fill-rule:evenodd;stroke:#000000;stroke-width:10;stroke-linecap:round;stroke-linejoin:round;stroke-miterlimit:4;stroke-dasharray:none;stroke-opacity:1" d="M 5,468.29549 V 5 H 19.6361 V 468.29549 Z" id="path15180" sodipodi:nodetypes="ccccc" />
  </g>
</svg>
