<?xml version="1.0" encoding="UTF-8" standalone="no"?>
<!-- Created with Inkscape (http://www.inkscape.org/) -->

<svg version="1.0" width="512.83911" height="512.83911" id="svg2" sodipodi:version="0.32" inkscape:version="1.1.1 (3bf5ae0d25, 2021-09-20)" sodipodi:docname="skiing_crosscountry.svg" inkscape:output_extension="org.inkscape.output.svg.inkscape" xmlns:inkscape="http://www.inkscape.org/namespaces/inkscape" xmlns:sodipodi="http://sodipodi.sourceforge.net/DTD/sodipodi-0.dtd" xmlns="http://www.w3.org/2000/svg" xmlns:svg="http://www.w3.org/2000/svg" xmlns:rdf="http://www.w3.org/1999/02/22-rdf-syntax-ns#" xmlns:cc="http://creativecommons.org/ns#" xmlns:dc="http://purl.org/dc/elements/1.1/">
  <metadata id="metadata2975">
    <rdf:RDF>
      <cc:Work rdf:about="">
        <dc:format>image/svg+xml</dc:format>
        <dc:type rdf:resource="http://purl.org/dc/dcmitype/StillImage" />
        <cc:license rdf:resource="http://web.resource.org/cc/PublicDomain" />
        <dc:language>en</dc:language>
      </cc:Work>
    </rdf:RDF>
  </metadata>
  <sodipodi:namedview inkscape:window-height="1062" inkscape:window-width="1883" inkscape:pageshadow="2" inkscape:pageopacity="0.0" guidetolerance="10.0" gridtolerance="10.0" objecttolerance="10.0" borderopacity="1.0" bordercolor="#666666" pagecolor="#ffffff" id="base" inkscape:zoom="0.92167712" inkscape:cx="269.07471" inkscape:cy="234.89788" inkscape:window-x="0" inkscape:window-y="0" inkscape:current-layer="svg2" showgrid="false" inkscape:pagecheckerboard="0" fit-margin-top="0" fit-margin-left="0" fit-margin-right="0" fit-margin-bottom="0" width="512.83911px" inkscape:window-maximized="1" />
  <defs id="defs4" />
  <g id="g1327" transform="translate(-32.041727,-47.139354)" />
  <path style="font-style:normal;font-variant:normal;font-weight:normal;font-stretch:normal;font-size:40px;line-height:125%;font-family:NPSPICT3;-inkscape-font-specification:NPSPICT3;text-align:start;writing-mode:lr-tb;text-anchor:start;fill:#000000;fill-opacity:1;stroke:none;stroke-width:14.6858px;stroke-linecap:butt;stroke-linejoin:miter;stroke-opacity:1" d="M 472.87972,481.40402 H 81.657706 V 497.86106 H 472.87972 C 483.85055,497.861 493.25328,493.94394 501.08793,486.10988 C 508.9215,478.27572 512.83856,468.87299 512.83911,457.90167 H 496.97367 C 496.97313,464.55856 494.62469,470.13984 489.92834,474.64553 C 485.23093,479.15116 479.54806,481.40398 472.87972,481.40402 Z M 380.07139,93.695724 C 390.64791,93.696062 399.85344,89.877612 407.688,82.240344 C 415.52167,74.603781 419.43872,65.305619 419.43918,54.345856 C 419.43872,43.374888 415.52167,34.070763 407.688,26.433436 C 399.85344,18.796932 390.64791,14.978467 380.07139,14.978056 C 369.11157,14.978467 359.81342,18.796932 352.17689,26.433436 C 344.53959,34.070763 340.72112,43.374888 340.72151,54.345856 C 340.72112,65.305619 344.53959,74.603781 352.17689,82.240344 C 359.81342,89.877612 369.11157,93.696062 380.07139,93.695724 Z M 121.59918,446.15945 C 125.91346,450.07948 131.20193,452.03951 137.46462,452.03953 C 144.51574,452.03951 151.95546,449.29667 159.7838,443.81101 L 148.04158,431.47719 C 144.51574,433.81967 141.18729,434.9909 138.05621,434.9909 C 134.92478,434.9909 132.57036,434.20808 130.99295,432.64245 L 130.41929,432.06878 L 5.6640625e-6,301.05791 V 323.96869 Z M 134.52459,184.74721 H 1.183185 V 200.61265 H 134.52459 Z M 360.10064,458.49326 L 512.24752,153.03426 L 496.97367,146.5626 L 343.06995,458.49326 Z M 54.050047,278.73874 C 46.604268,278.73889 40.335779,281.09032 35.24458,285.79302 C 30.15322,290.49603 27.607592,296.56434 27.60765,303.99794 C 27.607592,311.04938 30.15322,317.02206 35.24458,321.91603 C 40.335779,326.81023 46.407066,329.25726 53.458457,329.25716 H 159.7838 C 164.09803,329.25726 168.0121,328.86885 171.52601,328.0919 C 180.53713,326.52639 186.80562,323.78354 190.33149,319.86339 L 242.60677,261.70804 L 303.70215,320.45498 L 279.03453,430.29401 C 278.24542,432.64843 277.85103,434.60846 277.85134,436.17408 C 277.85103,443.22538 280.39666,449.29667 285.48827,454.38797 C 290.57922,459.47922 296.65051,462.02487 303.70215,462.02488 C 317.01561,462.02487 325.24413,455.17077 328.38769,441.46256 L 358.34379,308.12117 C 361.86905,294.01869 360.30343,283.63895 353.64691,276.98189 L 300.18844,223.52342 L 358.34379,155.9743 L 395.93682,193.56732 C 399.85643,197.47566 404.36209,199.4297 409.45381,199.42947 C 416.11027,199.4297 422.56998,196.49565 428.83296,190.62729 L 489.92834,129.53191 C 493.05907,125.61217 494.62469,121.3037 494.62523,116.6065 C 494.62469,110.7387 492.56906,105.84461 488.45832,101.92424 C 484.34653,98.004535 479.54806,96.044504 474.0629,96.044166 C 468.57672,96.044504 464.26825,97.610132 461.1375,100.74105 L 410.61907,151.27741 L 349.52368,90.18202 C 344.82642,85.473534 338.95233,83.119115 331.9014,83.118763 H 236.15303 C 230.27269,83.119115 225.1814,85.473534 220.87918,90.18202 L 155.0869,165.95966 C 150.38983,169.86803 148.04139,174.7621 148.04158,180.64192 C 148.04139,186.12784 149.99842,190.82772 153.91268,194.74154 C 157.82656,198.65586 162.52643,200.61288 168.01231,200.61265 C 173.88023,200.61288 178.9715,198.26445 183.28615,193.56732 L 244.38155,122.48657 L 279.62612,123.07816 L 145.10155,279.33033 Z" id="flowRoot3192" />
</svg>
