<?xml version="1.0" encoding="UTF-8" standalone="no"?>
<!-- Created with Inkscape (http://www.inkscape.org/) -->

<svg version="1.0" width="472.28812" height="472.28812" id="svg2" sodipodi:version="0.32" inkscape:version="1.1.1 (3bf5ae0d25, 2021-09-20)" sodipodi:docname="skiing_downhill.svg" inkscape:output_extension="org.inkscape.output.svg.inkscape" xmlns:inkscape="http://www.inkscape.org/namespaces/inkscape" xmlns:sodipodi="http://sodipodi.sourceforge.net/DTD/sodipodi-0.dtd" xmlns="http://www.w3.org/2000/svg" xmlns:svg="http://www.w3.org/2000/svg" xmlns:rdf="http://www.w3.org/1999/02/22-rdf-syntax-ns#" xmlns:cc="http://creativecommons.org/ns#" xmlns:dc="http://purl.org/dc/elements/1.1/">
  <metadata id="metadata2975">
    <rdf:RDF>
      <cc:Work rdf:about="">
        <dc:format>image/svg+xml</dc:format>
        <dc:type rdf:resource="http://purl.org/dc/dcmitype/StillImage" />
        <cc:license rdf:resource="http://web.resource.org/cc/PublicDomain" />
        <dc:language>en</dc:language>
      </cc:Work>
    </rdf:RDF>
  </metadata>
  <sodipodi:namedview inkscape:window-height="1062" inkscape:window-width="1883" inkscape:pageshadow="2" inkscape:pageopacity="0.0" guidetolerance="10.0" gridtolerance="10.0" objecttolerance="10.0" borderopacity="1.0" bordercolor="#666666" pagecolor="#ffffff" id="base" inkscape:zoom="0.92167712" inkscape:cx="256.05496" inkscape:cy="200.17856" inkscape:window-x="0" inkscape:window-y="0" inkscape:current-layer="svg2" showgrid="false" inkscape:pagecheckerboard="0" fit-margin-top="0" fit-margin-left="0" fit-margin-right="0" fit-margin-bottom="0" inkscape:window-maximized="1" />
  <defs id="defs4">
    <inkscape:perspective sodipodi:type="inkscape:persp3d" inkscape:vp_x="0 : 182.28812 : 1" inkscape:vp_y="0 : 1000 : 0" inkscape:vp_z="580 : 182.28812 : 1" inkscape:persp3d-origin="290 : 85.621447 : 1" id="perspective2441" />
    <inkscape:perspective id="perspective3452" inkscape:persp3d-origin="30 : -87.711884 : 1" inkscape:vp_z="60 : -77.711884 : 1" inkscape:vp_y="0 : 1000 : 0" inkscape:vp_x="0 : -77.711884 : 1" sodipodi:type="inkscape:persp3d" />
    <symbol viewBox="244.5 110 489 219.9" id="symbol-university">
      <path id="path4460" d="M 79,43 L 136,162 C 136,162 157,66 240,66 C 323,66 364,172 364,172 L 407,39 L 489,22 L 0,17 Z" />
      <path id="path4462" d="M 94,176 L 73,215" stroke-width="20" stroke="#000000" fill="none" />
      <path id="path4464" d="M 300,19 C 300,29.5 277.4,38 249.5,38 C 221.6,38 199,29.5 199,19 C 199,8.5 221.6,0 249.5,0 C 277.4,0 300,8.5 300,19 Z" />
      <path id="path4466" d="M 112,216 L 96,178 L 64,88 C 64,88 55,80 60,53 C 65,26 76,29 76,29" stroke-width="20" stroke="#000000" ill="none" />
    </symbol>
    <inkscape:perspective id="perspective4471" inkscape:persp3d-origin="372.04724 : 243.07551 : 1" inkscape:vp_z="744.09448 : 418.46921 : 1" inkscape:vp_y="0 : 1000 : 0" inkscape:vp_x="0 : 418.46921 : 1" sodipodi:type="inkscape:persp3d" />
    <inkscape:perspective id="perspective4668" inkscape:persp3d-origin="6 : -103.71188 : 1" inkscape:vp_z="12 : -101.71188 : 1" inkscape:vp_y="0 : 1000 : 0" inkscape:vp_x="0 : -101.71188 : 1" sodipodi:type="inkscape:persp3d" />
  </defs>
  <g id="g1327" transform="translate(-45.55872,-81.810255)" />
  <path style="font-style:normal;font-variant:normal;font-weight:normal;font-stretch:normal;font-size:40px;line-height:125%;font-family:NPSPICT3;-inkscape-font-specification:NPSPICT3;text-align:start;writing-mode:lr-tb;text-anchor:start;fill:#000000;fill-opacity:1;stroke:none;stroke-width:14.6858px;stroke-linecap:butt;stroke-linejoin:miter;stroke-opacity:1" d="M 432.93824,171.23021 C 443.89715,171.23043 453.1953,167.41198 460.83273,159.77483 C 468.46913,152.13815 472.28759,142.84001 472.28812,131.88035 C 472.28759,120.90926 468.46913,111.60513 460.83273,103.96792 C 453.1953,96.331302 443.89715,92.512837 432.93824,92.512544 C 422.36081,92.512837 413.15528,96.331302 405.32162,103.96792 C 397.48705,111.60513 393.57,120.90926 393.57044,131.88035 C 393.57,142.84001 397.48705,152.13815 405.32162,159.77483 C 413.15528,167.41198 422.36081,171.23043 432.93824,171.23021 Z M 468.77441,440.27937 L 454.66583,432.05086 C 449.96844,439.87896 443.11433,443.79303 434.1035,443.79307 C 429.80053,443.79303 425.68926,442.6218 421.76969,440.27937 L 8.2285032,197.08102 L -1.7724609e-6,211.17169 L 413.5591,454.37003 C 419.82115,457.89563 426.66927,459.65845 434.1035,459.65852 C 449.37684,459.65845 460.9338,453.19875 468.77441,440.27937 Z M 138.03828,251.70473 C 140.39251,252.09928 143.72095,251.51367 148.02364,249.94788 L 261.41224,212.94646 C 272.37131,209.0266 278.43962,202.95531 279.61716,194.73258 C 280.79402,186.51024 281.18543,182.00458 280.79138,181.21559 L 263.76068,119.5286 L 331.90139,160.06166 L 340.12991,219.40019 C 341.69514,229.97733 346.19482,237.41704 353.62898,241.71938 L 442.33202,293.42098 C 445.46278,295.38111 448.59403,296.36113 451.72579,296.36102 C 457.60535,296.36113 462.50242,294.30251 466.41701,290.18516 C 470.33056,286.06801 472.28759,281.27254 472.28812,275.79869 C 472.28759,267.95873 468.76792,262.08464 461.72908,258.1764 L 391.222,217.05175 L 383.58508,111.31801 C 382.41341,97.215698 376.34809,87.033154 365.38912,80.77032 L 263.76068,20.840186 C 254.35465,15.366848 244.5605,12.629995 234.37824,12.629598 C 215.97287,12.629995 201.67906,20.069709 191.49675,34.948784 C 185.62837,43.96047 182.69432,53.748625 182.69455,64.313295 C 182.69432,69.010502 183.27993,73.713363 184.45141,78.421878 L 212.05907,168.29018 L 129.2361,194.73258 C 117.48773,198.25843 110.83083,206.87536 109.26536,220.58339 C 106.91078,238.98865 116.50175,249.36242 138.03828,251.70473 Z" id="flowRoot3192" />
</svg>
