<?xml version="1.0" encoding="UTF-8" standalone="no"?>
<!-- Created with Inkscape (http://www.inkscape.org/) -->

<svg version="1.0" width="538.0625" height="538.0625" id="svg2" sodipodi:version="0.32" inkscape:version="1.1.1 (3bf5ae0d25, 2021-09-20)" sodipodi:docname="soccer.svg" inkscape:output_extension="org.inkscape.output.svg.inkscape" xmlns:inkscape="http://www.inkscape.org/namespaces/inkscape" xmlns:sodipodi="http://sodipodi.sourceforge.net/DTD/sodipodi-0.dtd" xmlns="http://www.w3.org/2000/svg" xmlns:svg="http://www.w3.org/2000/svg" xmlns:rdf="http://www.w3.org/1999/02/22-rdf-syntax-ns#" xmlns:cc="http://creativecommons.org/ns#" xmlns:dc="http://purl.org/dc/elements/1.1/" xmlns:i="http://ns.adobe.com/AdobeIllustrator/10.0/">
  <metadata id="metadata2975">
    <rdf:RDF>
      <cc:Work rdf:about="">
        <dc:format>image/svg+xml</dc:format>
        <dc:type rdf:resource="http://purl.org/dc/dcmitype/StillImage" />
        <cc:license rdf:resource="http://web.resource.org/cc/PublicDomain" />
        <dc:language>en</dc:language>
      </cc:Work>
    </rdf:RDF>
  </metadata>
  <sodipodi:namedview inkscape:window-height="1062" inkscape:window-width="1883" inkscape:pageshadow="2" inkscape:pageopacity="0.0" guidetolerance="10.0" gridtolerance="10.0" objecttolerance="10.0" borderopacity="1.0" bordercolor="#666666" pagecolor="#ffffff" id="base" inkscape:zoom="0.46083856" inkscape:cx="-160.57684" inkscape:cy="18.444637" inkscape:window-x="0" inkscape:window-y="0" inkscape:current-layer="svg2" showgrid="false" inkscape:pagecheckerboard="0" fit-margin-top="0" fit-margin-left="0" fit-margin-right="0" fit-margin-bottom="0" inkscape:window-maximized="1" />
  <defs id="defs4">
    <inkscape:perspective sodipodi:type="inkscape:persp3d" inkscape:vp_x="0 : 248.0625 : 1" inkscape:vp_y="0 : 1000 : 0" inkscape:vp_z="580 : 248.0625 : 1" inkscape:persp3d-origin="290 : 151.39583 : 1" id="perspective2441" />
    <inkscape:perspective id="perspective3452" inkscape:persp3d-origin="30 : -21.9375 : 1" inkscape:vp_z="60 : -11.9375 : 1" inkscape:vp_y="0 : 1000 : 0" inkscape:vp_x="0 : -11.9375 : 1" sodipodi:type="inkscape:persp3d" />
    <symbol viewBox="244.5 110 489 219.9" id="symbol-university">
      <path id="path4460" d="M 79,43 L 136,162 C 136,162 157,66 240,66 C 323,66 364,172 364,172 L 407,39 L 489,22 L 0,17 Z" />
      <path id="path4462" d="M 94,176 L 73,215" stroke-width="20" stroke="#000000" fill="none" />
      <path id="path4464" d="M 300,19 C 300,29.5 277.4,38 249.5,38 C 221.6,38 199,29.5 199,19 C 199,8.5 221.6,0 249.5,0 C 277.4,0 300,8.5 300,19 Z" />
      <path id="path4466" d="M 112,216 L 96,178 L 64,88 C 64,88 55,80 60,53 C 65,26 76,29 76,29" stroke-width="20" stroke="#000000" ill="none" />
    </symbol>
    <inkscape:perspective id="perspective4471" inkscape:persp3d-origin="372.04724 : 308.84989 : 1" inkscape:vp_z="744.09448 : 484.24359 : 1" inkscape:vp_y="0 : 1000 : 0" inkscape:vp_x="0 : 484.24359 : 1" sodipodi:type="inkscape:persp3d" />
    <inkscape:perspective id="perspective4668" inkscape:persp3d-origin="6 : -37.9375 : 1" inkscape:vp_z="12 : -35.9375 : 1" inkscape:vp_y="0 : 1000 : 0" inkscape:vp_x="0 : -35.9375 : 1" sodipodi:type="inkscape:persp3d" />
    <inkscape:perspective id="perspective4904" inkscape:persp3d-origin="16 : -31.270833 : 1" inkscape:vp_z="32 : -25.9375 : 1" inkscape:vp_y="0 : 1000 : 0" inkscape:vp_x="0 : -25.9375 : 1" sodipodi:type="inkscape:persp3d" />
    <marker style="overflow:visible" id="Arrow2Lend" refX="0" refY="0" orient="auto" inkscape:stockid="Arrow2Lend">
      <path transform="matrix(-1.1,0,0,-1.1,-1.1,0)" d="M 8.7185878,4.0337352 L -2.2072895,0.01601326 L 8.7185884,-4.0017078 C 6.97309,-1.6296469 6.9831476,1.6157441 8.7185878,4.0337352 Z" style="font-size:12px;fill-rule:evenodd;stroke-width:0.625;stroke-linejoin:round" id="path4137" />
    </marker>
    <marker style="overflow:visible" id="Arrow1Mend" refX="0" refY="0" orient="auto" inkscape:stockid="Arrow1Mend">
      <path transform="matrix(-0.4,0,0,-0.4,-4,0)" style="fill-rule:evenodd;stroke:#000000;stroke-width:1pt;marker-start:none" d="M 0,0 L 5,-5 L -12.5,0 L 5,5 Z" id="path4125" />
    </marker>
    <marker style="overflow:visible" id="TriangleOutL" refX="0" refY="0" orient="auto" inkscape:stockid="TriangleOutL">
      <path transform="scale(0.8)" style="fill-rule:evenodd;stroke:#000000;stroke-width:1pt;marker-start:none" d="M 5.77,0 L -2.88,5 V -5 Z" id="path4214" />
    </marker>
    <marker style="overflow:visible" id="Arrow1Lend" refX="0" refY="0" orient="auto" inkscape:stockid="Arrow1Lend">
      <path transform="matrix(-0.8,0,0,-0.8,-10,0)" style="fill-rule:evenodd;stroke:#000000;stroke-width:1pt;marker-start:none" d="M 0,0 L 5,-5 L -12.5,0 L 5,5 Z" id="path4119" />
    </marker>
    <marker style="overflow:visible" id="Tail" refX="0" refY="0" orient="auto" inkscape:stockid="Tail">
      <g transform="scale(-1.2)" id="g4152">
        <path style="fill:none;fill-rule:evenodd;stroke:#000000;stroke-width:0.8;stroke-linecap:round;marker-start:none;marker-end:none" d="M -3.8048674,-3.9585227 L 0.54352094,0" id="path4154" />
        <path style="fill:none;fill-rule:evenodd;stroke:#000000;stroke-width:0.8;stroke-linecap:round;marker-start:none;marker-end:none" d="M -1.2866832,-3.9585227 L 3.0617053,0" id="path4156" />
        <path style="fill:none;fill-rule:evenodd;stroke:#000000;stroke-width:0.8;stroke-linecap:round;marker-start:none;marker-end:none" d="M 1.3053582,-3.9585227 L 5.6537466,0" id="path4158" />
        <path style="fill:none;fill-rule:evenodd;stroke:#000000;stroke-width:0.8;stroke-linecap:round;marker-start:none;marker-end:none" d="M -3.8048674,4.1775838 L 0.54352094,0.21974226" id="path4160" />
        <path style="fill:none;fill-rule:evenodd;stroke:#000000;stroke-width:0.8;stroke-linecap:round;marker-start:none;marker-end:none" d="M -1.2866832,4.1775838 L 3.0617053,0.21974226" id="path4162" />
        <path style="fill:none;fill-rule:evenodd;stroke:#000000;stroke-width:0.8;stroke-linecap:round;marker-start:none;marker-end:none" d="M 1.3053582,4.1775838 L 5.6537466,0.21974226" id="path4164" />
      </g>
    </marker>
    <marker style="overflow:visible" id="Arrow1Sstart" refX="0" refY="0" orient="auto" inkscape:stockid="Arrow1Sstart">
      <path transform="matrix(0.2,0,0,0.2,1.2,0)" style="fill-rule:evenodd;stroke:#000000;stroke-width:1pt;marker-start:none" d="M 0,0 L 5,-5 L -12.5,0 L 5,5 Z" id="path4128" />
    </marker>
    <marker style="overflow:visible" id="Arrow1Send" refX="0" refY="0" orient="auto" inkscape:stockid="Arrow1Send">
      <path transform="matrix(-0.2,0,0,-0.2,-1.2,0)" style="fill-rule:evenodd;stroke:#000000;stroke-width:1pt;marker-start:none" d="M 0,0 L 5,-5 L -12.5,0 L 5,5 Z" id="path4131" />
    </marker>
    <marker style="overflow:visible" id="SemiCircleOut" refX="0" refY="0" orient="auto" inkscape:stockid="SemiCircleOut">
      <path transform="matrix(0.6,0,0,0.6,4.2752958,0.4580676)" style="fill-rule:evenodd;stroke:#000000;stroke-width:1pt;marker-start:none;marker-end:none" d="M -2.5,-0.80913858 C -2.5,1.9508614 -4.74,4.1908614 -7.5,4.1908614 V -5.8091386 C -4.74,-5.8091386 -2.5,-3.5691386 -2.5,-0.80913858 Z" id="path4235" />
    </marker>
    <marker style="overflow:visible" id="Arrow2Send" refX="0" refY="0" orient="auto" inkscape:stockid="Arrow2Send">
      <path transform="matrix(-0.3,0,0,-0.3,0.69,0)" d="M 8.7185878,4.0337352 L -2.2072895,0.01601326 L 8.7185884,-4.0017078 C 6.97309,-1.6296469 6.9831476,1.6157441 8.7185878,4.0337352 Z" style="font-size:12px;fill-rule:evenodd;stroke-width:0.625;stroke-linejoin:round" id="path4149" />
    </marker>
    <marker style="overflow:visible" id="TriangleOutS" refX="0" refY="0" orient="auto" inkscape:stockid="TriangleOutS">
      <path transform="scale(0.2)" style="fill-rule:evenodd;stroke:#000000;stroke-width:1pt;marker-start:none" d="M 5.77,0 L -2.88,5 V -5 Z" id="path4220" />
    </marker>
    <marker style="overflow:visible" id="CurveIn" refX="0" refY="0" orient="auto" inkscape:stockid="CurveIn">
      <path transform="scale(0.6)" style="fill:none;fill-rule:evenodd;stroke:#000000;stroke-width:1pt;marker-start:none;marker-end:none" d="M 4.625493,-5.0456926 C 1.865493,-5.0456926 -0.37450702,-2.8056926 -0.37450702,-0.04569258 C -0.37450702,2.7143074 1.865493,4.9543074 4.625493,4.9543074" id="path4238" />
    </marker>
    <marker orient="auto" refY="0" refX="0" id="InfiniteLineStart" inkscape:stockid="InfiniteLineStart" style="overflow:visible">
      <g transform="translate(-13)" id="g4298">
        <circle cx="3" cy="0" r="0.80000001" id="circle4300" />
        <circle cx="6.5" cy="0" r="0.80000001" id="circle4302" />
        <circle cx="10" cy="0" r="0.80000001" id="circle4304" />
      </g>
    </marker>
    <marker style="overflow:visible" id="StopS" refX="0" refY="0" orient="auto" inkscape:stockid="StopS">
      <path transform="scale(0.2)" style="fill:none;fill-opacity:0.75;fill-rule:evenodd;stroke:#000000;stroke-width:1pt" d="M 0,5.65 V -5.65" id="path4229" />
    </marker>
    <marker style="overflow:visible" id="Arrow2Sstart" refX="0" refY="0" orient="auto" inkscape:stockid="Arrow2Sstart">
      <path transform="matrix(0.3,0,0,0.3,-0.69,0)" d="M 8.7185878,4.0337352 L -2.2072895,0.01601326 L 8.7185884,-4.0017078 C 6.97309,-1.6296469 6.9831476,1.6157441 8.7185878,4.0337352 Z" style="font-size:12px;fill-rule:evenodd;stroke-width:0.625;stroke-linejoin:round" id="path4146" />
    </marker>
    <marker style="overflow:visible" id="DiamondS" refX="0" refY="0" orient="auto" inkscape:stockid="DiamondS">
      <path transform="scale(0.2)" style="fill-rule:evenodd;stroke:#000000;stroke-width:1pt;marker-start:none" d="M 0,-7.0710768 L -7.0710894,0 L 0,7.0710589 L 7.0710462,0 Z" id="path4202" />
    </marker>
    <marker orient="auto" refY="0" refX="0" id="RazorWire" inkscape:stockid="RazorWire">
       style=&quot;overflow:visible&quot;&gt;
      <path d="M 0.02272727,-0.74009011 V 0.69740989 L -7.7585227,3.0099099 H 10.678977 L 3.4914773,0.69740989 V -0.74009011 L 10.741477,-2.8963401 H -7.7272727 Z" style="fill:#808080;fill-opacity:1;fill-rule:evenodd;stroke:#000000;stroke-width:0.1pt" transform="scale(0.8)" id="path4286" />
</marker>
    <inkscape:perspective id="perspective5233" inkscape:persp3d-origin="16 : -31.270833 : 1" inkscape:vp_z="32 : -25.9375 : 1" inkscape:vp_y="0 : 1000 : 0" inkscape:vp_x="0 : -25.9375 : 1" sodipodi:type="inkscape:persp3d" />
    <inkscape:perspective id="perspective5412" inkscape:persp3d-origin="250 : 124.72917 : 1" inkscape:vp_z="500 : 208.0625 : 1" inkscape:vp_y="0 : 1000 : 0" inkscape:vp_x="0 : 208.0625 : 1" sodipodi:type="inkscape:persp3d" />
    <inkscape:perspective id="perspective5571" inkscape:persp3d-origin="202.85715 : 94.25298 : 1" inkscape:vp_z="405.71429 : 162.34822 : 1" inkscape:vp_y="0 : 1000 : 0" inkscape:vp_x="0 : 162.34822 : 1" sodipodi:type="inkscape:persp3d" />
    <inkscape:perspective id="perspective6552" inkscape:persp3d-origin="64 : 0.729167 : 1" inkscape:vp_z="128 : 22.0625 : 1" inkscape:vp_y="0 : 1000 : 0" inkscape:vp_x="0 : 22.0625 : 1" sodipodi:type="inkscape:persp3d" />
    <inkscape:perspective id="perspective8761" inkscape:persp3d-origin="238.5 : 72.39583 : 1" inkscape:vp_z="477 : 129.5625 : 1" inkscape:vp_y="0 : 1000 : 0" inkscape:vp_x="0 : 129.5625 : 1" sodipodi:type="inkscape:persp3d" />
    <inkscape:perspective id="perspective10479" inkscape:persp3d-origin="52.830002 : -8.397832 : 1" inkscape:vp_z="105.66 : 8.372002 : 1" inkscape:vp_y="0 : 1000 : 0" inkscape:vp_x="0 : 8.372002 : 1" sodipodi:type="inkscape:persp3d" />
  </defs>
  <g id="g1123" transform="translate(-22.65625,-24.359375)">
    <g id="g1327" />
    <path style="fill:#000000;fill-opacity:1;fill-rule:evenodd;stroke:none;stroke-width:0.18338;stroke-miterlimit:10" d="M 291.6875,37.21875 C 143.19033,37.21875 22.65625,151.99467 22.65625,293.40625 C 22.65625,434.81273 143.18524,549.5625 291.6875,549.5625 C 440.18977,549.5625 560.71877,434.81272 560.71875,293.40625 C 560.71875,151.99468 440.18469,37.218751 291.6875,37.21875 Z M 271.5,58.5 L 327.625,104.90625 L 312.78125,164.125 L 250.4375,193.09375 L 171.5625,172.1875 L 159.84375,123.96875 L 190.09375,78.3125 Z M 411.25,83.25 L 483.5,142.5 L 463.15625,216.59375 L 397.125,226.46875 L 335.34375,164.6875 L 345.21875,108.5625 Z M 151.21875,94.25 C 148.65143,104.33591 146.07144,114.44535 143.6875,124.53125 L 107.375,133.875 C 110.30908,128.55698 114.00512,123.61575 118.40625,119.03125 C 122.25723,114.07999 126.28395,109.28848 131.96875,105.4375 C 137.65353,101.03637 143.33342,97.550847 151.21875,94.25 Z M 162.78125,191.46875 L 235.5625,211.8125 L 254.09375,290.65625 L 178.1875,349.34375 L 112.15625,347.5 L 95.46875,259.84375 Z M 472.3125,236.1875 L 509.34375,298.5625 L 458.1875,383.09375 L 394,377.03125 L 370.53125,323.3125 L 409.96875,247.375 Z M 36.78125,257.46875 L 75.125,269.75 L 95.46875,354.84375 L 70.71875,399.40625 C 64.850589,401.78509 59.336915,395.55027 53.46875,382.71875 C 47.050446,368.78185 38.434082,340.71784 35.5,319.8125 C 32.749296,298.71868 32.930267,278.1907 36.78125,257.46875 Z M 544.03125,291.75 C 544.21466,313.0221 542.54672,330.99653 539.0625,349.15625 C 534.84475,367.1224 528.60483,383.45288 522.375,396.65625 C 516.14519,409.121 510.44544,417.94433 503.84375,423.8125 L 474.15625,389.3125 L 526.03125,301.65625 Z M 268.75,305.875 L 351.46875,327.53125 L 377.875,389.6875 L 332.21875,449.65625 L 229.15625,428.03125 L 195.21875,360.15625 Z M 220.71875,443.40625 L 330.03125,462.6875 L 361.375,510.71875 L 353.5,531.8125 C 338.27944,534.02323 322.85209,535.66449 306.53125,536.03125 C 289.66029,536.39803 271.69583,536.01621 255.375,534.1875 C 237.95388,531.62017 221.80777,527.0271 207.6875,522.4375 C 193.56723,517.49135 182.75452,512.00381 173.21875,505.21875 L 171.9375,480.46875 Z" id="path10456" />
    <path style="opacity:0.201923;fill:#000000;fill-rule:evenodd;stroke:#000000;stroke-width:0.18338;stroke-miterlimit:10" clip-rule="evenodd" d="M 151.21755,94.265209 C 143.33221,97.566052 137.64742,101.05027 131.96264,105.4514 C 126.27785,109.30238 122.24349,114.07027 118.39251,119.02153 C 113.99138,123.60603 110.32378,128.5573 107.3897,133.87532 L 143.69897,124.52293 V 124.52293 C 146.08291,114.43703 148.65023,104.35112 151.21755,94.265209 Z" i:knockout="Off" stroke-miterlimit="10" id="path10544" />
    <path style="opacity:0.201923;fill:#000000;fill-rule:evenodd;stroke:#000000;stroke-width:0.18338;stroke-miterlimit:10" clip-rule="evenodd" d="M 190.09415,78.311135 L 271.51493,58.506079 L 327.62926,104.90126 L 312.77547,164.13305 L 250.42622,193.10711 L 171.57275,172.20177 L 159.83642,123.97279 Z" i:knockout="Off" stroke-miterlimit="10" id="path10546" />
    <path style="opacity:0.201923;fill:#000000;fill-rule:evenodd;stroke:#000000;stroke-width:0.18338;stroke-miterlimit:10" clip-rule="evenodd" d="M 345.23376,108.56886 L 335.33632,164.68319 L 397.1303,226.4823 L 463.1472,216.57977 L 483.5024,142.49419 L 411.2506,83.2624 Z" i:knockout="Off" stroke-miterlimit="10" id="path10548" />
    <path style="opacity:0.201923;fill:#000000;fill-rule:evenodd;stroke:#000000;stroke-width:0.18338;stroke-miterlimit:10" clip-rule="evenodd" d="M 409.9669,247.38764 L 472.3162,236.20145 L 509.359,298.5507 L 458.1959,383.08895 L 394.0129,377.03741 L 370.5453,323.30193 Z" i:knockout="Off" stroke-miterlimit="10" id="path10550" />
    <path style="opacity:0.201923;fill:#000000;fill-rule:evenodd;stroke:#000000;stroke-width:0.18338;stroke-miterlimit:10" clip-rule="evenodd" d="M 503.8576,423.79935 L 474.15,389.32388 L 526.0466,301.66307 L 544.0178,291.76564 C 544.2012,313.03773 542.5508,331.0039 539.0666,349.16362 C 534.8488,367.12979 528.6088,383.45571 522.379,396.65908 C 516.1492,409.12384 510.4593,417.93118 503.8576,423.79935 Z" i:knockout="Off" stroke-miterlimit="10" id="path10552" />
    <path style="opacity:0.201923;fill:#000000;fill-rule:evenodd;stroke:#000000;stroke-width:0.18338;stroke-miterlimit:10" clip-rule="evenodd" d="M 195.22879,360.16643 L 268.76423,305.88591 L 351.46868,327.52477 L 377.8754,389.69573 L 332.21377,449.65595 L 229.15412,428.01709 Z" i:knockout="Off" stroke-miterlimit="10" id="path10554" />
    <path style="opacity:0.201923;fill:#000000;fill-rule:evenodd;stroke:#000000;stroke-width:0.18338;stroke-miterlimit:10" clip-rule="evenodd" d="M 353.48586,531.80517 C 338.26531,534.01591 322.86138,535.65615 306.54054,536.02291 C 289.66957,536.38967 271.69831,536.02291 255.37748,534.1942 C 237.95637,531.62688 221.81891,527.04238 207.69864,522.45278 C 193.57837,517.50661 182.75894,512.0052 173.22317,505.22014 L 171.93951,480.45872 L 220.71863,443.42102 L 330.0183,462.68103 L 361.3712,510.72664 Z" i:knockout="Off" stroke-miterlimit="10" id="path10556" />
    <path style="opacity:0.201923;fill:#000000;fill-rule:evenodd;stroke:#000000;stroke-width:0.18338;stroke-miterlimit:10" clip-rule="evenodd" d="M 95.46999,259.85749 L 162.7705,191.45669 L 235.57242,211.81189 L 254.09382,290.66536 L 178.17444,349.3521 L 112.15758,347.5132 Z" i:knockout="Off" stroke-miterlimit="10" id="path10558" />
    <path style="opacity:0.201923;fill:#000000;fill-rule:evenodd;stroke:#000000;stroke-width:0.18338;stroke-miterlimit:10" clip-rule="evenodd" d="M 70.71367,399.41488 C 64.8455,401.79373 59.3441,395.55371 53.47593,382.72219 C 47.05763,368.7853 38.43876,340.72814 35.50468,319.8228 C 32.75397,298.72899 32.93735,278.1955 36.78834,257.47355 L 75.11479,269.76002 L 95.46999,354.8535 Z" i:knockout="Off" stroke-miterlimit="10" id="path10560" />
  </g>
</svg>
