<?xml version="1.0" encoding="UTF-8" standalone="no"?>
<!-- Created with Inkscape (http://www.inkscape.org/) -->

<svg version="1.0" width="470.9668" height="470.9668" id="svg2" sodipodi:version="0.32" inkscape:version="1.1.1 (3bf5ae0d25, 2021-09-20)" sodipodi:docname="swimming_outdoor.svg" inkscape:output_extension="org.inkscape.output.svg.inkscape" xmlns:inkscape="http://www.inkscape.org/namespaces/inkscape" xmlns:sodipodi="http://sodipodi.sourceforge.net/DTD/sodipodi-0.dtd" xmlns="http://www.w3.org/2000/svg" xmlns:svg="http://www.w3.org/2000/svg" xmlns:rdf="http://www.w3.org/1999/02/22-rdf-syntax-ns#" xmlns:cc="http://creativecommons.org/ns#" xmlns:dc="http://purl.org/dc/elements/1.1/" xmlns:i="http://ns.adobe.com/AdobeIllustrator/10.0/">
  <metadata id="metadata1976">
    <rdf:RDF>
      <cc:Work rdf:about="">
        <dc:format>image/svg+xml</dc:format>
        <dc:type rdf:resource="http://purl.org/dc/dcmitype/StillImage" />
        <cc:license rdf:resource="http://web.resource.org/cc/PublicDomain" />
        <dc:language>en</dc:language>
      </cc:Work>
    </rdf:RDF>
  </metadata>
  <sodipodi:namedview inkscape:window-height="1062" inkscape:window-width="1883" inkscape:pageshadow="2" inkscape:pageopacity="0.0" guidetolerance="10.0" gridtolerance="10.0" objecttolerance="10.0" borderopacity="1.0" bordercolor="#666666" pagecolor="#ffffff" id="base" inkscape:zoom="0.32586207" inkscape:cx="659.78836" inkscape:cy="431.16402" inkscape:window-x="0" inkscape:window-y="0" inkscape:current-layer="svg2" showgrid="false" inkscape:window-maximized="1" inkscape:pagecheckerboard="0" fit-margin-top="0" fit-margin-left="0" fit-margin-right="0" fit-margin-bottom="0" />
  <defs id="defs4" />
  <g id="g22" transform="translate(0,64.077298)">
    <g id="g1327" transform="translate(-50.30448,-134.6668)" />
    <path clip-rule="evenodd" d="M 470.36554,203.79077 C 466.29282,205.03427 461.03301,204.79582 454.13359,203.32031 C 447.12137,201.72429 440.72961,194.28389 429.07931,194.69539 C 417.1457,195.10947 400.29073,205.79958 384.00491,205.79958 C 367.48837,205.44833 348.93866,194.22237 332.08496,194.22237 C 315.28767,194.34158 300.01717,205.97521 283.89932,206.33031 C 267.49813,206.388 251.15337,195.46455 235.09192,195.22868 C 218.80355,194.8159 203.36384,204.91632 188.14975,204.79582 C 173.16255,204.50226 159.87138,193.75059 144.99699,194.22237 C 129.72649,194.8159 112.98561,206.62643 98.05483,207.33536 C 83.01123,207.57251 69.38034,196.35167 56.09044,196.23115 C 42.68772,195.99528 27.642855,204.44072 18.593624,206.33159 C 9.544378,208.04683 3.832048,208.22374 1.683506,206.8636 V 238.16735 C 3.832048,239.52492 9.544378,239.3493 18.593624,237.63534 C 27.642855,235.74449 42.686449,227.29903 56.09044,227.53492 C 69.38162,227.65413 83.01123,238.87498 98.05483,238.63655 C 112.98561,238.04812 129.72649,225.93891 144.99699,225.52483 C 159.87138,224.93513 173.16127,235.9201 188.14975,236.15599 C 203.36384,236.27649 218.80355,226.23632 235.09192,226.53117 C 251.15337,226.76576 267.49813,237.69046 283.89932,237.63406 C 300.01717,237.27896 315.28767,225.64277 332.08496,225.52483 C 348.93866,225.46842 367.48837,236.86618 384.00491,237.1636 C 400.29073,237.1636 417.14699,226.46963 429.07931,226.05813 C 440.72961,225.52483 447.12137,233.08573 454.13359,234.6215 C 461.03301,236.09829 466.29282,236.33416 470.36554,235.09325 Z" i:knockout="Off" id="path113" style="fill:#000000;fill-opacity:1;fill-rule:evenodd" />
    <path clip-rule="evenodd" d="M 202.34469,187.13835 L 331.74396,118.09549 C 321.56663,95.769187 314.38262,78.938547 310.19708,66.948547 C 305.89744,55.017497 304.08863,52.360037 306.52048,46.690007 C 309.00872,40.843057 305.55902,39.957247 324.50612,32.220717 C 343.45068,24.188057 400.12023,1.1541268 418.61353,0.03242683 C 436.712,-0.91237317 435.97744,19.050037 432.98025,25.784087 C 429.69848,32.338667 412.84478,33.992367 400.06381,39.190637 C 387.11106,44.151747 372.85972,49.702567 356.40213,55.845637 L 415.61507,186.13457 C 407.98111,192.68916 397.85632,195.23124 384.1703,194.22493 C 370.25737,192.86991 351.70637,179.64028 334.40145,179.57746 C 317.15161,179.64028 297.46995,194.40439 281.69181,194.69795 C 265.85597,194.6377 253.30063,181.88239 240.06585,180.58507 C 226.77723,179.28132 214.27829,181.46575 202.34469,187.13835 Z" i:knockout="Off" id="path115" style="fill:#000000;fill-opacity:1;fill-rule:evenodd" />
    <path clip-rule="evenodd" d="M 434.82883,74.396627 C 454.7784,74.396627 470.96679,91.302887 470.96679,112.13574 C 470.96679,132.96859 454.77714,149.87484 434.82883,149.87484 C 414.88052,149.87484 398.68958,132.96859 398.68958,112.13574 C 398.68958,91.302887 414.87923,74.396627 434.82883,74.396627" i:knockout="Off" id="path117" style="fill:#000000;fill-opacity:1;fill-rule:evenodd" />
    <path clip-rule="evenodd" d="M 115.02261,189.67658 C 99.69571,186.84093 84.08678,182.47464 67.12027,176.56361 C 50.03967,170.30645 20.913937,161.91742 14.013233,153.70786 C 7.113817,145.26242 12.146726,128.37154 26.060925,127.60365 C 40.028985,126.83578 67.74202,139.23857 96.52931,149.5159 C 125.14611,159.67657 157.89206,172.37421 196.52083,188.26133 C 191.76996,190.85983 185.49226,191.68668 177.46091,190.50472 C 169.31671,189.14458 159.02402,181.64394 148.56079,181.40934 C 138.04117,181.23115 127.01262,184.06681 115.02261,189.67658 Z" i:knockout="Off" id="path119" style="fill:#000000;fill-opacity:1;fill-rule:evenodd" />
    <path clip-rule="evenodd" d="M 470.36554,256.1812 C 466.29282,257.30162 461.03301,257.126 454.13359,255.6492 C 447.12137,254.11471 440.72961,246.55126 429.07931,247.08327 C 417.1457,247.49605 400.29073,258.18616 384.00491,258.18616 C 367.48837,257.83362 348.93866,246.61151 332.08496,246.61151 C 315.28767,246.73073 300.01717,258.36565 283.89932,258.71817 C 267.49813,258.77842 251.15337,247.85243 235.09192,247.61527 C 218.80355,247.20119 203.36384,257.30162 188.14975,257.18369 C 173.16255,256.88884 159.87138,246.13847 144.99699,246.61151 C 129.72649,247.20119 112.98561,259.01302 98.05483,259.72451 C 83.01123,259.9591 69.38034,248.73697 56.09044,248.61903 C 42.68772,248.38443 27.642855,256.82859 18.593624,258.71946 C 9.544378,260.55263 3.832048,260.49111 1.683506,259.1925 V 290.49496 C 3.832048,291.79356 9.544378,291.8551 18.593624,290.02193 C 27.642855,288.12978 42.686449,279.68691 56.09044,279.92151 C 69.38162,280.03944 83.01123,291.26156 98.05483,291.02696 C 112.98561,290.31549 129.72649,278.50367 144.99699,277.91398 C 159.87138,277.44095 173.16127,288.19131 188.14975,288.48616 C 203.36384,288.6041 218.80355,278.50367 235.09192,278.91773 C 251.15337,279.1549 267.49813,290.0809 283.89932,290.02065 C 300.01717,289.6681 315.28767,278.02936 332.08496,277.91398 C 348.93866,277.91398 367.48837,289.1361 384.00491,289.48864 C 400.29073,289.48864 417.14699,278.79852 429.07931,278.38572 C 440.72961,277.97166 447.12137,285.41205 454.13359,287.00935 C 461.03301,288.48616 466.29282,288.72331 470.36554,287.48369 Z" i:knockout="Off" id="path121" style="fill:#000000;fill-opacity:1;fill-rule:evenodd" />
    <path clip-rule="evenodd" d="M 468.68204,307.55545 C 464.60932,308.67587 459.34951,308.50025 452.45009,307.02345 C 445.43787,305.48896 439.04611,297.92551 427.39581,298.45752 C 415.4622,298.8703 398.60723,309.56041 382.32141,309.56041 C 365.80487,309.20787 347.25516,297.98576 330.40146,297.98576 C 313.60417,298.10498 298.33367,309.7399 282.21582,310.09242 C 265.81463,310.15267 249.46987,299.22668 233.40842,298.98952 C 217.12005,298.57544 201.68034,308.67587 186.46625,308.55794 C 171.47905,308.26309 158.18788,297.51272 143.31349,297.98576 C 128.04299,298.57544 111.30211,310.38727 96.37133,311.09876 C 81.32773,311.33335 67.69684,300.11122 54.40694,299.99328 C 41.00422,299.75868 25.95935,308.20284 16.91012,310.09371 C 7.86088,311.92688 2.14855,311.86536 0,310.56675 V 341.86921 C 2.14855,343.16781 7.86088,343.22935 16.91012,341.39618 C 25.95935,339.50403 41.00295,331.06116 54.40694,331.29576 C 67.69812,331.41369 81.32773,342.63581 96.37133,342.40121 C 111.30211,341.68974 128.04299,329.87792 143.31349,329.28823 C 158.18788,328.8152 171.47777,339.56556 186.46625,339.86041 C 201.68034,339.97835 217.12005,329.87792 233.40842,330.29198 C 249.46987,330.52915 265.81463,341.45515 282.21582,341.3949 C 298.33367,341.04235 313.60417,329.40361 330.40146,329.28823 C 347.25516,329.28823 365.80487,340.51035 382.32141,340.86289 C 398.60723,340.86289 415.46349,330.17277 427.39581,329.75997 C 439.04611,329.34591 445.43787,336.7863 452.45009,338.3836 C 459.34951,339.86041 464.60932,340.09756 468.68204,338.85794 Z" i:knockout="Off" id="path4736" style="fill:#000000;fill-opacity:1;fill-rule:evenodd" />
  </g>
</svg>
