<svg width="16" height="16" viewBox="0 0 16 16" version="1.1" xmlns="http://www.w3.org/2000/svg"
  xmlns:svg="http://www.w3.org/2000/svg">
  <path
    d="M 13.653697,2.3317844 C 12.104094,0.78097175 9.0771513,1.5507409 7.3419134,3.3887448 A 6.8627582,6.8734641 0 0 0 5.4523985,7.8179124 A 5.7564875,5.7654676 0 0 1 4.8795137,10.555943 A 0.68484863,0.685917 0 0 0 4.2061227,10.72707 L 1.7035206,13.243643 A 0.69761291,0.69870119 0 0 0 1.7035206,14.230139 L 1.7738749,14.300603 A 0.70866858,0.70977411 0 0 0 2.7588347,14.300603 L 5.2714875,11.794097 A 0.68645673,0.68752761 0 0 0 5.4523985,11.129722 A 8.6127706,8.6262066 0 0 1 8.5881891,10.545877 A 6.5818436,6.5921113 0 0 0 12.598383,8.6634808 C 14.638657,6.6200239 15.111639,3.7907924 13.653697,2.3317844 Z M 11.442563,2.2915192 A 2.3187765,2.3223938 0 0 1 13.090863,2.9055629 A 2.5608957,2.5648907 0 0 1 13.593394,5.3617376 L 10.628463,2.3821158 A 3.8843601,3.8904198 0 0 1 11.442563,2.2915192 Z M 6.8494334,9.1466627 A 2.6619043,2.6660569 0 0 1 6.3670041,6.5797587 L 9.4223898,9.6399109 A 2.8666353,2.8711072 0 0 1 6.8494334,9.1466627 Z M 9.7440094,9.539248 L 6.4675102,6.2475712 A 5.1884269,5.1965209 0 0 1 6.9599901,5.1604118 L 10.829476,9.0359335 A 5.5371831,5.5458211 0 0 1 9.7440094,9.539248 Z M 11.090792,8.8748729 L 7.1308505,4.8986883 A 5.2295339,5.237692 0 0 1 7.8745957,3.9927222 L 11.995347,8.1199011 A 5.715682,5.7245985 0 0 1 11.090792,8.8748729 Z M 12.206409,7.908509 L 8.0856586,3.7813301 A 5.5995974,5.6083328 0 0 1 8.9299099,3.1270213 L 12.86975,7.0730069 A 5.7476429,5.7566093 0 0 1 12.206409,7.908509 Z M 13.030559,6.8112834 L 9.2012764,2.9659606 A 4.1918083,4.1983476 0 0 1 10.296793,2.4827787 L 13.512989,5.7039915 A 5.5937681,5.6024944 0 0 1 13.030559,6.8112834 Z" />
</svg>
