<?xml version="1.0" encoding="UTF-8" standalone="no"?>
<!-- Created with Inkscape (http://www.inkscape.org/) -->

<svg version="1.0" width="509.0903" height="509.0903" id="svg2" sodipodi:version="0.32" inkscape:version="1.1.1 (3bf5ae0d25, 2021-09-20)" sodipodi:docname="vending_machine.svg" inkscape:output_extension="org.inkscape.output.svg.inkscape" xmlns:inkscape="http://www.inkscape.org/namespaces/inkscape" xmlns:sodipodi="http://sodipodi.sourceforge.net/DTD/sodipodi-0.dtd" xmlns="http://www.w3.org/2000/svg" xmlns:svg="http://www.w3.org/2000/svg" xmlns:rdf="http://www.w3.org/1999/02/22-rdf-syntax-ns#" xmlns:cc="http://creativecommons.org/ns#" xmlns:dc="http://purl.org/dc/elements/1.1/">
  <metadata id="metadata10">
    <rdf:RDF>
      <cc:Work rdf:about="">
        <dc:format>image/svg+xml</dc:format>
        <dc:type rdf:resource="http://purl.org/dc/dcmitype/StillImage" />
        <cc:license rdf:resource="http://web.resource.org/cc/PublicDomain" />
        <dc:language>en</dc:language>
      </cc:Work>
    </rdf:RDF>
  </metadata>
  <sodipodi:namedview inkscape:window-height="1062" inkscape:window-width="1883" inkscape:pageshadow="2" inkscape:pageopacity="0.0" guidetolerance="10.0" gridtolerance="10.0" objecttolerance="10.0" borderopacity="1.0" bordercolor="#666666" pagecolor="#ffffff" id="base" showgrid="false" inkscape:zoom="0.25" inkscape:cx="-256" inkscape:cy="-570" inkscape:window-x="0" inkscape:window-y="0" inkscape:current-layer="svg2" inkscape:window-maximized="1" inkscape:pagecheckerboard="0" fit-margin-top="0" fit-margin-left="0" fit-margin-right="0" fit-margin-bottom="0" width="509.0903px" />
  <defs id="defs4">
    <style type="text/css" id="style6">
   
    .fil0 {fill:#EF7900}
   
  </style>
  </defs>
  <g id="g24" transform="translate(-30.693593,-37.198994)">
    <g id="g1327" />
    <path style="color:#000000;font-style:normal;font-variant:normal;font-weight:normal;font-stretch:normal;font-size:medium;line-height:normal;font-family:Sans;-inkscape-font-specification:Sans;text-indent:0;text-align:start;text-decoration:none;text-decoration-line:none;letter-spacing:normal;word-spacing:normal;text-transform:none;writing-mode:lr-tb;direction:ltr;baseline-shift:baseline;text-anchor:start;display:inline;overflow:visible;visibility:visible;opacity:0.75;fill:#000000;fill-opacity:1;fill-rule:nonzero;stroke:none;stroke-width:20;marker:none;enable-background:accumulate" d="M 347.15625,40.3125 C 336.46193,40.571841 329.78304,51.490229 331.65625,61.5625 C 331.65625,74.177083 331.65625,106.79167 331.65625,119.40625 C 344.18801,119.34555 356.71911,119.21871 369.25,119.0625 C 369.43456,104.36627 368.77142,89.561927 369.59375,74.96875 C 370.8367,69.305481 378.78652,69.000308 381.61757,73.756138 C 415.88532,101.10018 449.88454,128.88655 484.05905,156.22963 C 489.05581,158.78823 495.25108,165.23763 490.71875,171 C 455.02271,199.94161 419.22145,228.8111 383.54289,257.73836 C 380.05159,261.9939 373.04602,266.19967 368.34375,261.125 C 366.36858,245.29933 367.70777,229.32762 367.4375,213.4375 C 355.51042,213.4375 343.58333,213.4375 331.65625,213.4375 C 331.78187,323.30962 331.40542,413.20465 331.84375,523.0625 C 333.10617,532.93023 343.58565,538.51866 352.96875,536.84375 C 410.76528,536.65231 468.60507,537.22406 526.375,536.5625 C 535.92093,534.89708 541.08775,524.69604 539.5,515.53125 C 539.4375,361.98022 539.62507,208.42079 539.4063,54.875 C 538.65061,44.612978 527.90998,38.554172 518.18755,40.28125 C 461.17736,40.30217 404.1654,40.23946 347.1563,40.3125 Z" id="rect8562" inkscape:connector-curvature="0" sodipodi:nodetypes="cccccccccccccccccccc" />
    <path style="fill:#000000;fill-opacity:1;stroke:#000000;stroke-width:10;stroke-linecap:round;stroke-linejoin:round;stroke-miterlimit:4;stroke-dasharray:none;stroke-opacity:1" d="M 389.21875,136.78125 C 387.29121,141.2036 377.40336,137.72031 372.25078,138.93453 C 342.59427,139.23761 312.93776,139.54068 283.28125,139.84375 C 283.28125,157.70833 283.28125,175.57292 283.28125,193.4375 C 317.97917,193.4375 352.67708,193.4375 387.375,193.4375 C 387.375,205.26042 387.375,217.08333 387.375,228.90625 C 413.13542,208.04167 438.89583,187.17708 464.65625,166.3125 C 439.51042,146.05208 414.36458,125.79167 389.21875,105.53125 C 389.21875,115.94792 389.21875,126.36458 389.21875,136.78125 Z" id="path8342" inkscape:connector-curvature="0" />
    <path style="fill:#000000;fill-opacity:1;stroke:#000000;stroke-width:10;stroke-linecap:round;stroke-linejoin:round;stroke-miterlimit:4;stroke-dasharray:none;stroke-opacity:1" d="M 181.8125,392.625 C 152.57796,416.20417 123.33191,439.76907 94.09375,463.34375 C 125.03076,488.39642 155.95342,513.46686 186.90625,538.5 C 186.90625,524.48958 186.90625,510.47917 186.90625,496.46875 C 221.60417,496.46875 256.30208,496.46875 291,496.46875 C 291,474.63542 291,452.80208 291,430.96875 C 255.68799,430.5627 220.3752,430.2189 185.0625,429.875 C 185.0625,416.58333 185.0625,403.29167 185.0625,390 C 183.97917,390.875 182.89583,391.75 181.8125,392.625 Z" id="path8535" inkscape:connector-curvature="0" />
    <path inkscape:connector-curvature="0" style="fill:#000000;fill-opacity:1;stroke:none" d="M 143.91916,52.007196 C 81.146729,53.59932 30.69359,105.05013 30.69359,168.20398 C 30.69359,232.3603 82.779766,284.44648 146.93607,284.44647 C 211.09238,284.44647 263.17856,232.36031 263.17856,168.20398 C 263.17856,104.04767 211.09239,52.007181 146.93607,52.007196 C 145.93361,52.007196 144.91555,51.981886 143.91916,52.007196 Z M 145.15335,82.176302 C 156.94663,82.176433 166.28305,83.513485 173.17405,86.15314 C 180.06484,88.793072 185.8701,93.181306 190.63556,99.317843 C 195.40079,105.45463 198.68053,112.87121 200.46338,121.57899 L 161.19783,127.74994 C 159.20931,120.4135 156.91235,115.56815 154.34121,113.16821 C 151.7699,110.7685 148.85585,109.55719 145.56475,109.55706 C 141.58784,109.5572 138.34237,110.83708 135.87406,113.44247 C 133.4056,116.04809 132.17141,119.75068 132.17149,124.55019 C 132.17141,127.08723 132.42285,129.54419 132.90286,131.90963 C 133.38276,134.27524 135.02835,139.8634 137.83962,148.63977 H 169.01437 V 173.23216 H 141.45077 C 141.10787,179.06033 140.03367,184.29423 138.25102,188.95667 C 136.81106,192.52217 134.4341,196.22473 131.07443,200.06439 C 134.91406,199.17307 138.20524,198.7388 140.94796,198.73877 C 144.44475,198.73879 148.99298,199.42446 154.61548,200.79576 C 162.2948,202.5785 168.44289,203.44703 173.03692,203.44698 C 176.80795,203.44704 180.04199,203.13847 182.81903,202.48706 C 185.59584,201.83574 189.26412,200.47583 193.78961,198.41879 L 207.77711,229.04502 C 200.98893,232.47331 195.04653,234.87313 189.9042,236.1759 C 184.76161,237.47863 179.20776,238.09574 173.31119,238.09575 C 166.86586,238.09572 159.52929,236.97584 151.23288,234.71315 C 140.33078,231.69627 133.54273,229.93637 130.9373,229.45642 C 128.33172,228.97644 125.54337,228.77076 122.52651,228.77076 C 113.68144,228.77074 103.92218,231.85623 93.225913,238.09575 L 79.924079,208.88656 C 94.322943,198.5331 101.54524,188.20249 101.54527,177.84895 C 101.54524,177.30049 101.45387,175.76916 101.31671,173.23216 H 79.924079 V 148.63977 H 95.282899 C 92.677356,139.58915 91.191763,134.35525 90.848954,132.91526 C 90.437542,130.72123 90.208974,128.00146 90.209003,124.77875 C 90.208974,116.20811 92.505936,108.51727 97.065619,101.6948 C 101.62522,94.872639 107.63618,89.924417 115.07565,86.838801 C 122.51503,83.753463 132.53712,82.176448 145.15335,82.176302 Z" id="path4559" />
  </g>
</svg>
