<svg xmlns="http://www.w3.org/2000/svg" xmlns:xlink="http://www.w3.org/1999/xlink" version="1.1" id="Layer_2" x="0" y="0" width="379.6" height="60" xml:space="preserve" style="background-color:white">
  <g id="g20">
    <path d="M29.59 55.72h18.24V40.86a101.53 101.53 0 01-18.24 1.8v13.06z" id="path4"/>
    <path d="M29.59 31.84v6.8c6.38.06 12.52.69 18.24 1.8v-10.4a101.55 101.55 0 01-18.24 1.8z" id="path6"/>
    <path d="M27.16 31.84c-6.38-.08-12.52-.73-18.24-1.86V40.5a101.1 101.1 0 0118.24-1.85v-6.8z" id="path8"/>
    <path d="M8.92 55.72h18.24V42.66A101.2 101.2 0 018.93 40.8v14.92z" id="path10"/>
    <path d="M29.59 21.03v6.8c6.38.05 12.52.68 18.24 1.8v-10.4a101.28 101.28 0 01-18.24 1.8z" id="path12"/>
    <path d="M27.16 21.03c-6.38-.08-12.52-.73-18.24-1.86v10.51a101.2 101.2 0 0118.24-1.85v-6.8z" id="path14"/>
    <path d="M27.16 3.95H8.93v14.86a101.44 101.44 0 0118.25-1.8V3.94z" id="path16"/>
    <path d="M47.83 3.95H29.6v13.06c6.38.08 12.52.73 18.24 1.86V3.95z" id="path18"/>
  </g>
  <path d="M139.7 7.36h6.98v2.12h-4.4v2.62h4.11v2.1h-4.11v4.62h-2.59V7.35z" id="path22"/>
  <path d="M148.21 13.24c0-1.22-.02-2.02-.07-2.74h2.21l.1 1.55h.07a2.42 2.42 0 012.8-1.68v2.43c-.21-.03-.42-.07-.7-.07-.96 0-1.6.5-1.77 1.31-.04.17-.05.36-.05.58v4.2h-2.59v-5.58z" id="path24"/>
  <path d="M156.52 15.48c.09 1.07 1.14 1.58 2.35 1.58.88 0 1.6-.11 2.3-.35l.33 1.75c-.85.36-1.88.53-3 .53-2.83 0-4.44-1.64-4.44-4.24 0-2.1 1.32-4.43 4.2-4.43 2.68 0 3.7 2.09 3.7 4.14 0 .45-.05.84-.08 1.02h-5.36zm3.05-1.76c0-.63-.27-1.69-1.45-1.69-1.1 0-1.54 1-1.61 1.69h3.06z" id="path26"/>
  <path d="M165.5 15.48c.09 1.07 1.14 1.58 2.35 1.58.88 0 1.6-.11 2.29-.35l.34 1.75c-.85.36-1.89.53-3 .53-2.83 0-4.45-1.64-4.45-4.24 0-2.1 1.33-4.43 4.2-4.43 2.69 0 3.7 2.09 3.7 4.14 0 .45-.04.84-.08 1.02h-5.35zm3.04-1.76c0-.63-.27-1.69-1.44-1.69-1.1 0-1.55 1-1.62 1.69h3.06z" id="path28"/>
  <path d="M172.49 13.16c0-1.04-.04-1.9-.07-2.66h2.2l.1 1.14h.05a2.88 2.88 0 012.51-1.32c1.09 0 1.92.56 2.28 1.43h.03a3.17 3.17 0 012.67-1.43c1.6 0 2.8 1.12 2.8 3.6v4.9h-2.5v-4.5c0-1.21-.4-1.91-1.23-1.91-.61 0-1.02.4-1.2.9a2.7 2.7 0 00-.1.65v4.86h-2.51v-4.66c0-1.04-.37-1.75-1.2-1.75-.67 0-1.06.5-1.21.92-.09.2-.1.44-.1.66v4.83h-2.52v-5.66z" id="path30"/>
  <path d="M194.03 16.81c0 .78.03 1.55.13 2h-2.33l-.15-.83h-.05a3 3 0 01-2.38 1.02c-1.68 0-2.69-1.22-2.69-2.54 0-2.16 1.94-3.18 4.88-3.18v-.1c0-.45-.24-1.08-1.51-1.08-.85 0-1.75.3-2.3.61l-.47-1.64a6.83 6.83 0 013.23-.75c2.77 0 3.63 1.63 3.63 3.59v2.9zm-2.5-1.92c-1.36 0-2.42.32-2.42 1.3 0 .67.44 1 1.02 1 .63 0 1.18-.43 1.35-.96.03-.13.05-.29.05-.44v-.9z" id="path32"/>
  <path d="M196.08 13.3c0-1.1-.03-2.01-.07-2.8h2.25l.12 1.16h.03a3.23 3.23 0 012.77-1.34c1.82 0 3.45 1.58 3.45 4.23 0 3.02-1.92 4.45-3.77 4.45-1 0-1.78-.4-2.16-.95h-.03v4.13h-2.59V13.3zm2.59 1.95c0 .2.01.37.05.54.17.7.76 1.23 1.51 1.23 1.12 0 1.79-.94 1.79-2.35 0-1.33-.6-2.33-1.76-2.33-.73 0-1.37.54-1.54 1.31a2 2 0 00-.05.46v1.14z" id="path34"/>
  <path d="M212.57 8.24v2.26h1.86v1.9h-1.86v3.02c0 1 .26 1.46 1.02 1.46.36 0 .53-.02.77-.07l.01 1.96c-.32.11-.95.22-1.66.22-.83 0-1.53-.3-1.96-.72-.47-.49-.71-1.29-.71-2.46v-3.4h-1.1v-1.9h1.1V8.93l2.53-.7z" id="path36"/>
  <path d="M217.93 10.5l1.12 3.86c.2.7.34 1.36.47 2.02h.06c.13-.68.27-1.3.45-2.02l1.08-3.86h2.72l-3.1 8.32h-2.58l-3.03-8.32h2.8z" id="path38"/>
  <path d="M228.59 19c-2.43 0-4.3-1.6-4.3-4.28s1.77-4.4 4.45-4.4c2.53 0 4.23 1.75 4.23 4.26 0 3.03-2.16 4.42-4.37 4.42h-.01zm.06-1.85c1.02 0 1.65-1 1.65-2.5 0-1.22-.47-2.48-1.65-2.48-1.22 0-1.7 1.26-1.7 2.5 0 1.41.6 2.48 1.69 2.48h.02z" id="path40"/>
  <path d="M234.57 13.24c0-1.22-.02-2.02-.07-2.74h2.21l.1 1.55h.07a2.42 2.42 0 012.8-1.68v2.43c-.21-.03-.42-.07-.7-.07-.96 0-1.6.5-1.77 1.31-.04.17-.05.36-.05.58v4.2h-2.59v-5.58z" id="path42"/>
  <path d="M242.3 9.48c-.8 0-1.34-.57-1.34-1.29 0-.73.55-1.29 1.38-1.29s1.34.56 1.36 1.3c0 .7-.53 1.28-1.38 1.28h-.01zm-1.27 9.34V10.5h2.59v8.32h-2.59z" id="path44"/>
  <path d="M252.6 16.81c0 .78.04 1.55.14 2h-2.33l-.15-.83h-.05a3 3 0 01-2.38 1.02c-1.68 0-2.68-1.22-2.68-2.54 0-2.16 1.93-3.18 4.87-3.18v-.1c0-.45-.23-1.08-1.51-1.08-.85 0-1.75.3-2.3.61l-.47-1.64a6.83 6.83 0 013.23-.75c2.77 0 3.64 1.63 3.64 3.59v2.9zm-2.5-1.92c-1.35 0-2.4.32-2.4 1.3 0 .67.44 1 1.02 1 .62 0 1.17-.43 1.34-.96.03-.13.05-.29.05-.44v-.9z" id="path46"/>
  <path d="M266.15 6.73v9.6c0 .94.04 1.93.07 2.49h-2.3l-.1-1.21h-.05a2.9 2.9 0 01-2.6 1.4c-1.97 0-3.55-1.7-3.55-4.27-.02-2.8 1.73-4.42 3.72-4.42 1.04 0 1.82.37 2.2.93h.03V6.73h2.58zm-2.58 7.31c0-.15 0-.32-.03-.48a1.54 1.54 0 00-1.52-1.26c-1.18 0-1.78 1.06-1.78 2.37 0 1.4.7 2.27 1.77 2.27.75 0 1.36-.5 1.51-1.24.03-.16.05-.37.05-.57v-1.09z" id="path48"/>
  <path d="M272.06 19c-2.44 0-4.3-1.6-4.3-4.28s1.76-4.4 4.45-4.4c2.53 0 4.23 1.75 4.23 4.26 0 3.03-2.16 4.42-4.37 4.42h-.01zm.06-1.85c1.02 0 1.65-1 1.65-2.5 0-1.22-.47-2.48-1.65-2.48-1.22 0-1.7 1.26-1.7 2.5 0 1.41.6 2.48 1.69 2.48h.01z" id="path50"/>
  <path d="M278.04 6.73h2.58v4.76h.04c.49-.71 1.36-1.17 2.51-1.17 2 0 3.44 1.64 3.42 4.2 0 2.99-1.89 4.48-3.8 4.48-.96 0-1.91-.35-2.49-1.34h-.03l-.1 1.16h-2.2c.03-.55.07-1.55.07-2.49v-9.6zm2.58 8.55c0 .17.02.32.05.46.17.68.77 1.22 1.52 1.22 1.1 0 1.78-.85 1.78-2.34 0-1.3-.58-2.31-1.78-2.31-.7 0-1.35.52-1.52 1.27-.03.15-.05.3-.05.48v1.22z" id="path52"/>
  <path d="M288.2 13.24c0-1.22-.01-2.02-.06-2.74h2.2l.1 1.55h.08a2.42 2.42 0 012.78-1.68v2.43c-.2-.03-.4-.07-.7-.07-.94 0-1.59.5-1.76 1.31-.03.17-.05.36-.05.58v4.2h-2.59v-5.58z" id="path54"/>
  <path d="M298.35 19c-2.43 0-4.3-1.6-4.3-4.28s1.77-4.4 4.46-4.4c2.53 0 4.23 1.75 4.23 4.26 0 3.03-2.16 4.42-4.37 4.42h-.02zm.07-1.85c1.02 0 1.65-1 1.65-2.5 0-1.22-.48-2.48-1.65-2.48-1.22 0-1.7 1.26-1.7 2.5 0 1.41.6 2.48 1.68 2.48h.02z" id="path56"/>
  <path d="M306.1 10.5l1.13 3.86c.2.7.34 1.36.47 2.02h.05c.14-.68.28-1.3.46-2.02l1.07-3.86H312l-3.09 8.32h-2.58l-3.03-8.32h2.8z" id="path58"/>
  <path d="M316.76 19c-2.43 0-4.3-1.6-4.3-4.28s1.77-4.4 4.46-4.4c2.53 0 4.23 1.75 4.23 4.26 0 3.03-2.16 4.42-4.37 4.42h-.02zm.07-1.85c1.02 0 1.65-1 1.65-2.5 0-1.22-.48-2.48-1.65-2.48-1.22 0-1.7 1.26-1.7 2.5 0 1.41.6 2.48 1.69 2.48h.01z" id="path60"/>
  <path d="M322.75 6.73h2.58v12.09h-2.58V6.73zm3.21 2.97c.26-.47.48-1.06.48-1.71 0-.44-.16-.87-.34-1.18l1.61-.27c.27.2.55.73.55 1.36 0 1.43-.82 2.2-1.1 2.48l-1.2-.68z" id="path62"/>
  <path d="M327.6 13.16c0-1.04-.04-1.9-.08-2.66h2.25l.12 1.16h.05a2.99 2.99 0 012.57-1.34c1.7 0 2.97 1.14 2.97 3.58v4.92h-2.58V14.2c0-1.07-.38-1.8-1.31-1.8-.72 0-1.14.5-1.33.97-.07.17-.08.4-.08.64v4.8h-2.59v-5.66z" id="path64"/>
  <path d="M337.56 18.82V10.5h2.58v8.32h-2.58zm4.04-11.94l-2.07 2.59h-1.77l1.46-2.59h2.38z" id="path66"/>
  <path d="M348.45 18.6c-.46.22-1.32.39-2.31.39-2.69 0-4.4-1.65-4.4-4.25 0-2.42 1.66-4.4 4.76-4.4a6 6 0 011.97.32l-.4 1.92c-.32-.14-.78-.26-1.45-.26-1.36 0-2.25.97-2.23 2.32 0 1.53 1.02 2.33 2.28 2.33.6 0 1.08-.1 1.47-.28l.31 1.9z" id="path68"/>
  <path d="M351.15 9.48c-.81 0-1.34-.57-1.34-1.29 0-.73.54-1.29 1.38-1.29s1.34.56 1.36 1.3c0 .7-.53 1.28-1.38 1.28h-.02zm-1.27 9.34V10.5h2.58v8.32h-2.58z" id="path70"/>
  <path d="M132.12 46.78l.95 2.7c.16.46.3.86.4 1.26h.02c.11-.4.25-.8.41-1.25l.94-2.71h.92l-1.9 4.84h-.84l-1.84-4.84h.94z" id="path72"/>
  <path d="M139.96 50.46c0 .42.02.83.07 1.16h-.79l-.08-.61h-.03c-.26.38-.79.72-1.48.72-.98 0-1.48-.7-1.48-1.4 0-1.16 1.04-1.8 2.91-1.8v-.1c0-.4-.1-1.12-1.1-1.11-.46 0-.93.13-1.27.36l-.2-.6c.4-.24 1-.41 1.6-.41 1.5 0 1.85 1 1.85 1.98v1.8zm-.86-1.31c-.96-.02-2.05.15-2.05 1.09 0 .58.38.84.82.84.64 0 1.05-.4 1.2-.81a.9.9 0 00.03-.28v-.84z" id="path74"/>
  <path d="M141.25 50.72c.27.16.73.34 1.17.34.63 0 .93-.31.93-.72 0-.42-.25-.64-.89-.88-.88-.32-1.29-.8-1.29-1.37 0-.78.64-1.42 1.67-1.42.5 0 .92.13 1.18.3l-.2.63a1.98 1.98 0 00-1-.28c-.52 0-.8.3-.8.66 0 .4.28.58.91.83.83.3 1.27.73 1.27 1.45 0 .86-.67 1.46-1.8 1.46-.52 0-1.01-.14-1.35-.34l.2-.66zm1.11-4.6l-.96-1.43h.67l.6.95h.01l.6-.95h.65l-.94 1.43h-.63z" id="path76"/>
  <path d="M147.3 51.73c-1.3 0-2.32-.96-2.32-2.5 0-1.61 1.07-2.56 2.4-2.56 1.4 0 2.33 1.01 2.33 2.48 0 1.8-1.25 2.58-2.4 2.58zm.04-.66c.84 0 1.47-.8 1.47-1.9 0-.81-.4-1.84-1.45-1.84-1.03 0-1.48.96-1.48 1.88 0 1.06.6 1.85 1.45 1.85h.01z" id="path78"/>
  <path d="M154.87 50.29c0 .5.01.95.04 1.33h-.78l-.05-.8h-.02c-.22.4-.74.9-1.6.9-.76 0-1.67-.42-1.67-2.11v-2.83h.88v2.67c0 .92.3 1.55 1.08 1.55a1.26 1.26 0 001.24-1.26v-2.96h.88v3.5z" id="path80"/>
  <path d="M158.8 46.78l.94 2.7c.16.46.3.86.4 1.26h.02c.11-.4.25-.8.41-1.25l.94-2.71h.92l-1.9 4.84h-.84l-1.84-4.84h.94z" id="path82"/>
  <path d="M163.26 44.52h.88v7.1h-.88v-7.1z" id="path84"/>
  <path d="M169.03 50.46c0 .42.02.83.07 1.16h-.79l-.08-.61h-.03c-.26.38-.79.72-1.48.72-.98 0-1.48-.7-1.48-1.4 0-1.16 1.04-1.8 2.91-1.8v-.1c0-.4-.1-1.12-1.1-1.11-.46 0-.93.13-1.27.36l-.2-.6c.4-.24 1-.41 1.6-.41 1.5 0 1.85 1 1.85 1.98v1.8zm-.86-1.31c-.96-.02-2.05.15-2.05 1.09 0 .58.38.84.82.84.64 0 1.05-.4 1.2-.81a.9.9 0 00.03-.28v-.84z" id="path86"/>
  <path d="M170.32 50.72c.27.16.73.34 1.17.34.63 0 .93-.31.93-.72 0-.42-.25-.64-.89-.88-.88-.32-1.29-.8-1.29-1.37 0-.78.64-1.42 1.67-1.42.5 0 .92.13 1.18.3l-.2.63a1.98 1.98 0 00-1-.28c-.52 0-.8.3-.8.66 0 .4.28.58.91.83.83.3 1.27.73 1.27 1.45 0 .86-.67 1.46-1.8 1.46-.52 0-1.01-.14-1.35-.34l.2-.66z" id="path88"/>
  <path d="M175.46 45.62v1.16h1.26v.67h-1.26v2.6c0 .6.17.94.66.94.24 0 .38-.02.51-.06l.04.67a2.4 2.4 0 01-.78.11c-.4 0-.74-.14-.95-.36-.24-.28-.34-.7-.34-1.27v-2.63h-.75v-.67h.75v-.9l.86-.26z" id="path90"/>
  <path d="M177.71 48.09c0-.51 0-.91-.04-1.31h.78l.05.79h.02c.24-.45.8-.9 1.6-.9.67 0 1.71.4 1.71 2.06v2.89h-.88v-2.8c0-.77-.29-1.43-1.12-1.43a1.27 1.27 0 00-1.24 1.3v2.93h-.88v-3.53z" id="path92"/>
  <path d="M185.23 51.73c-1.3 0-2.32-.96-2.32-2.5 0-1.61 1.07-2.56 2.4-2.56 1.39 0 2.33 1.01 2.33 2.48 0 1.8-1.25 2.58-2.4 2.58zm.04-.66c.84 0 1.47-.8 1.47-1.9 0-.81-.4-1.84-1.45-1.84-1.03 0-1.48.96-1.48 1.88 0 1.06.6 1.85 1.45 1.85h.01z" id="path94"/>
  <path d="M192.8 50.29c0 .5.01.95.04 1.33h-.78l-.05-.8H192c-.22.4-.74.9-1.6.9-.76 0-1.67-.42-1.67-2.11v-2.83h.88v2.67c0 .92.3 1.55 1.08 1.55a1.26 1.26 0 001.24-1.26v-2.96h.88v3.5z" id="path96"/>
  <path d="M200.56 44.52v5.85c0 .43.01.92.04 1.25h-.79l-.04-.84h-.02c-.27.54-.85.95-1.64.95-1.17 0-2.08-1-2.08-2.46 0-1.62 1-2.6 2.17-2.6.75 0 1.25.35 1.46.73h.02v-2.88h.88zm-.88 4.23c0-.12 0-.26-.04-.38a1.3 1.3 0 00-1.27-1.01c-.9 0-1.45.8-1.45 1.86 0 .99.5 1.8 1.43 1.8.6 0 1.13-.4 1.3-1.06.02-.11.03-.23.03-.37v-.84z" id="path98"/>
  <path d="M204 51.73c-1.3 0-2.33-.96-2.33-2.5 0-1.61 1.07-2.56 2.4-2.56 1.39 0 2.33 1.01 2.33 2.48 0 1.8-1.25 2.58-2.4 2.58zm.03-.66c.84 0 1.47-.8 1.47-1.9 0-.81-.4-1.84-1.45-1.84-1.03 0-1.48.96-1.48 1.88 0 1.06.6 1.85 1.45 1.85h.01z" id="path100"/>
  <path d="M207.51 44.52h.88v3.03h.02c.31-.54.87-.88 1.65-.88 1.2 0 2.04 1 2.04 2.46 0 1.74-1.1 2.6-2.18 2.6-.7 0-1.25-.27-1.62-.91h-.02l-.05.8h-.76c.03-.33.04-.82.04-1.25v-5.85zm.88 5.16c0 .1.01.22.03.32.17.6.7 1.03 1.32 1.03.93 0 1.47-.75 1.47-1.86 0-.98-.5-1.81-1.44-1.81-.6 0-1.16.42-1.33 1.08-.03.1-.05.23-.05.37v.87z" id="path102"/>
  <path d="M213.2 48.29c0-.57 0-1.06-.04-1.51h.77l.04.95h.03c.22-.65.76-1.06 1.35-1.06.1 0 .16 0 .24.02v.83l-.3-.02c-.62 0-1.06.47-1.18 1.12-.02.13-.03.27-.03.4v2.6h-.88v-3.33z" id="path104"/>
  <path d="M218.34 51.73c-1.3 0-2.32-.96-2.32-2.5 0-1.61 1.07-2.56 2.4-2.56 1.39 0 2.33 1.01 2.33 2.48 0 1.8-1.25 2.58-2.4 2.58zm.04-.66c.84 0 1.47-.8 1.47-1.9 0-.81-.41-1.84-1.45-1.84-1.03 0-1.48.96-1.48 1.88 0 1.06.6 1.85 1.45 1.85h.01z" id="path106"/>
  <path d="M222.13 46.78l.95 2.7c.16.46.3.86.4 1.26h.02c.11-.4.25-.8.41-1.25l.94-2.71h.92l-1.9 4.84h-.84l-1.84-4.84h.94z" id="path108"/>
  <path d="M228.47 51.73c-1.3 0-2.32-.96-2.32-2.5 0-1.61 1.07-2.56 2.4-2.56 1.4 0 2.33 1.01 2.33 2.48 0 1.8-1.25 2.58-2.4 2.58zm.04-.66c.84 0 1.47-.8 1.47-1.9 0-.81-.4-1.84-1.45-1.84-1.03 0-1.48.96-1.48 1.88 0 1.06.6 1.85 1.45 1.85h.01z" id="path110"/>
  <path d="M232 44.52h.87v7.1H232v-7.1zm1.27 1.58c.15-.19.35-.47.35-.88 0-.26-.14-.5-.3-.65l.62-.14c.18.11.36.4.36.74 0 .73-.5 1.1-.65 1.23l-.38-.3z" id="path112"/>
  <path d="M234.43 48.09c0-.51 0-.91-.04-1.31h.78l.05.79h.02c.24-.45.8-.9 1.6-.9.67 0 1.71.4 1.71 2.06v2.89h-.88v-2.8c0-.77-.29-1.43-1.12-1.43a1.27 1.27 0 00-1.24 1.3v2.93h-.88v-3.53z" id="path114"/>
  <path d="M241.76 44.69l-1.22 1.43h-.62l.88-1.43h.96zm-1.78 6.93v-4.84h.88v4.84h-.88z" id="path116"/>
  <path d="M245.77 51.44c-.23.1-.74.28-1.39.28-1.46 0-2.4-1-2.4-2.47a2.47 2.47 0 012.6-2.58c.51 0 .97.13 1.21.26l-.2.67a2.15 2.15 0 00-1.02-.23c-1.1 0-1.7.83-1.7 1.83 0 1.12.71 1.8 1.67 1.8.5 0 .83-.11 1.08-.22l.15.66z" id="path118"/>
  <path d="M247.68 49h.02l.42-.55 1.43-1.67h1.05l-1.87 1.99 2.13 2.85h-1.07l-1.66-2.32-.45.5v1.82h-.88v-7.1h.88V49z" id="path120"/>
  <path d="M253.46 51.73c-1.3 0-2.32-.96-2.32-2.5 0-1.61 1.07-2.56 2.4-2.56 1.39 0 2.33 1.01 2.33 2.48 0 1.8-1.25 2.58-2.4 2.58h-.01zm.04-.66c.84 0 1.47-.8 1.47-1.9 0-.81-.41-1.84-1.45-1.84-1.03 0-1.48.96-1.48 1.88 0 1.06.6 1.85 1.45 1.85h.01z" id="path122"/>
  <path d="M261.03 50.29c0 .5 0 .95.04 1.33h-.78l-.05-.8h-.02c-.22.4-.74.9-1.6.9-.76 0-1.67-.42-1.67-2.11v-2.83h.88v2.67c0 .92.29 1.55 1.08 1.55a1.26 1.26 0 001.24-1.26v-2.96h.88v3.5z" id="path124"/>
  <path d="M264.61 48.36c0-.62 0-1.12-.04-1.58h.8l.04.83h.02c.35-.6.93-.94 1.71-.94 1.18 0 2.06.99 2.06 2.46 0 1.74-1.07 2.6-2.2 2.6-.65 0-1.2-.28-1.49-.76h-.02v2.63h-.88v-5.24zm.88 1.29a1.34 1.34 0 001.35 1.39c.93 0 1.47-.76 1.47-1.87 0-.97-.5-1.8-1.43-1.8-.6 0-1.17.42-1.34 1.09-.02.1-.05.24-.05.35v.84z" id="path126"/>
  <path d="M270.3 48.29c0-.57 0-1.06-.04-1.51h.77l.04.95h.03c.22-.65.76-1.06 1.35-1.06.1 0 .16 0 .24.02v.83l-.3-.02c-.62 0-1.06.47-1.18 1.12-.02.13-.03.27-.03.4v2.6h-.88v-3.33z" id="path128"/>
  <path d="M276.93 50.46c0 .42.02.83.07 1.16h-.8l-.07-.61h-.03c-.26.38-.79.72-1.48.72-.98 0-1.48-.7-1.48-1.4 0-1.16 1.04-1.8 2.91-1.8v-.1c0-.4-.1-1.12-1.1-1.11-.46 0-.93.13-1.27.36l-.2-.6c.4-.24.99-.41 1.6-.41 1.49 0 1.85 1 1.85 1.98v1.8zm-.86-1.31c-.96-.02-2.05.15-2.05 1.09 0 .58.38.84.82.84.64 0 1.05-.4 1.19-.81a.9.9 0 00.04-.28v-.84zm.43-4.46l-1.22 1.43h-.62l.88-1.43h.96z" id="path130"/>
  <path d="M281.79 51.44c-.23.1-.74.28-1.4.28-1.45 0-2.4-1-2.4-2.47a2.47 2.47 0 012.6-2.58c.52 0 .98.13 1.22.26l-.2.67a2.15 2.15 0 00-1.02-.23c-1.1 0-1.7.83-1.7 1.83 0 1.12.71 1.8 1.67 1.8.5 0 .83-.11 1.08-.22l.15.66z" id="path132"/>
  <path d="M284.73 51.73c-1.3 0-2.32-.96-2.32-2.5 0-1.61 1.07-2.56 2.4-2.56 1.39 0 2.33 1.01 2.33 2.48 0 1.8-1.25 2.58-2.4 2.58h-.01zm.04-.66c.84 0 1.47-.8 1.47-1.9 0-.81-.41-1.84-1.45-1.84-1.03 0-1.48.96-1.48 1.88 0 1.06.6 1.85 1.45 1.85z" id="path134"/>
  <path d="M292.3 50.29c0 .5 0 .95.04 1.33h-.78l-.05-.8h-.02c-.22.4-.74.9-1.6.9-.76 0-1.67-.42-1.67-2.11v-2.83h.88v2.67c0 .92.29 1.55 1.08 1.55a1.26 1.26 0 001.24-1.26v-2.96h.88v3.5z" id="path136"/>
  <path d="M293.11 52.85c.22-.6.49-1.66.6-2.4l.98-.1c-.24.86-.68 1.96-.96 2.43l-.62.07z" id="path138"/>
  <path d="M301.28 50.46c0 .42.02.83.07 1.16h-.8l-.07-.61h-.03c-.26.38-.8.72-1.48.72-.98 0-1.48-.7-1.48-1.4 0-1.16 1.04-1.8 2.9-1.8v-.1c0-.4-.1-1.12-1.09-1.11-.46 0-.93.13-1.27.36l-.2-.6c.4-.24.99-.41 1.6-.41 1.49 0 1.85 1 1.85 1.98v1.8zm-.86-1.31c-.96-.02-2.05.15-2.05 1.09 0 .58.38.84.82.84.64 0 1.05-.4 1.19-.81a.9.9 0 00.04-.28v-.84z" id="path140"/>
  <path d="M302.69 44.52h.88v7.1h-.88v-7.1z" id="path142"/>
  <path d="M305.55 49.36c.02 1.18.77 1.67 1.65 1.67.63 0 1.02-.11 1.34-.25l.16.63c-.31.14-.85.3-1.62.3-1.48 0-2.38-.98-2.38-2.43 0-1.46.87-2.61 2.28-2.61 1.58 0 1.99 1.39 1.99 2.28 0 .18-.01.3-.03.4h-3.39zm2.57-.63c0-.56-.23-1.43-1.21-1.43-.9 0-1.28.82-1.35 1.43h2.56z" id="path144"/>
  <path d="M310.06 44.52h.88v3.03h.02c.31-.54.87-.88 1.65-.88 1.2 0 2.04 1 2.04 2.46 0 1.74-1.1 2.6-2.18 2.6-.7 0-1.25-.27-1.62-.91h-.02l-.05.8h-.76c.03-.33.04-.82.04-1.25v-5.85zm.88 5.16c0 .1.01.22.03.32.17.6.69 1.03 1.32 1.03.93 0 1.47-.75 1.47-1.86 0-.98-.5-1.81-1.44-1.81-.6 0-1.16.42-1.33 1.08-.03.1-.05.23-.05.37v.87z" id="path146"/>
  <path d="M317.72 51.73c-1.3 0-2.32-.96-2.32-2.5 0-1.61 1.07-2.56 2.4-2.56 1.39 0 2.33 1.01 2.33 2.48 0 1.8-1.25 2.58-2.4 2.58h-.01zm.04-.66c.84 0 1.47-.8 1.47-1.9 0-.81-.41-1.84-1.45-1.84-1.03 0-1.48.96-1.48 1.88 0 1.06.6 1.85 1.45 1.85z" id="path148"/>
  <path d="M323.36 48.36c0-.62-.01-1.12-.04-1.58h.79l.05.83h.02c.35-.6.93-.94 1.7-.94 1.19 0 2.07.99 2.07 2.46 0 1.74-1.07 2.6-2.2 2.6-.65 0-1.2-.28-1.49-.76h-.02v2.63h-.88v-5.24zm.88 1.29a1.34 1.34 0 001.35 1.39c.93 0 1.47-.76 1.47-1.87 0-.97-.5-1.8-1.43-1.8-.6 0-1.17.42-1.34 1.09-.02.1-.05.24-.05.35v.84z" id="path150"/>
  <path d="M329.55 49.36c.02 1.18.77 1.67 1.65 1.67.63 0 1.02-.11 1.34-.25l.16.63c-.31.14-.85.3-1.62.3-1.48 0-2.38-.98-2.38-2.43 0-1.46.87-2.61 2.28-2.61 1.58 0 1.99 1.39 1.99 2.28 0 .18-.01.3-.03.4h-3.39zm2.57-.63c0-.56-.23-1.43-1.21-1.43-.9 0-1.28.82-1.35 1.43h2.56z" id="path152"/>
  <path d="M334.06 48.09c0-.51-.01-.91-.04-1.31h.78l.05.79h.02c.24-.45.8-.9 1.6-.9.67 0 1.7.4 1.7 2.06v2.89h-.87v-2.8c0-.77-.3-1.43-1.12-1.43a1.27 1.27 0 00-1.24 1.3v2.93h-.88v-3.53z" id="path154"/>
  <path d="M340.03 45.96a.52.52 0 01-.53-.54c0-.31.22-.55.55-.55.32 0 .54.24.54.55 0 .29-.21.54-.55.54h-.01zm-.42 5.66v-4.84h.88v4.84h-.88z" id="path156"/>
  <path d="M345.36 50.46c0 .42.02.83.07 1.16h-.8l-.07-.61h-.03c-.26.38-.8.72-1.48.72-.98 0-1.48-.7-1.48-1.4 0-1.16 1.04-1.8 2.9-1.8v-.1c0-.4-.1-1.12-1.1-1.11-.45 0-.92.13-1.26.36l-.2-.6c.4-.24.99-.41 1.6-.41 1.49 0 1.85 1 1.85 1.98v1.8zm-.86-1.31c-.96-.02-2.05.15-2.05 1.09 0 .58.38.84.82.84.64 0 1.05-.4 1.19-.81a.9.9 0 00.04-.28v-.84z" id="path158"/>
  <path d="M346.22 51.1l2.19-2.84c.22-.27.4-.5.64-.76v-.02h-2.63v-.7h3.69v.55l-2.17 2.82c-.2.26-.4.5-.62.75v.02h2.83v.7h-3.93v-.51z" id="path160"/>
  <path d="M351.05 48.09c0-.51-.02-.91-.04-1.31h.77l.04.78h.03c.27-.46.72-.9 1.53-.9.65 0 1.15.4 1.36.98h.02c.15-.28.35-.48.55-.63.29-.22.6-.34 1.06-.34.65 0 1.6.42 1.6 2.1v2.85h-.86v-2.74c0-.94-.35-1.5-1.05-1.5-.51 0-.9.38-1.05.8-.04.13-.07.29-.07.44v3h-.86V48.7c0-.77-.34-1.32-1.01-1.32-.54 0-.95.44-1.09.88-.05.13-.07.28-.07.43v2.92h-.86v-3.53z" id="path162"/>
  <path d="M359.81 45.96a.52.52 0 01-.53-.54c0-.31.22-.55.55-.55.32 0 .54.24.54.55 0 .29-.21.54-.55.54h-.01zm-.42 5.66v-4.84h.88v4.84h-.88z" id="path164"/>
  <g id="g242">
    <path class="st0" d="M53.3 3.77c.88-.16 2.17-.27 3.65-.27 1.8 0 3.06.27 3.92.98A3.04 3.04 0 0162.01 7c0 1.53-1.1 2.6-2.15 2.97v.06c.85.34 1.32 1.13 1.62 2.25.38 1.39.74 2.97.98 3.44h-2.81a16.3 16.3 0 01-.83-2.83c-.34-1.53-.86-1.93-2-1.94h-.81v4.77h-2.72V3.77zM56 8.97h1.08c1.37 0 2.18-.68 2.18-1.74 0-1.1-.76-1.67-2.02-1.67-.66 0-1.04.03-1.24.09v3.33z" id="path166"/>
    <path class="st0" d="M67.93 15.93c-2.58 0-4.56-1.7-4.56-4.54s1.88-4.66 4.72-4.66c2.68 0 4.48 1.85 4.48 4.52 0 3.2-2.28 4.68-4.62 4.68h-.02zm.07-1.96c1.08 0 1.75-1.07 1.75-2.65 0-1.3-.5-2.63-1.75-2.63-1.3 0-1.8 1.33-1.8 2.65 0 1.5.63 2.62 1.78 2.62H68z" id="path168"/>
    <path class="st0" d="M76.14 6.92l1.18 4.1c.22.73.36 1.43.5 2.14h.06c.15-.72.29-1.4.49-2.15l1.13-4.08h2.88l-3.27 8.8h-2.74l-3.2-8.8h2.97z" id="path170"/>
    <path class="st0" d="M90.84 13.6c0 .83.04 1.64.15 2.13h-2.47l-.16-.88h-.06a3.17 3.17 0 01-2.52 1.08c-1.78 0-2.84-1.3-2.84-2.7 0-2.29 2.05-3.37 5.17-3.37v-.1c0-.48-.26-1.14-1.6-1.14-.9 0-1.86.3-2.44.65l-.5-1.75c.61-.34 1.82-.8 3.42-.8 2.94 0 3.85 1.74 3.85 3.8v3.08zm-2.64-2.03c-1.44 0-2.56.34-2.56 1.39 0 .7.47 1.04 1.08 1.04.66 0 1.24-.45 1.42-1 .04-.15.05-.31.05-.48v-.95z" id="path172"/>
    <path class="st0" d="M93 13.34c.5.3 1.55.64 2.36.64.83 0 1.17-.27 1.17-.72s-.27-.68-1.28-1c-1.83-.62-2.54-1.6-2.52-2.63 0-1.66 1.4-2.9 3.58-2.9a5.8 5.8 0 012.47.52l-.47 1.87a4.7 4.7 0 00-1.9-.48c-.67 0-1.05.27-1.05.7 0 .41.34.64 1.42 1 1.68.58 2.36 1.43 2.38 2.7 0 1.66-1.28 2.87-3.8 2.87a6.22 6.22 0 01-2.85-.63l.5-1.94z" id="path174"/>
    <path class="st0" d="M53.33 25.87c.02 1.18.77 1.67 1.65 1.67.63 0 1.02-.1 1.34-.25l.16.63c-.3.14-.85.31-1.62.31-1.48 0-2.38-.99-2.38-2.44 0-1.46.88-2.6 2.28-2.6 1.58 0 2 1.38 2 2.27 0 .18-.02.31-.04.41h-3.39zm2.57-.63c.01-.56-.23-1.43-1.2-1.43-.9 0-1.29.82-1.36 1.43h2.56z" id="path176"/>
    <path class="st0" d="M58.72 25.51h.02l.42-.55 1.43-1.67h1.05l-1.87 2 2.13 2.84h-1.07l-1.66-2.32-.45.5v1.82h-.88v-7.1h.88v4.48z" id="path178"/>
    <path class="st0" d="M64.5 28.24c-1.3 0-2.32-.96-2.32-2.49 0-1.62 1.07-2.57 2.4-2.57 1.4 0 2.33 1.01 2.33 2.48 0 1.8-1.25 2.58-2.4 2.58zm.04-.66c.84 0 1.47-.79 1.47-1.89 0-.82-.4-1.85-1.45-1.85-1.03 0-1.48.96-1.48 1.88 0 1.06.6 1.86 1.45 1.86h.01z" id="path180"/>
    <path class="st0" d="M68.02 24.6c0-.5 0-.9-.04-1.3h.78l.05.78h.02c.24-.45.8-.9 1.6-.9.67 0 1.71.4 1.71 2.06v2.9h-.88v-2.8c0-.78-.29-1.44-1.12-1.44a1.27 1.27 0 00-1.24 1.31v2.92h-.88V24.6z" id="path182"/>
    <path class="st0" d="M75.54 28.24c-1.3 0-2.32-.96-2.32-2.49 0-1.62 1.07-2.57 2.4-2.57 1.4 0 2.33 1.01 2.33 2.48 0 1.8-1.25 2.58-2.4 2.58zm.04-.66c.84 0 1.47-.79 1.47-1.89 0-.82-.4-1.85-1.45-1.85-1.03 0-1.48.96-1.48 1.88 0 1.06.6 1.86 1.45 1.86h.01z" id="path184"/>
    <path class="st0" d="M79.06 24.6c0-.5-.02-.9-.04-1.3h.77l.04.77h.03c.27-.46.72-.89 1.53-.89.65 0 1.15.4 1.36.97h.02c.15-.28.35-.48.55-.63.3-.22.6-.34 1.06-.34.65 0 1.6.42 1.6 2.1v2.85h-.86v-2.74c0-.94-.35-1.49-1.05-1.49-.5 0-.89.37-1.05.8-.04.12-.07.28-.07.43v3h-.86v-2.9c0-.78-.34-1.33-1-1.33-.55 0-.96.44-1.1.88-.05.13-.07.28-.07.43v2.92h-.86V24.6z" id="path186"/>
    <path class="st0" d="M87.82 22.47a.52.52 0 01-.53-.54c0-.3.22-.55.55-.55.32 0 .54.24.54.55 0 .3-.2.54-.55.54zm-.42 5.66v-4.84h.88v4.84h-.88z" id="path188"/>
    <path class="st0" d="M93.2 27.95c-.24.1-.75.28-1.4.28-1.46 0-2.4-.99-2.4-2.47a2.47 2.47 0 012.6-2.58c.51 0 .97.13 1.21.26l-.2.67c-.2-.1-.54-.23-1.02-.23-1.1 0-1.7.83-1.7 1.83 0 1.12.71 1.81 1.67 1.81.5 0 .83-.12 1.08-.23l.15.66z" id="path190"/>
    <path class="st0" d="M95.1 25.51h.02l.42-.55 1.43-1.67h1.05l-1.87 2 2.13 2.84h-1.07l-1.66-2.32-.45.5v1.82h-.88v-7.1h.88v4.48z" id="path192"/>
    <path class="st0" d="M99.36 23.3l1.05 2.85c.12.32.24.7.32.99h.02c.1-.29.2-.66.31-1.01l.96-2.84h.93l-1.32 3.45c-.63 1.66-1.06 2.5-1.66 3.03a2.5 2.5 0 01-1.08.56l-.22-.73c.22-.07.51-.21.77-.43a2.77 2.77 0 00.81-1.2.6.6 0 00-.07-.22l-1.78-4.46h.96zm2.76-2.1l-1.22 1.43h-.62l.88-1.43h.96z" id="path194"/>
    <path class="st0" d="M52.83 37.27c0-.62 0-1.12-.04-1.58h.8l.04.83h.02c.35-.6.93-.94 1.71-.94 1.18 0 2.06 1 2.06 2.46 0 1.74-1.07 2.6-2.2 2.6-.65 0-1.2-.28-1.49-.76h-.02v2.63h-.87v-5.24zm.88 1.3a1.35 1.35 0 001.35 1.39c.93-.01 1.47-.77 1.47-1.88 0-.97-.5-1.8-1.43-1.8-.6 0-1.17.42-1.34 1.1-.02.1-.05.23-.05.34v.84z" id="path196"/>
    <path class="st0" d="M58.52 37.2c0-.57 0-1.06-.04-1.5h.77l.04.94h.03c.22-.65.76-1.06 1.35-1.06l.24.02v.83l-.3-.02c-.62 0-1.06.47-1.18 1.12-.02.13-.03.27-.03.4v2.6h-.87V37.2z" id="path198"/>
    <path class="st0" d="M63.66 40.64c-1.3 0-2.32-.96-2.32-2.49 0-1.62 1.07-2.57 2.4-2.57 1.4 0 2.33 1.01 2.33 2.48 0 1.8-1.25 2.58-2.4 2.58zm.04-.66c.84 0 1.47-.79 1.47-1.89 0-.82-.4-1.85-1.45-1.85-1.03 0-1.48.96-1.48 1.88 0 1.06.6 1.86 1.45 1.86h.01z" id="path200"/>
    <path class="st0" d="M71.32 39.82c0 1.12-.23 1.79-.69 2.22-.48.43-1.16.58-1.77.58-.58 0-1.22-.14-1.6-.4l.21-.68c.32.2.82.39 1.42.39.9 0 1.56-.47 1.56-1.7v-.53h-.02c-.26.45-.79.81-1.54.81-1.2 0-2.06-1.02-2.06-2.37 0-1.64 1.07-2.56 2.2-2.56.83 0 1.28.43 1.5.84h.02l.03-.73h.78c-.03.34-.04.74-.04 1.32v2.8zm-.88-2.23c0-.14 0-.27-.05-.39a1.25 1.25 0 00-1.23-.94c-.84 0-1.44.71-1.44 1.84 0 .94.5 1.74 1.43 1.74.55 0 1.04-.34 1.22-.9.05-.15.07-.32.07-.48v-.87z" id="path202"/>
    <path class="st0" d="M72.71 37.2c0-.57 0-1.06-.04-1.5h.77l.04.94h.03c.22-.65.76-1.06 1.35-1.06l.24.02v.83l-.3-.02c-.62 0-1.06.47-1.18 1.12-.02.13-.03.27-.03.4v2.6h-.88V37.2z" id="path204"/>
    <path class="st0" d="M79.34 39.37c0 .42.02.83.07 1.16h-.79l-.08-.61h-.03c-.26.38-.79.72-1.48.72-.98 0-1.48-.69-1.48-1.39 0-1.17 1.04-1.8 2.91-1.8v-.1c0-.4-.1-1.13-1.1-1.12-.46 0-.93.13-1.27.36l-.2-.59c.4-.25 1-.42 1.6-.42 1.5 0 1.85 1.01 1.85 1.98v1.81zm-.86-1.3c-.96-.03-2.05.14-2.05 1.08 0 .58.38.84.82.84.64 0 1.05-.4 1.2-.81a.9.9 0 00.03-.28v-.84z" id="path206"/>
    <path class="st0" d="M80.75 37c0-.5-.02-.9-.04-1.3h.77l.04.77h.03c.27-.46.72-.89 1.53-.89.65 0 1.15.4 1.36.97h.02c.15-.28.35-.48.55-.63.3-.22.6-.34 1.06-.34.65 0 1.6.42 1.6 2.1v2.85h-.86v-2.74c0-.94-.35-1.49-1.05-1.49-.5 0-.89.37-1.05.8-.04.12-.07.28-.07.43v3h-.86v-2.9c0-.78-.34-1.33-1-1.33-.55 0-.96.44-1.1.88-.05.13-.07.28-.07.43v2.92h-.86V37z" id="path208"/>
    <path class="st0" d="M91.21 37.27c0-.62 0-1.12-.04-1.58h.8l.04.83h.02c.35-.6.93-.94 1.71-.94 1.18 0 2.06 1 2.06 2.46 0 1.74-1.07 2.6-2.2 2.6-.65 0-1.2-.28-1.49-.76h-.02v2.63h-.88v-5.24zm.88 1.3a1.35 1.35 0 001.35 1.39c.93-.01 1.47-.77 1.47-1.88 0-.97-.5-1.8-1.43-1.8-.6 0-1.17.42-1.34 1.1-.02.1-.05.23-.05.34v.84z" id="path210"/>
    <path class="st0" d="M96.9 37.2c0-.57 0-1.06-.04-1.5h.77l.04.94h.03c.22-.65.76-1.06 1.35-1.06l.24.02v.83l-.3-.02c-.62 0-1.06.47-1.18 1.12-.02.13-.03.27-.03.4v2.6h-.88V37.2z" id="path212"/>
    <path class="st0" d="M100.57 38.27c.02 1.18.77 1.67 1.65 1.67.63 0 1.02-.1 1.34-.25l.16.63c-.3.14-.85.31-1.62.31-1.48 0-2.38-.99-2.38-2.44 0-1.46.87-2.6 2.28-2.6 1.58 0 2 1.38 2 2.27 0 .18-.02.31-.04.41h-3.39zm2.57-.63c.01-.56-.23-1.43-1.2-1.43-.9 0-1.29.82-1.36 1.43h2.56z" id="path214"/>
    <path class="st0" d="M57.01 45.83v5.85c0 .43.01.92.04 1.25h-.79l-.04-.84h-.02c-.27.54-.85.95-1.64.95-1.17 0-2.08-.99-2.08-2.46 0-1.62 1-2.6 2.17-2.6.75 0 1.25.35 1.46.73h.02v-2.88h.88zm-.88 4.23c0-.12 0-.26-.04-.38a1.3 1.3 0 00-1.27-1c-.9 0-1.45.8-1.45 1.85 0 .99.5 1.8 1.43 1.8.6 0 1.13-.4 1.3-1.06.02-.1.03-.23.03-.37v-.84z" id="path216"/>
    <path class="st0" d="M60.44 53.04c-1.3 0-2.32-.96-2.32-2.49 0-1.62 1.07-2.57 2.4-2.57 1.4 0 2.33 1.01 2.33 2.48 0 1.8-1.25 2.58-2.4 2.58zm.04-.66c.84 0 1.47-.79 1.47-1.89 0-.82-.4-1.85-1.45-1.85-1.03 0-1.48.96-1.48 1.88 0 1.06.6 1.86 1.45 1.86h.01z" id="path218"/>
    <path class="st0" d="M63.96 45.83h.88v3.03h.02c.31-.54.87-.88 1.65-.88 1.2 0 2.04 1 2.04 2.46 0 1.74-1.1 2.6-2.18 2.6-.7 0-1.25-.27-1.62-.91h-.02l-.05.8h-.76c.03-.33.04-.82.04-1.25v-5.85zm.88 5.16c0 .11.01.22.03.32.17.6.7 1.03 1.32 1.03.93 0 1.47-.75 1.47-1.86 0-.98-.5-1.8-1.44-1.8-.6 0-1.16.41-1.33 1.07-.03.11-.05.23-.05.37v.87z" id="path220"/>
    <path class="st0" d="M69.65 49.6c0-.57 0-1.06-.04-1.5h.77l.04.94h.03c.22-.65.76-1.06 1.35-1.06l.24.02v.83l-.3-.02c-.62 0-1.06.47-1.18 1.12-.02.13-.03.27-.03.41v2.59h-.88V49.6z" id="path222"/>
    <path class="st0" d="M74.8 53.04c-1.3 0-2.33-.96-2.33-2.49 0-1.62 1.07-2.57 2.4-2.57 1.4 0 2.33 1.01 2.33 2.48 0 1.8-1.25 2.58-2.4 2.58zm.03-.66c.84 0 1.47-.79 1.47-1.89 0-.82-.4-1.85-1.45-1.85-1.03 0-1.48.96-1.48 1.88 0 1.06.6 1.86 1.45 1.86h.01z" id="path224"/>
    <path class="st0" d="M78.58 48.1l.95 2.7c.16.45.3.85.4 1.25h.02c.11-.4.25-.8.41-1.25l.94-2.7h.92l-1.9 4.83h-.84l-1.84-4.84h.94z" id="path226"/>
    <path class="st0" d="M84.92 53.04c-1.3 0-2.32-.96-2.32-2.49 0-1.62 1.07-2.57 2.4-2.57 1.4 0 2.33 1.01 2.33 2.48 0 1.8-1.25 2.58-2.4 2.58zm.04-.66c.84 0 1.47-.79 1.47-1.89 0-.82-.4-1.85-1.45-1.85-1.03 0-1.48.96-1.48 1.88 0 1.06.6 1.86 1.45 1.86h.01z" id="path228"/>
    <path class="st0" d="M88.44 45.83h.88v7.1h-.88v-7.1zm1.28 1.58c.15-.19.35-.47.35-.88 0-.26-.14-.5-.3-.65l.62-.14c.18.11.36.4.36.74 0 .73-.5 1.1-.65 1.23l-.38-.3z" id="path230"/>
    <path class="st0" d="M90.88 49.4c0-.5 0-.9-.04-1.3h.78l.05.78h.02c.24-.45.8-.9 1.6-.9.67 0 1.71.4 1.71 2.06v2.89h-.88v-2.79c0-.78-.29-1.44-1.12-1.44a1.27 1.27 0 00-1.24 1.31v2.92h-.88V49.4z" id="path232"/>
    <path class="st0" d="M98.21 46L97 47.43h-.62l.88-1.43h.96zm-1.78 6.93v-4.84h.88v4.84h-.88z" id="path234"/>
    <path class="st0" d="M99.65 50.31h.02l.42-.55 1.43-1.67h1.05l-1.87 2 2.13 2.84h-1.07l-1.66-2.32-.45.5v1.82h-.88v-7.1h.88v4.48z" id="path236"/>
    <path class="st0" d="M105.43 53.04c-1.3 0-2.32-.96-2.32-2.49 0-1.62 1.07-2.57 2.4-2.57 1.4 0 2.33 1.01 2.33 2.48 0 1.8-1.25 2.58-2.4 2.58zm.04-.66c.84 0 1.47-.79 1.47-1.89 0-.82-.4-1.85-1.45-1.85-1.03 0-1.48.96-1.48 1.88 0 1.06.6 1.86 1.45 1.86h.01z" id="path238"/>
    <path class="st0" d="M109.22 48.1l.95 2.7c.16.45.3.85.4 1.25h.02c.11-.4.25-.8.41-1.25l.94-2.7h.92l-1.9 4.83h-.84l-1.84-4.84h.94z" id="path240"/>
  </g>
  <a xlink:href="https://rovas.app/rewpro?paytype=project&amp;recipient=35384" id="a246">
    <path id="rect244" opacity=".01" fill="#fff" d="M174.37 24.98h141.96v14H174.37z"/>
  </a>
  <g id="g290">
    <path class="st1" d="M181.46 35.7c-2.38 0-3.8-1.82-3.8-4.12 0-2.42 1.56-4.23 3.94-4.23 2.48 0 3.83 1.86 3.83 4.09 0 2.66-1.6 4.26-3.96 4.26zm.1-1.46c1.23 0 1.94-1.16 1.94-2.74 0-1.45-.68-2.7-1.94-2.7-1.26 0-1.97 1.22-1.97 2.73 0 1.53.73 2.71 1.96 2.71z" id="path248"/>
    <path class="st1" d="M192.26 27.04v6.77c0 .66.03 1.36.05 1.75h-1.62l-.07-.85h-.04c-.36.65-1.08.98-1.83.98-1.4 0-2.5-1.18-2.5-3-.02-1.97 1.21-3.13 2.62-3.13.73 0 1.28.27 1.54.66h.03v-3.19h1.82zm-1.82 5.15c0-.1 0-.22-.03-.33-.1-.5-.5-.9-1.06-.9-.84 0-1.26.75-1.26 1.68 0 .98.49 1.6 1.25 1.6.52 0 .95-.36 1.06-.87.03-.12.04-.27.04-.41v-.77z" id="path250"/>
    <path class="st1" d="M193.73 31.57c0-.73-.02-1.34-.05-1.87h1.55l.07.8h.04c.25-.38.78-.93 1.77-.93.77 0 1.36.4 1.6 1h.03c.23-.3.48-.55.77-.72.32-.18.68-.28 1.12-.28 1.12 0 1.98.79 1.98 2.54v3.45h-1.78v-3.18c0-.85-.28-1.34-.86-1.34-.43 0-.72.29-.85.64a1.9 1.9 0 00-.06.45v3.43h-1.78v-3.28c0-.73-.26-1.24-.85-1.24-.47 0-.75.36-.85.65-.06.14-.08.31-.08.47v3.4h-1.77v-4z" id="path252"/>
    <path class="st1" d="M205.45 33.21c.06.76.8 1.12 1.66 1.12.62 0 1.12-.09 1.62-.25l.24 1.23c-.6.25-1.34.37-2.13.37-1.99 0-3.13-1.15-3.13-2.98 0-1.49.94-3.13 2.97-3.13 1.89 0 2.6 1.47 2.6 2.92 0 .32-.03.6-.05.72h-3.78zm2.15-1.24c0-.45-.2-1.2-1.02-1.2-.78 0-1.1.72-1.14 1.2h2.16z" id="path254"/>
    <path class="st1" d="M210.38 31.57c0-.73-.02-1.34-.04-1.87h1.58l.08.81h.04a2.1 2.1 0 011.81-.94c1.2 0 2.1.8 2.1 2.53v3.46h-1.82v-3.25c0-.75-.27-1.27-.93-1.27-.5 0-.8.35-.93.69-.05.12-.06.28-.06.45v3.38h-1.83v-4zm2.16-2.6l-1.18-1.83h1.18l.61 1.05h.03l.6-1.05h1.2l-1.2 1.83h-1.24z" id="path256"/>
    <path class="st1" d="M219.38 28.1v1.6h1.31v1.34h-1.3v2.13c0 .7.17 1.03.71 1.03.26 0 .38-.02.54-.05l.02 1.38c-.23.08-.68.15-1.18.15-.59 0-1.08-.2-1.38-.5-.34-.35-.5-.91-.5-1.74v-2.4h-.78V29.7h.78v-1.1l1.78-.5z" id="path258"/>
    <path class="st1" d="M223.1 33.21c.05.76.8 1.12 1.65 1.12.62 0 1.12-.09 1.62-.25l.24 1.23c-.6.25-1.33.37-2.13.37-1.99 0-3.13-1.15-3.13-2.98 0-1.49.94-3.13 2.97-3.13 1.89 0 2.61 1.47 2.61 2.92 0 .32-.04.6-.06.72h-3.78zm2.14-1.24c0-.45-.2-1.2-1.02-1.2-.78 0-1.1.72-1.14 1.2h2.16z" id="path260"/>
    <path class="st1" d="M231.35 28.98c-.58 0-.95-.4-.95-.91 0-.52.38-.91.97-.91s.95.4.96.9c0 .51-.37.92-.97.92h-.01zm-.9 6.58V29.7h1.82v5.86h-1.82z" id="path262"/>
    <path class="st1" d="M238.14 35.4c-.33.16-.94.28-1.63.28-1.9 0-3.1-1.16-3.1-3 0-1.7 1.17-3.1 3.35-3.1.48 0 1 .08 1.39.23l-.29 1.35a2.5 2.5 0 00-1.02-.18c-.96 0-1.58.69-1.57 1.63 0 1.08.72 1.65 1.6 1.65.44 0 .78-.07 1.05-.2l.22 1.35z" id="path264"/>
    <path class="st1" d="M239.15 27.04h1.82v3.37h.03a2.07 2.07 0 011.67-.84c1.16 0 2.04.8 2.04 2.58v3.41h-1.82v-3.22c0-.77-.26-1.3-.95-1.3a.96.96 0 00-.9.65c-.06.1-.07.26-.07.4v3.47h-1.82v-8.52z" id="path266"/>
    <path class="st1" d="M248.14 34.5l1.84-2.3c.34-.38.6-.68.94-1.03v-.02h-2.58V29.7h4.8v1.1l-1.77 2.22c-.32.37-.62.75-.96 1.07v.02h2.82v1.45h-5.1v-1.05z" id="path268"/>
    <path class="st1" d="M259.11 34.15c0 .55.03 1.09.1 1.41h-1.64l-.11-.58h-.04c-.38.46-.98.72-1.68.72-1.18 0-1.9-.87-1.9-1.8 0-1.53 1.38-2.25 3.45-2.25v-.07c0-.31-.17-.75-1.07-.75-.6 0-1.23.2-1.62.43l-.33-1.17a4.8 4.8 0 012.28-.52c1.95 0 2.56 1.15 2.56 2.53v2.05zm-1.76-1.36c-.96 0-1.7.23-1.7.93 0 .46.31.7.72.7a1 1 0 00.95-.68c.02-.1.03-.2.03-.31v-.64z" id="path270"/>
    <path class="st1" d="M263.9 28.98c-.58 0-.96-.4-.96-.91 0-.52.39-.91.98-.91.58 0 .94.4.96.9 0 .51-.38.92-.98.92zm-.9 6.58V29.7h1.82v5.86h-1.83z" id="path272"/>
    <path class="st1" d="M270.68 35.4c-.32.16-.93.28-1.63.28-1.9 0-3.1-1.16-3.1-3 0-1.7 1.17-3.1 3.35-3.1.48 0 1 .08 1.4.23l-.3 1.35a2.5 2.5 0 00-1.01-.18c-.96 0-1.59.69-1.57 1.63 0 1.08.72 1.65 1.6 1.65.43 0 .77-.07 1.05-.2l.21 1.35z" id="path274"/>
    <path class="st1" d="M271.7 27.04h1.81v3.37h.03a2.07 2.07 0 011.67-.84c1.16 0 2.05.8 2.05 2.58v3.41h-1.83v-3.22c0-.77-.26-1.3-.94-1.3a.96.96 0 00-.91.65c-.05.1-.07.26-.07.4v3.47h-1.82v-8.52z" id="path276"/>
    <path class="st1" d="M281.15 31.67c0-.77-.03-1.42-.05-1.97h1.58l.09.81h.02c.43-.6 1.1-.94 1.95-.94 1.29 0 2.44 1.11 2.44 2.98 0 2.14-1.36 3.15-2.66 3.15-.71 0-1.26-.3-1.53-.68h-.02v2.92h-1.82v-6.27zm1.82 1.38c0 .14.01.26.04.38.12.49.54.86 1.06.86.8 0 1.26-.66 1.26-1.65 0-.94-.42-1.65-1.23-1.65-.52 0-.97.39-1.1.93-.02.1-.03.21-.03.32v.8z" id="path278"/>
    <path class="st1" d="M288.32 31.63c0-.86 0-1.43-.04-1.93h1.55l.08 1.09h.04a1.71 1.71 0 011.97-1.19v1.72c-.14-.03-.29-.05-.49-.05-.67 0-1.13.35-1.25.92-.02.12-.03.26-.03.41v2.96h-1.83v-3.93z" id="path280"/>
    <path class="st1" d="M297.63 34.15c0 .55.03 1.09.1 1.41h-1.64l-.11-.58h-.04c-.38.46-.98.72-1.68.72-1.18 0-1.9-.87-1.9-1.8 0-1.53 1.37-2.25 3.45-2.25v-.07c0-.31-.17-.75-1.07-.75-.6 0-1.23.2-1.62.43l-.33-1.17a4.8 4.8 0 012.28-.52c1.95 0 2.56 1.15 2.56 2.53v2.05zm-1.76-1.36c-.96 0-1.7.23-1.7.93 0 .46.3.7.72.7.44 0 .82-.3.95-.68.02-.1.03-.2.03-.31v-.64zm1.21-5.64l-1.46 1.82h-1.25l1.03-1.83h1.68z" id="path282"/>
    <path class="st1" d="M303.49 35.4c-.33.16-.94.28-1.63.28-1.9 0-3.1-1.16-3.1-3 0-1.7 1.17-3.1 3.35-3.1.48 0 1 .08 1.4.23l-.3 1.35a2.5 2.5 0 00-1.02-.18c-.95 0-1.58.69-1.57 1.63 0 1.08.72 1.65 1.6 1.65.44 0 .78-.07 1.05-.2l.22 1.35z" id="path284"/>
    <path class="st1" d="M310.03 33.68c0 .77.02 1.4.05 1.88h-1.59l-.08-.82h-.04a2.1 2.1 0 01-1.83.96c-1.2 0-2.06-.75-2.06-2.56V29.7h1.82v3.15c0 .86.27 1.37.92 1.37.5 0 .8-.35.91-.63.05-.11.08-.24.08-.4v-3.5h1.82v4z" id="path286"/>
    <path class="st1" d="M312.36 35.7c-.64 0-1.07-.47-1.07-1.1 0-.64.45-1.09 1.08-1.09.64 0 1.06.45 1.07 1.1 0 .62-.42 1.08-1.07 1.08h-.01zm-.67-2.79l-.27-5.43h1.9l-.27 5.43h-1.36z" id="path288"/>
  </g>
</svg>
