<?xml version="1.0" encoding="UTF-8" standalone="no"?>
<svg width="360" height="60" version="1.1" id="svg8" sodipodi:docname="rovas_reklama.svg" inkscape:version="1.4 (e7c3feb100, 2024-10-09)" xmlns:inkscape="http://www.inkscape.org/namespaces/inkscape" xmlns:sodipodi="http://sodipodi.sourceforge.net/DTD/sodipodi-0.dtd" xmlns:xlink="http://www.w3.org/1999/xlink" xmlns="http://www.w3.org/2000/svg" xmlns:svg="http://www.w3.org/2000/svg">
  <style type="text/css" id="style1"><![CDATA[
  @font-face {
    font-family: 'Noto Sans';
    font-weight: normal;
    src: url('https://fonts.gstatic.com/s/notosans/v27/o-0IIpQlx3QUlC5A4PNb4j5Ba_2c7A.woff2') format('woff2');
  }
  @font-face {
    font-family: 'Noto Sans';
    font-weight: bold;
    src: url('https://fonts.gstatic.com/s/notosans/v27/o-0NIpQlx3QUlC5A4PNb4j5Ba-2Y7Bf2Vg.woff2') format('woff2');
  }
  text {
    font-family: 'Noto Sans', sans-serif;
  }
]]></style>
  <defs id="defs8" />
  <sodipodi:namedview id="namedview8" pagecolor="#ffffff" bordercolor="#666666" borderopacity="1.0" inkscape:showpageshadow="2" inkscape:pageopacity="0.0" inkscape:pagecheckerboard="0" inkscape:deskcolor="#d1d1d1" showgrid="false" inkscape:zoom="5.9335899" inkscape:cx="207.71574" inkscape:cy="30.082969" inkscape:window-width="3793" inkscape:window-height="2136" inkscape:window-x="0" inkscape:window-y="0" inkscape:window-maximized="1" inkscape:current-layer="svg8" />
  <rect style="fill:#ffffff;fill-rule:evenodd;stroke-width:1.00157;stroke-linejoin:bevel;paint-order:stroke markers fill;fill-opacity:1" id="rect1" width="360" height="60" x="0" y="0" />
  <path d="M 29.59,55.72 H 47.83 V 40.86 A 101.62,101.62 0 0 1 29.59,42.66 Z M 29.59,31.84 V 38.64 C 35.97,38.7 42.11,39.33 47.83,40.44 V 30.04 A 101.74,101.74 0 0 1 29.59,31.84 Z M 27.16,31.84 C 20.77,31.76 14.64,31.11 8.92,29.98 V 40.5 A 101.1,101.1 0 0 1 27.16,38.65 V 31.85 Z M 8.92,55.72 H 27.16 V 42.66 C 20.77,42.58 14.64,41.93 8.92,40.8 Z M 29.59,21.03 V 27.83 C 35.97,27.88 42.11,28.51 47.83,29.63 V 19.23 A 101.28,101.28 0 0 1 29.59,21.03 Z M 27.16,21.03 C 20.77,20.95 14.64,20.3 8.92,19.17 V 29.68 A 101.18,101.18 0 0 1 27.16,27.83 Z M 27.16,3.95 H 8.93 V 18.81 A 101.43,101.43 0 0 1 27.18,17.01 V 3.94 Z M 47.83,3.95 H 29.6 V 17.01 C 35.98,17.09 42.12,17.74 47.84,18.87 V 3.95 Z" id="path1" />
  <text font-weght="bold" font-size="17px" id="text2" x="127.11256" y="17.799999">Freemap tvoria dobrovoľníci</text>
  <text fill="#ed1e24" font-weght="bold" font-size="12px" id="text3" x="166.40002" y="37.299999">Odmeňte ich za ich prácu!</text>
  <text font-family="Verdana" font-size="8px" id="text4" x="137.45804" y="52.610001">vašou vlastnou dobrovoľníckou prácou alebo peniazmi</text>
  <text fill="#848383" font-weght="bold" font-size="18px" id="text5" x="52.099998" y="17.752378">Rovas</text>
  <text fill="#848383" font-weight="normal" font-size="10px" id="text6" x="52.099998" y="30.152376">ekonomický</text>
  <text fill="#848383" font-family="Verdana" font-size="10px" id="text7" x="52.099998" y="42.552399">program pre</text>
  <text fill="#848383" font-family="Verdana" font-size="10px" id="text8" x="52.099998" y="54.9524">dobrovoľníkov</text>
  <a xlink:href="https://rovas.app/freemap" id="a8" transform="translate(-26)">
    <path opacity="0.01" fill="#ffffff" d="M 170.27,23.56 H 360.27 V 41.56 H 170.27 Z" id="path8" />
  </a>
</svg>
