<?xml version="1.0" encoding="UTF-8" standalone="no"?>
<svg fill="#007cc3" role="img" viewBox="0 0 24 6.508028" version="1.1" id="svg1" width="24" height="6.508028" xmlns="http://www.w3.org/2000/svg" xmlns:svg="http://www.w3.org/2000/svg" xmlns:rdf="http://www.w3.org/1999/02/22-rdf-syntax-ns#" xmlns:cc="http://creativecommons.org/ns#" xmlns:dc="http://purl.org/dc/elements/1.1/">
  <defs id="defs1" />
  <title id="title1">Garmin</title>
  <path d="M 6.265,3.2780278 A 0.289,0.289 0 0 0 6.029,3.1320278 H 5.847 A 0.289,0.289 0 0 0 5.613,3.2780278 L 4.164,6.3030278 C 4.123,6.3820278 4.168,6.4410278 4.258,6.4410278 H 4.593 C 4.725,6.4410278 4.786,6.3800278 4.821,6.3070278 C 4.858,6.2340278 4.937,6.0730278 4.951,6.0410278 C 4.971,5.9960278 5.034,5.9700278 5.126,5.9700278 H 6.685 C 6.774,5.9700278 6.833,5.9860278 6.86,6.0410278 C 6.878,6.0760278 6.958,6.2200278 6.996,6.2970278 A 0.24,0.24 0 0 0 7.23,6.4390278 H 7.716 C 7.805,6.4390278 7.846,6.3700278 7.814,6.3070278 C 7.78,6.2460278 6.265,3.2780278 6.265,3.2780278 Z M 5.351,5.5020278 C 5.262,5.5020278 5.219,5.4350278 5.257,5.3540278 L 5.828,4.1320278 C 5.867,4.0510278 5.928,4.0510278 5.964,4.1320278 L 6.519,5.3540278 C 6.556,5.4350278 6.513,5.5020278 6.423,5.5020278 Z M 17.456,3.3010278 V 6.3020278 C 17.456,6.3850278 17.529,6.4400278 17.619,6.4400278 H 18.015 C 18.104,6.4400278 18.178,6.3830278 18.178,6.2940278 V 3.2960278 C 18.178,3.2070278 18.119,3.1330278 18.03,3.1330278 H 17.619 C 17.529,3.1320278 17.456,3.1870278 17.456,3.3010278 Z M 10.825,5.1810278 C 10.774,5.1080278 10.803,5.0270278 10.888,5.0000278 C 10.888,5.0000278 11.23,4.8980278 11.394,4.7500278 C 11.559,4.6040278 11.64,4.3900278 11.64,4.1140278 A 1,1 0 0 0 11.544,3.6570278 A 0.787,0.787 0 0 0 11.274,3.3540278 A 1.276,1.276 0 0 0 10.851,3.1830278 C 10.686,3.1480278 10.465,3.1360278 10.465,3.1360278 A 8.81,8.81 0 0 0 10.14,3.1280278 H 8.495 A 0.164,0.164 0 0 0 8.332,3.2910278 V 6.2890278 C 8.332,6.3780278 8.405,6.4350278 8.495,6.4350278 H 8.883 C 8.972,6.4350278 9.046,6.3780278 9.046,6.2890278 V 5.0960278 C 9.046,5.0960278 9.048,5.0960278 9.048,5.0940278 L 9.786,5.0920278 C 9.875,5.0920278 9.991,5.1530278 10.044,5.2260278 L 10.81,6.3030278 C 10.881,6.3990278 10.948,6.4350278 11.038,6.4350278 H 11.546 C 11.635,6.4350278 11.65,6.3500278 11.619,6.3070278 C 11.587,6.2690278 10.825,5.1810278 10.825,5.1810278 Z M 10.514,4.5710278 A 1.57,1.57 0 0 1 10.301,4.5990278 A 8.807,8.807 0 0 1 9.976,4.6050278 H 9.213 A 0.164,0.164 0 0 1 9.05,4.4420278 V 3.8340278 C 9.05,3.7450278 9.123,3.6710278 9.213,3.6710278 H 9.975 C 10.064,3.6710278 10.211,3.6750278 10.3,3.6770278 C 10.3,3.6770278 10.414,3.6810278 10.513,3.7050278 A 0.629,0.629 0 0 1 10.753,3.8030278 A 0.358,0.358 0 0 1 10.879,3.9510278 A 0.473,0.473 0 0 1 10.879,4.3250278 A 0.352,0.352 0 0 1 10.753,4.4730278 A 0.617,0.617 0 0 1 10.514,4.5710278 Z M 22.317,3.1320278 C 22.228,3.1320278 22.154,3.1910278 22.154,3.2780278 V 5.1970278 C 22.154,5.2860278 22.103,5.3070278 22.04,5.2440278 L 20.119,3.2520278 A 0.376,0.376 0 0 0 19.843,3.1340278 H 19.481 C 19.367,3.1340278 19.318,3.1950278 19.318,3.2560278 V 6.3240278 C 19.318,6.3850278 19.377,6.4440278 19.466,6.4440278 H 19.828 C 19.917,6.4440278 19.98,6.3950278 19.98,6.3120278 L 19.982,4.2910278 C 19.982,4.2020278 20.033,4.1810278 20.096,4.2460278 L 22.1,6.3280278 A 0.36,0.36 0 0 0 22.379,6.4440278 H 22.651 A 0.164,0.164 0 0 0 22.814,6.2810278 V 3.2950278 A 0.164,0.164 0 0 0 22.651,3.1320278 Z M 14.482,5.0020278 C 14.439,5.0810278 14.366,5.0790278 14.323,5.0020278 L 13.384,3.2780278 A 0.262,0.262 0 0 0 13.148,3.1320278 H 12.638 A 0.164,0.164 0 0 0 12.475,3.2950278 V 6.2910278 C 12.475,6.3800278 12.534,6.4410278 12.638,6.4410278 H 12.955 C 13.044,6.4410278 13.109,6.3840278 13.109,6.2990278 C 13.109,6.2580278 13.111,4.1200278 13.113,4.1200278 C 13.117,4.1200278 14.286,6.2970278 14.286,6.2970278 A 0.105,0.105 0 0 0 14.475,6.2970278 C 14.475,6.2970278 15.654,4.1240278 15.656,4.1240278 C 15.66,4.1240278 15.658,6.2340278 15.658,6.2970278 C 15.658,6.3840278 15.727,6.4390278 15.817,6.4390278 H 16.181 C 16.27,6.4390278 16.344,6.3940278 16.344,6.2760278 V 3.2940278 A 0.164,0.164 0 0 0 16.181,3.1310278 H 15.693 A 0.265,0.265 0 0 0 15.449,3.2730278 Z M 0,4.7830278 C 0,6.3990278 1.653,6.4800278 1.984,6.4800278 C 3.082,6.4800278 3.545,6.1830278 3.564,6.1710278 A 0.29,0.29 0 0 0 3.716,5.9070278 V 4.7910278 A 0.186,0.186 0 0 0 3.529,4.6040278 H 2.151 C 2.047,4.6040278 1.98,4.6870278 1.98,4.7910278 V 4.9070278 C 1.98,5.0110278 2.047,5.0940278 2.151,5.0940278 H 2.948 A 0.14,0.14 0 0 1 3.088,5.2340278 V 5.7540278 C 2.931,5.8190278 2.214,6.0280278 1.637,5.8900278 C 0.801,5.6910278 0.736,5.0000278 0.736,4.7940278 C 0.736,4.6210278 0.789,3.7510278 1.815,3.6640278 C 2.646,3.5930278 3.193,3.9280278 3.199,3.9320278 C 3.297,3.9830278 3.398,3.9460278 3.453,3.8430278 L 3.557,3.6340278 C 3.6,3.5490278 3.585,3.4590278 3.48,3.3880278 C 3.474,3.3840278 2.89,3.0690278 1.986,3.0690278 C 0.055,3.0670278 0,4.6080278 0,4.7830278 Z M 22.134,2.3050278 H 19.969 C 19.89,2.3050278 19.821,2.2660278 19.782,2.1970278 C 19.743,2.1280278 19.743,2.0510278 19.782,1.9820278 L 20.866,0.10802785 A 0.21,0.21 0 0 1 21.053,2.7847591e-5 A 0.21,0.21 0 0 1 21.24,0.10802785 L 22.324,1.9820278 A 0.203,0.203 0 0 1 22.324,2.1970278 A 0.22,0.22 0 0 1 22.134,2.3050278 Z M 23.622,5.7520278 C 23.829,5.7520278 24,5.9210278 24,6.1300278 A 0.379,0.379 0 0 1 23.622,6.5080278 A 0.379,0.379 0 0 1 23.244,6.1300278 A 0.38,0.38 0 0 1 23.622,5.7520278 Z M 23.624,6.4520278 C 23.797,6.4520278 23.929,6.3120278 23.929,6.1310278 C 23.929,5.9500278 23.799,5.8100278 23.624,5.8100278 C 23.449,5.8100278 23.317,5.9500278 23.317,6.1310278 C 23.317,6.3110278 23.447,6.4520278 23.624,6.4520278 Z M 23.478,5.9090278 H 23.647 C 23.749,5.9090278 23.799,5.9500278 23.799,6.0330278 C 23.799,6.1040278 23.754,6.1550278 23.685,6.1550278 L 23.811,6.3500278 H 23.734 L 23.61,6.1550278 H 23.549 V 6.3500278 H 23.476 V 5.9090278 Z M 23.551,6.0980278 H 23.636 C 23.691,6.0980278 23.727,6.0860278 23.727,6.0290278 C 23.727,5.9780278 23.682,5.9640278 23.636,5.9640278 H 23.551 Z" id="path1" />
  <metadata id="metadata1">
    <rdf:RDF>
      <cc:Work rdf:about="">
        <dc:title>Garmin</dc:title>
      </cc:Work>
    </rdf:RDF>
  </metadata>
</svg>
