<?xml version="1.0" encoding="UTF-8" standalone="no"?>
<!-- Created with Inkscape (http://www.inkscape.org/) -->

<svg version="1.0" width="497.63358" height="497.63358" id="svg2" sodipodi:version="0.32" inkscape:version="1.1.1 (3bf5ae0d25, 2021-09-20)" sodipodi:docname="nursery.svg" inkscape:output_extension="org.inkscape.output.svg.inkscape" xmlns:inkscape="http://www.inkscape.org/namespaces/inkscape" xmlns:sodipodi="http://sodipodi.sourceforge.net/DTD/sodipodi-0.dtd" xmlns="http://www.w3.org/2000/svg" xmlns:svg="http://www.w3.org/2000/svg" xmlns:rdf="http://www.w3.org/1999/02/22-rdf-syntax-ns#" xmlns:cc="http://creativecommons.org/ns#" xmlns:dc="http://purl.org/dc/elements/1.1/">
  <defs id="defs22">
    <inkscape:perspective sodipodi:type="inkscape:persp3d" inkscape:vp_x="599.81824 : 452.98035 : 1" inkscape:vp_y="0 : -1000 : 0" inkscape:vp_z="79.922314 : 433.88846 : 1" inkscape:persp3d-origin="295.6761 : 594.19475 : 1" id="perspective24" />
    <marker viewBox="0 0 10 10" refY="5" refX="10" orient="auto" markerWidth="4" markerUnits="strokeWidth" markerHeight="3" id="ArrowStart">
      <path id="path3568" d="M 10,0 L 0,5 L 10,10 Z" />
    </marker>
    <marker viewBox="0 0 10 10" refY="5" refX="0" orient="auto" markerWidth="4" markerUnits="strokeWidth" markerHeight="3" id="ArrowEnd">
      <path id="path3565" d="M 0,0 L 10,5 L 0,10 Z" />
    </marker>
    <inkscape:perspective id="perspective2683" inkscape:persp3d-origin="306.082 : 122.02392 : 1" inkscape:vp_z="612.164 : 224.21909 : 1" inkscape:vp_y="0 : 1000 : 0" inkscape:vp_x="0 : 224.21909 : 1" sodipodi:type="inkscape:persp3d" />
    <marker viewBox="0 0 10 10" refY="5" refX="10" orient="auto" markerWidth="4" markerUnits="strokeWidth" markerHeight="3" id="marker2959">
      <path id="path2626" d="M 10,0 L 0,5 L 10,10 Z" />
    </marker>
    <marker viewBox="0 0 10 10" refY="5" refX="0" orient="auto" markerWidth="4" markerUnits="strokeWidth" markerHeight="3" id="marker2956">
      <path id="path2623" d="M 0,0 L 10,5 L 0,10 Z" />
    </marker>
    <inkscape:perspective id="perspective2953" inkscape:persp3d-origin="306.082 : 122.02392 : 1" inkscape:vp_z="612.164 : 224.21909 : 1" inkscape:vp_y="0 : 1000 : 0" inkscape:vp_x="0 : 224.21909 : 1" sodipodi:type="inkscape:persp3d" />
    <inkscape:perspective id="perspective3927" inkscape:persp3d-origin="0.5 : -82.033091 : 1" inkscape:vp_z="1 : -81.866425 : 1" inkscape:vp_y="0 : 1000 : 0" inkscape:vp_x="0 : -81.866425 : 1" sodipodi:type="inkscape:persp3d" />
    <inkscape:perspective id="perspective4081" inkscape:persp3d-origin="0.5 : -82.033091 : 1" inkscape:vp_z="1 : -81.866425 : 1" inkscape:vp_y="0 : 1000 : 0" inkscape:vp_x="0 : -81.866425 : 1" sodipodi:type="inkscape:persp3d" />
    <inkscape:perspective id="perspective4103" inkscape:persp3d-origin="0.5 : -82.033091 : 1" inkscape:vp_z="1 : -81.866425 : 1" inkscape:vp_y="0 : 1000 : 0" inkscape:vp_x="0 : -81.866425 : 1" sodipodi:type="inkscape:persp3d" />
    <inkscape:perspective id="perspective4139" inkscape:persp3d-origin="0.5 : -82.033091 : 1" inkscape:vp_z="1 : -81.866425 : 1" inkscape:vp_y="0 : 1000 : 0" inkscape:vp_x="0 : -81.866425 : 1" sodipodi:type="inkscape:persp3d" />
    <inkscape:perspective id="perspective2991" inkscape:persp3d-origin="0.5 : -82.033091 : 1" inkscape:vp_z="1 : -81.866425 : 1" inkscape:vp_y="0 : 1000 : 0" inkscape:vp_x="0 : -81.866425 : 1" sodipodi:type="inkscape:persp3d" />
  </defs>
  <metadata id="metadata10">
    <rdf:RDF>
      <cc:Work rdf:about="">
        <dc:format>image/svg+xml</dc:format>
        <dc:type rdf:resource="http://purl.org/dc/dcmitype/StillImage" />
        <cc:license rdf:resource="http://web.resource.org/cc/PublicDomain" />
        <dc:language>en</dc:language>
      </cc:Work>
    </rdf:RDF>
  </metadata>
  <sodipodi:namedview inkscape:window-height="1062" inkscape:window-width="1883" inkscape:pageshadow="2" inkscape:pageopacity="0.0" guidetolerance="10.0" gridtolerance="10.0" objecttolerance="10.0" borderopacity="1.0" bordercolor="#666666" pagecolor="#ffffff" id="base" showgrid="false" inkscape:zoom="0.7071068" inkscape:cx="72.12489" inkscape:cy="344.36099" inkscape:window-x="0" inkscape:window-y="0" inkscape:current-layer="svg2" inkscape:window-maximized="1" inkscape:pagecheckerboard="0" fit-margin-top="0" fit-margin-left="0" fit-margin-right="0" fit-margin-bottom="0" />
  <g id="g1301" transform="translate(10.751746)">
    <g id="g2319" transform="translate(825.97529,-10.211312)">
      <path id="path2323" style="fill:#000000;stroke:none" d="" />
    </g>
    <g id="g2325" transform="translate(825.97529,-10.211312)">
      <path id="path2329" style="fill:#000000;stroke:none" d="" />
    </g>
    <path style="fill:none;stroke:#000000;stroke-width:30.4472;stroke-linecap:round;stroke-linejoin:round;stroke-miterlimit:4;stroke-dasharray:none;stroke-opacity:1" d="M 15.248134,103.49403 L 264.98915,185.30571 L 260.68328,481.33491 L 32.471669,376.91737 Z" id="path3933" sodipodi:nodetypes="ccccc" />
    <path style="fill:none;stroke:#000000;stroke-width:30.4472;stroke-linecap:round;stroke-linejoin:round;stroke-miterlimit:4;stroke-dasharray:none;stroke-opacity:1" d="M 460.90667,84.117579 L 264.98915,185.30571 L 261.75974,482.4114 L 441.53023,358.61736 Z" id="path3935" />
    <path style="fill:none;stroke:#000000;stroke-width:30.4472;stroke-linecap:round;stroke-linejoin:round;stroke-miterlimit:4;stroke-dasharray:none;stroke-opacity:1" d="M 219.77743,15.223494 L 17.670223,101.07199 L 264.98915,184.22925 L 458.75372,82.233709 Z" id="path3937" sodipodi:nodetypes="ccccc" />
    <path style="color:#000000;font-style:normal;font-variant:normal;font-weight:normal;font-stretch:normal;font-size:medium;line-height:normal;font-family:'Bitstream Charter';-inkscape-font-specification:'Bitstream Charter';text-indent:0;text-align:start;text-decoration:none;text-decoration-line:none;letter-spacing:normal;word-spacing:normal;text-transform:none;writing-mode:lr-tb;direction:ltr;text-anchor:start;display:inline;overflow:visible;visibility:visible;opacity:0.9;fill:#000000;fill-opacity:1;fill-rule:nonzero;stroke:none;stroke-width:16.5202;marker:none;enable-background:accumulate" d="M 15.521898,88.291019 C 11.326651,88.208819 7.1349797,89.925109 4.2333537,92.956189 C 1.3317097,95.987269 -0.23615328,100.28744 0.02894772,104.47511 L 17.249736,377.87672 C 17.590825,383.34731 21.13364,388.50047 26.119306,390.77792 L 254.36675,495.19694 C 258.95039,497.28699 264.56776,496.91435 268.82299,494.21784 C 273.07823,491.52134 275.83995,486.58424 275.90713,481.54702 L 280.22673,185.51073 C 280.31903,179.07384 275.86194,172.82885 269.74451,170.8241 L 20.014277,89.039749 C 18.565547,88.567239 17.045565,88.313909 15.521898,88.291019 Z M 84.405049,191.21259 C 89.136579,191.10535 95.019339,191.95594 102.0866,193.74676 C 111.5095,196.13471 121.78764,199.78087 132.84212,204.74733 C 150.58727,212.72015 164.83243,220.27716 175.69251,227.38201 C 186.55231,234.48716 195.74118,243.22661 203.22273,253.64515 C 208.47658,260.89168 212.76906,269.69997 216.06633,280.13867 C 219.36325,290.5775 221.18484,300.00092 221.53782,308.30244 L 224.82071,386.11275 C 225.17328,394.41426 225.94553,401.21028 227.0669,406.32846 C 228.18783,411.44653 230.44948,418.30525 233.86306,427.00493 L 178.28427,402.06646 C 175.86098,396.5261 174.2837,392.42588 173.50391,389.74121 C 172.72385,387.05624 171.86478,382.98545 170.96975,377.58875 C 163.57436,382.62637 156.12824,385.21074 148.62304,385.42162 C 138.35732,385.58657 126.32005,382.60934 112.45363,376.37926 C 94.029529,368.1016 79.798879,356.94863 69.833619,342.9168 C 59.868269,328.88489 54.601819,314.69074 53.995099,300.41197 C 53.425969,287.01875 56.404359,277.5583 62.922259,272.01783 C 69.440129,266.47749 81.843649,265.77174 100.18598,269.88683 C 122.17538,274.77201 136.41424,277.66888 142.92118,278.58362 C 149.42793,279.49851 156.31143,279.97554 163.54005,279.96589 C 163.18718,271.66439 161.44596,265.17015 158.29894,260.49891 C 155.15167,255.82779 149.79351,251.80234 142.23004,248.40404 C 132.53312,244.04746 125.32994,242.54808 120.63206,243.91166 C 116.96779,244.97984 114.11071,248.7812 112.10806,255.37299 L 55.262179,223.12001 C 56.915709,212.78846 59.576379,205.32548 63.325429,200.65811 C 67.074479,195.99107 72.666519,192.97727 80.027859,191.61576 C 81.348959,191.36792 82.827879,191.24835 84.405049,191.21259 Z M 125.41241,310.14546 C 121.6832,310.23816 119.04663,310.82115 117.52195,311.8733 C 114.38016,314.04474 112.94714,317.47629 113.14476,322.12514 C 113.37044,327.43817 115.16666,332.4947 118.55866,337.33012 C 121.95047,342.16563 126.76945,346.01719 133.0725,348.84904 C 139.6663,351.81158 145.75483,352.71757 151.27239,351.61358 C 156.78974,350.50935 160.58127,347.85576 162.73372,343.66553 C 164.88592,339.4752 165.79803,333.18679 165.44067,324.77449 L 164.97991,314.0043 C 156.97555,313.66533 148.6421,312.71608 139.92626,311.29735 C 133.99176,310.42258 129.14163,310.05274 125.41241,310.14546 Z" id="path4040" />
    <path style="color:#000000;font-style:normal;font-variant:normal;font-weight:normal;font-stretch:normal;font-size:medium;line-height:normal;font-family:'Bitstream Charter';-inkscape-font-specification:'Bitstream Charter';text-indent:0;text-align:start;text-decoration:none;text-decoration-line:none;letter-spacing:normal;word-spacing:normal;text-transform:none;writing-mode:lr-tb;direction:ltr;text-anchor:start;display:inline;overflow:visible;visibility:visible;opacity:0.6;fill:#000000;fill-opacity:1;fill-rule:nonzero;stroke:none;stroke-width:30.4472;marker:none;enable-background:accumulate" d="M 459.99654,68.921069 C 457.89013,69.045069 455.81091,69.613109 453.93404,70.577319 L 257.99654,171.76482 C 253.11544,174.29453 249.82926,179.64238 249.77779,185.13982 L 246.52779,482.23357 C 246.45839,487.78427 249.69099,493.2486 254.59029,495.85857 C 259.4896,498.46854 265.83486,498.10654 270.40279,494.95232 L 450.15279,371.17107 C 453.90733,368.5903 456.39267,364.24686 456.71529,359.70232 L 476.09029,85.202319 C 476.39749,80.895359 474.78202,76.491919 471.74654,73.421069 C 468.71106,70.350219 464.30677,68.663779 459.99654,68.921069 Z M 408.24654,222.51482 C 408.93498,222.5134 409.59904,222.52936 410.24654,222.57732 C 420.60629,223.34511 427.46165,229.1893 430.71529,240.20232 L 384.02779,272.38982 C 383.02418,268.07333 380.74384,265.69375 377.15279,265.26482 C 373.56148,264.83622 368.54781,266.49879 362.12154,270.17107 C 354.00819,274.80765 347.20752,281.25636 341.71529,289.60857 C 336.22291,297.96105 332.98415,307.70964 332.02779,318.82732 C 331.17538,328.73509 333.02095,334.84315 337.55904,337.13982 C 342.09697,339.43668 348.25356,338.39056 355.96529,333.98357 C 362.39154,330.31123 367.91423,325.64887 372.55904,320.04607 C 377.20365,314.44342 380.89952,307.80802 383.62154,300.13982 L 429.77779,278.48357 C 426.41982,289.10405 421.53001,299.47046 415.09029,309.51482 C 408.65029,319.55934 400.74512,329.03614 391.30904,337.95232 C 381.87273,346.86851 370.11661,355.32519 356.05904,363.35857 C 342.48328,371.11663 331.29737,376.3579 322.46529,379.13982 C 313.63313,381.92183 306.16949,382.5348 300.12154,380.92107 C 294.07349,379.30749 289.51108,375.96318 286.43404,370.88982 C 283.35697,365.81655 282.31877,357.32649 283.34029,345.45232 C 284.40732,333.04888 287.53888,321.45443 292.74654,310.63982 C 296.56052,302.70735 301.53621,294.70177 307.65279,286.63982 C 313.76933,278.57802 319.95759,271.64617 326.18404,265.85857 C 336.062,256.69003 348.46143,247.83463 363.40279,239.29607 C 382.98301,228.1068 397.9199,222.53608 408.24654,222.51482 Z" id="path4042" />
    <path style="color:#000000;font-style:normal;font-variant:normal;font-weight:normal;font-stretch:normal;font-size:medium;line-height:normal;font-family:'Bitstream Charter';-inkscape-font-specification:'Bitstream Charter';text-indent:0;text-align:start;text-decoration:none;text-decoration-line:none;letter-spacing:normal;word-spacing:normal;text-transform:none;writing-mode:lr-tb;direction:ltr;text-anchor:start;display:inline;overflow:visible;visibility:visible;opacity:0.75;fill:#000000;fill-opacity:1;fill-rule:nonzero;stroke:none;stroke-width:30.4472;marker:none;enable-background:accumulate" d="M 219.37154,0.01481861 C 217.47533,0.06148861 215.58856,0.46655561 213.84029,1.2023186 L 11.715289,87.046069 C 6.0572927,89.432849 2.1982867,95.534779 2.4340387,101.67107 C 2.6697907,107.80736 6.9845947,113.56919 12.809039,115.51482 L 260.15279,198.67107 C 264.04335,199.97448 268.46081,199.616 272.09029,197.70232 L 465.84029,95.702319 C 471.18829,92.884829 474.50607,86.651209 473.87154,80.639819 C 473.237,74.628439 468.68993,69.216139 462.87154,67.577319 L 223.90279,0.57731861 C 222.43202,0.16389161 220.89876,-0.02644539 219.37154,0.01481861 Z M 261.84029,64.233569 C 262.99107,64.239279 264.16138,64.267939 265.34029,64.296069 C 284.20281,64.746279 304.12817,68.609499 325.12154,75.921069 C 339.11703,80.795589 349.70395,85.880089 356.87154,91.171069 C 364.03893,96.462159 367.17687,101.42039 366.27779,106.04607 C 365.37841,110.67181 361.17433,114.70522 353.65279,118.10857 C 347.21421,121.02191 339.45813,123.03654 330.40279,124.17107 C 323.47564,124.98682 313.65068,125.07478 300.93404,124.45232 L 319.90279,131.04607 L 285.49654,146.60857 L 108.62154,85.014819 L 145.71529,68.233569 L 207.02779,89.577319 C 205.55066,86.123629 205.8446,82.896409 207.93404,79.889819 C 210.02357,76.883269 213.90285,74.105519 219.55904,71.546069 C 230.50308,66.594219 244.57854,64.147849 261.84029,64.233569 Z M 259.90279,87.014819 C 253.57594,86.967589 248.56699,87.777279 244.93404,89.421069 C 239.9397,91.680949 238.334,94.362599 240.12154,97.514819 C 241.90924,100.66714 247.84856,104.01313 257.90279,107.51482 C 268.92228,111.35276 278.45095,113.41295 286.49654,113.73357 C 294.54216,114.05431 300.93037,113.16579 305.68404,111.01482 C 310.07666,109.02727 311.32172,106.49497 309.43404,103.45232 C 307.54632,100.40979 300.8736,96.895869 289.37154,92.889819 C 279.23682,89.360109 270.34805,87.440939 262.68404,87.108569 C 261.72604,87.067039 260.80663,87.021569 259.90279,87.014819 Z" id="path4044" />
  </g>
</svg>
