<?xml version="1.0" encoding="UTF-8" standalone="no"?>
<!-- Created with Inkscape (http://www.inkscape.org/) -->

<svg version="1.0" width="477.38617" height="477.38617" id="svg2" sodipodi:version="0.32" inkscape:version="1.1.1 (3bf5ae0d25, 2021-09-20)" sodipodi:docname="school.svg" inkscape:output_extension="org.inkscape.output.svg.inkscape" xmlns:inkscape="http://www.inkscape.org/namespaces/inkscape" xmlns:sodipodi="http://sodipodi.sourceforge.net/DTD/sodipodi-0.dtd" xmlns="http://www.w3.org/2000/svg" xmlns:svg="http://www.w3.org/2000/svg" xmlns:rdf="http://www.w3.org/1999/02/22-rdf-syntax-ns#" xmlns:cc="http://creativecommons.org/ns#" xmlns:dc="http://purl.org/dc/elements/1.1/">
  <g id="g1037" transform="translate(9.5565081)">
    <path id="path3526" style="opacity:0.75;fill:none;fill-rule:evenodd;stroke:#000000;stroke-width:30.7868;stroke-linecap:round;stroke-linejoin:miter;stroke-miterlimit:4;stroke-dasharray:none;stroke-opacity:1" d="M 46.533193,461.99275 L 91.370683,353.43881 L 158.63881,314.64378 L 160.27408,167.5162 L 178.78463,127.27872 L 226.0416,15.393417 M 408.71015,461.99275 L 374.81031,379.91944 L 266.70719,204.63526 L 270.84902,113.69738 L 229.20174,15.393417" sodipodi:nodetypes="ccccccccccc" />
    <path style="fill:#000000;fill-opacity:1;stroke:none;stroke-width:20;stroke-linecap:round;stroke-linejoin:round;stroke-miterlimit:4;stroke-dasharray:none;stroke-dashoffset:0;stroke-opacity:1" d="M 10.248537,103.11538 V 377.1182 H 447.99883 V 103.11538 Z M 80.224443,128.99556 C 92.485593,128.99566 102.32333,129.70667 109.76056,131.08009 C 117.19759,132.45371 123.40274,135.31977 128.36094,139.67475 C 131.84489,142.6899 134.59267,146.94301 136.60283,152.47053 C 138.61275,157.99821 139.61725,163.2879 139.61738,168.31292 V 215.42318 C 139.61725,220.44829 139.94282,224.40935 140.57946,227.25688 C 141.21586,230.10445 142.60435,233.73842 144.74851,238.16055 H 106.36118 C 104.82005,235.41345 103.81555,233.31542 103.34663,231.87491 C 102.87753,230.43428 102.4045,228.15826 101.93558,225.07614 C 96.575423,230.23525 91.225853,233.92916 85.932833,236.14016 C 78.696643,239.08819 70.307253,240.56577 60.726123,240.56577 C 47.995853,240.56577 38.334783,237.61064 31.735182,231.71456 C 25.135552,225.81841 21.825662,218.55039 21.82567,209.90721 C 21.82566,201.80009 24.220098,195.12191 28.977195,189.89577 C 33.734264,184.66973 42.509083,180.8006 55.306353,178.2545 C 70.649583,175.1725 80.574953,173.01603 85.131093,171.77644 C 89.687103,170.53698 94.534393,168.91196 99.626563,166.90185 C 99.626483,161.87685 98.592763,158.36107 96.515813,156.35095 C 94.438673,154.341 90.774023,153.33649 85.548003,153.3364 C 78.847833,153.33648 73.825293,154.39941 70.475273,156.54337 C 67.862183,158.21848 65.733483,161.38089 64.125493,166.00391 L 25.032632,161.86692 C 26.506645,155.03288 28.633921,149.65558 31.414486,145.73591 C 34.195019,141.81644 38.214473,138.41891 43.440593,135.53777 C 47.192623,133.46084 52.331993,131.86644 58.898153,130.72733 C 65.464223,129.58841 72.586253,128.99567 80.224443,128.99556 Z M 361.18637,128.99556 C 378.6066,128.99567 391.87106,132.12888 401.01684,138.35989 C 410.16239,144.5911 416.60549,153.69007 420.29068,165.68321 L 381.77507,170.81435 C 380.56896,166.25833 378.38326,162.83162 375.2008,160.52 C 372.01815,158.20855 367.73297,157.05657 362.37295,157.05648 C 355.60577,157.05656 350.14081,159.47877 345.9533,164.33628 C 341.76567,169.19394 339.66761,176.55106 339.66766,186.40018 C 339.6676,195.17738 341.73503,201.82352 345.88917,206.37955 C 350.04319,210.93567 355.36351,213.24248 361.7957,213.24245 C 367.1557,213.24248 371.64536,211.85255 375.297,209.10547 C 378.94848,206.35844 381.69771,202.13312 383.50682,196.43798 L 422.37521,200.86358 C 420.23104,208.97076 416.71527,216.00373 411.8243,221.93332 C 406.9331,227.86291 400.70017,232.47222 393.09564,235.75533 C 385.49091,239.03833 375.82984,240.66198 364.10471,240.66198 C 352.78145,240.66198 343.35689,239.59763 335.8193,237.48708 C 328.28163,235.37655 321.78012,231.9805 316.35305,227.25688 C 310.92591,222.53332 306.67137,216.97788 303.58933,210.61275 C 300.50726,204.24766 298.9713,195.79698 298.97132,185.27774 C 298.97132,174.2896 300.83141,165.16143 304.58349,157.85822 C 307.33051,152.49822 311.08282,147.68156 315.83993,143.4269 C 320.597,139.17239 325.50269,136.01143 330.52781,133.93429 C 338.50091,130.65133 348.72409,128.99567 361.18637,128.99556 Z M 99.626563,187.49055 C 93.998383,189.50063 88.117373,191.27312 82.020343,192.8141 C 73.712133,195.0252 68.453083,197.21231 66.242093,199.35631 C 63.963983,201.56739 62.842663,204.07865 62.842713,206.89267 C 62.842673,210.10876 63.965423,212.73829 66.210023,214.78179 C 68.454503,216.82535 71.732323,217.8605 76.087463,217.86048 C 80.643483,217.8605 84.899453,216.7363 88.819103,214.52524 C 92.738583,212.31423 95.515593,209.62628 97.157203,206.4437 C 98.798653,203.26117 99.626483,199.12489 99.626563,194.03275 Z M 177.42745,208.43201 H 218.73313 V 259.48684 C 222.82015,255.19887 227.45869,251.97803 232.65134,249.83389 C 237.84388,247.68994 243.57453,246.62704 249.87273,246.62692 C 262.87087,246.62704 273.62549,251.29478 282.13476,260.64135 C 290.64379,269.98809 294.89834,283.40147 294.89847,300.88872 C 294.89834,312.54697 292.94774,322.83 289.0618,331.70762 C 285.1756,340.5853 279.79829,347.20212 272.93078,351.59079 C 266.06304,355.97936 258.4402,358.19713 250.06514,358.19713 C 242.89593,358.19713 236.33743,356.62911 230.3744,353.54704 C 225.88526,351.13509 221.01161,346.61477 215.71858,339.98159 V 355.75984 H 177.42745 Z M 237.30144,277.18927 C 231.74029,277.18934 227.22143,279.22615 223.70391,283.34664 C 220.18632,287.46728 218.41238,293.73227 218.41243,302.10737 C 218.41238,311.28658 220.15709,317.93414 223.60771,322.05467 C 227.05822,326.17527 231.39895,328.24414 236.69211,328.24411 C 241.58312,328.24414 245.6902,326.20448 249.00684,322.15088 C 252.32332,318.09734 254.00962,311.27168 254.00971,301.69046 C 254.00963,293.24835 252.38459,287.07529 249.13512,283.12216 C 245.88548,279.16916 241.92445,277.18935 237.30144,277.18927 Z" id="rect3530" />
    <rect y="103.11709" x="10.262279" height="273.98654" width="437.7486" id="rect3544" style="fill:none;fill-opacity:1;stroke:#000000;stroke-width:20.5246;stroke-linecap:round;stroke-linejoin:round;stroke-miterlimit:4;stroke-dasharray:none;stroke-dashoffset:0;stroke-opacity:1" />
  </g>
  <metadata id="metadata2975">
    <rdf:RDF>
      <cc:Work rdf:about="">
        <dc:format>image/svg+xml</dc:format>
        <dc:type rdf:resource="http://purl.org/dc/dcmitype/StillImage" />
        <cc:license rdf:resource="http://web.resource.org/cc/PublicDomain" />
        <dc:language>en</dc:language>
      </cc:Work>
    </rdf:RDF>
  </metadata>
  <sodipodi:namedview inkscape:window-height="1062" inkscape:window-width="1883" inkscape:pageshadow="2" inkscape:pageopacity="0.0" guidetolerance="10.0" gridtolerance="10.0" objecttolerance="10.0" borderopacity="1.0" bordercolor="#666666" pagecolor="#ffffff" id="base" inkscape:zoom="0.32586207" inkscape:cx="67.513227" inkscape:cy="-191.79894" inkscape:window-x="0" inkscape:window-y="0" inkscape:current-layer="svg2" showgrid="false" inkscape:pagecheckerboard="0" fit-margin-top="0" fit-margin-left="0" fit-margin-right="0" fit-margin-bottom="0" inkscape:window-maximized="1" />
  <defs id="defs4">
    <inkscape:perspective sodipodi:type="inkscape:persp3d" inkscape:vp_x="0 : 187.38617 : 1" inkscape:vp_y="0 : 1000 : 0" inkscape:vp_z="580 : 187.38617 : 1" inkscape:persp3d-origin="290 : 90.719499 : 1" id="perspective2441" />
    <inkscape:perspective id="perspective3452" inkscape:persp3d-origin="30 : -82.613831 : 1" inkscape:vp_z="60 : -72.613831 : 1" inkscape:vp_y="0 : 1000 : 0" inkscape:vp_x="0 : -72.613831 : 1" sodipodi:type="inkscape:persp3d" />
    <symbol viewBox="244.5 110 489 219.9" id="symbol-university">
      <path id="path4460" d="M 79,43 L 136,162 C 136,162 157,66 240,66 C 323,66 364,172 364,172 L 407,39 L 489,22 L 0,17 Z" />
      <path id="path4462" d="M 94,176 L 73,215" stroke-width="20" stroke="#000000" fill="none" />
      <path id="path4464" d="M 300,19 C 300,29.5 277.4,38 249.5,38 C 221.6,38 199,29.5 199,19 C 199,8.5 221.6,0 249.5,0 C 277.4,0 300,8.5 300,19 Z" />
      <path id="path4466" d="M 112,216 L 96,178 L 64,88 C 64,88 55,80 60,53 C 65,26 76,29 76,29" stroke-width="20" stroke="#000000" ill="none" />
    </symbol>
    <inkscape:perspective id="perspective4471" inkscape:persp3d-origin="372.04724 : 248.17356 : 1" inkscape:vp_z="744.09448 : 423.56726 : 1" inkscape:vp_y="0 : 1000 : 0" inkscape:vp_x="0 : 423.56726 : 1" sodipodi:type="inkscape:persp3d" />
    <inkscape:perspective id="perspective4668" inkscape:persp3d-origin="6 : -98.613831 : 1" inkscape:vp_z="12 : -96.613831 : 1" inkscape:vp_y="0 : 1000 : 0" inkscape:vp_x="0 : -96.613831 : 1" sodipodi:type="inkscape:persp3d" />
    <marker viewBox="0 0 10 10" refY="5" refX="10" orient="auto" markerWidth="4" markerUnits="strokeWidth" markerHeight="3" id="ArrowStart">
      <path id="path3634" d="M 10,0 L 0,5 L 10,10 Z" />
    </marker>
    <marker viewBox="0 0 10 10" refY="5" refX="0" orient="auto" markerWidth="4" markerUnits="strokeWidth" markerHeight="3" id="ArrowEnd">
      <path id="path3631" d="M 0,0 L 10,5 L 0,10 Z" />
    </marker>
    <inkscape:perspective id="perspective2510" inkscape:persp3d-origin="306.082 : 101.77651 : 1" inkscape:vp_z="612.164 : 203.97168 : 1" inkscape:vp_y="0 : 1000 : 0" inkscape:vp_x="0 : 203.97168 : 1" sodipodi:type="inkscape:persp3d" />
    <marker viewBox="0 0 10 10" refY="5" refX="10" orient="auto" markerWidth="4" markerUnits="strokeWidth" markerHeight="3" id="marker2611">
      <path id="path1325" d="M 10,0 L 0,5 L 10,10 Z" />
    </marker>
    <marker viewBox="0 0 10 10" refY="5" refX="0" orient="auto" markerWidth="4" markerUnits="strokeWidth" markerHeight="3" id="marker2608">
      <path id="path1322" d="M 0,0 L 10,5 L 0,10 Z" />
    </marker>
    <inkscape:perspective id="perspective2605" inkscape:persp3d-origin="306.082 : 101.77651 : 1" inkscape:vp_z="612.164 : 203.97168 : 1" inkscape:vp_y="0 : 1000 : 0" inkscape:vp_x="0 : 203.97168 : 1" sodipodi:type="inkscape:persp3d" />
    <inkscape:perspective id="perspective2656" inkscape:persp3d-origin="372.04724 : 248.17356 : 1" inkscape:vp_z="744.09448 : 423.56726 : 1" inkscape:vp_y="0 : 1000 : 0" inkscape:vp_x="0 : 423.56726 : 1" sodipodi:type="inkscape:persp3d" />
  </defs>
</svg>
